<?xml version="1.0" encoding="utf-8" standalone="no"?>
<!DOCTYPE svg PUBLIC "-//W3C//DTD SVG 1.1//EN"
  "http://www.w3.org/Graphics/SVG/1.1/DTD/svg11.dtd">
<svg xmlns:xlink="http://www.w3.org/1999/xlink" width="864pt" height="216pt" viewBox="0 0 864 216" xmlns="http://www.w3.org/2000/svg" version="1.1">
 <metadata>
  <rdf:RDF xmlns:dc="http://purl.org/dc/elements/1.1/" xmlns:cc="http://creativecommons.org/ns#" xmlns:rdf="http://www.w3.org/1999/02/22-rdf-syntax-ns#">
   <cc:Work>
    <dc:type rdf:resource="http://purl.org/dc/dcmitype/StillImage"/>
    <dc:date>2024-05-03T08:53:25.164341</dc:date>
    <dc:format>image/svg+xml</dc:format>
    <dc:creator>
     <cc:Agent>
      <dc:title>Matplotlib v3.8.0, https://matplotlib.org/</dc:title>
     </cc:Agent>
    </dc:creator>
   </cc:Work>
  </rdf:RDF>
 </metadata>
 <defs>
  <style type="text/css">*{stroke-linejoin: round; stroke-linecap: butt}</style>
 </defs>
 <g id="figure_1">
  <g id="patch_1">
   <path d="M 0 216 
L 864 216 
L 864 0 
L 0 0 
z
" style="fill: #ffffff"/>
  </g>
  <g id="axes_1">
   <g id="patch_2">
    <path d="M 108 192.24 
L 777.6 192.24 
L 777.6 25.92 
L 108 25.92 
z
" style="fill: #eaeaf2"/>
   </g>
   <g id="matplotlib.axis_1">
    <g id="xtick_1">
     <g id="line2d_1">
      <path d="M 138.421145 192.24 
L 138.421145 25.92 
" clip-path="url(#p0355840489)" style="fill: none; stroke: #ffffff; stroke-linecap: round"/>
     </g>
     <g id="text_1">
      <!-- 0 -->
      <g style="fill: #262626" transform="translate(135.362629 209.613594) scale(0.11 -0.11)">
       <defs>
        <path id="ArialMT-30" d="M 266 2259 
Q 266 3072 433 3567 
Q 600 4063 929 4331 
Q 1259 4600 1759 4600 
Q 2128 4600 2406 4451 
Q 2684 4303 2865 4023 
Q 3047 3744 3150 3342 
Q 3253 2941 3253 2259 
Q 3253 1453 3087 958 
Q 2922 463 2592 192 
Q 2263 -78 1759 -78 
Q 1097 -78 719 397 
Q 266 969 266 2259 
z
M 844 2259 
Q 844 1131 1108 757 
Q 1372 384 1759 384 
Q 2147 384 2411 759 
Q 2675 1134 2675 2259 
Q 2675 3391 2411 3762 
Q 2147 4134 1753 4134 
Q 1366 4134 1134 3806 
Q 844 3388 844 2259 
z
" transform="scale(0.015625)"/>
       </defs>
       <use xlink:href="#ArialMT-30"/>
      </g>
     </g>
    </g>
    <g id="xtick_2">
     <g id="line2d_2">
      <path d="M 214.515859 192.24 
L 214.515859 25.92 
" clip-path="url(#p0355840489)" style="fill: none; stroke: #ffffff; stroke-linecap: round"/>
     </g>
     <g id="text_2">
      <!-- 5000 -->
      <g style="fill: #262626" transform="translate(202.281796 209.613594) scale(0.11 -0.11)">
       <defs>
        <path id="ArialMT-35" d="M 266 1200 
L 856 1250 
Q 922 819 1161 601 
Q 1400 384 1738 384 
Q 2144 384 2425 690 
Q 2706 997 2706 1503 
Q 2706 1984 2436 2262 
Q 2166 2541 1728 2541 
Q 1456 2541 1237 2417 
Q 1019 2294 894 2097 
L 366 2166 
L 809 4519 
L 3088 4519 
L 3088 3981 
L 1259 3981 
L 1013 2750 
Q 1425 3038 1878 3038 
Q 2478 3038 2890 2622 
Q 3303 2206 3303 1553 
Q 3303 931 2941 478 
Q 2500 -78 1738 -78 
Q 1113 -78 717 272 
Q 322 622 266 1200 
z
" transform="scale(0.015625)"/>
       </defs>
       <use xlink:href="#ArialMT-35"/>
       <use xlink:href="#ArialMT-30" x="55.615234"/>
       <use xlink:href="#ArialMT-30" x="111.230469"/>
       <use xlink:href="#ArialMT-30" x="166.845703"/>
      </g>
     </g>
    </g>
    <g id="xtick_3">
     <g id="line2d_3">
      <path d="M 290.610572 192.24 
L 290.610572 25.92 
" clip-path="url(#p0355840489)" style="fill: none; stroke: #ffffff; stroke-linecap: round"/>
     </g>
     <g id="text_3">
      <!-- 10000 -->
      <g style="fill: #262626" transform="translate(275.317994 209.613594) scale(0.11 -0.11)">
       <defs>
        <path id="ArialMT-31" d="M 2384 0 
L 1822 0 
L 1822 3584 
Q 1619 3391 1289 3197 
Q 959 3003 697 2906 
L 697 3450 
Q 1169 3672 1522 3987 
Q 1875 4303 2022 4600 
L 2384 4600 
L 2384 0 
z
" transform="scale(0.015625)"/>
       </defs>
       <use xlink:href="#ArialMT-31"/>
       <use xlink:href="#ArialMT-30" x="55.615234"/>
       <use xlink:href="#ArialMT-30" x="111.230469"/>
       <use xlink:href="#ArialMT-30" x="166.845703"/>
       <use xlink:href="#ArialMT-30" x="222.460938"/>
      </g>
     </g>
    </g>
    <g id="xtick_4">
     <g id="line2d_4">
      <path d="M 366.705286 192.24 
L 366.705286 25.92 
" clip-path="url(#p0355840489)" style="fill: none; stroke: #ffffff; stroke-linecap: round"/>
     </g>
     <g id="text_4">
      <!-- 15000 -->
      <g style="fill: #262626" transform="translate(351.412708 209.613594) scale(0.11 -0.11)">
       <use xlink:href="#ArialMT-31"/>
       <use xlink:href="#ArialMT-35" x="55.615234"/>
       <use xlink:href="#ArialMT-30" x="111.230469"/>
       <use xlink:href="#ArialMT-30" x="166.845703"/>
       <use xlink:href="#ArialMT-30" x="222.460938"/>
      </g>
     </g>
    </g>
    <g id="xtick_5">
     <g id="line2d_5">
      <path d="M 442.8 192.24 
L 442.8 25.92 
" clip-path="url(#p0355840489)" style="fill: none; stroke: #ffffff; stroke-linecap: round"/>
     </g>
     <g id="text_5">
      <!-- 20000 -->
      <g style="fill: #262626" transform="translate(427.507422 209.613594) scale(0.11 -0.11)">
       <defs>
        <path id="ArialMT-32" d="M 3222 541 
L 3222 0 
L 194 0 
Q 188 203 259 391 
Q 375 700 629 1000 
Q 884 1300 1366 1694 
Q 2113 2306 2375 2664 
Q 2638 3022 2638 3341 
Q 2638 3675 2398 3904 
Q 2159 4134 1775 4134 
Q 1369 4134 1125 3890 
Q 881 3647 878 3216 
L 300 3275 
Q 359 3922 746 4261 
Q 1134 4600 1788 4600 
Q 2447 4600 2831 4234 
Q 3216 3869 3216 3328 
Q 3216 3053 3103 2787 
Q 2991 2522 2730 2228 
Q 2469 1934 1863 1422 
Q 1356 997 1212 845 
Q 1069 694 975 541 
L 3222 541 
z
" transform="scale(0.015625)"/>
       </defs>
       <use xlink:href="#ArialMT-32"/>
       <use xlink:href="#ArialMT-30" x="55.615234"/>
       <use xlink:href="#ArialMT-30" x="111.230469"/>
       <use xlink:href="#ArialMT-30" x="166.845703"/>
       <use xlink:href="#ArialMT-30" x="222.460938"/>
      </g>
     </g>
    </g>
    <g id="xtick_6">
     <g id="line2d_6">
      <path d="M 518.894714 192.24 
L 518.894714 25.92 
" clip-path="url(#p0355840489)" style="fill: none; stroke: #ffffff; stroke-linecap: round"/>
     </g>
     <g id="text_6">
      <!-- 25000 -->
      <g style="fill: #262626" transform="translate(503.602136 209.613594) scale(0.11 -0.11)">
       <use xlink:href="#ArialMT-32"/>
       <use xlink:href="#ArialMT-35" x="55.615234"/>
       <use xlink:href="#ArialMT-30" x="111.230469"/>
       <use xlink:href="#ArialMT-30" x="166.845703"/>
       <use xlink:href="#ArialMT-30" x="222.460938"/>
      </g>
     </g>
    </g>
    <g id="xtick_7">
     <g id="line2d_7">
      <path d="M 594.989428 192.24 
L 594.989428 25.92 
" clip-path="url(#p0355840489)" style="fill: none; stroke: #ffffff; stroke-linecap: round"/>
     </g>
     <g id="text_7">
      <!-- 30000 -->
      <g style="fill: #262626" transform="translate(579.69685 209.613594) scale(0.11 -0.11)">
       <defs>
        <path id="ArialMT-33" d="M 269 1209 
L 831 1284 
Q 928 806 1161 595 
Q 1394 384 1728 384 
Q 2125 384 2398 659 
Q 2672 934 2672 1341 
Q 2672 1728 2419 1979 
Q 2166 2231 1775 2231 
Q 1616 2231 1378 2169 
L 1441 2663 
Q 1497 2656 1531 2656 
Q 1891 2656 2178 2843 
Q 2466 3031 2466 3422 
Q 2466 3731 2256 3934 
Q 2047 4138 1716 4138 
Q 1388 4138 1169 3931 
Q 950 3725 888 3313 
L 325 3413 
Q 428 3978 793 4289 
Q 1159 4600 1703 4600 
Q 2078 4600 2393 4439 
Q 2709 4278 2876 4000 
Q 3044 3722 3044 3409 
Q 3044 3113 2884 2869 
Q 2725 2625 2413 2481 
Q 2819 2388 3044 2092 
Q 3269 1797 3269 1353 
Q 3269 753 2831 336 
Q 2394 -81 1725 -81 
Q 1122 -81 723 278 
Q 325 638 269 1209 
z
" transform="scale(0.015625)"/>
       </defs>
       <use xlink:href="#ArialMT-33"/>
       <use xlink:href="#ArialMT-30" x="55.615234"/>
       <use xlink:href="#ArialMT-30" x="111.230469"/>
       <use xlink:href="#ArialMT-30" x="166.845703"/>
       <use xlink:href="#ArialMT-30" x="222.460938"/>
      </g>
     </g>
    </g>
    <g id="xtick_8">
     <g id="line2d_8">
      <path d="M 671.084141 192.24 
L 671.084141 25.92 
" clip-path="url(#p0355840489)" style="fill: none; stroke: #ffffff; stroke-linecap: round"/>
     </g>
     <g id="text_8">
      <!-- 35000 -->
      <g style="fill: #262626" transform="translate(655.791563 209.613594) scale(0.11 -0.11)">
       <use xlink:href="#ArialMT-33"/>
       <use xlink:href="#ArialMT-35" x="55.615234"/>
       <use xlink:href="#ArialMT-30" x="111.230469"/>
       <use xlink:href="#ArialMT-30" x="166.845703"/>
       <use xlink:href="#ArialMT-30" x="222.460938"/>
      </g>
     </g>
    </g>
    <g id="xtick_9">
     <g id="line2d_9">
      <path d="M 747.178855 192.24 
L 747.178855 25.92 
" clip-path="url(#p0355840489)" style="fill: none; stroke: #ffffff; stroke-linecap: round"/>
     </g>
     <g id="text_9">
      <!-- 40000 -->
      <g style="fill: #262626" transform="translate(731.886277 209.613594) scale(0.11 -0.11)">
       <defs>
        <path id="ArialMT-34" d="M 2069 0 
L 2069 1097 
L 81 1097 
L 81 1613 
L 2172 4581 
L 2631 4581 
L 2631 1613 
L 3250 1613 
L 3250 1097 
L 2631 1097 
L 2631 0 
L 2069 0 
z
M 2069 1613 
L 2069 3678 
L 634 1613 
L 2069 1613 
z
" transform="scale(0.015625)"/>
       </defs>
       <use xlink:href="#ArialMT-34"/>
       <use xlink:href="#ArialMT-30" x="55.615234"/>
       <use xlink:href="#ArialMT-30" x="111.230469"/>
       <use xlink:href="#ArialMT-30" x="166.845703"/>
       <use xlink:href="#ArialMT-30" x="222.460938"/>
      </g>
     </g>
    </g>
    <g id="text_10">
     <!-- Generation -->
     <g style="fill: #262626" transform="translate(413.115938 224.389219) scale(0.12 -0.12)">
      <defs>
       <path id="ArialMT-47" d="M 2638 1797 
L 2638 2334 
L 4578 2338 
L 4578 638 
Q 4131 281 3656 101 
Q 3181 -78 2681 -78 
Q 2006 -78 1454 211 
Q 903 500 622 1047 
Q 341 1594 341 2269 
Q 341 2938 620 3517 
Q 900 4097 1425 4378 
Q 1950 4659 2634 4659 
Q 3131 4659 3532 4498 
Q 3934 4338 4162 4050 
Q 4391 3763 4509 3300 
L 3963 3150 
Q 3859 3500 3706 3700 
Q 3553 3900 3268 4020 
Q 2984 4141 2638 4141 
Q 2222 4141 1919 4014 
Q 1616 3888 1430 3681 
Q 1244 3475 1141 3228 
Q 966 2803 966 2306 
Q 966 1694 1177 1281 
Q 1388 869 1791 669 
Q 2194 469 2647 469 
Q 3041 469 3416 620 
Q 3791 772 3984 944 
L 3984 1797 
L 2638 1797 
z
" transform="scale(0.015625)"/>
       <path id="ArialMT-65" d="M 2694 1069 
L 3275 997 
Q 3138 488 2766 206 
Q 2394 -75 1816 -75 
Q 1088 -75 661 373 
Q 234 822 234 1631 
Q 234 2469 665 2931 
Q 1097 3394 1784 3394 
Q 2450 3394 2872 2941 
Q 3294 2488 3294 1666 
Q 3294 1616 3291 1516 
L 816 1516 
Q 847 969 1125 678 
Q 1403 388 1819 388 
Q 2128 388 2347 550 
Q 2566 713 2694 1069 
z
M 847 1978 
L 2700 1978 
Q 2663 2397 2488 2606 
Q 2219 2931 1791 2931 
Q 1403 2931 1139 2672 
Q 875 2413 847 1978 
z
" transform="scale(0.015625)"/>
       <path id="ArialMT-6e" d="M 422 0 
L 422 3319 
L 928 3319 
L 928 2847 
Q 1294 3394 1984 3394 
Q 2284 3394 2536 3286 
Q 2788 3178 2913 3003 
Q 3038 2828 3088 2588 
Q 3119 2431 3119 2041 
L 3119 0 
L 2556 0 
L 2556 2019 
Q 2556 2363 2490 2533 
Q 2425 2703 2258 2804 
Q 2091 2906 1866 2906 
Q 1506 2906 1245 2678 
Q 984 2450 984 1813 
L 984 0 
L 422 0 
z
" transform="scale(0.015625)"/>
       <path id="ArialMT-72" d="M 416 0 
L 416 3319 
L 922 3319 
L 922 2816 
Q 1116 3169 1280 3281 
Q 1444 3394 1641 3394 
Q 1925 3394 2219 3213 
L 2025 2691 
Q 1819 2813 1613 2813 
Q 1428 2813 1281 2702 
Q 1134 2591 1072 2394 
Q 978 2094 978 1738 
L 978 0 
L 416 0 
z
" transform="scale(0.015625)"/>
       <path id="ArialMT-61" d="M 2588 409 
Q 2275 144 1986 34 
Q 1697 -75 1366 -75 
Q 819 -75 525 192 
Q 231 459 231 875 
Q 231 1119 342 1320 
Q 453 1522 633 1644 
Q 813 1766 1038 1828 
Q 1203 1872 1538 1913 
Q 2219 1994 2541 2106 
Q 2544 2222 2544 2253 
Q 2544 2597 2384 2738 
Q 2169 2928 1744 2928 
Q 1347 2928 1158 2789 
Q 969 2650 878 2297 
L 328 2372 
Q 403 2725 575 2942 
Q 747 3159 1072 3276 
Q 1397 3394 1825 3394 
Q 2250 3394 2515 3294 
Q 2781 3194 2906 3042 
Q 3031 2891 3081 2659 
Q 3109 2516 3109 2141 
L 3109 1391 
Q 3109 606 3145 398 
Q 3181 191 3288 0 
L 2700 0 
Q 2613 175 2588 409 
z
M 2541 1666 
Q 2234 1541 1622 1453 
Q 1275 1403 1131 1340 
Q 988 1278 909 1158 
Q 831 1038 831 891 
Q 831 666 1001 516 
Q 1172 366 1500 366 
Q 1825 366 2078 508 
Q 2331 650 2450 897 
Q 2541 1088 2541 1459 
L 2541 1666 
z
" transform="scale(0.015625)"/>
       <path id="ArialMT-74" d="M 1650 503 
L 1731 6 
Q 1494 -44 1306 -44 
Q 1000 -44 831 53 
Q 663 150 594 308 
Q 525 466 525 972 
L 525 2881 
L 113 2881 
L 113 3319 
L 525 3319 
L 525 4141 
L 1084 4478 
L 1084 3319 
L 1650 3319 
L 1650 2881 
L 1084 2881 
L 1084 941 
Q 1084 700 1114 631 
Q 1144 563 1211 522 
Q 1278 481 1403 481 
Q 1497 481 1650 503 
z
" transform="scale(0.015625)"/>
       <path id="ArialMT-69" d="M 425 3934 
L 425 4581 
L 988 4581 
L 988 3934 
L 425 3934 
z
M 425 0 
L 425 3319 
L 988 3319 
L 988 0 
L 425 0 
z
" transform="scale(0.015625)"/>
       <path id="ArialMT-6f" d="M 213 1659 
Q 213 2581 725 3025 
Q 1153 3394 1769 3394 
Q 2453 3394 2887 2945 
Q 3322 2497 3322 1706 
Q 3322 1066 3130 698 
Q 2938 331 2570 128 
Q 2203 -75 1769 -75 
Q 1072 -75 642 372 
Q 213 819 213 1659 
z
M 791 1659 
Q 791 1022 1069 705 
Q 1347 388 1769 388 
Q 2188 388 2466 706 
Q 2744 1025 2744 1678 
Q 2744 2294 2464 2611 
Q 2184 2928 1769 2928 
Q 1347 2928 1069 2612 
Q 791 2297 791 1659 
z
" transform="scale(0.015625)"/>
      </defs>
      <use xlink:href="#ArialMT-47"/>
      <use xlink:href="#ArialMT-65" x="77.783203"/>
      <use xlink:href="#ArialMT-6e" x="133.398438"/>
      <use xlink:href="#ArialMT-65" x="189.013672"/>
      <use xlink:href="#ArialMT-72" x="244.628906"/>
      <use xlink:href="#ArialMT-61" x="277.929688"/>
      <use xlink:href="#ArialMT-74" x="333.544922"/>
      <use xlink:href="#ArialMT-69" x="361.328125"/>
      <use xlink:href="#ArialMT-6f" x="383.544922"/>
      <use xlink:href="#ArialMT-6e" x="439.160156"/>
     </g>
    </g>
   </g>
   <g id="matplotlib.axis_2">
    <g id="ytick_1">
     <g id="line2d_10">
      <path d="M 108 192.24 
L 777.6 192.24 
" clip-path="url(#p0355840489)" style="fill: none; stroke: #ffffff; stroke-linecap: round"/>
     </g>
     <g id="text_11">
      <!-- 0.4 -->
      <g style="fill: #262626" transform="translate(83.21 196.176797) scale(0.11 -0.11)">
       <defs>
        <path id="ArialMT-2e" d="M 581 0 
L 581 641 
L 1222 641 
L 1222 0 
L 581 0 
z
" transform="scale(0.015625)"/>
       </defs>
       <use xlink:href="#ArialMT-30"/>
       <use xlink:href="#ArialMT-2e" x="55.615234"/>
       <use xlink:href="#ArialMT-34" x="83.398438"/>
      </g>
     </g>
    </g>
    <g id="ytick_2">
     <g id="line2d_11">
      <path d="M 108 166.652308 
L 777.6 166.652308 
" clip-path="url(#p0355840489)" style="fill: none; stroke: #ffffff; stroke-linecap: round"/>
     </g>
     <g id="text_12">
      <!-- 0.5 -->
      <g style="fill: #262626" transform="translate(83.21 170.589105) scale(0.11 -0.11)">
       <use xlink:href="#ArialMT-30"/>
       <use xlink:href="#ArialMT-2e" x="55.615234"/>
       <use xlink:href="#ArialMT-35" x="83.398438"/>
      </g>
     </g>
    </g>
    <g id="ytick_3">
     <g id="line2d_12">
      <path d="M 108 141.064615 
L 777.6 141.064615 
" clip-path="url(#p0355840489)" style="fill: none; stroke: #ffffff; stroke-linecap: round"/>
     </g>
     <g id="text_13">
      <!-- 0.6 -->
      <g style="fill: #262626" transform="translate(83.21 145.001412) scale(0.11 -0.11)">
       <defs>
        <path id="ArialMT-36" d="M 3184 3459 
L 2625 3416 
Q 2550 3747 2413 3897 
Q 2184 4138 1850 4138 
Q 1581 4138 1378 3988 
Q 1113 3794 959 3422 
Q 806 3050 800 2363 
Q 1003 2672 1297 2822 
Q 1591 2972 1913 2972 
Q 2475 2972 2870 2558 
Q 3266 2144 3266 1488 
Q 3266 1056 3080 686 
Q 2894 316 2569 119 
Q 2244 -78 1831 -78 
Q 1128 -78 684 439 
Q 241 956 241 2144 
Q 241 3472 731 4075 
Q 1159 4600 1884 4600 
Q 2425 4600 2770 4297 
Q 3116 3994 3184 3459 
z
M 888 1484 
Q 888 1194 1011 928 
Q 1134 663 1356 523 
Q 1578 384 1822 384 
Q 2178 384 2434 671 
Q 2691 959 2691 1453 
Q 2691 1928 2437 2201 
Q 2184 2475 1800 2475 
Q 1419 2475 1153 2201 
Q 888 1928 888 1484 
z
" transform="scale(0.015625)"/>
       </defs>
       <use xlink:href="#ArialMT-30"/>
       <use xlink:href="#ArialMT-2e" x="55.615234"/>
       <use xlink:href="#ArialMT-36" x="83.398438"/>
      </g>
     </g>
    </g>
    <g id="ytick_4">
     <g id="line2d_13">
      <path d="M 108 115.476923 
L 777.6 115.476923 
" clip-path="url(#p0355840489)" style="fill: none; stroke: #ffffff; stroke-linecap: round"/>
     </g>
     <g id="text_14">
      <!-- 0.7 -->
      <g style="fill: #262626" transform="translate(83.21 119.41372) scale(0.11 -0.11)">
       <defs>
        <path id="ArialMT-37" d="M 303 3981 
L 303 4522 
L 3269 4522 
L 3269 4084 
Q 2831 3619 2401 2847 
Q 1972 2075 1738 1259 
Q 1569 684 1522 0 
L 944 0 
Q 953 541 1156 1306 
Q 1359 2072 1739 2783 
Q 2119 3494 2547 3981 
L 303 3981 
z
" transform="scale(0.015625)"/>
       </defs>
       <use xlink:href="#ArialMT-30"/>
       <use xlink:href="#ArialMT-2e" x="55.615234"/>
       <use xlink:href="#ArialMT-37" x="83.398438"/>
      </g>
     </g>
    </g>
    <g id="ytick_5">
     <g id="line2d_14">
      <path d="M 108 89.889231 
L 777.6 89.889231 
" clip-path="url(#p0355840489)" style="fill: none; stroke: #ffffff; stroke-linecap: round"/>
     </g>
     <g id="text_15">
      <!-- 0.8 -->
      <g style="fill: #262626" transform="translate(83.21 93.826028) scale(0.11 -0.11)">
       <defs>
        <path id="ArialMT-38" d="M 1131 2484 
Q 781 2613 612 2850 
Q 444 3088 444 3419 
Q 444 3919 803 4259 
Q 1163 4600 1759 4600 
Q 2359 4600 2725 4251 
Q 3091 3903 3091 3403 
Q 3091 3084 2923 2848 
Q 2756 2613 2416 2484 
Q 2838 2347 3058 2040 
Q 3278 1734 3278 1309 
Q 3278 722 2862 322 
Q 2447 -78 1769 -78 
Q 1091 -78 675 323 
Q 259 725 259 1325 
Q 259 1772 486 2073 
Q 713 2375 1131 2484 
z
M 1019 3438 
Q 1019 3113 1228 2906 
Q 1438 2700 1772 2700 
Q 2097 2700 2305 2904 
Q 2513 3109 2513 3406 
Q 2513 3716 2298 3927 
Q 2084 4138 1766 4138 
Q 1444 4138 1231 3931 
Q 1019 3725 1019 3438 
z
M 838 1322 
Q 838 1081 952 856 
Q 1066 631 1291 507 
Q 1516 384 1775 384 
Q 2178 384 2440 643 
Q 2703 903 2703 1303 
Q 2703 1709 2433 1975 
Q 2163 2241 1756 2241 
Q 1359 2241 1098 1978 
Q 838 1716 838 1322 
z
" transform="scale(0.015625)"/>
       </defs>
       <use xlink:href="#ArialMT-30"/>
       <use xlink:href="#ArialMT-2e" x="55.615234"/>
       <use xlink:href="#ArialMT-38" x="83.398438"/>
      </g>
     </g>
    </g>
    <g id="ytick_6">
     <g id="line2d_15">
      <path d="M 108 64.301538 
L 777.6 64.301538 
" clip-path="url(#p0355840489)" style="fill: none; stroke: #ffffff; stroke-linecap: round"/>
     </g>
     <g id="text_16">
      <!-- 0.9 -->
      <g style="fill: #262626" transform="translate(83.21 68.238335) scale(0.11 -0.11)">
       <defs>
        <path id="ArialMT-39" d="M 350 1059 
L 891 1109 
Q 959 728 1153 556 
Q 1347 384 1650 384 
Q 1909 384 2104 503 
Q 2300 622 2425 820 
Q 2550 1019 2634 1356 
Q 2719 1694 2719 2044 
Q 2719 2081 2716 2156 
Q 2547 1888 2255 1720 
Q 1963 1553 1622 1553 
Q 1053 1553 659 1965 
Q 266 2378 266 3053 
Q 266 3750 677 4175 
Q 1088 4600 1706 4600 
Q 2153 4600 2523 4359 
Q 2894 4119 3086 3673 
Q 3278 3228 3278 2384 
Q 3278 1506 3087 986 
Q 2897 466 2520 194 
Q 2144 -78 1638 -78 
Q 1100 -78 759 220 
Q 419 519 350 1059 
z
M 2653 3081 
Q 2653 3566 2395 3850 
Q 2138 4134 1775 4134 
Q 1400 4134 1122 3828 
Q 844 3522 844 3034 
Q 844 2597 1108 2323 
Q 1372 2050 1759 2050 
Q 2150 2050 2401 2323 
Q 2653 2597 2653 3081 
z
" transform="scale(0.015625)"/>
       </defs>
       <use xlink:href="#ArialMT-30"/>
       <use xlink:href="#ArialMT-2e" x="55.615234"/>
       <use xlink:href="#ArialMT-39" x="83.398438"/>
      </g>
     </g>
    </g>
    <g id="ytick_7">
     <g id="line2d_16">
      <path d="M 108 38.713846 
L 777.6 38.713846 
" clip-path="url(#p0355840489)" style="fill: none; stroke: #ffffff; stroke-linecap: round"/>
     </g>
     <g id="text_17">
      <!-- 1.0 -->
      <g style="fill: #262626" transform="translate(83.21 42.650643) scale(0.11 -0.11)">
       <use xlink:href="#ArialMT-31"/>
       <use xlink:href="#ArialMT-2e" x="55.615234"/>
       <use xlink:href="#ArialMT-30" x="83.398438"/>
      </g>
     </g>
    </g>
    <g id="text_18">
     <!-- Fitness -->
     <g style="fill: #262626" transform="translate(76.825 128.417812) rotate(-90) scale(0.12 -0.12)">
      <defs>
       <path id="ArialMT-46" d="M 525 0 
L 525 4581 
L 3616 4581 
L 3616 4041 
L 1131 4041 
L 1131 2622 
L 3281 2622 
L 3281 2081 
L 1131 2081 
L 1131 0 
L 525 0 
z
" transform="scale(0.015625)"/>
       <path id="ArialMT-73" d="M 197 991 
L 753 1078 
Q 800 744 1014 566 
Q 1228 388 1613 388 
Q 2000 388 2187 545 
Q 2375 703 2375 916 
Q 2375 1106 2209 1216 
Q 2094 1291 1634 1406 
Q 1016 1563 777 1677 
Q 538 1791 414 1992 
Q 291 2194 291 2438 
Q 291 2659 392 2848 
Q 494 3038 669 3163 
Q 800 3259 1026 3326 
Q 1253 3394 1513 3394 
Q 1903 3394 2198 3281 
Q 2494 3169 2634 2976 
Q 2775 2784 2828 2463 
L 2278 2388 
Q 2241 2644 2061 2787 
Q 1881 2931 1553 2931 
Q 1166 2931 1000 2803 
Q 834 2675 834 2503 
Q 834 2394 903 2306 
Q 972 2216 1119 2156 
Q 1203 2125 1616 2013 
Q 2213 1853 2448 1751 
Q 2684 1650 2818 1456 
Q 2953 1263 2953 975 
Q 2953 694 2789 445 
Q 2625 197 2315 61 
Q 2006 -75 1616 -75 
Q 969 -75 630 194 
Q 291 463 197 991 
z
" transform="scale(0.015625)"/>
      </defs>
      <use xlink:href="#ArialMT-46"/>
      <use xlink:href="#ArialMT-69" x="61.083984"/>
      <use xlink:href="#ArialMT-74" x="83.300781"/>
      <use xlink:href="#ArialMT-6e" x="111.083984"/>
      <use xlink:href="#ArialMT-65" x="166.699219"/>
      <use xlink:href="#ArialMT-73" x="222.314453"/>
      <use xlink:href="#ArialMT-73" x="272.314453"/>
     </g>
    </g>
   </g>
   <g id="line2d_17">
    <path d="M 138.436364 185.843077 
L 138.710305 141.064615 
L 139.014683 134.667692 
L 139.623441 134.667692 
L 139.92782 118.675385 
L 140.840957 118.675385 
L 141.145335 102.683077 
L 143.884745 102.683077 
L 144.189124 86.690769 
L 144.493503 102.683077 
L 145.102261 102.683077 
L 145.406639 86.690769 
L 145.711018 102.683077 
L 147.232913 102.683077 
L 147.537291 86.690769 
L 148.146049 86.690769 
L 148.450428 102.683077 
L 150.276701 102.683077 
L 150.58108 70.698462 
L 150.885459 86.690769 
L 151.189838 70.698462 
L 151.494217 86.690769 
L 151.798595 70.698462 
L 152.407353 70.698462 
L 152.711732 86.690769 
L 153.016111 70.698462 
L 153.32049 86.690769 
L 153.624869 70.698462 
L 154.842384 70.698462 
L 155.146763 102.683077 
L 155.451142 70.698462 
L 155.755521 86.690769 
L 156.059899 70.698462 
L 156.668657 70.698462 
L 156.973036 54.706154 
L 157.277415 86.690769 
L 157.581794 70.698462 
L 159.712446 70.698462 
L 160.016824 102.683077 
L 160.321203 70.698462 
L 160.625582 102.683077 
L 160.929961 70.698462 
L 161.23434 86.690769 
L 161.538719 70.698462 
L 162.147476 70.698462 
L 162.451855 54.706154 
L 163.060613 86.690769 
L 163.364992 70.698462 
L 163.669371 70.698462 
L 163.97375 102.683077 
L 164.278128 70.698462 
L 164.582507 86.690769 
L 164.886886 70.698462 
L 165.191265 86.690769 
L 165.495644 70.698462 
L 165.800023 70.698462 
L 166.104402 86.690769 
L 166.40878 70.698462 
L 169.452569 70.698462 
L 169.756948 54.706154 
L 170.061327 70.698462 
L 170.670084 70.698462 
L 170.974463 86.690769 
L 171.278842 70.698462 
L 171.583221 86.690769 
L 171.8876 70.698462 
L 172.191979 86.690769 
L 172.496358 70.698462 
L 172.800736 102.683077 
L 173.105115 102.683077 
L 173.409494 70.698462 
L 174.018252 102.683077 
L 174.322631 86.690769 
L 174.62701 86.690769 
L 174.931388 70.698462 
L 175.235767 86.690769 
L 175.540146 70.698462 
L 175.844525 86.690769 
L 176.148904 70.698462 
L 176.453283 86.690769 
L 176.757662 70.698462 
L 177.366419 102.683077 
L 177.670798 70.698462 
L 177.975177 86.690769 
L 178.279556 70.698462 
L 178.583935 70.698462 
L 179.192692 102.683077 
L 184.062754 102.683077 
L 184.367133 86.690769 
L 184.975891 86.690769 
L 185.280269 102.683077 
L 185.584648 86.690769 
L 186.193406 86.690769 
L 186.497785 102.683077 
L 187.7153 102.683077 
L 188.019679 86.690769 
L 188.324058 102.683077 
L 190.150331 102.683077 
L 190.45471 86.690769 
L 190.759089 102.683077 
L 191.063468 86.690769 
L 191.367847 102.683077 
L 191.672225 86.690769 
L 191.976604 102.683077 
L 193.19412 102.683077 
L 193.498499 86.690769 
L 193.802877 102.683077 
L 194.716014 102.683077 
L 195.020393 86.690769 
L 195.324772 102.683077 
L 195.629151 102.683077 
L 195.933529 86.690769 
L 196.237908 102.683077 
L 196.542287 86.690769 
L 196.846666 102.683077 
L 197.151045 86.690769 
L 197.455424 102.683077 
L 197.759803 86.690769 
L 198.064181 102.683077 
L 198.36856 86.690769 
L 198.977318 86.690769 
L 199.281697 102.683077 
L 199.586076 86.690769 
L 201.716728 86.690769 
L 202.021107 70.698462 
L 202.325485 86.690769 
L 202.629864 70.698462 
L 202.934243 86.690769 
L 203.238622 70.698462 
L 207.195547 70.698462 
L 207.499926 54.706154 
L 207.804305 70.698462 
L 208.413062 70.698462 
L 208.717441 54.706154 
L 209.02182 86.690769 
L 209.630578 86.690769 
L 209.934957 70.698462 
L 210.239336 102.683077 
L 210.543714 70.698462 
L 211.456851 70.698462 
L 211.76123 86.690769 
L 212.065609 70.698462 
L 214.805018 70.698462 
L 215.109397 86.690769 
L 215.413776 70.698462 
L 218.153186 70.698462 
L 218.457565 86.690769 
L 218.761944 86.690769 
L 219.066322 70.698462 
L 219.370701 86.690769 
L 219.67508 70.698462 
L 219.979459 86.690769 
L 233.676507 86.690769 
L 233.980886 70.698462 
L 234.285265 86.690769 
L 234.589644 70.698462 
L 234.894023 70.698462 
L 235.198402 102.683077 
L 235.502781 54.706154 
L 235.807159 70.698462 
L 240.068463 70.698462 
L 240.372842 54.706154 
L 240.677221 70.698462 
L 245.547283 70.698462 
L 245.851662 54.706154 
L 246.156041 70.698462 
L 257.418058 70.698462 
L 257.722437 102.683077 
L 258.026816 70.698462 
L 318.293829 70.698462 
L 318.598208 102.683077 
L 321.641997 102.683077 
L 322.250754 70.698462 
L 323.46827 70.698462 
L 323.772649 54.706154 
L 324.077027 70.698462 
L 324.381406 54.706154 
L 324.685785 70.698462 
L 324.990164 54.706154 
L 325.294543 70.698462 
L 325.598922 54.706154 
L 325.903301 70.698462 
L 326.207679 54.706154 
L 326.512058 70.698462 
L 326.816437 54.706154 
L 327.120816 70.698462 
L 327.425195 54.706154 
L 327.729574 70.698462 
L 328.033953 38.713846 
L 328.338331 70.698462 
L 328.64271 38.713846 
L 328.947089 70.698462 
L 329.251468 38.713846 
L 329.555847 70.698462 
L 329.860226 38.713846 
L 330.164605 70.698462 
L 330.468983 38.713846 
L 330.773362 70.698462 
L 331.077741 38.713846 
L 331.38212 70.698462 
L 331.686499 38.713846 
L 331.990878 70.698462 
L 332.295257 38.713846 
L 332.599635 70.698462 
L 332.904014 38.713846 
L 333.208393 70.698462 
L 333.512772 38.713846 
L 333.817151 70.698462 
L 334.12153 38.713846 
L 334.425909 70.698462 
L 334.730287 38.713846 
L 335.034666 70.698462 
L 335.339045 38.713846 
L 335.643424 70.698462 
L 335.947803 38.713846 
L 336.252182 70.698462 
L 336.556561 38.713846 
L 336.860939 70.698462 
L 337.165318 38.713846 
L 337.469697 70.698462 
L 337.774076 38.713846 
L 338.078455 70.698462 
L 338.382834 38.713846 
L 338.687213 70.698462 
L 350.862367 70.698462 
L 351.166746 38.713846 
L 351.471124 70.698462 
L 351.775503 38.713846 
L 352.079882 70.698462 
L 352.384261 38.713846 
L 352.68864 70.698462 
L 358.167459 70.698462 
L 358.471838 38.713846 
L 358.776217 70.698462 
L 359.080596 38.713846 
L 359.384975 70.698462 
L 359.689354 38.713846 
L 359.993732 70.698462 
L 360.298111 38.713846 
L 360.60249 70.698462 
L 360.906869 38.713846 
L 361.211248 70.698462 
L 361.515627 38.713846 
L 361.820006 70.698462 
L 362.124384 38.713846 
L 362.428763 70.698462 
L 362.733142 38.713846 
L 363.037521 70.698462 
L 363.3419 38.713846 
L 363.646279 70.698462 
L 363.950658 38.713846 
L 364.255036 70.698462 
L 364.559415 38.713846 
L 364.863794 70.698462 
L 365.168173 38.713846 
L 365.472552 70.698462 
L 367.298825 70.698462 
L 367.603204 38.713846 
L 367.907583 70.698462 
L 368.211962 38.713846 
L 368.51634 70.698462 
L 369.125098 70.698462 
L 369.429477 38.713846 
L 369.733856 70.698462 
L 370.038235 38.713846 
L 370.342613 70.698462 
L 370.646992 38.713846 
L 370.951371 70.698462 
L 371.25575 38.713846 
L 371.560129 70.698462 
L 371.864508 38.713846 
L 372.168887 70.698462 
L 372.473265 38.713846 
L 372.777644 70.698462 
L 373.082023 38.713846 
L 373.386402 70.698462 
L 373.690781 38.713846 
L 373.99516 70.698462 
L 374.299539 38.713846 
L 374.603917 70.698462 
L 374.908296 38.713846 
L 375.212675 70.698462 
L 375.517054 38.713846 
L 375.821433 70.698462 
L 376.125812 38.713846 
L 376.430191 70.698462 
L 376.734569 38.713846 
L 377.038948 70.698462 
L 377.647706 70.698462 
L 377.952085 38.713846 
L 378.256464 70.698462 
L 378.560843 38.713846 
L 378.865221 70.698462 
L 379.1696 38.713846 
L 379.473979 70.698462 
L 379.778358 38.713846 
L 380.082737 70.698462 
L 380.387116 38.713846 
L 380.691495 70.698462 
L 380.995873 38.713846 
L 381.300252 70.698462 
L 381.604631 38.713846 
L 381.90901 70.698462 
L 382.213389 38.713846 
L 382.517768 70.698462 
L 382.822147 38.713846 
L 383.126525 70.698462 
L 383.430904 38.713846 
L 383.735283 70.698462 
L 384.952799 70.698462 
L 385.257177 38.713846 
L 385.561556 70.698462 
L 389.518481 70.698462 
L 389.82286 118.675385 
L 390.127239 70.698462 
L 391.649133 70.698462 
L 391.953512 38.713846 
L 392.257891 70.698462 
L 394.692922 70.698462 
L 394.997301 38.713846 
L 395.30168 70.698462 
L 395.606058 38.713846 
L 395.910437 70.698462 
L 396.519195 70.698462 
L 396.823574 38.713846 
L 397.127953 70.698462 
L 397.432332 38.713846 
L 397.73671 70.698462 
L 398.041089 38.713846 
L 398.345468 70.698462 
L 398.649847 38.713846 
L 398.954226 70.698462 
L 399.258605 38.713846 
L 399.562984 70.698462 
L 399.867362 38.713846 
L 400.171741 70.698462 
L 400.47612 38.713846 
L 400.780499 70.698462 
L 401.084878 38.713846 
L 401.389257 70.698462 
L 401.693636 38.713846 
L 401.998014 70.698462 
L 402.302393 38.713846 
L 402.606772 70.698462 
L 402.911151 38.713846 
L 403.21553 70.698462 
L 403.519909 38.713846 
L 403.824288 70.698462 
L 404.128666 38.713846 
L 404.433045 70.698462 
L 404.737424 38.713846 
L 405.041803 70.698462 
L 405.346182 38.713846 
L 405.650561 70.698462 
L 405.95494 38.713846 
L 406.259318 70.698462 
L 406.563697 38.713846 
L 406.868076 70.698462 
L 407.172455 38.713846 
L 407.476834 70.698462 
L 407.781213 38.713846 
L 408.085592 70.698462 
L 408.38997 38.713846 
L 408.694349 70.698462 
L 408.998728 38.713846 
L 409.303107 70.698462 
L 409.607486 38.713846 
L 409.911865 70.698462 
L 410.216244 38.713846 
L 410.520622 70.698462 
L 410.825001 38.713846 
L 411.12938 70.698462 
L 411.433759 38.713846 
L 411.738138 70.698462 
L 412.042517 38.713846 
L 412.346896 70.698462 
L 412.651274 38.713846 
L 412.955653 70.698462 
L 413.260032 38.713846 
L 413.564411 70.698462 
L 413.86879 38.713846 
L 414.173169 70.698462 
L 414.477548 38.713846 
L 414.781926 70.698462 
L 415.086305 38.713846 
L 415.390684 70.698462 
L 415.695063 38.713846 
L 415.999442 70.698462 
L 416.6082 70.698462 
L 416.912578 38.713846 
L 417.216957 70.698462 
L 417.521336 38.713846 
L 417.825715 70.698462 
L 418.130094 38.713846 
L 418.434473 70.698462 
L 418.738851 38.713846 
L 419.04323 70.698462 
L 431.827142 70.698462 
L 432.131521 54.706154 
L 432.4359 70.698462 
L 432.740279 54.706154 
L 433.044658 70.698462 
L 433.349037 54.706154 
L 433.653415 70.698462 
L 433.957794 54.706154 
L 434.262173 70.698462 
L 434.566552 54.706154 
L 434.870931 70.698462 
L 435.17531 54.706154 
L 435.479689 70.698462 
L 435.784067 54.706154 
L 436.088446 70.698462 
L 436.392825 54.706154 
L 436.697204 70.698462 
L 437.001583 54.706154 
L 437.305962 54.706154 
L 437.610341 38.713846 
L 437.914719 70.698462 
L 438.219098 54.706154 
L 438.827856 54.706154 
L 439.132235 70.698462 
L 439.436614 54.706154 
L 439.740993 70.698462 
L 440.045371 54.706154 
L 440.34975 70.698462 
L 440.654129 54.706154 
L 440.958508 70.698462 
L 441.262887 38.713846 
L 441.567266 70.698462 
L 441.871644 38.713846 
L 442.176023 70.698462 
L 442.480402 54.706154 
L 442.784781 86.690769 
L 443.08916 54.706154 
L 443.393539 86.690769 
L 444.306675 86.690769 
L 444.611054 70.698462 
L 444.915433 86.690769 
L 445.524191 86.690769 
L 445.82857 70.698462 
L 446.132948 86.690769 
L 446.437327 70.698462 
L 446.741706 86.690769 
L 447.046085 70.698462 
L 447.350464 86.690769 
L 447.654843 70.698462 
L 447.959222 86.690769 
L 448.2636 70.698462 
L 448.567979 86.690769 
L 448.872358 54.706154 
L 449.176737 70.698462 
L 449.785495 70.698462 
L 450.089874 54.706154 
L 450.394252 70.698462 
L 456.177451 70.698462 
L 456.48183 54.706154 
L 456.786208 70.698462 
L 490.87664 70.698462 
L 491.181019 54.706154 
L 491.485398 70.698462 
L 491.789777 54.706154 
L 492.398534 86.690769 
L 492.702913 70.698462 
L 493.007292 86.690769 
L 493.311671 86.690769 
L 493.61605 70.698462 
L 493.920429 70.698462 
L 494.224808 54.706154 
L 494.529186 70.698462 
L 494.833565 54.706154 
L 495.137944 70.698462 
L 495.442323 54.706154 
L 495.746702 70.698462 
L 496.051081 54.706154 
L 496.35546 70.698462 
L 496.659838 38.713846 
L 496.964217 70.698462 
L 497.268596 38.713846 
L 497.572975 70.698462 
L 497.877354 54.706154 
L 498.181733 70.698462 
L 498.79049 38.713846 
L 499.094869 70.698462 
L 499.399248 54.706154 
L 499.703627 70.698462 
L 501.834279 70.698462 
L 502.138658 54.706154 
L 502.443037 70.698462 
L 502.747416 54.706154 
L 503.051794 70.698462 
L 503.356173 54.706154 
L 503.660552 70.698462 
L 503.964931 54.706154 
L 504.26931 70.698462 
L 525.57583 70.698462 
L 525.880209 54.706154 
L 526.184587 70.698462 
L 526.488966 54.706154 
L 526.793345 70.698462 
L 527.097724 54.706154 
L 527.402103 70.698462 
L 527.706482 54.706154 
L 528.010861 70.698462 
L 528.315239 54.706154 
L 528.619618 70.698462 
L 528.923997 54.706154 
L 529.228376 70.698462 
L 529.532755 54.706154 
L 529.837134 70.698462 
L 530.141513 54.706154 
L 530.445891 70.698462 
L 530.75027 54.706154 
L 531.054649 70.698462 
L 531.359028 54.706154 
L 531.663407 70.698462 
L 531.967786 54.706154 
L 532.272165 70.698462 
L 532.576543 54.706154 
L 532.880922 70.698462 
L 533.185301 54.706154 
L 533.48968 70.698462 
L 533.794059 54.706154 
L 534.098438 70.698462 
L 534.402817 54.706154 
L 534.707195 70.698462 
L 535.011574 54.706154 
L 535.315953 70.698462 
L 535.620332 54.706154 
L 535.924711 70.698462 
L 536.22909 54.706154 
L 536.533468 70.698462 
L 536.837847 54.706154 
L 537.142226 70.698462 
L 537.446605 54.706154 
L 537.750984 70.698462 
L 538.055363 54.706154 
L 538.359742 70.698462 
L 538.66412 54.706154 
L 538.968499 70.698462 
L 539.272878 54.706154 
L 539.577257 70.698462 
L 539.881636 54.706154 
L 540.186015 70.698462 
L 540.490394 54.706154 
L 540.794772 70.698462 
L 541.099151 54.706154 
L 541.40353 70.698462 
L 558.448746 70.698462 
L 558.753125 54.706154 
L 559.057504 70.698462 
L 559.361883 54.706154 
L 559.666261 70.698462 
L 559.97064 54.706154 
L 560.275019 70.698462 
L 560.579398 54.706154 
L 560.883777 70.698462 
L 561.188156 54.706154 
L 561.492535 70.698462 
L 563.318808 70.698462 
L 563.623187 54.706154 
L 563.927565 70.698462 
L 564.536323 70.698462 
L 564.840702 54.706154 
L 565.145081 70.698462 
L 574.885204 70.698462 
L 575.189583 54.706154 
L 575.493962 70.698462 
L 582.190297 70.698462 
L 582.494676 54.706154 
L 582.799054 70.698462 
L 591.93042 70.698462 
L 592.234799 54.706154 
L 592.539178 70.698462 
L 597.40924 70.698462 
L 597.713618 54.706154 
L 598.017997 70.698462 
L 598.322376 54.706154 
L 598.626755 70.698462 
L 601.670544 70.698462 
L 601.974922 54.706154 
L 602.279301 70.698462 
L 602.58368 54.706154 
L 602.888059 70.698462 
L 603.192438 54.706154 
L 603.496817 70.698462 
L 603.801196 54.706154 
L 604.105574 70.698462 
L 604.409953 54.706154 
L 604.714332 70.698462 
L 605.018711 54.706154 
L 605.32309 70.698462 
L 605.627469 54.706154 
L 605.931848 70.698462 
L 618.715759 70.698462 
L 619.020138 54.706154 
L 619.324517 70.698462 
L 621.15079 70.698462 
L 621.455169 54.706154 
L 621.759548 70.698462 
L 622.063927 102.683077 
L 622.977063 102.683077 
L 623.281442 70.698462 
L 623.585821 102.683077 
L 624.194579 102.683077 
L 624.498958 86.690769 
L 624.803337 102.683077 
L 625.412094 102.683077 
L 625.716473 86.690769 
L 626.020852 102.683077 
L 626.325231 70.698462 
L 627.238367 70.698462 
L 627.542746 38.713846 
L 627.847125 70.698462 
L 628.151504 54.706154 
L 628.455883 70.698462 
L 628.760262 54.706154 
L 629.064641 70.698462 
L 629.369019 54.706154 
L 629.673398 70.698462 
L 629.977777 38.713846 
L 630.282156 54.706154 
L 630.586535 38.713846 
L 630.890914 70.698462 
L 631.195292 38.713846 
L 631.499671 70.698462 
L 631.80405 38.713846 
L 632.108429 70.698462 
L 632.412808 38.713846 
L 632.717187 70.698462 
L 633.021566 38.713846 
L 633.325944 70.698462 
L 633.630323 54.706154 
L 633.934702 70.698462 
L 634.239081 38.713846 
L 634.54346 70.698462 
L 634.847839 38.713846 
L 635.152218 70.698462 
L 635.456596 38.713846 
L 635.760975 70.698462 
L 636.065354 54.706154 
L 636.369733 70.698462 
L 636.674112 54.706154 
L 636.978491 70.698462 
L 637.28287 54.706154 
L 637.587248 70.698462 
L 637.891627 38.713846 
L 638.196006 70.698462 
L 638.500385 38.713846 
L 638.804764 70.698462 
L 639.109143 38.713846 
L 639.413522 70.698462 
L 639.7179 38.713846 
L 640.022279 70.698462 
L 640.326658 38.713846 
L 640.631037 70.698462 
L 640.935416 38.713846 
L 641.239795 70.698462 
L 641.544174 38.713846 
L 641.848552 70.698462 
L 642.152931 38.713846 
L 642.45731 70.698462 
L 642.761689 38.713846 
L 643.066068 70.698462 
L 643.370447 38.713846 
L 643.674826 70.698462 
L 643.979204 38.713846 
L 644.283583 70.698462 
L 644.587962 38.713846 
L 644.892341 70.698462 
L 650.979918 70.698462 
L 651.284297 54.706154 
L 651.588676 70.698462 
L 665.590103 70.698462 
L 665.894482 54.706154 
L 666.198861 70.698462 
L 666.807619 70.698462 
L 667.111997 54.706154 
L 667.416376 70.698462 
L 667.720755 54.706154 
L 668.025134 70.698462 
L 668.329513 54.706154 
L 668.633892 70.698462 
L 668.938271 54.706154 
L 669.242649 70.698462 
L 669.547028 54.706154 
L 669.851407 70.698462 
L 670.155786 54.706154 
L 670.460165 70.698462 
L 670.764544 54.706154 
L 671.068923 70.698462 
L 671.373301 54.706154 
L 671.67768 70.698462 
L 671.982059 54.706154 
L 672.286438 70.698462 
L 672.590817 54.706154 
L 672.895196 70.698462 
L 673.199575 54.706154 
L 673.503953 70.698462 
L 673.808332 54.706154 
L 674.112711 70.698462 
L 674.41709 54.706154 
L 674.721469 70.698462 
L 675.025848 54.706154 
L 675.330227 102.683077 
L 675.634605 54.706154 
L 675.938984 70.698462 
L 676.243363 54.706154 
L 676.547742 70.698462 
L 676.852121 54.706154 
L 677.1565 86.690769 
L 677.460878 54.706154 
L 677.765257 86.690769 
L 678.069636 54.706154 
L 678.374015 86.690769 
L 678.678394 54.706154 
L 678.982773 86.690769 
L 679.287152 54.706154 
L 679.59153 86.690769 
L 679.895909 54.706154 
L 680.200288 86.690769 
L 680.504667 54.706154 
L 680.809046 86.690769 
L 681.113425 54.706154 
L 681.417804 86.690769 
L 681.722182 54.706154 
L 682.026561 70.698462 
L 682.33094 54.706154 
L 682.635319 86.690769 
L 682.939698 54.706154 
L 683.244077 86.690769 
L 683.548456 54.706154 
L 683.852834 86.690769 
L 684.157213 54.706154 
L 684.461592 86.690769 
L 684.765971 54.706154 
L 685.07035 86.690769 
L 685.374729 54.706154 
L 685.679108 86.690769 
L 685.983486 54.706154 
L 686.287865 70.698462 
L 686.592244 54.706154 
L 686.896623 86.690769 
L 687.201002 54.706154 
L 687.505381 70.698462 
L 687.80976 54.706154 
L 688.114138 70.698462 
L 688.418517 38.713846 
L 688.722896 86.690769 
L 689.027275 38.713846 
L 689.331654 70.698462 
L 689.636033 38.713846 
L 689.940412 70.698462 
L 690.24479 38.713846 
L 690.549169 70.698462 
L 690.853548 38.713846 
L 691.157927 70.698462 
L 691.462306 38.713846 
L 691.766685 54.706154 
L 692.071064 38.713846 
L 692.375442 70.698462 
L 692.679821 38.713846 
L 692.9842 70.698462 
L 693.288579 38.713846 
L 693.592958 70.698462 
L 693.897337 38.713846 
L 694.201716 70.698462 
L 694.506094 38.713846 
L 694.810473 70.698462 
L 695.114852 38.713846 
L 695.419231 70.698462 
L 695.72361 38.713846 
L 696.027989 70.698462 
L 696.332368 38.713846 
L 696.636746 70.698462 
L 696.941125 54.706154 
L 697.245504 86.690769 
L 697.549883 54.706154 
L 697.854262 70.698462 
L 698.158641 54.706154 
L 698.46302 70.698462 
L 727.379011 70.698462 
L 727.68339 54.706154 
L 727.987768 70.698462 
L 747.163636 70.698462 
L 747.163636 70.698462 
" clip-path="url(#p0355840489)" style="fill: none; stroke: #4c72b0; stroke-width: 1.5; stroke-linecap: round"/>
   </g>
   <g id="line2d_18">
    <path d="M 138.436364 185.843077 
L 138.710305 151.785858 
L 139.014683 136.484418 
L 139.319062 136.260526 
L 139.623441 137.898138 
L 139.92782 123.71616 
L 140.232199 135.011527 
L 140.536578 122.766217 
L 140.840957 123.265177 
L 141.145335 110.440945 
L 141.449714 109.431831 
L 141.754093 109.551773 
L 142.058472 110.519308 
L 142.362851 108.656204 
L 142.66723 109.18395 
L 142.971609 108.896088 
L 143.275987 124.144754 
L 143.580366 109.511792 
L 143.884745 109.775665 
L 144.189124 97.95735 
L 144.493503 109.615742 
L 144.797882 111.334915 
L 145.102261 111.206977 
L 145.406639 97.621512 
L 145.711018 110.543296 
L 146.015397 110.823162 
L 146.319776 110.271427 
L 146.624155 111.494838 
L 146.928534 112.134531 
L 147.232913 111.590792 
L 147.537291 97.789431 
L 147.84167 109.303892 
L 148.146049 110.495319 
L 148.450428 110.239442 
L 148.754807 113.397923 
L 149.059186 112.262469 
L 149.363565 112.798212 
L 149.667943 113.877692 
L 149.972322 116.548408 
L 150.276701 116.732319 
L 150.58108 102.155331 
L 150.885459 116.748312 
L 151.189838 88.569865 
L 151.494217 115.476923 
L 151.798595 89.417458 
L 152.102974 88.130077 
L 152.407353 96.182204 
L 152.711732 115.061123 
L 153.016111 87.490385 
L 153.32049 112.948539 
L 153.624869 88.321985 
L 153.929247 93.031719 
L 154.233626 121.278932 
L 154.538005 94.413455 
L 154.842384 94.307905 
L 155.146763 118.635404 
L 155.451142 92.799831 
L 155.755521 109.228728 
L 156.059899 92.943762 
L 156.364278 111.005474 
L 156.668657 115.870334 
L 156.973036 82.607933 
L 157.277415 116.887445 
L 157.581794 103.018915 
L 157.886172 113.650602 
L 158.190551 90.087535 
L 158.49493 100.205868 
L 158.799309 120.013941 
L 159.103688 94.827655 
L 159.408067 107.611906 
L 159.712446 99.382265 
L 160.016824 119.847621 
L 160.321203 92.264088 
L 160.625582 119.80764 
L 160.929961 105.350594 
L 161.23434 116.218966 
L 161.538719 88.042119 
L 161.843098 108.048496 
L 162.147476 89.380675 
L 162.451855 93.367558 
L 162.756234 85.571308 
L 163.060613 111.717132 
L 163.364992 90.496938 
L 163.669371 101.026274 
L 163.97375 118.210008 
L 164.278128 103.156449 
L 164.582507 117.388004 
L 164.886886 84.088821 
L 165.191265 119.407832 
L 165.495644 96.908255 
L 165.800023 87.025008 
L 166.104402 113.781738 
L 166.40878 92.519965 
L 166.713159 88.136474 
L 167.321917 95.25465 
L 167.626296 88.737785 
L 167.930675 87.050596 
L 168.235054 88.130077 
L 168.539432 114.304687 
L 168.843811 86.338938 
L 169.14819 115.392164 
L 169.452569 90.257054 
L 169.756948 114.893204 
L 170.061327 93.927288 
L 170.365706 115.324996 
L 170.670084 97.08417 
L 170.974463 119.235115 
L 171.278842 88.993662 
L 171.583221 107.040981 
L 171.8876 101.483654 
L 172.191979 102.906969 
L 172.496358 85.315431 
L 172.800736 117.076154 
L 173.105115 114.373454 
L 173.409494 102.691073 
L 173.713873 103.194831 
L 174.018252 117.028177 
L 174.322631 111.88665 
L 174.62701 114.877212 
L 174.931388 86.890673 
L 175.235767 113.34195 
L 175.540146 88.641831 
L 175.844525 103.666604 
L 176.148904 96.006288 
L 176.453283 104.650131 
L 176.757662 103.066892 
L 177.06204 103.730573 
L 177.366419 115.500912 
L 177.670798 101.643577 
L 177.975177 114.917192 
L 178.279556 101.379704 
L 178.583935 102.0114 
L 178.888314 115.364977 
L 179.497071 113.158038 
L 179.80145 113.741758 
L 180.105829 113.613819 
L 180.410208 114.501392 
L 180.714587 114.621335 
L 181.018965 113.118058 
L 181.932102 118.987235 
L 182.236481 118.579431 
L 182.54086 116.676346 
L 182.845239 117.931742 
L 183.149617 114.717288 
L 183.453996 116.3565 
L 183.758375 116.66835 
L 184.062754 115.764785 
L 184.367133 108.4563 
L 184.671512 113.75775 
L 184.975891 99.068815 
L 185.280269 112.1985 
L 185.584648 110.255435 
L 185.889027 113.908078 
L 186.193406 107.760635 
L 186.497785 128.214796 
L 186.802164 118.443496 
L 187.106543 113.397923 
L 187.410921 112.71825 
L 187.7153 115.133088 
L 188.019679 112.846188 
L 188.932816 115.189062 
L 189.237195 113.909677 
L 189.541573 114.661315 
L 189.845952 113.158038 
L 190.150331 112.446381 
L 190.45471 105.745604 
L 190.759089 112.806208 
L 191.063468 115.149081 
L 191.367847 113.877692 
L 191.672225 115.692819 
L 192.280983 112.758231 
L 192.585362 114.133569 
L 192.889741 114.189542 
L 193.19412 113.557846 
L 193.498499 113.781738 
L 193.802877 111.622777 
L 194.107256 114.917192 
L 194.411635 112.582315 
L 194.716014 112.422392 
L 195.020393 103.202827 
L 195.324772 115.013146 
L 195.629151 111.630773 
L 195.933529 111.806688 
L 196.237908 113.501873 
L 196.542287 97.765442 
L 196.846666 111.190985 
L 197.151045 99.676523 
L 197.455424 114.38145 
L 197.759803 97.517562 
L 198.064181 113.245996 
L 198.36856 99.212746 
L 198.672939 112.854185 
L 198.977318 98.796946 
L 199.281697 115.748792 
L 199.586076 97.917369 
L 199.890455 109.551773 
L 200.194833 99.892419 
L 200.499212 100.383383 
L 200.803591 100.03635 
L 201.10797 99.140781 
L 201.412349 101.171804 
L 201.716728 101.322132 
L 202.021107 99.834847 
L 202.325485 101.523635 
L 202.629864 101.715542 
L 202.934243 103.370746 
L 203.238622 100.831168 
L 203.543001 103.015717 
L 203.84738 95.807984 
L 204.151758 102.662287 
L 204.456137 90.225069 
L 204.760516 92.446401 
L 205.064895 96.777118 
L 205.369274 91.768327 
L 205.673653 94.471027 
L 206.28241 89.793277 
L 206.586789 86.890673 
L 206.891168 103.042904 
L 207.195547 89.1216 
L 207.804305 93.402741 
L 208.108684 88.301195 
L 208.413062 90.968712 
L 208.717441 90.356206 
L 209.02182 111.854665 
L 209.326199 118.213207 
L 209.934957 89.746899 
L 210.239336 117.256867 
L 210.543714 100.724019 
L 210.848093 97.955751 
L 211.152472 87.295278 
L 211.456851 88.133275 
L 211.76123 118.579431 
L 212.065609 85.827185 
L 212.369988 99.759683 
L 212.674366 84.403869 
L 212.978745 100.290628 
L 213.283124 87.234508 
L 213.587503 87.738265 
L 213.891882 92.072181 
L 214.196261 85.563312 
L 214.50064 101.211785 
L 214.805018 99.108796 
L 215.109397 102.890977 
L 215.413776 90.108325 
L 215.718155 99.708508 
L 216.022534 88.021329 
L 216.326913 100.612073 
L 216.631292 82.348858 
L 216.93567 86.099054 
L 217.240049 87.186531 
L 217.544428 86.346935 
L 217.848807 83.260419 
L 218.153186 115.283416 
L 218.457565 100.116312 
L 218.761944 103.730573 
L 219.066322 96.620393 
L 219.370701 103.922481 
L 219.67508 91.560427 
L 219.979459 101.779512 
L 220.283838 98.384345 
L 220.588217 100.740012 
L 220.892596 97.925365 
L 221.196974 101.739531 
L 221.501353 98.357158 
L 221.805732 100.188277 
L 222.110111 98.708988 
L 222.41449 98.716985 
L 222.718869 97.629508 
L 223.023248 97.733458 
L 223.327626 96.070258 
L 223.632005 98.197235 
L 223.936384 95.542512 
L 224.240763 97.453592 
L 224.545142 95.190681 
L 224.849521 97.589527 
L 225.1539 95.478542 
L 225.458278 97.637504 
L 225.762657 94.654938 
L 226.067036 98.149258 
L 226.371415 95.102723 
L 226.675794 98.940877 
L 226.980173 95.958312 
L 227.284552 97.4376 
L 227.58893 96.262165 
L 227.893309 98.557062 
L 228.197688 94.926808 
L 228.502067 99.164769 
L 228.806446 98.549065 
L 229.110825 100.420165 
L 229.415203 96.038273 
L 229.719582 99.244731 
L 230.023961 96.701954 
L 230.32834 98.868912 
L 230.632719 99.476619 
L 230.937098 101.211785 
L 231.241477 101.571612 
L 231.545855 100.9719 
L 231.850234 97.450394 
L 232.154613 101.458066 
L 232.458992 98.542668 
L 232.763371 101.323731 
L 233.06775 98.273998 
L 233.372129 99.782072 
L 233.676507 96.430085 
L 233.980886 87.196126 
L 234.285265 103.720978 
L 234.589644 91.170215 
L 234.894023 87.178535 
L 235.198402 116.618774 
L 235.502781 87.973352 
L 235.807159 85.209882 
L 236.111538 85.603292 
L 236.415917 89.567785 
L 236.720296 89.460637 
L 237.329054 87.581541 
L 237.633433 88.219634 
L 237.937811 86.362927 
L 238.24219 87.954162 
L 238.546569 84.595777 
L 238.850948 85.611288 
L 239.155327 83.388358 
L 239.459706 84.227954 
L 239.764085 83.540285 
L 240.068463 86.498862 
L 240.372842 83.156469 
L 240.677221 85.459362 
L 240.9816 82.924581 
L 241.285979 84.731712 
L 241.590358 84.931615 
L 241.894737 86.498862 
L 242.199115 83.372365 
L 242.503494 85.491346 
L 242.807873 82.188935 
L 243.112252 97.181723 
L 243.416631 81.82431 
L 243.72101 85.003581 
L 244.025389 84.135198 
L 244.329767 85.475354 
L 244.634146 85.339419 
L 244.938525 95.950315 
L 245.242904 96.238177 
L 245.547283 84.092019 
L 245.851662 83.252423 
L 246.156041 83.124485 
L 246.460419 82.220919 
L 246.764798 80.8056 
L 247.069177 82.180938 
L 247.373556 84.291923 
L 247.677935 84.076027 
L 247.982314 85.595296 
L 248.286693 84.155988 
L 248.591071 85.843177 
L 248.89545 86.422098 
L 249.808587 82.996546 
L 250.417345 85.771212 
L 250.721723 83.892115 
L 251.026102 85.731231 
L 251.330481 85.755219 
L 251.63486 86.051077 
L 251.939239 83.380362 
L 252.243618 83.9241 
L 252.547996 83.020535 
L 252.852375 84.683735 
L 253.156754 82.2609 
L 253.461133 84.627762 
L 253.765512 84.004062 
L 254.069891 83.996065 
L 254.37427 83.060515 
L 254.678648 85.195488 
L 255.287406 83.5083 
L 255.591785 83.700208 
L 255.896164 85.555315 
L 256.200543 86.458881 
L 256.504922 85.06755 
L 256.8093 83.060515 
L 257.113679 84.387877 
L 257.418058 83.940092 
L 257.722437 117.675865 
L 258.026816 86.593216 
L 258.331195 89.273527 
L 258.635574 87.698285 
L 258.939952 87.554354 
L 259.244331 86.486068 
L 259.54871 89.16318 
L 259.853089 85.627281 
L 260.766226 90.105127 
L 261.070604 90.824781 
L 261.374983 91.019887 
L 261.679362 85.827185 
L 261.983741 85.467358 
L 262.592499 87.634315 
L 262.896878 85.715238 
L 263.201256 87.858208 
L 263.505635 85.1715 
L 263.810014 87.434412 
L 264.114393 85.955123 
L 264.418772 85.387396 
L 264.723151 86.258977 
L 265.02753 85.643273 
L 265.331908 87.738265 
L 265.636287 87.410423 
L 265.940666 84.211962 
L 266.245045 86.954642 
L 266.549424 87.746262 
L 266.853803 87.074585 
L 267.46256 85.147512 
L 267.766939 85.523331 
L 268.071318 84.995585 
L 268.375697 82.740669 
L 268.680076 84.371885 
L 268.984455 85.075546 
L 269.288834 83.951287 
L 269.897591 87.170538 
L 270.20197 84.883638 
L 270.506349 87.210519 
L 270.810728 86.482869 
L 271.115107 86.554835 
L 271.419486 83.514697 
L 271.723864 86.818708 
L 272.332622 85.798398 
L 272.637001 86.131038 
L 272.94138 85.883158 
L 273.245759 84.619765 
L 273.550138 86.474873 
L 273.854516 83.060515 
L 274.158895 82.748665 
L 274.463274 82.916585 
L 274.767653 82.852615 
L 275.072032 84.902829 
L 275.376411 84.039245 
L 275.680789 86.649189 
L 275.985168 85.558514 
L 276.289547 84.950806 
L 276.593926 85.480152 
L 276.898305 83.621845 
L 277.202684 84.798879 
L 277.507063 85.165103 
L 277.811441 83.975275 
L 278.11582 84.307915 
L 278.420199 85.761616 
L 278.724578 86.103852 
L 279.333336 87.987745 
L 279.637715 85.139515 
L 279.942093 87.418419 
L 280.246472 86.682773 
L 280.85523 90.11952 
L 281.159609 89.024047 
L 281.768367 85.73283 
L 282.377124 88.146069 
L 282.681503 90.803991 
L 282.985882 87.336858 
L 283.290261 86.623602 
L 283.59464 87.399228 
L 283.899019 86.108649 
L 284.203397 87.605529 
L 284.507776 90.108325 
L 284.812155 91.043875 
L 285.420913 84.608571 
L 285.725292 85.347415 
L 286.029671 83.284408 
L 286.638428 88.31079 
L 286.942807 89.954799 
L 287.247186 88.035722 
L 287.551565 88.037322 
L 287.855944 88.984066 
L 288.160323 86.305355 
L 288.464701 87.106569 
L 288.76908 90.153104 
L 289.073459 87.506377 
L 289.377838 87.114565 
L 289.682217 86.386915 
L 289.986596 86.714758 
L 290.290975 86.874681 
L 290.595353 89.64135 
L 290.899732 87.252099 
L 291.204111 89.041638 
L 291.50849 88.325183 
L 291.812869 86.302156 
L 292.117248 88.321985 
L 292.421627 89.327901 
L 292.726005 88.541079 
L 293.030384 89.780483 
L 293.334763 88.389152 
L 293.639142 88.833738 
L 293.943521 87.284084 
L 294.2479 87.444007 
L 294.552279 86.698765 
L 294.856657 87.025008 
L 295.161036 85.380999 
L 295.465415 87.855009 
L 295.769794 86.083062 
L 296.074173 90.546515 
L 296.378552 86.881078 
L 296.682931 115.900719 
L 296.987309 86.997822 
L 297.291688 88.425935 
L 297.596067 85.281847 
L 297.900446 84.966798 
L 298.204825 86.358129 
L 298.509204 85.609689 
L 298.813582 84.116008 
L 299.117961 86.238187 
L 299.42234 86.059073 
L 299.726719 84.327106 
L 300.031098 85.507338 
L 300.335477 84.826066 
L 300.944234 88.058112 
L 301.248613 87.763853 
L 301.552992 88.409942 
L 301.857371 87.551155 
L 302.16175 88.054913 
L 302.466129 85.811192 
L 302.770508 87.763853 
L 303.074886 86.265374 
L 303.379265 88.090096 
L 303.683644 88.086898 
L 303.988023 87.02181 
L 304.292402 84.712521 
L 304.596781 91.841892 
L 304.90116 86.610808 
L 305.205538 88.785762 
L 305.509917 88.485106 
L 305.814296 86.354931 
L 306.118675 85.027569 
L 306.423054 86.450885 
L 306.727433 86.306954 
L 307.031812 86.538842 
L 307.33619 84.878841 
L 307.640569 84.706124 
L 307.944948 84.678937 
L 308.249327 84.263137 
L 308.553706 83.132481 
L 308.858085 85.035565 
L 309.162464 85.934333 
L 309.466842 86.362927 
L 309.771221 83.660227 
L 310.0756 87.130558 
L 310.684358 87.714277 
L 310.988737 88.285202 
L 311.293116 87.181733 
L 312.206252 82.908588 
L 312.510631 83.700208 
L 312.81501 85.155508 
L 313.423768 81.301362 
L 313.728146 83.676219 
L 314.032525 83.967279 
L 314.336904 84.739708 
L 314.641283 84.662945 
L 314.945662 85.195488 
L 315.250041 87.101772 
L 315.55442 87.0426 
L 315.858798 84.226355 
L 316.163177 85.627281 
L 316.467556 85.182695 
L 316.771935 87.330462 
L 317.076314 85.331423 
L 317.380693 88.18605 
L 317.685072 86.402908 
L 317.98945 87.547957 
L 318.293829 86.450885 
L 318.598208 115.404958 
L 318.902587 114.9012 
L 319.206966 113.325958 
L 319.511345 118.315558 
L 320.120102 115.205054 
L 320.424481 114.885208 
L 320.72886 113.925669 
L 321.033239 114.408637 
L 321.337618 114.669312 
L 321.946376 117.958929 
L 322.555133 89.241542 
L 323.163891 86.986627 
L 323.46827 83.780169 
L 323.772649 73.561085 
L 324.077027 86.250981 
L 324.381406 76.999431 
L 324.685785 85.763215 
L 324.990164 73.673031 
L 325.294543 86.466877 
L 325.598922 77.047408 
L 325.903301 88.361965 
L 326.207679 75.648081 
L 326.512058 86.978631 
L 326.816437 75.672069 
L 327.120816 87.330462 
L 327.425195 74.424669 
L 327.729574 87.906185 
L 328.033953 69.970812 
L 328.338331 86.171019 
L 328.64271 63.509919 
L 328.947089 85.739227 
L 329.251468 61.4709 
L 329.555847 85.48335 
L 329.860226 60.575331 
L 330.164605 87.010615 
L 330.468983 62.230535 
L 330.773362 89.273527 
L 331.077741 60.479377 
L 331.38212 87.594335 
L 331.686499 66.153448 
L 331.990878 87.399228 
L 332.295257 62.07381 
L 332.599635 87.255298 
L 332.904014 63.596278 
L 333.208393 86.50206 
L 333.512772 79.997988 
L 333.817151 86.877879 
L 334.12153 61.648415 
L 334.425909 86.049478 
L 334.730287 59.935638 
L 335.034666 85.3794 
L 335.339045 60.407412 
L 335.643424 87.138554 
L 335.947803 72.681508 
L 336.252182 83.780169 
L 336.556561 58.87215 
L 336.860939 84.523812 
L 337.165318 61.790746 
L 337.469697 86.650788 
L 337.774076 63.233252 
L 338.078455 86.866685 
L 338.382834 63.514717 
L 338.687213 88.150867 
L 338.991591 85.547319 
L 339.29597 88.050115 
L 339.600349 87.172138 
L 339.904728 88.070905 
L 340.209107 88.430732 
L 340.513486 92.563145 
L 340.817865 89.273527 
L 341.122243 88.60185 
L 341.426622 90.512931 
L 341.731001 86.187012 
L 342.03538 88.585858 
L 342.339759 89.489423 
L 342.644138 85.7952 
L 342.948517 86.250981 
L 343.252895 88.793758 
L 343.557274 89.361485 
L 343.861653 88.369962 
L 344.470411 84.971596 
L 345.079169 88.234027 
L 345.383547 88.234027 
L 345.687926 88.106088 
L 345.992305 86.402908 
L 346.601063 89.913219 
L 346.905442 86.187012 
L 347.20982 85.707242 
L 347.818578 88.808151 
L 348.122957 85.908745 
L 348.427336 88.969673 
L 348.731715 87.997341 
L 349.036094 88.661022 
L 349.340472 87.960558 
L 349.644851 90.039558 
L 349.94923 86.514854 
L 350.253609 87.33366 
L 350.557988 82.996546 
L 350.862367 85.873562 
L 351.166746 61.135062 
L 351.471124 86.6268 
L 351.775503 59.367912 
L 352.079882 87.242504 
L 352.384261 63.577087 
L 352.68864 88.953681 
L 352.993019 85.299438 
L 353.297398 89.737304 
L 353.601776 83.660227 
L 353.906155 89.028845 
L 354.210534 86.634796 
L 354.514913 86.378919 
L 354.819292 85.915142 
L 355.123671 86.338938 
L 355.42805 87.530365 
L 355.732428 86.362927 
L 356.036807 83.668223 
L 356.341186 86.826704 
L 356.645565 85.923138 
L 356.949944 85.803196 
L 357.254323 83.700208 
L 357.558702 83.388358 
L 357.86308 81.669185 
L 358.167459 85.371404 
L 358.471838 58.832169 
L 358.776217 83.396354 
L 359.080596 58.392381 
L 359.384975 85.387396 
L 359.689354 62.038627 
L 359.993732 86.211 
L 360.298111 60.215504 
L 360.60249 86.682773 
L 360.906869 61.079088 
L 361.211248 86.051077 
L 361.515627 58.632265 
L 361.820006 85.147512 
L 362.124384 56.121473 
L 362.428763 83.836142 
L 362.733142 59.431881 
L 363.037521 87.6663 
L 363.3419 60.919165 
L 363.646279 86.4189 
L 363.950658 61.798742 
L 364.255036 86.482869 
L 364.559415 58.272438 
L 364.863794 86.131038 
L 365.168173 59.655773 
L 365.472552 83.308396 
L 365.776931 84.092019 
L 366.08131 82.628723 
L 366.385688 85.419381 
L 366.690067 85.803196 
L 366.994446 82.772654 
L 367.298825 84.811673 
L 367.603204 70.612103 
L 367.907583 85.315431 
L 368.211962 57.727101 
L 368.51634 85.478552 
L 368.820719 83.343579 
L 369.125098 85.502541 
L 369.429477 61.199031 
L 369.733856 88.385954 
L 370.038235 61.806738 
L 370.342613 88.258015 
L 370.646992 61.78275 
L 370.951371 88.074104 
L 371.25575 61.342962 
L 371.560129 87.218515 
L 371.864508 60.567335 
L 372.168887 85.534525 
L 372.473265 60.28587 
L 372.777644 86.932253 
L 373.082023 59.926043 
L 373.386402 84.162385 
L 373.690781 63.207665 
L 373.99516 86.308553 
L 374.299539 59.860475 
L 374.603917 88.864124 
L 374.908296 60.377026 
L 375.212675 86.977032 
L 375.517054 61.395736 
L 375.821433 84.554197 
L 376.125812 62.416045 
L 376.430191 87.869402 
L 376.734569 62.993368 
L 377.038948 88.421137 
L 377.343327 84.312713 
L 377.647706 89.24634 
L 377.952085 59.706948 
L 378.256464 88.489904 
L 378.560843 62.147375 
L 378.865221 85.569708 
L 379.1696 59.687758 
L 379.473979 86.773929 
L 379.778358 58.018161 
L 380.082737 84.231152 
L 380.387116 56.775558 
L 380.691495 82.395235 
L 380.995873 60.087565 
L 381.300252 83.972077 
L 381.604631 57.484018 
L 381.90901 83.42514 
L 382.213389 57.242534 
L 382.517768 85.839978 
L 382.822147 57.464827 
L 383.126525 83.954485 
L 383.430904 64.645373 
L 383.735283 83.276412 
L 384.039662 83.202847 
L 384.344041 84.207164 
L 384.64842 82.911787 
L 384.952799 84.656548 
L 385.257177 60.871188 
L 385.561556 84.608571 
L 385.865935 86.091058 
L 386.170314 86.009497 
L 386.474693 86.532445 
L 386.779072 86.58522 
L 387.083451 86.458881 
L 387.387829 86.554835 
L 387.692208 86.346935 
L 387.996587 85.425778 
L 388.300966 85.470556 
L 388.605345 84.987588 
L 388.909724 87.14655 
L 389.214103 85.435373 
L 389.518481 86.366125 
L 389.82286 127.655065 
L 390.127239 83.19645 
L 390.431618 86.498862 
L 390.735997 82.636719 
L 391.040376 83.956085 
L 391.344755 86.346935 
L 391.649133 84.004062 
L 391.953512 80.709646 
L 392.257891 83.948088 
L 392.56227 83.948088 
L 392.866649 83.748185 
L 393.171028 85.123523 
L 393.475406 85.443369 
L 393.779785 86.083062 
L 394.084164 87.362446 
L 394.388543 84.939612 
L 394.692922 84.667742 
L 394.997301 87.650308 
L 395.30168 84.092019 
L 395.606058 78.942496 
L 395.910437 85.787204 
L 396.519195 85.155508 
L 396.823574 60.167527 
L 397.127953 84.267935 
L 397.432332 58.7682 
L 397.73671 83.364369 
L 398.041089 57.440838 
L 398.345468 84.387877 
L 398.649847 59.032073 
L 398.954226 85.203485 
L 399.258605 58.648258 
L 399.562984 85.475354 
L 399.867362 56.745173 
L 400.171741 85.211481 
L 400.47612 56.409335 
L 400.780499 85.339419 
L 401.084878 57.352881 
L 401.389257 83.772173 
L 401.693636 57.744692 
L 401.998014 86.73075 
L 402.302393 77.802245 
L 402.606772 84.939612 
L 402.911151 59.375908 
L 403.21553 86.027088 
L 403.519909 58.512323 
L 403.824288 87.858208 
L 404.128666 57.664731 
L 404.433045 86.618804 
L 404.737424 59.951631 
L 405.041803 87.682292 
L 405.346182 57.952592 
L 405.650561 87.410423 
L 405.95494 59.679762 
L 406.259318 87.618323 
L 406.563697 60.855196 
L 406.868076 86.906665 
L 407.172455 63.949708 
L 407.476834 90.776804 
L 407.781213 61.023115 
L 408.085592 88.154065 
L 408.38997 60.903173 
L 408.694349 85.867165 
L 408.998728 60.751246 
L 409.303107 90.936727 
L 409.607486 63.941712 
L 409.911865 89.388672 
L 410.216244 61.127065 
L 410.520622 86.346935 
L 410.825001 59.575812 
L 411.12938 86.402908 
L 411.433759 58.400377 
L 411.738138 85.627281 
L 412.042517 56.329373 
L 412.346896 84.116008 
L 412.651274 80.253865 
L 412.955653 83.764177 
L 413.260032 52.883031 
L 413.564411 83.61225 
L 413.86879 75.768023 
L 414.173169 81.805119 
L 414.477548 56.929085 
L 414.781926 85.3794 
L 415.086305 56.081492 
L 415.390684 84.092019 
L 415.695063 55.577735 
L 415.999442 85.619285 
L 416.303821 81.293365 
L 416.6082 84.435854 
L 416.912578 63.397973 
L 417.216957 86.770731 
L 417.521336 62.062615 
L 417.825715 91.944242 
L 418.130094 62.990169 
L 418.434473 86.946646 
L 418.738851 60.407412 
L 419.04323 84.939612 
L 419.347609 84.267935 
L 419.651988 84.915623 
L 419.956367 81.765138 
L 420.260746 85.571308 
L 420.565125 82.812635 
L 420.869503 84.395873 
L 421.173882 84.299919 
L 421.478261 85.411385 
L 421.78264 84.875642 
L 422.087019 86.0031 
L 422.391398 85.494545 
L 422.695777 85.507338 
L 423.000155 85.227473 
L 423.304534 86.354931 
L 423.608913 84.707723 
L 423.913292 85.019573 
L 424.217671 86.211 
L 424.52205 87.898188 
L 424.826429 85.771212 
L 425.435186 86.614006 
L 425.739565 85.5873 
L 426.043944 87.074585 
L 426.348323 86.967436 
L 426.652702 85.766414 
L 426.957081 88.748979 
L 427.261459 88.939288 
L 427.565838 87.27129 
L 427.870217 86.505258 
L 428.174596 86.310152 
L 428.478975 87.973352 
L 428.783354 84.387877 
L 429.087733 84.619765 
L 429.392111 81.965042 
L 429.69649 85.563312 
L 430.000869 85.603292 
L 430.305248 85.323427 
L 430.609627 85.523331 
L 430.914006 85.963119 
L 431.218385 84.899631 
L 431.522763 85.227473 
L 431.827142 86.486068 
L 432.131521 71.130254 
L 432.4359 84.203965 
L 432.740279 84.627762 
L 433.044658 83.908108 
L 433.349037 73.505112 
L 433.653415 86.226992 
L 433.957794 69.155204 
L 434.262173 84.9636 
L 434.566552 71.793935 
L 434.870931 85.803196 
L 435.17531 69.563008 
L 435.479689 85.27545 
L 435.784067 71.634012 
L 436.088446 87.378438 
L 436.392825 71.458096 
L 436.697204 85.539323 
L 437.001583 71.418115 
L 437.305962 85.707242 
L 437.610341 71.11746 
L 437.914719 87.522369 
L 438.219098 69.722931 
L 438.523477 88.162062 
L 438.827856 72.633531 
L 439.132235 87.466396 
L 439.436614 75.879969 
L 439.740993 117.715846 
L 440.045371 72.209735 
L 440.34975 115.767983 
L 440.654129 72.945381 
L 440.958508 90.012372 
L 441.262887 71.977846 
L 441.567266 87.938169 
L 441.871644 59.20479 
L 442.176023 90.584896 
L 442.480402 71.498077 
L 442.784781 101.3877 
L 443.08916 100.548104 
L 443.393539 100.907931 
L 443.697918 109.663719 
L 444.002296 102.059377 
L 444.306675 101.69955 
L 444.611054 104.890015 
L 444.915433 99.060819 
L 445.219812 106.436472 
L 445.524191 104.658127 
L 445.82857 98.605038 
L 446.132948 98.78895 
L 446.437327 94.255131 
L 446.741706 98.181242 
L 447.046085 86.179015 
L 447.350464 100.732015 
L 447.654843 85.619285 
L 447.959222 101.987412 
L 448.2636 84.747704 
L 448.567979 101.107835 
L 448.872358 86.139035 
L 449.176737 92.400023 
L 449.481116 86.195008 
L 449.785495 85.555315 
L 450.089874 85.411385 
L 450.394252 84.060035 
L 450.698631 88.457919 
L 451.00301 88.617842 
L 451.307389 85.499342 
L 451.611768 87.554354 
L 451.916147 87.6663 
L 452.220526 85.547319 
L 452.524904 87.002619 
L 452.829283 84.203965 
L 453.133662 83.100496 
L 453.438041 83.452327 
L 453.74242 85.491346 
L 454.046799 82.924581 
L 454.351178 84.307915 
L 454.655556 85.062752 
L 454.959935 85.246664 
L 455.264314 85.219477 
L 455.568693 110.1195 
L 455.873072 85.051558 
L 456.177451 89.513412 
L 456.48183 87.322465 
L 456.786208 88.0821 
L 457.090587 87.738265 
L 457.394966 88.106088 
L 457.699345 85.515335 
L 458.308103 88.505896 
L 458.612482 86.524449 
L 458.91686 87.642312 
L 459.221239 87.882196 
L 459.525618 86.526048 
L 459.829997 88.138073 
L 460.134376 83.956085 
L 460.438755 87.898188 
L 460.743134 87.661502 
L 461.047512 87.893391 
L 461.351891 86.207802 
L 461.65627 85.246664 
L 461.960649 85.635277 
L 462.265028 87.925375 
L 462.569407 86.179015 
L 462.873786 87.234508 
L 463.178164 87.440808 
L 463.482543 86.538842 
L 463.786922 88.697804 
L 464.091301 88.777765 
L 464.39568 85.995104 
L 464.700059 87.498381 
L 465.004437 82.812635 
L 465.308816 89.065627 
L 465.613195 84.907627 
L 465.917574 84.675738 
L 466.221953 85.779208 
L 466.526332 86.378919 
L 466.830711 83.812154 
L 467.135089 85.243465 
L 467.439468 81.805119 
L 467.743847 81.213404 
L 468.352605 84.731712 
L 468.656984 81.909069 
L 468.961363 83.892115 
L 469.265741 82.164946 
L 469.57012 85.819188 
L 469.874499 86.099054 
L 470.178878 84.108012 
L 470.483257 86.946646 
L 470.787636 88.042119 
L 471.092015 87.0426 
L 471.396393 88.857727 
L 471.700772 84.795681 
L 472.005151 86.498862 
L 472.30953 85.787204 
L 472.613909 85.89915 
L 472.918288 87.106569 
L 473.222667 87.418419 
L 473.527045 85.147512 
L 473.831424 88.513892 
L 474.135803 90.624877 
L 474.744561 88.250019 
L 475.04894 87.834219 
L 475.353319 86.290962 
L 475.657697 88.266012 
L 475.962076 87.730269 
L 476.266455 89.295916 
L 476.570834 85.907146 
L 476.875213 90.105127 
L 477.179592 88.7058 
L 477.483971 88.969673 
L 477.788349 88.154065 
L 478.092728 89.01765 
L 478.397107 87.525568 
L 478.701486 87.346454 
L 479.005865 89.177573 
L 479.310244 88.253218 
L 479.614623 85.523331 
L 479.919001 86.546838 
L 480.527759 85.758418 
L 480.832138 86.666781 
L 481.136517 86.773929 
L 481.440896 84.899631 
L 481.745275 87.482388 
L 482.049653 86.698765 
L 482.354032 88.18605 
L 482.96279 86.330942 
L 483.267169 86.4189 
L 483.571548 86.666781 
L 483.875927 87.170538 
L 484.180305 89.1216 
L 484.484684 88.937688 
L 484.789063 86.330942 
L 485.093442 86.179015 
L 485.7022 86.962638 
L 486.006579 86.578823 
L 486.310957 84.275931 
L 486.615336 90.664858 
L 487.224094 87.114565 
L 487.528473 86.826704 
L 487.832852 87.738265 
L 488.441609 86.906665 
L 488.745988 84.787685 
L 489.050367 86.163023 
L 489.354746 84.203965 
L 489.659125 88.002138 
L 489.963504 87.330462 
L 490.267882 87.658304 
L 490.572261 83.935295 
L 490.87664 88.801754 
L 491.181019 86.390114 
L 491.485398 89.500618 
L 491.789777 84.65175 
L 492.094156 87.984547 
L 492.398534 102.94695 
L 492.702913 87.930173 
L 493.007292 100.012362 
L 493.311671 100.516119 
L 493.61605 98.78895 
L 493.920429 100.132304 
L 494.224808 89.113604 
L 494.529186 101.462864 
L 494.833565 75.85758 
L 495.137944 93.380352 
L 495.442323 77.904595 
L 495.746702 91.873876 
L 496.051081 92.574339 
L 496.35546 90.600888 
L 496.659838 79.108816 
L 496.964217 92.324859 
L 497.268596 77.480799 
L 497.572975 92.636709 
L 497.877354 78.574673 
L 498.181733 104.384658 
L 498.486112 105.29622 
L 498.79049 80.322632 
L 499.094869 94.036036 
L 499.399248 91.600408 
L 499.703627 92.959754 
L 500.008006 90.975108 
L 500.312385 92.561545 
L 500.616764 92.352046 
L 500.921142 89.096012 
L 501.225521 89.900425 
L 501.5299 89.9532 
L 501.834279 91.562026 
L 502.138658 79.292728 
L 502.443037 91.413298 
L 502.747416 89.76609 
L 503.051794 91.165417 
L 503.356173 78.833748 
L 503.660552 89.961196 
L 503.964931 87.981348 
L 504.26931 89.593373 
L 504.573689 89.244741 
L 504.878068 88.713796 
L 505.182446 86.546838 
L 505.486825 86.083062 
L 505.791204 86.498862 
L 506.095583 101.1798 
L 506.399962 84.659746 
L 506.704341 86.346935 
L 507.00872 87.405625 
L 507.313098 87.066588 
L 507.617477 88.421137 
L 507.921856 88.146069 
L 508.226235 88.708998 
L 508.834993 83.812154 
L 509.139372 87.018612 
L 509.44375 85.595296 
L 509.748129 88.641831 
L 510.052508 85.147512 
L 510.661266 88.521888 
L 510.965645 87.698285 
L 511.270024 88.210038 
L 511.574402 89.473431 
L 511.878781 87.498381 
L 512.18316 87.202523 
L 512.487539 87.570346 
L 512.791918 89.809269 
L 513.096297 86.802715 
L 513.400675 87.8742 
L 513.705054 85.211481 
L 514.009433 87.826223 
L 514.313812 86.338938 
L 514.618191 86.562831 
L 514.92257 85.995104 
L 515.226949 86.898669 
L 515.531327 86.075065 
L 515.835706 86.674777 
L 516.140085 88.345973 
L 516.444464 88.122081 
L 516.748843 87.034604 
L 517.053222 85.419381 
L 517.357601 87.706281 
L 517.661979 83.972077 
L 517.966358 84.962001 
L 518.270737 88.585858 
L 518.575116 88.194046 
L 518.879495 86.574025 
L 519.183874 86.318148 
L 519.488253 85.835181 
L 519.792631 84.899631 
L 520.09701 91.112642 
L 520.401389 85.395392 
L 520.705768 83.132481 
L 521.010147 84.539804 
L 521.314526 86.842696 
L 521.618905 84.092019 
L 521.923283 87.410423 
L 522.227662 84.163985 
L 522.532041 86.131038 
L 522.83642 85.667262 
L 523.140799 87.898188 
L 523.445178 83.588262 
L 523.749557 84.171981 
L 524.053935 84.363888 
L 524.358314 84.211962 
L 524.662693 82.716681 
L 524.967072 86.051077 
L 525.271451 84.579785 
L 525.57583 85.507338 
L 525.880209 72.193742 
L 526.184587 87.690288 
L 526.488966 72.673512 
L 526.793345 86.562831 
L 527.097724 72.993358 
L 527.402103 89.505415 
L 527.706482 71.713973 
L 528.010861 89.137592 
L 528.315239 67.771869 
L 528.619618 83.5083 
L 528.923997 70.402604 
L 529.228376 91.808308 
L 529.532755 72.793454 
L 529.837134 86.211 
L 530.141513 71.618019 
L 530.445891 86.482869 
L 530.75027 71.178231 
L 531.054649 86.362927 
L 531.359028 72.289696 
L 531.663407 85.643273 
L 531.967786 70.866381 
L 532.272165 88.034123 
L 532.576543 70.898365 
L 532.880922 86.139035 
L 533.185301 72.441623 
L 533.48968 89.5374 
L 533.794059 72.721488 
L 534.098438 96.829892 
L 534.402817 71.8659 
L 534.707195 88.353969 
L 535.011574 72.057808 
L 535.315953 85.475354 
L 535.620332 70.002796 
L 535.924711 94.582973 
L 536.22909 68.811369 
L 536.533468 84.995585 
L 536.837847 68.387573 
L 537.142226 88.010135 
L 537.446605 71.234204 
L 537.750984 85.467358 
L 538.055363 72.225727 
L 538.359742 87.501579 
L 538.66412 70.842392 
L 538.968499 87.727071 
L 539.272878 72.96777 
L 539.577257 87.301675 
L 539.881636 75.806405 
L 540.186015 90.154703 
L 540.490394 72.425631 
L 540.794772 88.473912 
L 541.099151 73.729004 
L 541.40353 114.773262 
L 541.707909 87.866204 
L 542.012288 88.090096 
L 542.316667 87.834219 
L 542.621046 89.972391 
L 542.925424 89.305512 
L 543.229803 90.369 
L 543.534182 86.773929 
L 543.838561 88.977669 
L 544.14294 89.732506 
L 544.447319 89.249538 
L 544.751698 90.664858 
L 545.056076 85.854372 
L 545.360455 86.566029 
L 545.664834 84.581384 
L 545.969213 85.230672 
L 546.273592 85.06755 
L 546.577971 82.668704 
L 546.88235 86.258977 
L 547.186728 86.394912 
L 547.491107 85.395392 
L 547.795486 85.475354 
L 548.404244 86.962638 
L 548.708623 83.340381 
L 549.013002 83.46672 
L 549.31738 81.784329 
L 549.621759 83.548281 
L 549.926138 85.971115 
L 550.230517 86.211 
L 550.534896 83.948088 
L 550.839275 85.755219 
L 551.143654 83.844138 
L 551.448032 85.739227 
L 552.05679 84.619765 
L 552.361169 83.084504 
L 552.665548 85.091538 
L 552.969927 83.636238 
L 553.274306 86.115046 
L 553.578684 84.7557 
L 553.883063 85.467358 
L 554.187442 83.5083 
L 554.491821 85.011577 
L 554.7962 84.267935 
L 555.100579 86.81391 
L 555.404958 85.341018 
L 555.709336 87.170538 
L 556.013715 87.434412 
L 556.318094 86.778727 
L 556.622473 85.683254 
L 556.926852 87.330462 
L 557.231231 86.099054 
L 557.53561 88.769769 
L 558.448746 85.331423 
L 558.753125 79.742112 
L 559.057504 85.931135 
L 559.361883 72.873415 
L 559.666261 85.811192 
L 559.97064 73.705015 
L 560.275019 88.377958 
L 560.579398 75.50415 
L 560.883777 88.409942 
L 561.188156 74.168792 
L 561.492535 86.762735 
L 561.796913 88.010135 
L 562.405671 86.650788 
L 562.71005 86.402908 
L 563.014429 89.3295 
L 563.623187 85.803196 
L 563.927565 87.634315 
L 564.231944 88.162062 
L 564.536323 85.243465 
L 564.840702 89.009654 
L 565.145081 85.094737 
L 565.44946 84.686933 
L 565.753839 87.930173 
L 566.058217 84.063233 
L 566.362596 85.875162 
L 566.666975 85.195488 
L 566.971354 85.630479 
L 567.275733 87.834219 
L 567.580112 84.883638 
L 567.884491 87.794238 
L 568.188869 85.099535 
L 568.493248 85.06755 
L 568.797627 84.627762 
L 569.102006 83.9241 
L 569.406385 84.563792 
L 569.710764 85.950325 
L 570.015143 85.576105 
L 570.319521 86.150229 
L 570.6239 85.027569 
L 570.928279 108.960058 
L 571.232658 85.427377 
L 571.537037 83.884119 
L 571.841416 86.338938 
L 572.145795 84.251942 
L 572.450173 86.378919 
L 572.754552 84.347896 
L 573.058931 84.691731 
L 573.36331 87.058592 
L 573.667689 87.578342 
L 573.972068 85.083542 
L 574.276447 85.779208 
L 574.580825 86.10705 
L 574.885204 84.347896 
L 575.189583 69.323123 
L 575.493962 84.987588 
L 575.798341 85.403388 
L 576.10272 83.908108 
L 576.407099 85.923138 
L 576.711477 82.8846 
L 577.015856 86.218996 
L 577.320235 84.139996 
L 577.928993 85.1715 
L 578.233372 85.427377 
L 578.537751 84.571788 
L 578.842129 85.091538 
L 579.146508 84.619765 
L 579.450887 82.244908 
L 579.755266 84.475835 
L 580.059645 83.916104 
L 580.364024 81.613212 
L 580.668403 84.971596 
L 580.972781 82.764658 
L 581.27716 84.819669 
L 581.581539 84.403869 
L 581.885918 85.091538 
L 582.190297 83.948088 
L 582.494676 84.787685 
L 582.799054 84.531808 
L 583.103433 86.306954 
L 583.407812 85.123523 
L 583.712191 87.066588 
L 584.01657 86.035085 
L 584.320949 89.289519 
L 584.625328 89.481427 
L 584.929706 88.194046 
L 585.234085 85.539323 
L 585.538464 89.583778 
L 585.842843 86.27337 
L 586.147222 87.706281 
L 586.451601 86.091058 
L 586.75598 87.570346 
L 587.060358 84.627762 
L 587.364737 86.882677 
L 587.669116 83.892115 
L 587.973495 86.93865 
L 588.277874 86.203004 
L 588.582253 85.019573 
L 588.886632 85.987108 
L 589.19101 87.898188 
L 589.495389 87.450404 
L 589.799768 85.987108 
L 590.104147 86.8347 
L 590.408526 85.915142 
L 590.712905 87.106569 
L 591.017284 86.410904 
L 591.321662 88.138073 
L 591.626041 89.113604 
L 592.234799 85.435373 
L 592.539178 88.433931 
L 592.843557 88.401946 
L 593.147936 90.9927 
L 593.452314 87.578342 
L 593.756693 89.196764 
L 594.061072 90.201081 
L 594.365451 90.608885 
L 594.66983 88.213237 
L 594.974209 87.85341 
L 595.278588 86.89707 
L 595.582966 87.282485 
L 595.887345 87.421618 
L 596.191724 86.430095 
L 596.496103 86.929055 
L 596.800482 86.463678 
L 597.104861 85.078745 
L 597.40924 87.309672 
L 597.713618 87.6663 
L 598.017997 86.234988 
L 598.626755 87.242504 
L 598.931134 87.290481 
L 599.235513 85.291442 
L 599.539892 87.02181 
L 599.84427 85.603292 
L 600.148649 85.390595 
L 600.453028 85.531327 
L 600.757407 86.362927 
L 601.366165 88.729788 
L 601.670544 87.394431 
L 601.974922 73.578676 
L 602.279301 84.451846 
L 602.58368 74.763706 
L 602.888059 86.948245 
L 603.192438 85.860768 
L 603.496817 85.787204 
L 603.801196 76.826714 
L 604.105574 83.596258 
L 604.409953 70.266669 
L 604.714332 86.637995 
L 605.018711 68.262833 
L 605.32309 83.524292 
L 605.627469 74.955614 
L 605.931848 90.258653 
L 606.236226 88.443526 
L 606.844984 89.594972 
L 607.149363 88.390752 
L 607.453742 91.523645 
L 607.758121 92.208115 
L 608.062499 90.738422 
L 608.366878 90.164298 
L 608.671257 87.384835 
L 608.975636 89.852448 
L 609.280015 91.269367 
L 609.584394 89.030444 
L 609.888773 90.356206 
L 610.193151 90.028364 
L 610.49753 88.296397 
L 610.801909 88.584258 
L 611.106288 88.413141 
L 611.410667 89.860445 
L 612.019425 86.08626 
L 612.323803 84.531808 
L 612.628182 88.363565 
L 612.932561 87.519171 
L 613.23694 87.205722 
L 613.541319 85.979112 
L 613.845698 90.380195 
L 614.150077 89.7453 
L 614.758834 85.123523 
L 615.367592 88.801754 
L 615.671971 86.282965 
L 615.97635 87.994142 
L 616.280729 86.922658 
L 616.585107 87.306473 
L 617.193865 87.322465 
L 617.802623 85.659265 
L 618.107002 88.377958 
L 618.411381 86.306954 
L 618.715759 88.457919 
L 619.020138 86.075065 
L 619.324517 87.130558 
L 619.628896 87.050596 
L 619.933275 88.157264 
L 620.237654 88.777765 
L 620.542033 85.686452 
L 620.846411 86.714758 
L 621.15079 88.505896 
L 621.455169 87.010615 
L 621.759548 87.466396 
L 622.063927 114.453415 
L 622.368306 113.389927 
L 622.672685 110.199462 
L 622.977063 113.760948 
L 623.281442 103.106873 
L 623.585821 115.572877 
L 623.8902 114.405438 
L 624.194579 115.812762 
L 624.498958 115.352183 
L 624.803337 116.636365 
L 625.107715 113.413915 
L 625.412094 115.844746 
L 625.716473 116.083032 
L 626.020852 113.230004 
L 626.325231 105.929515 
L 626.62961 86.8347 
L 626.933989 87.026608 
L 627.238367 87.842215 
L 627.542746 80.501746 
L 627.847125 85.763215 
L 628.151504 72.729485 
L 628.455883 85.833582 
L 628.760262 79.510223 
L 629.064641 85.755219 
L 629.369019 85.235469 
L 629.673398 86.550037 
L 629.977777 75.299448 
L 630.282156 85.496144 
L 630.586535 69.836476 
L 630.890914 89.866842 
L 631.195292 63.500324 
L 631.499671 87.847013 
L 631.80405 63.533908 
L 632.108429 87.706281 
L 632.412808 58.296427 
L 632.717187 87.138554 
L 633.021566 60.026795 
L 633.325944 87.2505 
L 633.630323 90.159501 
L 633.934702 88.304393 
L 634.239081 59.886062 
L 634.54346 86.569228 
L 634.847839 63.122905 
L 635.152218 89.655743 
L 635.456596 65.033986 
L 635.760975 86.073466 
L 636.065354 90.736823 
L 636.369733 87.064989 
L 636.674112 76.81392 
L 636.978491 89.257535 
L 637.28287 73.349986 
L 637.587248 87.754258 
L 637.891627 61.051902 
L 638.196006 88.984066 
L 638.500385 60.759242 
L 638.804764 86.685972 
L 639.109143 60.183519 
L 639.413522 89.255935 
L 639.7179 62.296103 
L 640.022279 87.370442 
L 640.326658 59.855677 
L 640.631037 84.843658 
L 640.935416 59.128027 
L 641.239795 87.570346 
L 641.544174 59.583808 
L 641.848552 84.579785 
L 642.152931 83.244427 
L 642.45731 85.267454 
L 642.761689 60.583327 
L 643.066068 86.898669 
L 643.370447 61.55406 
L 643.674826 86.470075 
L 643.979204 61.705987 
L 644.283583 86.593216 
L 644.587962 59.674964 
L 644.892341 86.498862 
L 645.19672 85.203485 
L 645.501099 101.28375 
L 645.805478 84.579785 
L 646.109856 85.259458 
L 646.414235 84.747704 
L 646.718614 82.708685 
L 647.022993 85.651269 
L 647.327372 84.971596 
L 647.631751 87.482388 
L 647.93613 96.621992 
L 648.240508 90.009173 
L 648.544887 90.936727 
L 648.849266 89.881235 
L 649.153645 98.964865 
L 649.458024 90.904742 
L 649.762403 89.897227 
L 650.066782 90.856765 
L 650.37116 87.994142 
L 650.675539 88.673815 
L 650.979918 90.289038 
L 651.284297 75.312242 
L 651.588676 91.272565 
L 651.893055 88.633835 
L 652.197434 89.065627 
L 652.806191 86.893872 
L 653.414949 91.210195 
L 653.719328 89.084818 
L 654.023707 85.955123 
L 654.328085 112.985322 
L 654.632464 89.985185 
L 654.936843 88.881715 
L 655.241222 90.912738 
L 656.154359 84.531808 
L 656.763116 88.341175 
L 657.067495 83.396354 
L 657.371874 86.434892 
L 657.676253 86.354931 
L 657.980632 87.122562 
L 658.589389 82.508781 
L 658.893768 83.380362 
L 659.198147 82.836623 
L 659.502526 83.684215 
L 659.806905 85.083542 
L 660.111284 85.035565 
L 660.415663 83.292404 
L 660.720041 84.124004 
L 661.02442 85.603292 
L 661.328799 86.019092 
L 661.633178 88.29 
L 661.937557 86.546838 
L 662.241936 87.282485 
L 662.546315 85.891154 
L 662.850693 87.634315 
L 663.155072 86.466877 
L 663.459451 87.114565 
L 663.76383 86.6268 
L 664.068209 87.682292 
L 664.676967 87.010615 
L 664.981345 87.490385 
L 665.285724 88.521888 
L 665.894482 84.635758 
L 666.198861 88.9137 
L 666.50324 88.138073 
L 666.807619 89.897227 
L 667.111997 75.847985 
L 667.416376 88.282004 
L 667.720755 74.544612 
L 668.025134 90.456958 
L 668.329513 76.447696 
L 668.633892 100.811977 
L 668.938271 74.000873 
L 669.242649 87.002619 
L 669.547028 78.686619 
L 669.851407 86.73075 
L 670.155786 72.641527 
L 670.460165 85.875162 
L 670.764544 73.297212 
L 671.068923 84.939612 
L 671.373301 76.399719 
L 671.67768 87.306473 
L 671.982059 71.426112 
L 672.286438 90.9927 
L 672.590817 74.784496 
L 672.895196 87.4584 
L 673.199575 73.30041 
L 673.503953 86.746742 
L 673.808332 76.431704 
L 674.112711 87.226512 
L 674.41709 75.855981 
L 674.721469 89.436648 
L 675.025848 73.313204 
L 675.330227 116.724323 
L 675.634605 72.185746 
L 675.938984 101.947431 
L 676.243363 74.312723 
L 676.547742 98.325173 
L 676.852121 73.832954 
L 677.1565 101.563615 
L 677.460878 74.408677 
L 677.765257 100.084327 
L 678.069636 72.425631 
L 678.374015 99.660531 
L 678.678394 73.856942 
L 678.982773 100.108315 
L 679.287152 77.439219 
L 679.59153 100.955908 
L 679.895909 75.448177 
L 680.200288 102.467181 
L 680.504667 74.624573 
L 680.809046 100.580088 
L 681.113425 74.248754 
L 681.417804 103.938473 
L 681.722182 73.713012 
L 682.026561 101.825889 
L 682.33094 75.790412 
L 682.635319 99.876427 
L 682.939698 74.480642 
L 683.244077 101.691554 
L 683.548456 73.760988 
L 683.852834 103.578646 
L 684.157213 75.776019 
L 684.461592 100.795985 
L 684.765971 73.353185 
L 685.07035 101.28375 
L 685.374729 75.907156 
L 685.679108 102.187315 
L 685.983486 75.943938 
L 686.287865 103.645814 
L 686.592244 78.345983 
L 686.896623 101.827488 
L 687.201002 77.544768 
L 687.505381 95.416172 
L 687.80976 77.274498 
L 688.114138 93.166055 
L 688.418517 64.739728 
L 688.722896 103.126064 
L 689.027275 67.891812 
L 689.331654 94.862838 
L 689.636033 62.275313 
L 689.940412 92.88459 
L 690.24479 60.173924 
L 690.549169 94.151181 
L 690.853548 64.557415 
L 691.157927 92.355245 
L 691.462306 60.463385 
L 691.766685 90.097131 
L 692.071064 61.247008 
L 692.375442 88.266012 
L 692.679821 63.118108 
L 692.9842 97.144941 
L 693.288579 60.815215 
L 693.592958 86.602812 
L 693.897337 59.991612 
L 694.201716 87.290481 
L 694.506094 57.720704 
L 694.810473 85.515335 
L 695.114852 58.800185 
L 695.419231 87.234508 
L 695.72361 59.527835 
L 696.027989 105.305815 
L 696.332368 56.729181 
L 696.636746 108.256396 
L 696.941125 75.648081 
L 697.245504 104.810054 
L 697.549883 78.014942 
L 697.854262 87.930173 
L 698.158641 74.520623 
L 698.46302 87.386435 
L 698.767398 83.212442 
L 699.071777 85.995104 
L 699.376156 83.756181 
L 699.680535 87.570346 
L 699.984914 84.139996 
L 700.289293 89.156783 
L 700.593672 88.969673 
L 700.89805 89.001658 
L 701.202429 84.867646 
L 701.811187 88.513892 
L 702.115566 85.923138 
L 702.419945 85.25466 
L 702.724323 83.532288 
L 703.028702 82.78065 
L 703.333081 83.988069 
L 703.63746 81.517258 
L 703.941839 83.628242 
L 704.550597 80.037969 
L 704.854975 79.670146 
L 705.159354 79.958008 
L 705.768112 82.116969 
L 706.072491 80.133923 
L 706.37687 82.724677 
L 706.681249 80.621688 
L 706.985627 81.853096 
L 707.290006 81.565235 
L 707.594385 79.654154 
L 707.898764 81.853096 
L 708.507522 80.437777 
L 708.811901 82.708685 
L 709.116279 80.3898 
L 709.420658 80.781612 
L 709.725037 78.638642 
L 710.029416 82.045004 
L 710.333795 80.365812 
L 710.638174 80.869569 
L 710.942553 80.397796 
L 711.246931 86.338938 
L 711.55131 81.685177 
L 711.855689 82.332865 
L 712.160068 82.388838 
L 712.464447 82.316873 
L 712.768826 81.109454 
L 713.073205 85.395392 
L 713.377583 83.436335 
L 713.681962 84.427858 
L 713.986341 84.475835 
L 714.29072 81.757142 
L 714.595099 83.212442 
L 714.899478 82.452808 
L 715.203857 84.203965 
L 715.508235 81.53325 
L 715.812614 81.085465 
L 716.116993 85.595296 
L 716.725751 83.116488 
L 717.03013 83.068512 
L 717.334509 82.196931 
L 717.638887 84.731712 
L 717.943266 83.156469 
L 718.247645 84.539804 
L 718.552024 84.771692 
L 718.856403 83.218839 
L 719.160782 84.754101 
L 719.465161 84.176778 
L 719.769539 82.751864 
L 720.073918 82.196931 
L 720.378297 82.764658 
L 720.682676 85.051558 
L 720.987055 86.490865 
L 721.291434 83.084504 
L 721.595813 85.310633 
L 721.900191 83.252423 
L 722.20457 83.436335 
L 722.508949 81.053481 
L 722.813328 82.021015 
L 723.422086 86.361328 
L 723.726465 85.915142 
L 724.030843 85.974314 
L 724.335222 83.879322 
L 724.639601 84.858051 
L 724.94398 86.809112 
L 725.248359 87.335259 
L 725.552738 83.916104 
L 725.857116 85.297839 
L 726.161495 85.782406 
L 726.465874 83.498705 
L 726.770253 82.11537 
L 727.074632 85.187492 
L 727.379011 83.332385 
L 727.68339 85.387396 
L 727.987768 83.236431 
L 728.292147 84.291923 
L 728.900905 85.051558 
L 729.205284 82.452808 
L 729.509663 85.643273 
L 729.814042 84.931615 
L 730.11842 86.0031 
L 730.422799 83.932096 
L 730.727178 84.723715 
L 731.031557 81.885081 
L 731.335936 84.750902 
L 731.640315 84.515815 
L 731.944694 84.969997 
L 732.249072 84.459842 
L 732.553451 84.243946 
L 732.85783 83.014138 
L 733.162209 84.73491 
L 733.466588 82.756662 
L 733.770967 83.316392 
L 734.075346 80.237873 
L 734.379724 84.275931 
L 734.684103 79.846062 
L 734.988482 82.788646 
L 735.292861 82.108973 
L 735.59724 85.835181 
L 735.901619 84.523812 
L 736.205998 85.267454 
L 736.814755 86.0031 
L 737.119134 83.812154 
L 737.423513 85.603292 
L 737.727892 85.339419 
L 738.032271 84.65175 
L 738.33665 83.348377 
L 738.641028 85.803196 
L 738.945407 81.181419 
L 739.249786 86.242985 
L 739.554165 82.336064 
L 739.858544 85.06755 
L 740.162923 83.668223 
L 740.467302 85.475354 
L 740.77168 83.140477 
L 741.076059 82.155351 
L 741.380438 83.660227 
L 741.684817 83.228435 
L 741.989196 82.990149 
L 742.597954 82.348858 
L 742.902332 86.131038 
L 743.206711 81.386121 
L 743.51109 86.203004 
L 743.815469 85.654468 
L 744.119848 86.953043 
L 744.424227 83.941692 
L 744.728606 85.89915 
L 745.032984 83.911306 
L 745.337363 86.989825 
L 745.641742 81.649994 
L 745.946121 84.335102 
L 746.2505 80.984714 
L 746.554879 84.659746 
L 746.859258 82.78065 
L 747.163636 84.795681 
L 747.163636 84.795681 
" clip-path="url(#p0355840489)" style="fill: none; stroke: #dd8452; stroke-width: 1.5; stroke-linecap: round"/>
   </g>
   <g id="patch_3">
    <path d="M 108 192.24 
L 108 25.92 
" style="fill: none; stroke: #ffffff; stroke-width: 1.25; stroke-linejoin: miter; stroke-linecap: square"/>
   </g>
   <g id="patch_4">
    <path d="M 777.6 192.24 
L 777.6 25.92 
" style="fill: none; stroke: #ffffff; stroke-width: 1.25; stroke-linejoin: miter; stroke-linecap: square"/>
   </g>
   <g id="patch_5">
    <path d="M 108 192.24 
L 777.6 192.24 
" style="fill: none; stroke: #ffffff; stroke-width: 1.25; stroke-linejoin: miter; stroke-linecap: square"/>
   </g>
   <g id="patch_6">
    <path d="M 108 25.92 
L 777.6 25.92 
" style="fill: none; stroke: #ffffff; stroke-width: 1.25; stroke-linejoin: miter; stroke-linecap: square"/>
   </g>
   <g id="legend_1">
    <g id="patch_7">
     <path d="M 655.415781 186.74 
L 769.9 186.74 
Q 772.1 186.74 772.1 184.54 
L 772.1 154.391406 
Q 772.1 152.191406 769.9 152.191406 
L 655.415781 152.191406 
Q 653.215781 152.191406 653.215781 154.391406 
L 653.215781 184.54 
Q 653.215781 186.74 655.415781 186.74 
z
" style="fill: #eaeaf2; opacity: 0.8; stroke: #cccccc; stroke-linejoin: miter"/>
    </g>
    <g id="line2d_19">
     <path d="M 657.615781 160.615 
L 668.615781 160.615 
L 679.615781 160.615 
" style="fill: none; stroke: #4c72b0; stroke-width: 1.5; stroke-linecap: round"/>
    </g>
    <g id="text_19">
     <!-- Max Fitness -->
     <g style="fill: #262626" transform="translate(688.415781 164.465) scale(0.11 -0.11)">
      <defs>
       <path id="ArialMT-4d" d="M 475 0 
L 475 4581 
L 1388 4581 
L 2472 1338 
Q 2622 884 2691 659 
Q 2769 909 2934 1394 
L 4031 4581 
L 4847 4581 
L 4847 0 
L 4263 0 
L 4263 3834 
L 2931 0 
L 2384 0 
L 1059 3900 
L 1059 0 
L 475 0 
z
" transform="scale(0.015625)"/>
       <path id="ArialMT-78" d="M 47 0 
L 1259 1725 
L 138 3319 
L 841 3319 
L 1350 2541 
Q 1494 2319 1581 2169 
Q 1719 2375 1834 2534 
L 2394 3319 
L 3066 3319 
L 1919 1756 
L 3153 0 
L 2463 0 
L 1781 1031 
L 1600 1309 
L 728 0 
L 47 0 
z
" transform="scale(0.015625)"/>
       <path id="ArialMT-20" transform="scale(0.015625)"/>
      </defs>
      <use xlink:href="#ArialMT-4d"/>
      <use xlink:href="#ArialMT-61" x="83.300781"/>
      <use xlink:href="#ArialMT-78" x="138.916016"/>
      <use xlink:href="#ArialMT-20" x="188.916016"/>
      <use xlink:href="#ArialMT-46" x="216.699219"/>
      <use xlink:href="#ArialMT-69" x="277.783203"/>
      <use xlink:href="#ArialMT-74" x="300"/>
      <use xlink:href="#ArialMT-6e" x="327.783203"/>
      <use xlink:href="#ArialMT-65" x="383.398438"/>
      <use xlink:href="#ArialMT-73" x="439.013672"/>
      <use xlink:href="#ArialMT-73" x="489.013672"/>
     </g>
    </g>
    <g id="line2d_20">
     <path d="M 657.615781 176.174844 
L 668.615781 176.174844 
L 679.615781 176.174844 
" style="fill: none; stroke: #dd8452; stroke-width: 1.5; stroke-linecap: round"/>
    </g>
    <g id="text_20">
     <!-- Average Fitness -->
     <g style="fill: #262626" transform="translate(688.415781 180.024844) scale(0.11 -0.11)">
      <defs>
       <path id="ArialMT-41" d="M -9 0 
L 1750 4581 
L 2403 4581 
L 4278 0 
L 3588 0 
L 3053 1388 
L 1138 1388 
L 634 0 
L -9 0 
z
M 1313 1881 
L 2866 1881 
L 2388 3150 
Q 2169 3728 2063 4100 
Q 1975 3659 1816 3225 
L 1313 1881 
z
" transform="scale(0.015625)"/>
       <path id="ArialMT-76" d="M 1344 0 
L 81 3319 
L 675 3319 
L 1388 1331 
Q 1503 1009 1600 663 
Q 1675 925 1809 1294 
L 2547 3319 
L 3125 3319 
L 1869 0 
L 1344 0 
z
" transform="scale(0.015625)"/>
       <path id="ArialMT-67" d="M 319 -275 
L 866 -356 
Q 900 -609 1056 -725 
Q 1266 -881 1628 -881 
Q 2019 -881 2231 -725 
Q 2444 -569 2519 -288 
Q 2563 -116 2559 434 
Q 2191 0 1641 0 
Q 956 0 581 494 
Q 206 988 206 1678 
Q 206 2153 378 2554 
Q 550 2956 876 3175 
Q 1203 3394 1644 3394 
Q 2231 3394 2613 2919 
L 2613 3319 
L 3131 3319 
L 3131 450 
Q 3131 -325 2973 -648 
Q 2816 -972 2473 -1159 
Q 2131 -1347 1631 -1347 
Q 1038 -1347 672 -1080 
Q 306 -813 319 -275 
z
M 784 1719 
Q 784 1066 1043 766 
Q 1303 466 1694 466 
Q 2081 466 2343 764 
Q 2606 1063 2606 1700 
Q 2606 2309 2336 2618 
Q 2066 2928 1684 2928 
Q 1309 2928 1046 2623 
Q 784 2319 784 1719 
z
" transform="scale(0.015625)"/>
      </defs>
      <use xlink:href="#ArialMT-41"/>
      <use xlink:href="#ArialMT-76" x="64.949219"/>
      <use xlink:href="#ArialMT-65" x="114.949219"/>
      <use xlink:href="#ArialMT-72" x="170.564453"/>
      <use xlink:href="#ArialMT-61" x="203.865234"/>
      <use xlink:href="#ArialMT-67" x="259.480469"/>
      <use xlink:href="#ArialMT-65" x="315.095703"/>
      <use xlink:href="#ArialMT-20" x="370.710938"/>
      <use xlink:href="#ArialMT-46" x="398.494141"/>
      <use xlink:href="#ArialMT-69" x="459.578125"/>
      <use xlink:href="#ArialMT-74" x="481.794922"/>
      <use xlink:href="#ArialMT-6e" x="509.578125"/>
      <use xlink:href="#ArialMT-65" x="565.193359"/>
      <use xlink:href="#ArialMT-73" x="620.808594"/>
      <use xlink:href="#ArialMT-73" x="670.808594"/>
     </g>
    </g>
   </g>
  </g>
 </g>
 <defs>
  <clipPath id="p0355840489">
   <rect x="108" y="25.92" width="669.6" height="166.32"/>
  </clipPath>
 </defs>
</svg>
