<?xml version="1.0" encoding="utf-8" standalone="no"?>
<!DOCTYPE svg PUBLIC "-//W3C//DTD SVG 1.1//EN"
  "http://www.w3.org/Graphics/SVG/1.1/DTD/svg11.dtd">
<svg xmlns:xlink="http://www.w3.org/1999/xlink" width="864pt" height="216pt" viewBox="0 0 864 216" xmlns="http://www.w3.org/2000/svg" version="1.1">
 <metadata>
  <rdf:RDF xmlns:dc="http://purl.org/dc/elements/1.1/" xmlns:cc="http://creativecommons.org/ns#" xmlns:rdf="http://www.w3.org/1999/02/22-rdf-syntax-ns#">
   <cc:Work>
    <dc:type rdf:resource="http://purl.org/dc/dcmitype/StillImage"/>
    <dc:date>2024-05-02T14:18:42.130784</dc:date>
    <dc:format>image/svg+xml</dc:format>
    <dc:creator>
     <cc:Agent>
      <dc:title>Matplotlib v3.8.0, https://matplotlib.org/</dc:title>
     </cc:Agent>
    </dc:creator>
   </cc:Work>
  </rdf:RDF>
 </metadata>
 <defs>
  <style type="text/css">*{stroke-linejoin: round; stroke-linecap: butt}</style>
 </defs>
 <g id="figure_1">
  <g id="patch_1">
   <path d="M 0 216 
L 864 216 
L 864 0 
L 0 0 
z
" style="fill: #ffffff"/>
  </g>
  <g id="axes_1">
   <g id="patch_2">
    <path d="M 108 192.24 
L 777.6 192.24 
L 777.6 25.92 
L 108 25.92 
z
" style="fill: #eaeaf2"/>
   </g>
   <g id="matplotlib.axis_1">
    <g id="xtick_1">
     <g id="line2d_1">
      <path d="M 138.375479 192.24 
L 138.375479 25.92 
" clip-path="url(#p67ba815a6d)" style="fill: none; stroke: #ffffff; stroke-linecap: round"/>
     </g>
     <g id="text_1">
      <!-- 0 -->
      <g style="fill: #262626" transform="translate(135.316963 209.613594) scale(0.11 -0.11)">
       <defs>
        <path id="ArialMT-30" d="M 266 2259 
Q 266 3072 433 3567 
Q 600 4063 929 4331 
Q 1259 4600 1759 4600 
Q 2128 4600 2406 4451 
Q 2684 4303 2865 4023 
Q 3047 3744 3150 3342 
Q 3253 2941 3253 2259 
Q 3253 1453 3087 958 
Q 2922 463 2592 192 
Q 2263 -78 1759 -78 
Q 1097 -78 719 397 
Q 266 969 266 2259 
z
M 844 2259 
Q 844 1131 1108 757 
Q 1372 384 1759 384 
Q 2147 384 2411 759 
Q 2675 1134 2675 2259 
Q 2675 3391 2411 3762 
Q 2147 4134 1753 4134 
Q 1366 4134 1134 3806 
Q 844 3388 844 2259 
z
" transform="scale(0.015625)"/>
       </defs>
       <use xlink:href="#ArialMT-30"/>
      </g>
     </g>
    </g>
    <g id="xtick_2">
     <g id="line2d_2">
      <path d="M 260.145287 192.24 
L 260.145287 25.92 
" clip-path="url(#p67ba815a6d)" style="fill: none; stroke: #ffffff; stroke-linecap: round"/>
     </g>
     <g id="text_2">
      <!-- 2000 -->
      <g style="fill: #262626" transform="translate(247.911225 209.613594) scale(0.11 -0.11)">
       <defs>
        <path id="ArialMT-32" d="M 3222 541 
L 3222 0 
L 194 0 
Q 188 203 259 391 
Q 375 700 629 1000 
Q 884 1300 1366 1694 
Q 2113 2306 2375 2664 
Q 2638 3022 2638 3341 
Q 2638 3675 2398 3904 
Q 2159 4134 1775 4134 
Q 1369 4134 1125 3890 
Q 881 3647 878 3216 
L 300 3275 
Q 359 3922 746 4261 
Q 1134 4600 1788 4600 
Q 2447 4600 2831 4234 
Q 3216 3869 3216 3328 
Q 3216 3053 3103 2787 
Q 2991 2522 2730 2228 
Q 2469 1934 1863 1422 
Q 1356 997 1212 845 
Q 1069 694 975 541 
L 3222 541 
z
" transform="scale(0.015625)"/>
       </defs>
       <use xlink:href="#ArialMT-32"/>
       <use xlink:href="#ArialMT-30" x="55.615234"/>
       <use xlink:href="#ArialMT-30" x="111.230469"/>
       <use xlink:href="#ArialMT-30" x="166.845703"/>
      </g>
     </g>
    </g>
    <g id="xtick_3">
     <g id="line2d_3">
      <path d="M 381.915096 192.24 
L 381.915096 25.92 
" clip-path="url(#p67ba815a6d)" style="fill: none; stroke: #ffffff; stroke-linecap: round"/>
     </g>
     <g id="text_3">
      <!-- 4000 -->
      <g style="fill: #262626" transform="translate(369.681033 209.613594) scale(0.11 -0.11)">
       <defs>
        <path id="ArialMT-34" d="M 2069 0 
L 2069 1097 
L 81 1097 
L 81 1613 
L 2172 4581 
L 2631 4581 
L 2631 1613 
L 3250 1613 
L 3250 1097 
L 2631 1097 
L 2631 0 
L 2069 0 
z
M 2069 1613 
L 2069 3678 
L 634 1613 
L 2069 1613 
z
" transform="scale(0.015625)"/>
       </defs>
       <use xlink:href="#ArialMT-34"/>
       <use xlink:href="#ArialMT-30" x="55.615234"/>
       <use xlink:href="#ArialMT-30" x="111.230469"/>
       <use xlink:href="#ArialMT-30" x="166.845703"/>
      </g>
     </g>
    </g>
    <g id="xtick_4">
     <g id="line2d_4">
      <path d="M 503.684904 192.24 
L 503.684904 25.92 
" clip-path="url(#p67ba815a6d)" style="fill: none; stroke: #ffffff; stroke-linecap: round"/>
     </g>
     <g id="text_4">
      <!-- 6000 -->
      <g style="fill: #262626" transform="translate(491.450842 209.613594) scale(0.11 -0.11)">
       <defs>
        <path id="ArialMT-36" d="M 3184 3459 
L 2625 3416 
Q 2550 3747 2413 3897 
Q 2184 4138 1850 4138 
Q 1581 4138 1378 3988 
Q 1113 3794 959 3422 
Q 806 3050 800 2363 
Q 1003 2672 1297 2822 
Q 1591 2972 1913 2972 
Q 2475 2972 2870 2558 
Q 3266 2144 3266 1488 
Q 3266 1056 3080 686 
Q 2894 316 2569 119 
Q 2244 -78 1831 -78 
Q 1128 -78 684 439 
Q 241 956 241 2144 
Q 241 3472 731 4075 
Q 1159 4600 1884 4600 
Q 2425 4600 2770 4297 
Q 3116 3994 3184 3459 
z
M 888 1484 
Q 888 1194 1011 928 
Q 1134 663 1356 523 
Q 1578 384 1822 384 
Q 2178 384 2434 671 
Q 2691 959 2691 1453 
Q 2691 1928 2437 2201 
Q 2184 2475 1800 2475 
Q 1419 2475 1153 2201 
Q 888 1928 888 1484 
z
" transform="scale(0.015625)"/>
       </defs>
       <use xlink:href="#ArialMT-36"/>
       <use xlink:href="#ArialMT-30" x="55.615234"/>
       <use xlink:href="#ArialMT-30" x="111.230469"/>
       <use xlink:href="#ArialMT-30" x="166.845703"/>
      </g>
     </g>
    </g>
    <g id="xtick_5">
     <g id="line2d_5">
      <path d="M 625.454713 192.24 
L 625.454713 25.92 
" clip-path="url(#p67ba815a6d)" style="fill: none; stroke: #ffffff; stroke-linecap: round"/>
     </g>
     <g id="text_5">
      <!-- 8000 -->
      <g style="fill: #262626" transform="translate(613.22065 209.613594) scale(0.11 -0.11)">
       <defs>
        <path id="ArialMT-38" d="M 1131 2484 
Q 781 2613 612 2850 
Q 444 3088 444 3419 
Q 444 3919 803 4259 
Q 1163 4600 1759 4600 
Q 2359 4600 2725 4251 
Q 3091 3903 3091 3403 
Q 3091 3084 2923 2848 
Q 2756 2613 2416 2484 
Q 2838 2347 3058 2040 
Q 3278 1734 3278 1309 
Q 3278 722 2862 322 
Q 2447 -78 1769 -78 
Q 1091 -78 675 323 
Q 259 725 259 1325 
Q 259 1772 486 2073 
Q 713 2375 1131 2484 
z
M 1019 3438 
Q 1019 3113 1228 2906 
Q 1438 2700 1772 2700 
Q 2097 2700 2305 2904 
Q 2513 3109 2513 3406 
Q 2513 3716 2298 3927 
Q 2084 4138 1766 4138 
Q 1444 4138 1231 3931 
Q 1019 3725 1019 3438 
z
M 838 1322 
Q 838 1081 952 856 
Q 1066 631 1291 507 
Q 1516 384 1775 384 
Q 2178 384 2440 643 
Q 2703 903 2703 1303 
Q 2703 1709 2433 1975 
Q 2163 2241 1756 2241 
Q 1359 2241 1098 1978 
Q 838 1716 838 1322 
z
" transform="scale(0.015625)"/>
       </defs>
       <use xlink:href="#ArialMT-38"/>
       <use xlink:href="#ArialMT-30" x="55.615234"/>
       <use xlink:href="#ArialMT-30" x="111.230469"/>
       <use xlink:href="#ArialMT-30" x="166.845703"/>
      </g>
     </g>
    </g>
    <g id="xtick_6">
     <g id="line2d_6">
      <path d="M 747.224521 192.24 
L 747.224521 25.92 
" clip-path="url(#p67ba815a6d)" style="fill: none; stroke: #ffffff; stroke-linecap: round"/>
     </g>
     <g id="text_6">
      <!-- 10000 -->
      <g style="fill: #262626" transform="translate(731.931943 209.613594) scale(0.11 -0.11)">
       <defs>
        <path id="ArialMT-31" d="M 2384 0 
L 1822 0 
L 1822 3584 
Q 1619 3391 1289 3197 
Q 959 3003 697 2906 
L 697 3450 
Q 1169 3672 1522 3987 
Q 1875 4303 2022 4600 
L 2384 4600 
L 2384 0 
z
" transform="scale(0.015625)"/>
       </defs>
       <use xlink:href="#ArialMT-31"/>
       <use xlink:href="#ArialMT-30" x="55.615234"/>
       <use xlink:href="#ArialMT-30" x="111.230469"/>
       <use xlink:href="#ArialMT-30" x="166.845703"/>
       <use xlink:href="#ArialMT-30" x="222.460938"/>
      </g>
     </g>
    </g>
    <g id="text_7">
     <!-- Generation -->
     <g style="fill: #262626" transform="translate(413.115938 224.389219) scale(0.12 -0.12)">
      <defs>
       <path id="ArialMT-47" d="M 2638 1797 
L 2638 2334 
L 4578 2338 
L 4578 638 
Q 4131 281 3656 101 
Q 3181 -78 2681 -78 
Q 2006 -78 1454 211 
Q 903 500 622 1047 
Q 341 1594 341 2269 
Q 341 2938 620 3517 
Q 900 4097 1425 4378 
Q 1950 4659 2634 4659 
Q 3131 4659 3532 4498 
Q 3934 4338 4162 4050 
Q 4391 3763 4509 3300 
L 3963 3150 
Q 3859 3500 3706 3700 
Q 3553 3900 3268 4020 
Q 2984 4141 2638 4141 
Q 2222 4141 1919 4014 
Q 1616 3888 1430 3681 
Q 1244 3475 1141 3228 
Q 966 2803 966 2306 
Q 966 1694 1177 1281 
Q 1388 869 1791 669 
Q 2194 469 2647 469 
Q 3041 469 3416 620 
Q 3791 772 3984 944 
L 3984 1797 
L 2638 1797 
z
" transform="scale(0.015625)"/>
       <path id="ArialMT-65" d="M 2694 1069 
L 3275 997 
Q 3138 488 2766 206 
Q 2394 -75 1816 -75 
Q 1088 -75 661 373 
Q 234 822 234 1631 
Q 234 2469 665 2931 
Q 1097 3394 1784 3394 
Q 2450 3394 2872 2941 
Q 3294 2488 3294 1666 
Q 3294 1616 3291 1516 
L 816 1516 
Q 847 969 1125 678 
Q 1403 388 1819 388 
Q 2128 388 2347 550 
Q 2566 713 2694 1069 
z
M 847 1978 
L 2700 1978 
Q 2663 2397 2488 2606 
Q 2219 2931 1791 2931 
Q 1403 2931 1139 2672 
Q 875 2413 847 1978 
z
" transform="scale(0.015625)"/>
       <path id="ArialMT-6e" d="M 422 0 
L 422 3319 
L 928 3319 
L 928 2847 
Q 1294 3394 1984 3394 
Q 2284 3394 2536 3286 
Q 2788 3178 2913 3003 
Q 3038 2828 3088 2588 
Q 3119 2431 3119 2041 
L 3119 0 
L 2556 0 
L 2556 2019 
Q 2556 2363 2490 2533 
Q 2425 2703 2258 2804 
Q 2091 2906 1866 2906 
Q 1506 2906 1245 2678 
Q 984 2450 984 1813 
L 984 0 
L 422 0 
z
" transform="scale(0.015625)"/>
       <path id="ArialMT-72" d="M 416 0 
L 416 3319 
L 922 3319 
L 922 2816 
Q 1116 3169 1280 3281 
Q 1444 3394 1641 3394 
Q 1925 3394 2219 3213 
L 2025 2691 
Q 1819 2813 1613 2813 
Q 1428 2813 1281 2702 
Q 1134 2591 1072 2394 
Q 978 2094 978 1738 
L 978 0 
L 416 0 
z
" transform="scale(0.015625)"/>
       <path id="ArialMT-61" d="M 2588 409 
Q 2275 144 1986 34 
Q 1697 -75 1366 -75 
Q 819 -75 525 192 
Q 231 459 231 875 
Q 231 1119 342 1320 
Q 453 1522 633 1644 
Q 813 1766 1038 1828 
Q 1203 1872 1538 1913 
Q 2219 1994 2541 2106 
Q 2544 2222 2544 2253 
Q 2544 2597 2384 2738 
Q 2169 2928 1744 2928 
Q 1347 2928 1158 2789 
Q 969 2650 878 2297 
L 328 2372 
Q 403 2725 575 2942 
Q 747 3159 1072 3276 
Q 1397 3394 1825 3394 
Q 2250 3394 2515 3294 
Q 2781 3194 2906 3042 
Q 3031 2891 3081 2659 
Q 3109 2516 3109 2141 
L 3109 1391 
Q 3109 606 3145 398 
Q 3181 191 3288 0 
L 2700 0 
Q 2613 175 2588 409 
z
M 2541 1666 
Q 2234 1541 1622 1453 
Q 1275 1403 1131 1340 
Q 988 1278 909 1158 
Q 831 1038 831 891 
Q 831 666 1001 516 
Q 1172 366 1500 366 
Q 1825 366 2078 508 
Q 2331 650 2450 897 
Q 2541 1088 2541 1459 
L 2541 1666 
z
" transform="scale(0.015625)"/>
       <path id="ArialMT-74" d="M 1650 503 
L 1731 6 
Q 1494 -44 1306 -44 
Q 1000 -44 831 53 
Q 663 150 594 308 
Q 525 466 525 972 
L 525 2881 
L 113 2881 
L 113 3319 
L 525 3319 
L 525 4141 
L 1084 4478 
L 1084 3319 
L 1650 3319 
L 1650 2881 
L 1084 2881 
L 1084 941 
Q 1084 700 1114 631 
Q 1144 563 1211 522 
Q 1278 481 1403 481 
Q 1497 481 1650 503 
z
" transform="scale(0.015625)"/>
       <path id="ArialMT-69" d="M 425 3934 
L 425 4581 
L 988 4581 
L 988 3934 
L 425 3934 
z
M 425 0 
L 425 3319 
L 988 3319 
L 988 0 
L 425 0 
z
" transform="scale(0.015625)"/>
       <path id="ArialMT-6f" d="M 213 1659 
Q 213 2581 725 3025 
Q 1153 3394 1769 3394 
Q 2453 3394 2887 2945 
Q 3322 2497 3322 1706 
Q 3322 1066 3130 698 
Q 2938 331 2570 128 
Q 2203 -75 1769 -75 
Q 1072 -75 642 372 
Q 213 819 213 1659 
z
M 791 1659 
Q 791 1022 1069 705 
Q 1347 388 1769 388 
Q 2188 388 2466 706 
Q 2744 1025 2744 1678 
Q 2744 2294 2464 2611 
Q 2184 2928 1769 2928 
Q 1347 2928 1069 2612 
Q 791 2297 791 1659 
z
" transform="scale(0.015625)"/>
      </defs>
      <use xlink:href="#ArialMT-47"/>
      <use xlink:href="#ArialMT-65" x="77.783203"/>
      <use xlink:href="#ArialMT-6e" x="133.398438"/>
      <use xlink:href="#ArialMT-65" x="189.013672"/>
      <use xlink:href="#ArialMT-72" x="244.628906"/>
      <use xlink:href="#ArialMT-61" x="277.929688"/>
      <use xlink:href="#ArialMT-74" x="333.544922"/>
      <use xlink:href="#ArialMT-69" x="361.328125"/>
      <use xlink:href="#ArialMT-6f" x="383.544922"/>
      <use xlink:href="#ArialMT-6e" x="439.160156"/>
     </g>
    </g>
   </g>
   <g id="matplotlib.axis_2">
    <g id="ytick_1">
     <g id="line2d_7">
      <path d="M 108 192.24 
L 777.6 192.24 
" clip-path="url(#p67ba815a6d)" style="fill: none; stroke: #ffffff; stroke-linecap: round"/>
     </g>
     <g id="text_8">
      <!-- 0.2 -->
      <g style="fill: #262626" transform="translate(83.21 196.176797) scale(0.11 -0.11)">
       <defs>
        <path id="ArialMT-2e" d="M 581 0 
L 581 641 
L 1222 641 
L 1222 0 
L 581 0 
z
" transform="scale(0.015625)"/>
       </defs>
       <use xlink:href="#ArialMT-30"/>
       <use xlink:href="#ArialMT-2e" x="55.615234"/>
       <use xlink:href="#ArialMT-32" x="83.398438"/>
      </g>
     </g>
    </g>
    <g id="ytick_2">
     <g id="line2d_8">
      <path d="M 108 153.105882 
L 777.6 153.105882 
" clip-path="url(#p67ba815a6d)" style="fill: none; stroke: #ffffff; stroke-linecap: round"/>
     </g>
     <g id="text_9">
      <!-- 0.4 -->
      <g style="fill: #262626" transform="translate(83.21 157.042679) scale(0.11 -0.11)">
       <use xlink:href="#ArialMT-30"/>
       <use xlink:href="#ArialMT-2e" x="55.615234"/>
       <use xlink:href="#ArialMT-34" x="83.398438"/>
      </g>
     </g>
    </g>
    <g id="ytick_3">
     <g id="line2d_9">
      <path d="M 108 113.971765 
L 777.6 113.971765 
" clip-path="url(#p67ba815a6d)" style="fill: none; stroke: #ffffff; stroke-linecap: round"/>
     </g>
     <g id="text_10">
      <!-- 0.6 -->
      <g style="fill: #262626" transform="translate(83.21 117.908562) scale(0.11 -0.11)">
       <use xlink:href="#ArialMT-30"/>
       <use xlink:href="#ArialMT-2e" x="55.615234"/>
       <use xlink:href="#ArialMT-36" x="83.398438"/>
      </g>
     </g>
    </g>
    <g id="ytick_4">
     <g id="line2d_10">
      <path d="M 108 74.837647 
L 777.6 74.837647 
" clip-path="url(#p67ba815a6d)" style="fill: none; stroke: #ffffff; stroke-linecap: round"/>
     </g>
     <g id="text_11">
      <!-- 0.8 -->
      <g style="fill: #262626" transform="translate(83.21 78.774444) scale(0.11 -0.11)">
       <use xlink:href="#ArialMT-30"/>
       <use xlink:href="#ArialMT-2e" x="55.615234"/>
       <use xlink:href="#ArialMT-38" x="83.398438"/>
      </g>
     </g>
    </g>
    <g id="ytick_5">
     <g id="line2d_11">
      <path d="M 108 35.703529 
L 777.6 35.703529 
" clip-path="url(#p67ba815a6d)" style="fill: none; stroke: #ffffff; stroke-linecap: round"/>
     </g>
     <g id="text_12">
      <!-- 1.0 -->
      <g style="fill: #262626" transform="translate(83.21 39.640326) scale(0.11 -0.11)">
       <use xlink:href="#ArialMT-31"/>
       <use xlink:href="#ArialMT-2e" x="55.615234"/>
       <use xlink:href="#ArialMT-30" x="83.398438"/>
      </g>
     </g>
    </g>
    <g id="text_13">
     <!-- Fitness -->
     <g style="fill: #262626" transform="translate(76.825 128.417812) rotate(-90) scale(0.12 -0.12)">
      <defs>
       <path id="ArialMT-46" d="M 525 0 
L 525 4581 
L 3616 4581 
L 3616 4041 
L 1131 4041 
L 1131 2622 
L 3281 2622 
L 3281 2081 
L 1131 2081 
L 1131 0 
L 525 0 
z
" transform="scale(0.015625)"/>
       <path id="ArialMT-73" d="M 197 991 
L 753 1078 
Q 800 744 1014 566 
Q 1228 388 1613 388 
Q 2000 388 2187 545 
Q 2375 703 2375 916 
Q 2375 1106 2209 1216 
Q 2094 1291 1634 1406 
Q 1016 1563 777 1677 
Q 538 1791 414 1992 
Q 291 2194 291 2438 
Q 291 2659 392 2848 
Q 494 3038 669 3163 
Q 800 3259 1026 3326 
Q 1253 3394 1513 3394 
Q 1903 3394 2198 3281 
Q 2494 3169 2634 2976 
Q 2775 2784 2828 2463 
L 2278 2388 
Q 2241 2644 2061 2787 
Q 1881 2931 1553 2931 
Q 1166 2931 1000 2803 
Q 834 2675 834 2503 
Q 834 2394 903 2306 
Q 972 2216 1119 2156 
Q 1203 2125 1616 2013 
Q 2213 1853 2448 1751 
Q 2684 1650 2818 1456 
Q 2953 1263 2953 975 
Q 2953 694 2789 445 
Q 2625 197 2315 61 
Q 2006 -75 1616 -75 
Q 969 -75 630 194 
Q 291 463 197 991 
z
" transform="scale(0.015625)"/>
      </defs>
      <use xlink:href="#ArialMT-46"/>
      <use xlink:href="#ArialMT-69" x="61.083984"/>
      <use xlink:href="#ArialMT-74" x="83.300781"/>
      <use xlink:href="#ArialMT-6e" x="111.083984"/>
      <use xlink:href="#ArialMT-65" x="166.699219"/>
      <use xlink:href="#ArialMT-73" x="222.314453"/>
      <use xlink:href="#ArialMT-73" x="272.314453"/>
     </g>
    </g>
   </g>
   <g id="line2d_12">
    <path d="M 138.436364 187.348235 
L 139.532292 128.647059 
L 144.403084 89.512941 
L 145.620782 84.621176 
L 191.89331 84.621176 
L 193.111008 72.391765 
L 194.328706 84.621176 
L 520.671793 84.621176 
L 521.889491 72.391765 
L 523.107189 84.621176 
L 630.26462 84.621176 
L 631.482318 72.391765 
L 632.700016 84.621176 
L 633.917714 72.391765 
L 635.135413 84.621176 
L 636.353111 72.391765 
L 637.570809 84.621176 
L 638.788507 72.391765 
L 653.400884 72.391765 
L 654.618582 60.162353 
L 655.83628 72.391765 
L 657.053978 60.162353 
L 658.271676 72.391765 
L 659.489374 60.162353 
L 660.707072 72.391765 
L 670.448657 72.391765 
L 671.666355 60.162353 
L 672.884053 72.391765 
L 674.101751 60.162353 
L 717.938882 60.162353 
L 719.15658 72.391765 
L 720.374278 60.162353 
L 721.591977 72.391765 
L 722.809675 60.162353 
L 724.027373 72.391765 
L 725.245071 60.162353 
L 747.163636 60.162353 
L 747.163636 60.162353 
" clip-path="url(#p67ba815a6d)" style="fill: none; stroke: #4c72b0; stroke-width: 1.5; stroke-linecap: round"/>
   </g>
   <g id="line2d_13">
    <path d="M 138.436364 187.348235 
L 139.532292 135.038149 
L 140.74999 128.253272 
L 141.967688 113.472805 
L 143.185386 106.184075 
L 144.403084 93.477716 
L 145.620782 86.010438 
L 148.056179 86.406671 
L 149.273877 86.778445 
L 150.491575 86.025113 
L 151.709273 86.394441 
L 152.926971 86.555869 
L 154.144669 87.015695 
L 155.362367 86.379766 
L 156.580065 87.798378 
L 157.797763 87.495088 
L 159.015461 87.972035 
L 160.233159 87.597815 
L 161.450857 86.942319 
L 162.668556 86.619462 
L 165.103952 87.142881 
L 166.32165 88.047858 
L 167.539348 86.661042 
L 168.757046 88.593289 
L 169.974744 87.424158 
L 171.192442 86.991236 
L 172.41014 87.301864 
L 174.845536 86.969224 
L 176.063234 88.341364 
L 177.280933 87.41682 
L 178.498631 87.485305 
L 179.716329 87.793486 
L 180.934027 87.076842 
L 182.151725 87.013249 
L 183.369423 87.355673 
L 184.587121 86.482493 
L 185.804819 86.856713 
L 187.022517 87.962252 
L 188.240215 87.4584 
L 189.457913 87.179569 
L 190.675611 87.191799 
L 191.89331 87.594146 
L 194.328706 87.421712 
L 195.546404 88.238636 
L 196.764102 87.111085 
L 197.9818 87.932901 
L 199.199498 87.164894 
L 200.417196 87.514655 
L 201.634894 88.272879 
L 204.07029 87.644287 
L 205.287989 86.673272 
L 206.505687 87.786148 
L 207.723385 87.764135 
L 208.941083 87.590478 
L 210.158781 88.478333 
L 211.376479 88.874566 
L 212.594177 88.886795 
L 213.811875 90.298069 
L 215.029573 88.740042 
L 216.247271 87.901105 
L 217.464969 89.796664 
L 218.682667 88.962618 
L 219.900366 87.58314 
L 221.118064 89.207206 
L 222.335762 88.035628 
L 223.55346 88.001386 
L 224.771158 89.331946 
L 225.988856 88.409848 
L 227.206554 89.168072 
L 228.424252 88.45632 
L 229.64195 88.099221 
L 230.859648 88.605519 
L 232.077346 87.984265 
L 233.295044 86.824916 
L 234.512743 87.700542 
L 235.730441 86.854267 
L 236.948139 86.966778 
L 238.165837 87.935347 
L 239.383535 87.274959 
L 240.601233 87.769027 
L 241.818931 86.910522 
L 243.036629 87.196691 
L 244.254327 88.62264 
L 246.689723 87.972035 
L 247.907421 88.162814 
L 249.12512 87.798378 
L 250.342818 86.827362 
L 251.560516 87.309201 
L 252.778214 87.925564 
L 253.995912 87.595369 
L 255.21361 87.120868 
L 256.431308 87.446171 
L 257.649006 86.983899 
L 258.866704 86.856713 
L 260.084402 87.071951 
L 261.3021 87.570911 
L 262.519799 87.177124 
L 263.737497 88.911254 
L 264.955195 87.199136 
L 266.172893 87.421712 
L 267.390591 88.412294 
L 268.608289 86.338186 
L 269.825987 87.451062 
L 271.043685 87.443725 
L 272.261383 87.287188 
L 273.479081 87.463292 
L 274.696779 88.023399 
L 275.914477 89.026211 
L 278.349874 87.150219 
L 279.567572 86.898293 
L 280.78527 87.839958 
L 282.002968 88.170152 
L 283.220666 87.314093 
L 284.438364 87.685867 
L 285.656062 86.462926 
L 286.87376 87.570911 
L 288.091458 87.350781 
L 289.309156 87.925564 
L 290.526854 87.751906 
L 291.744553 87.717664 
L 292.962251 87.431495 
L 294.179949 87.030371 
L 295.397647 87.419266 
L 296.615345 88.023399 
L 297.833043 87.783702 
L 299.050741 86.798012 
L 301.486137 88.33158 
L 302.703835 87.822836 
L 303.921533 87.866862 
L 305.139231 88.813419 
L 306.35693 88.378052 
L 307.574628 88.086992 
L 308.792326 88.177489 
L 310.010024 88.079654 
L 311.227722 87.83262 
L 312.44542 86.325956 
L 313.663118 88.023399 
L 314.880816 87.570911 
L 316.098514 86.974115 
L 317.316212 87.729893 
L 318.53391 87.925564 
L 319.751609 88.522359 
L 320.969307 88.267987 
L 322.187005 87.810607 
L 323.404703 87.680975 
L 324.622401 88.277771 
L 325.840099 87.407036 
L 327.057797 87.810607 
L 328.275495 88.740042 
L 329.493193 87.480413 
L 330.710891 88.194611 
L 331.928589 87.62472 
L 333.146287 87.495088 
L 334.363986 88.429415 
L 335.581684 88.654436 
L 336.799382 89.207206 
L 338.01708 88.145693 
L 339.234778 89.576534 
L 340.452476 88.957726 
L 341.670174 87.905996 
L 342.887872 88.397619 
L 344.10557 88.211732 
L 345.323268 87.685867 
L 347.758664 87.409482 
L 348.976363 88.020953 
L 350.194061 88.126126 
L 351.411759 88.595735 
L 352.629457 88.862336 
L 353.847155 88.960172 
L 355.064853 86.910522 
L 356.282551 88.001386 
L 357.500249 87.355673 
L 358.717947 87.685867 
L 359.935645 88.441645 
L 361.153343 87.663854 
L 362.371041 88.368268 
L 363.58874 88.554155 
L 364.806438 88.292446 
L 366.024136 89.035994 
L 367.241834 88.607965 
L 368.459532 88.495454 
L 369.67723 87.776365 
L 370.894928 89.212098 
L 372.112626 88.647099 
L 373.330324 89.285474 
L 374.548022 88.845215 
L 375.76572 88.987076 
L 376.983419 89.483591 
L 378.201117 88.546818 
L 379.418815 89.199868 
L 380.636513 89.339284 
L 381.854211 88.771839 
L 383.071909 89.075128 
L 384.289607 88.052749 
L 385.507305 87.365456 
L 386.725003 88.515021 
L 387.942701 88.713138 
L 389.160399 87.005912 
L 390.378097 88.718029 
L 391.595796 88.091884 
L 392.813494 88.659328 
L 394.031192 88.490562 
L 395.24889 88.759609 
L 396.466588 88.808527 
L 397.684286 87.201582 
L 400.119682 87.568465 
L 401.33738 88.023399 
L 403.772776 87.849741 
L 404.990474 88.060087 
L 406.208173 87.588032 
L 407.425871 87.727447 
L 408.643569 88.16526 
L 411.078965 86.895847 
L 412.296663 87.923118 
L 413.514361 87.4584 
L 414.732059 87.387469 
L 415.949757 86.727081 
L 417.167455 87.433941 
L 418.385153 87.827728 
L 419.602851 87.546452 
L 420.82055 87.954914 
L 422.038248 87.668746 
L 423.255946 86.827362 
L 424.473644 86.775999 
L 425.691342 87.047492 
L 426.90904 87.605153 
L 428.126738 87.103747 
L 430.562134 88.074762 
L 431.779832 87.70788 
L 432.99753 87.216258 
L 435.432927 88.412294 
L 436.650625 87.394807 
L 437.868323 87.316539 
L 439.086021 87.529331 
L 440.303719 88.143247 
L 441.521417 87.013249 
L 442.739115 88.598181 
L 443.956813 87.419266 
L 445.174511 88.160368 
L 446.392209 87.654071 
L 448.827606 87.852187 
L 450.045304 88.940605 
L 451.263002 88.490562 
L 452.4807 87.524439 
L 453.698398 88.209286 
L 454.916096 87.91578 
L 456.133794 88.906362 
L 457.351492 86.827362 
L 458.56919 87.267621 
L 459.786888 87.321431 
L 461.004586 87.905996 
L 462.222284 86.810241 
L 463.439983 87.871754 
L 464.657681 87.482859 
L 465.875379 88.424524 
L 467.093077 87.120868 
L 468.310775 88.977293 
L 469.528473 88.431861 
L 470.746171 88.859891 
L 471.963869 88.245974 
L 473.181567 88.030736 
L 474.399265 88.974847 
L 478.05236 88.294892 
L 479.270058 87.715218 
L 480.487756 87.355673 
L 481.705454 86.873834 
L 484.14085 87.612491 
L 485.358548 87.005912 
L 486.576246 87.705434 
L 487.793944 88.730259 
L 489.011642 88.052749 
L 490.22934 87.712772 
L 491.447038 88.033182 
L 492.664737 88.177489 
L 493.882435 87.485305 
L 495.100133 88.182381 
L 496.317831 87.972035 
L 497.535529 87.950022 
L 498.753227 88.150585 
L 499.970925 87.729893 
L 501.188623 86.981453 
L 502.406321 87.33366 
L 503.624019 87.566019 
L 504.841717 87.617382 
L 506.059416 87.514655 
L 507.277114 87.005912 
L 508.494812 87.972035 
L 510.930208 88.365822 
L 513.365604 88.001386 
L 514.583302 88.324242 
L 515.801 88.172598 
L 517.018698 89.199868 
L 518.236396 87.734785 
L 519.454094 88.483225 
L 520.671793 87.981819 
L 521.889491 88.220292 
L 523.107189 87.668746 
L 524.324887 88.478333 
L 525.542585 88.436753 
L 527.977981 87.487751 
L 529.195679 87.826505 
L 530.413377 88.649545 
L 531.631075 87.421712 
L 532.848773 87.248054 
L 534.066471 87.321431 
L 535.28417 88.353593 
L 536.501868 86.868942 
L 537.719566 87.367902 
L 538.937264 87.62472 
L 540.154962 87.079288 
L 541.37266 87.120868 
L 542.590358 87.605153 
L 543.808056 87.693205 
L 545.025754 86.854267 
L 546.243452 87.304309 
L 547.46115 88.29 
L 549.896547 88.138355 
L 551.114245 88.573722 
L 552.331943 88.267987 
L 553.549641 88.429415 
L 554.767339 87.766581 
L 555.985037 88.515021 
L 557.202735 87.204028 
L 558.420433 87.160002 
L 559.638131 88.901471 
L 560.855829 87.693205 
L 562.073527 87.632058 
L 563.291226 86.675718 
L 565.726622 87.544006 
L 566.94432 87.492642 
L 568.162018 87.893767 
L 569.379716 88.426969 
L 570.597414 87.563573 
L 571.815112 87.881538 
L 573.03281 87.008358 
L 574.250508 87.20892 
L 575.468206 87.553789 
L 576.685904 88.727813 
L 577.903603 88.387835 
L 579.121301 88.534588 
L 580.338999 87.360565 
L 582.774395 87.839958 
L 583.992093 87.514655 
L 586.427489 88.008724 
L 587.645187 87.854633 
L 588.862885 87.979373 
L 590.080583 88.661774 
L 591.298281 88.737596 
L 592.51598 87.490196 
L 593.733678 88.732705 
L 594.951376 88.172598 
L 596.169074 87.881538 
L 597.386772 87.857079 
L 598.60447 88.828094 
L 599.822168 87.54156 
L 601.039866 89.564305 
L 602.257564 87.223595 
L 603.475262 87.360565 
L 604.69296 87.825282 
L 605.910658 88.446536 
L 607.128357 88.326688 
L 608.346055 87.994048 
L 609.563753 88.109005 
L 610.781451 87.808161 
L 611.999149 89.417552 
L 613.216847 88.502792 
L 614.434545 88.275325 
L 615.652243 87.634504 
L 616.869941 88.727813 
L 618.087639 88.879458 
L 619.305337 89.219435 
L 620.523036 88.030736 
L 621.740734 88.042966 
L 622.958432 88.431861 
L 624.17613 87.815499 
L 625.393828 88.175044 
L 626.611526 87.204028 
L 627.829224 87.712772 
L 629.046922 87.531776 
L 630.26462 88.204394 
L 631.482318 76.889742 
L 632.700016 87.743345 
L 633.917714 77.062177 
L 635.135413 88.212955 
L 636.353111 77.038941 
L 637.570809 87.755575 
L 638.788507 77.223605 
L 640.006205 77.683431 
L 641.223903 76.395674 
L 642.441601 87.228487 
L 643.659299 76.041021 
L 644.876997 87.885206 
L 646.094695 77.487761 
L 647.312393 78.676459 
L 648.530091 77.568475 
L 649.74779 78.184837 
L 650.965488 76.884851 
L 652.183186 79.028666 
L 653.400884 77.29209 
L 654.618582 71.163932 
L 655.83628 77.287198 
L 657.053978 66.363888 
L 658.271676 76.478834 
L 659.489374 77.879102 
L 660.707072 77.778821 
L 661.92477 78.911264 
L 663.142468 77.674871 
L 664.360167 79.009099 
L 665.577865 77.923128 
L 666.795563 78.610421 
L 668.013261 77.589265 
L 669.230959 77.883994 
L 670.448657 76.586453 
L 671.666355 66.643941 
L 672.884053 76.850608 
L 674.101751 67.776385 
L 675.319449 67.83264 
L 676.537147 66.405468 
L 677.754846 66.516755 
L 678.972544 67.975724 
L 680.190242 67.405834 
L 681.40794 67.839978 
L 683.843336 66.27339 
L 685.061034 66.650056 
L 686.278732 67.282316 
L 687.49643 66.027579 
L 688.714128 66.667177 
L 689.931826 66.568119 
L 691.149524 66.582794 
L 692.367223 67.888895 
L 693.584921 66.091172 
L 694.802619 65.238782 
L 696.020317 66.586463 
L 697.238015 66.480067 
L 698.455713 65.465026 
L 699.673411 65.693716 
L 700.891109 66.931332 
L 702.108807 66.519201 
L 703.326505 66.350435 
L 704.544203 66.703865 
L 705.761901 65.457688 
L 706.9796 66.10707 
L 708.197298 68.04054 
L 709.414996 67.260304 
L 710.632694 67.074416 
L 711.850392 67.010824 
L 713.06809 67.760486 
L 714.285788 68.732725 
L 715.503486 67.164914 
L 716.721184 65.282808 
L 717.938882 66.451939 
L 719.15658 76.385891 
L 720.374278 67.262749 
L 721.591977 76.539981 
L 722.809675 66.412805 
L 724.027373 76.613358 
L 725.245071 67.256635 
L 726.462769 67.120888 
L 727.680467 68.609208 
L 728.898165 68.749846 
L 730.115863 68.137152 
L 731.333561 67.990399 
L 732.551259 67.568485 
L 733.768957 66.923995 
L 734.986656 82.845466 
L 736.204354 65.85759 
L 737.422052 78.551719 
L 738.63975 66.921549 
L 739.857448 79.224337 
L 741.075146 66.776019 
L 742.292844 67.10499 
L 743.510542 65.697385 
L 745.945938 66.510641 
L 747.163636 67.33368 
L 747.163636 67.33368 
" clip-path="url(#p67ba815a6d)" style="fill: none; stroke: #dd8452; stroke-width: 1.5; stroke-linecap: round"/>
   </g>
   <g id="patch_3">
    <path d="M 108 192.24 
L 108 25.92 
" style="fill: none; stroke: #ffffff; stroke-width: 1.25; stroke-linejoin: miter; stroke-linecap: square"/>
   </g>
   <g id="patch_4">
    <path d="M 777.6 192.24 
L 777.6 25.92 
" style="fill: none; stroke: #ffffff; stroke-width: 1.25; stroke-linejoin: miter; stroke-linecap: square"/>
   </g>
   <g id="patch_5">
    <path d="M 108 192.24 
L 777.6 192.24 
" style="fill: none; stroke: #ffffff; stroke-width: 1.25; stroke-linejoin: miter; stroke-linecap: square"/>
   </g>
   <g id="patch_6">
    <path d="M 108 25.92 
L 777.6 25.92 
" style="fill: none; stroke: #ffffff; stroke-width: 1.25; stroke-linejoin: miter; stroke-linecap: square"/>
   </g>
   <g id="legend_1">
    <g id="patch_7">
     <path d="M 115.7 65.968594 
L 230.184219 65.968594 
Q 232.384219 65.968594 232.384219 63.768594 
L 232.384219 33.62 
Q 232.384219 31.42 230.184219 31.42 
L 115.7 31.42 
Q 113.5 31.42 113.5 33.62 
L 113.5 63.768594 
Q 113.5 65.968594 115.7 65.968594 
z
" style="fill: #eaeaf2; opacity: 0.8; stroke: #cccccc; stroke-linejoin: miter"/>
    </g>
    <g id="line2d_14">
     <path d="M 117.9 39.843594 
L 128.9 39.843594 
L 139.9 39.843594 
" style="fill: none; stroke: #4c72b0; stroke-width: 1.5; stroke-linecap: round"/>
    </g>
    <g id="text_14">
     <!-- Max Fitness -->
     <g style="fill: #262626" transform="translate(148.7 43.693594) scale(0.11 -0.11)">
      <defs>
       <path id="ArialMT-4d" d="M 475 0 
L 475 4581 
L 1388 4581 
L 2472 1338 
Q 2622 884 2691 659 
Q 2769 909 2934 1394 
L 4031 4581 
L 4847 4581 
L 4847 0 
L 4263 0 
L 4263 3834 
L 2931 0 
L 2384 0 
L 1059 3900 
L 1059 0 
L 475 0 
z
" transform="scale(0.015625)"/>
       <path id="ArialMT-78" d="M 47 0 
L 1259 1725 
L 138 3319 
L 841 3319 
L 1350 2541 
Q 1494 2319 1581 2169 
Q 1719 2375 1834 2534 
L 2394 3319 
L 3066 3319 
L 1919 1756 
L 3153 0 
L 2463 0 
L 1781 1031 
L 1600 1309 
L 728 0 
L 47 0 
z
" transform="scale(0.015625)"/>
       <path id="ArialMT-20" transform="scale(0.015625)"/>
      </defs>
      <use xlink:href="#ArialMT-4d"/>
      <use xlink:href="#ArialMT-61" x="83.300781"/>
      <use xlink:href="#ArialMT-78" x="138.916016"/>
      <use xlink:href="#ArialMT-20" x="188.916016"/>
      <use xlink:href="#ArialMT-46" x="216.699219"/>
      <use xlink:href="#ArialMT-69" x="277.783203"/>
      <use xlink:href="#ArialMT-74" x="300"/>
      <use xlink:href="#ArialMT-6e" x="327.783203"/>
      <use xlink:href="#ArialMT-65" x="383.398438"/>
      <use xlink:href="#ArialMT-73" x="439.013672"/>
      <use xlink:href="#ArialMT-73" x="489.013672"/>
     </g>
    </g>
    <g id="line2d_15">
     <path d="M 117.9 55.403437 
L 128.9 55.403437 
L 139.9 55.403437 
" style="fill: none; stroke: #dd8452; stroke-width: 1.5; stroke-linecap: round"/>
    </g>
    <g id="text_15">
     <!-- Average Fitness -->
     <g style="fill: #262626" transform="translate(148.7 59.253437) scale(0.11 -0.11)">
      <defs>
       <path id="ArialMT-41" d="M -9 0 
L 1750 4581 
L 2403 4581 
L 4278 0 
L 3588 0 
L 3053 1388 
L 1138 1388 
L 634 0 
L -9 0 
z
M 1313 1881 
L 2866 1881 
L 2388 3150 
Q 2169 3728 2063 4100 
Q 1975 3659 1816 3225 
L 1313 1881 
z
" transform="scale(0.015625)"/>
       <path id="ArialMT-76" d="M 1344 0 
L 81 3319 
L 675 3319 
L 1388 1331 
Q 1503 1009 1600 663 
Q 1675 925 1809 1294 
L 2547 3319 
L 3125 3319 
L 1869 0 
L 1344 0 
z
" transform="scale(0.015625)"/>
       <path id="ArialMT-67" d="M 319 -275 
L 866 -356 
Q 900 -609 1056 -725 
Q 1266 -881 1628 -881 
Q 2019 -881 2231 -725 
Q 2444 -569 2519 -288 
Q 2563 -116 2559 434 
Q 2191 0 1641 0 
Q 956 0 581 494 
Q 206 988 206 1678 
Q 206 2153 378 2554 
Q 550 2956 876 3175 
Q 1203 3394 1644 3394 
Q 2231 3394 2613 2919 
L 2613 3319 
L 3131 3319 
L 3131 450 
Q 3131 -325 2973 -648 
Q 2816 -972 2473 -1159 
Q 2131 -1347 1631 -1347 
Q 1038 -1347 672 -1080 
Q 306 -813 319 -275 
z
M 784 1719 
Q 784 1066 1043 766 
Q 1303 466 1694 466 
Q 2081 466 2343 764 
Q 2606 1063 2606 1700 
Q 2606 2309 2336 2618 
Q 2066 2928 1684 2928 
Q 1309 2928 1046 2623 
Q 784 2319 784 1719 
z
" transform="scale(0.015625)"/>
      </defs>
      <use xlink:href="#ArialMT-41"/>
      <use xlink:href="#ArialMT-76" x="64.949219"/>
      <use xlink:href="#ArialMT-65" x="114.949219"/>
      <use xlink:href="#ArialMT-72" x="170.564453"/>
      <use xlink:href="#ArialMT-61" x="203.865234"/>
      <use xlink:href="#ArialMT-67" x="259.480469"/>
      <use xlink:href="#ArialMT-65" x="315.095703"/>
      <use xlink:href="#ArialMT-20" x="370.710938"/>
      <use xlink:href="#ArialMT-46" x="398.494141"/>
      <use xlink:href="#ArialMT-69" x="459.578125"/>
      <use xlink:href="#ArialMT-74" x="481.794922"/>
      <use xlink:href="#ArialMT-6e" x="509.578125"/>
      <use xlink:href="#ArialMT-65" x="565.193359"/>
      <use xlink:href="#ArialMT-73" x="620.808594"/>
      <use xlink:href="#ArialMT-73" x="670.808594"/>
     </g>
    </g>
   </g>
  </g>
 </g>
 <defs>
  <clipPath id="p67ba815a6d">
   <rect x="108" y="25.92" width="669.6" height="166.32"/>
  </clipPath>
 </defs>
</svg>
