<?xml version="1.0" encoding="utf-8" standalone="no"?>
<!DOCTYPE svg PUBLIC "-//W3C//DTD SVG 1.1//EN"
  "http://www.w3.org/Graphics/SVG/1.1/DTD/svg11.dtd">
<svg xmlns:xlink="http://www.w3.org/1999/xlink" width="864pt" height="216pt" viewBox="0 0 864 216" xmlns="http://www.w3.org/2000/svg" version="1.1">
 <metadata>
  <rdf:RDF xmlns:dc="http://purl.org/dc/elements/1.1/" xmlns:cc="http://creativecommons.org/ns#" xmlns:rdf="http://www.w3.org/1999/02/22-rdf-syntax-ns#">
   <cc:Work>
    <dc:type rdf:resource="http://purl.org/dc/dcmitype/StillImage"/>
    <dc:date>2024-05-02T14:17:03.649950</dc:date>
    <dc:format>image/svg+xml</dc:format>
    <dc:creator>
     <cc:Agent>
      <dc:title>Matplotlib v3.8.0, https://matplotlib.org/</dc:title>
     </cc:Agent>
    </dc:creator>
   </cc:Work>
  </rdf:RDF>
 </metadata>
 <defs>
  <style type="text/css">*{stroke-linejoin: round; stroke-linecap: butt}</style>
 </defs>
 <g id="figure_1">
  <g id="patch_1">
   <path d="M 0 216 
L 864 216 
L 864 0 
L 0 0 
z
" style="fill: #ffffff"/>
  </g>
  <g id="axes_1">
   <g id="patch_2">
    <path d="M 108 192.24 
L 777.6 192.24 
L 777.6 25.92 
L 108 25.92 
z
" style="fill: #eaeaf2"/>
   </g>
   <g id="matplotlib.axis_1">
    <g id="xtick_1">
     <g id="line2d_1">
      <path d="M 138.375479 192.24 
L 138.375479 25.92 
" clip-path="url(#p9f24d46908)" style="fill: none; stroke: #ffffff; stroke-linecap: round"/>
     </g>
     <g id="text_1">
      <!-- 0 -->
      <g style="fill: #262626" transform="translate(135.316963 209.613594) scale(0.11 -0.11)">
       <defs>
        <path id="ArialMT-30" d="M 266 2259 
Q 266 3072 433 3567 
Q 600 4063 929 4331 
Q 1259 4600 1759 4600 
Q 2128 4600 2406 4451 
Q 2684 4303 2865 4023 
Q 3047 3744 3150 3342 
Q 3253 2941 3253 2259 
Q 3253 1453 3087 958 
Q 2922 463 2592 192 
Q 2263 -78 1759 -78 
Q 1097 -78 719 397 
Q 266 969 266 2259 
z
M 844 2259 
Q 844 1131 1108 757 
Q 1372 384 1759 384 
Q 2147 384 2411 759 
Q 2675 1134 2675 2259 
Q 2675 3391 2411 3762 
Q 2147 4134 1753 4134 
Q 1366 4134 1134 3806 
Q 844 3388 844 2259 
z
" transform="scale(0.015625)"/>
       </defs>
       <use xlink:href="#ArialMT-30"/>
      </g>
     </g>
    </g>
    <g id="xtick_2">
     <g id="line2d_2">
      <path d="M 260.145287 192.24 
L 260.145287 25.92 
" clip-path="url(#p9f24d46908)" style="fill: none; stroke: #ffffff; stroke-linecap: round"/>
     </g>
     <g id="text_2">
      <!-- 2000 -->
      <g style="fill: #262626" transform="translate(247.911225 209.613594) scale(0.11 -0.11)">
       <defs>
        <path id="ArialMT-32" d="M 3222 541 
L 3222 0 
L 194 0 
Q 188 203 259 391 
Q 375 700 629 1000 
Q 884 1300 1366 1694 
Q 2113 2306 2375 2664 
Q 2638 3022 2638 3341 
Q 2638 3675 2398 3904 
Q 2159 4134 1775 4134 
Q 1369 4134 1125 3890 
Q 881 3647 878 3216 
L 300 3275 
Q 359 3922 746 4261 
Q 1134 4600 1788 4600 
Q 2447 4600 2831 4234 
Q 3216 3869 3216 3328 
Q 3216 3053 3103 2787 
Q 2991 2522 2730 2228 
Q 2469 1934 1863 1422 
Q 1356 997 1212 845 
Q 1069 694 975 541 
L 3222 541 
z
" transform="scale(0.015625)"/>
       </defs>
       <use xlink:href="#ArialMT-32"/>
       <use xlink:href="#ArialMT-30" x="55.615234"/>
       <use xlink:href="#ArialMT-30" x="111.230469"/>
       <use xlink:href="#ArialMT-30" x="166.845703"/>
      </g>
     </g>
    </g>
    <g id="xtick_3">
     <g id="line2d_3">
      <path d="M 381.915096 192.24 
L 381.915096 25.92 
" clip-path="url(#p9f24d46908)" style="fill: none; stroke: #ffffff; stroke-linecap: round"/>
     </g>
     <g id="text_3">
      <!-- 4000 -->
      <g style="fill: #262626" transform="translate(369.681033 209.613594) scale(0.11 -0.11)">
       <defs>
        <path id="ArialMT-34" d="M 2069 0 
L 2069 1097 
L 81 1097 
L 81 1613 
L 2172 4581 
L 2631 4581 
L 2631 1613 
L 3250 1613 
L 3250 1097 
L 2631 1097 
L 2631 0 
L 2069 0 
z
M 2069 1613 
L 2069 3678 
L 634 1613 
L 2069 1613 
z
" transform="scale(0.015625)"/>
       </defs>
       <use xlink:href="#ArialMT-34"/>
       <use xlink:href="#ArialMT-30" x="55.615234"/>
       <use xlink:href="#ArialMT-30" x="111.230469"/>
       <use xlink:href="#ArialMT-30" x="166.845703"/>
      </g>
     </g>
    </g>
    <g id="xtick_4">
     <g id="line2d_4">
      <path d="M 503.684904 192.24 
L 503.684904 25.92 
" clip-path="url(#p9f24d46908)" style="fill: none; stroke: #ffffff; stroke-linecap: round"/>
     </g>
     <g id="text_4">
      <!-- 6000 -->
      <g style="fill: #262626" transform="translate(491.450842 209.613594) scale(0.11 -0.11)">
       <defs>
        <path id="ArialMT-36" d="M 3184 3459 
L 2625 3416 
Q 2550 3747 2413 3897 
Q 2184 4138 1850 4138 
Q 1581 4138 1378 3988 
Q 1113 3794 959 3422 
Q 806 3050 800 2363 
Q 1003 2672 1297 2822 
Q 1591 2972 1913 2972 
Q 2475 2972 2870 2558 
Q 3266 2144 3266 1488 
Q 3266 1056 3080 686 
Q 2894 316 2569 119 
Q 2244 -78 1831 -78 
Q 1128 -78 684 439 
Q 241 956 241 2144 
Q 241 3472 731 4075 
Q 1159 4600 1884 4600 
Q 2425 4600 2770 4297 
Q 3116 3994 3184 3459 
z
M 888 1484 
Q 888 1194 1011 928 
Q 1134 663 1356 523 
Q 1578 384 1822 384 
Q 2178 384 2434 671 
Q 2691 959 2691 1453 
Q 2691 1928 2437 2201 
Q 2184 2475 1800 2475 
Q 1419 2475 1153 2201 
Q 888 1928 888 1484 
z
" transform="scale(0.015625)"/>
       </defs>
       <use xlink:href="#ArialMT-36"/>
       <use xlink:href="#ArialMT-30" x="55.615234"/>
       <use xlink:href="#ArialMT-30" x="111.230469"/>
       <use xlink:href="#ArialMT-30" x="166.845703"/>
      </g>
     </g>
    </g>
    <g id="xtick_5">
     <g id="line2d_5">
      <path d="M 625.454713 192.24 
L 625.454713 25.92 
" clip-path="url(#p9f24d46908)" style="fill: none; stroke: #ffffff; stroke-linecap: round"/>
     </g>
     <g id="text_5">
      <!-- 8000 -->
      <g style="fill: #262626" transform="translate(613.22065 209.613594) scale(0.11 -0.11)">
       <defs>
        <path id="ArialMT-38" d="M 1131 2484 
Q 781 2613 612 2850 
Q 444 3088 444 3419 
Q 444 3919 803 4259 
Q 1163 4600 1759 4600 
Q 2359 4600 2725 4251 
Q 3091 3903 3091 3403 
Q 3091 3084 2923 2848 
Q 2756 2613 2416 2484 
Q 2838 2347 3058 2040 
Q 3278 1734 3278 1309 
Q 3278 722 2862 322 
Q 2447 -78 1769 -78 
Q 1091 -78 675 323 
Q 259 725 259 1325 
Q 259 1772 486 2073 
Q 713 2375 1131 2484 
z
M 1019 3438 
Q 1019 3113 1228 2906 
Q 1438 2700 1772 2700 
Q 2097 2700 2305 2904 
Q 2513 3109 2513 3406 
Q 2513 3716 2298 3927 
Q 2084 4138 1766 4138 
Q 1444 4138 1231 3931 
Q 1019 3725 1019 3438 
z
M 838 1322 
Q 838 1081 952 856 
Q 1066 631 1291 507 
Q 1516 384 1775 384 
Q 2178 384 2440 643 
Q 2703 903 2703 1303 
Q 2703 1709 2433 1975 
Q 2163 2241 1756 2241 
Q 1359 2241 1098 1978 
Q 838 1716 838 1322 
z
" transform="scale(0.015625)"/>
       </defs>
       <use xlink:href="#ArialMT-38"/>
       <use xlink:href="#ArialMT-30" x="55.615234"/>
       <use xlink:href="#ArialMT-30" x="111.230469"/>
       <use xlink:href="#ArialMT-30" x="166.845703"/>
      </g>
     </g>
    </g>
    <g id="xtick_6">
     <g id="line2d_6">
      <path d="M 747.224521 192.24 
L 747.224521 25.92 
" clip-path="url(#p9f24d46908)" style="fill: none; stroke: #ffffff; stroke-linecap: round"/>
     </g>
     <g id="text_6">
      <!-- 10000 -->
      <g style="fill: #262626" transform="translate(731.931943 209.613594) scale(0.11 -0.11)">
       <defs>
        <path id="ArialMT-31" d="M 2384 0 
L 1822 0 
L 1822 3584 
Q 1619 3391 1289 3197 
Q 959 3003 697 2906 
L 697 3450 
Q 1169 3672 1522 3987 
Q 1875 4303 2022 4600 
L 2384 4600 
L 2384 0 
z
" transform="scale(0.015625)"/>
       </defs>
       <use xlink:href="#ArialMT-31"/>
       <use xlink:href="#ArialMT-30" x="55.615234"/>
       <use xlink:href="#ArialMT-30" x="111.230469"/>
       <use xlink:href="#ArialMT-30" x="166.845703"/>
       <use xlink:href="#ArialMT-30" x="222.460938"/>
      </g>
     </g>
    </g>
    <g id="text_7">
     <!-- Generation -->
     <g style="fill: #262626" transform="translate(413.115938 224.389219) scale(0.12 -0.12)">
      <defs>
       <path id="ArialMT-47" d="M 2638 1797 
L 2638 2334 
L 4578 2338 
L 4578 638 
Q 4131 281 3656 101 
Q 3181 -78 2681 -78 
Q 2006 -78 1454 211 
Q 903 500 622 1047 
Q 341 1594 341 2269 
Q 341 2938 620 3517 
Q 900 4097 1425 4378 
Q 1950 4659 2634 4659 
Q 3131 4659 3532 4498 
Q 3934 4338 4162 4050 
Q 4391 3763 4509 3300 
L 3963 3150 
Q 3859 3500 3706 3700 
Q 3553 3900 3268 4020 
Q 2984 4141 2638 4141 
Q 2222 4141 1919 4014 
Q 1616 3888 1430 3681 
Q 1244 3475 1141 3228 
Q 966 2803 966 2306 
Q 966 1694 1177 1281 
Q 1388 869 1791 669 
Q 2194 469 2647 469 
Q 3041 469 3416 620 
Q 3791 772 3984 944 
L 3984 1797 
L 2638 1797 
z
" transform="scale(0.015625)"/>
       <path id="ArialMT-65" d="M 2694 1069 
L 3275 997 
Q 3138 488 2766 206 
Q 2394 -75 1816 -75 
Q 1088 -75 661 373 
Q 234 822 234 1631 
Q 234 2469 665 2931 
Q 1097 3394 1784 3394 
Q 2450 3394 2872 2941 
Q 3294 2488 3294 1666 
Q 3294 1616 3291 1516 
L 816 1516 
Q 847 969 1125 678 
Q 1403 388 1819 388 
Q 2128 388 2347 550 
Q 2566 713 2694 1069 
z
M 847 1978 
L 2700 1978 
Q 2663 2397 2488 2606 
Q 2219 2931 1791 2931 
Q 1403 2931 1139 2672 
Q 875 2413 847 1978 
z
" transform="scale(0.015625)"/>
       <path id="ArialMT-6e" d="M 422 0 
L 422 3319 
L 928 3319 
L 928 2847 
Q 1294 3394 1984 3394 
Q 2284 3394 2536 3286 
Q 2788 3178 2913 3003 
Q 3038 2828 3088 2588 
Q 3119 2431 3119 2041 
L 3119 0 
L 2556 0 
L 2556 2019 
Q 2556 2363 2490 2533 
Q 2425 2703 2258 2804 
Q 2091 2906 1866 2906 
Q 1506 2906 1245 2678 
Q 984 2450 984 1813 
L 984 0 
L 422 0 
z
" transform="scale(0.015625)"/>
       <path id="ArialMT-72" d="M 416 0 
L 416 3319 
L 922 3319 
L 922 2816 
Q 1116 3169 1280 3281 
Q 1444 3394 1641 3394 
Q 1925 3394 2219 3213 
L 2025 2691 
Q 1819 2813 1613 2813 
Q 1428 2813 1281 2702 
Q 1134 2591 1072 2394 
Q 978 2094 978 1738 
L 978 0 
L 416 0 
z
" transform="scale(0.015625)"/>
       <path id="ArialMT-61" d="M 2588 409 
Q 2275 144 1986 34 
Q 1697 -75 1366 -75 
Q 819 -75 525 192 
Q 231 459 231 875 
Q 231 1119 342 1320 
Q 453 1522 633 1644 
Q 813 1766 1038 1828 
Q 1203 1872 1538 1913 
Q 2219 1994 2541 2106 
Q 2544 2222 2544 2253 
Q 2544 2597 2384 2738 
Q 2169 2928 1744 2928 
Q 1347 2928 1158 2789 
Q 969 2650 878 2297 
L 328 2372 
Q 403 2725 575 2942 
Q 747 3159 1072 3276 
Q 1397 3394 1825 3394 
Q 2250 3394 2515 3294 
Q 2781 3194 2906 3042 
Q 3031 2891 3081 2659 
Q 3109 2516 3109 2141 
L 3109 1391 
Q 3109 606 3145 398 
Q 3181 191 3288 0 
L 2700 0 
Q 2613 175 2588 409 
z
M 2541 1666 
Q 2234 1541 1622 1453 
Q 1275 1403 1131 1340 
Q 988 1278 909 1158 
Q 831 1038 831 891 
Q 831 666 1001 516 
Q 1172 366 1500 366 
Q 1825 366 2078 508 
Q 2331 650 2450 897 
Q 2541 1088 2541 1459 
L 2541 1666 
z
" transform="scale(0.015625)"/>
       <path id="ArialMT-74" d="M 1650 503 
L 1731 6 
Q 1494 -44 1306 -44 
Q 1000 -44 831 53 
Q 663 150 594 308 
Q 525 466 525 972 
L 525 2881 
L 113 2881 
L 113 3319 
L 525 3319 
L 525 4141 
L 1084 4478 
L 1084 3319 
L 1650 3319 
L 1650 2881 
L 1084 2881 
L 1084 941 
Q 1084 700 1114 631 
Q 1144 563 1211 522 
Q 1278 481 1403 481 
Q 1497 481 1650 503 
z
" transform="scale(0.015625)"/>
       <path id="ArialMT-69" d="M 425 3934 
L 425 4581 
L 988 4581 
L 988 3934 
L 425 3934 
z
M 425 0 
L 425 3319 
L 988 3319 
L 988 0 
L 425 0 
z
" transform="scale(0.015625)"/>
       <path id="ArialMT-6f" d="M 213 1659 
Q 213 2581 725 3025 
Q 1153 3394 1769 3394 
Q 2453 3394 2887 2945 
Q 3322 2497 3322 1706 
Q 3322 1066 3130 698 
Q 2938 331 2570 128 
Q 2203 -75 1769 -75 
Q 1072 -75 642 372 
Q 213 819 213 1659 
z
M 791 1659 
Q 791 1022 1069 705 
Q 1347 388 1769 388 
Q 2188 388 2466 706 
Q 2744 1025 2744 1678 
Q 2744 2294 2464 2611 
Q 2184 2928 1769 2928 
Q 1347 2928 1069 2612 
Q 791 2297 791 1659 
z
" transform="scale(0.015625)"/>
      </defs>
      <use xlink:href="#ArialMT-47"/>
      <use xlink:href="#ArialMT-65" x="77.783203"/>
      <use xlink:href="#ArialMT-6e" x="133.398438"/>
      <use xlink:href="#ArialMT-65" x="189.013672"/>
      <use xlink:href="#ArialMT-72" x="244.628906"/>
      <use xlink:href="#ArialMT-61" x="277.929688"/>
      <use xlink:href="#ArialMT-74" x="333.544922"/>
      <use xlink:href="#ArialMT-69" x="361.328125"/>
      <use xlink:href="#ArialMT-6f" x="383.544922"/>
      <use xlink:href="#ArialMT-6e" x="439.160156"/>
     </g>
    </g>
   </g>
   <g id="matplotlib.axis_2">
    <g id="ytick_1">
     <g id="line2d_7">
      <path d="M 108 178.38 
L 777.6 178.38 
" clip-path="url(#p9f24d46908)" style="fill: none; stroke: #ffffff; stroke-linecap: round"/>
     </g>
     <g id="text_8">
      <!-- 0.5 -->
      <g style="fill: #262626" transform="translate(83.21 182.316797) scale(0.11 -0.11)">
       <defs>
        <path id="ArialMT-2e" d="M 581 0 
L 581 641 
L 1222 641 
L 1222 0 
L 581 0 
z
" transform="scale(0.015625)"/>
        <path id="ArialMT-35" d="M 266 1200 
L 856 1250 
Q 922 819 1161 601 
Q 1400 384 1738 384 
Q 2144 384 2425 690 
Q 2706 997 2706 1503 
Q 2706 1984 2436 2262 
Q 2166 2541 1728 2541 
Q 1456 2541 1237 2417 
Q 1019 2294 894 2097 
L 366 2166 
L 809 4519 
L 3088 4519 
L 3088 3981 
L 1259 3981 
L 1013 2750 
Q 1425 3038 1878 3038 
Q 2478 3038 2890 2622 
Q 3303 2206 3303 1553 
Q 3303 931 2941 478 
Q 2500 -78 1738 -78 
Q 1113 -78 717 272 
Q 322 622 266 1200 
z
" transform="scale(0.015625)"/>
       </defs>
       <use xlink:href="#ArialMT-30"/>
       <use xlink:href="#ArialMT-2e" x="55.615234"/>
       <use xlink:href="#ArialMT-35" x="83.398438"/>
      </g>
     </g>
    </g>
    <g id="ytick_2">
     <g id="line2d_8">
      <path d="M 108 150.66 
L 777.6 150.66 
" clip-path="url(#p9f24d46908)" style="fill: none; stroke: #ffffff; stroke-linecap: round"/>
     </g>
     <g id="text_9">
      <!-- 0.6 -->
      <g style="fill: #262626" transform="translate(83.21 154.596797) scale(0.11 -0.11)">
       <use xlink:href="#ArialMT-30"/>
       <use xlink:href="#ArialMT-2e" x="55.615234"/>
       <use xlink:href="#ArialMT-36" x="83.398438"/>
      </g>
     </g>
    </g>
    <g id="ytick_3">
     <g id="line2d_9">
      <path d="M 108 122.94 
L 777.6 122.94 
" clip-path="url(#p9f24d46908)" style="fill: none; stroke: #ffffff; stroke-linecap: round"/>
     </g>
     <g id="text_10">
      <!-- 0.7 -->
      <g style="fill: #262626" transform="translate(83.21 126.876797) scale(0.11 -0.11)">
       <defs>
        <path id="ArialMT-37" d="M 303 3981 
L 303 4522 
L 3269 4522 
L 3269 4084 
Q 2831 3619 2401 2847 
Q 1972 2075 1738 1259 
Q 1569 684 1522 0 
L 944 0 
Q 953 541 1156 1306 
Q 1359 2072 1739 2783 
Q 2119 3494 2547 3981 
L 303 3981 
z
" transform="scale(0.015625)"/>
       </defs>
       <use xlink:href="#ArialMT-30"/>
       <use xlink:href="#ArialMT-2e" x="55.615234"/>
       <use xlink:href="#ArialMT-37" x="83.398438"/>
      </g>
     </g>
    </g>
    <g id="ytick_4">
     <g id="line2d_10">
      <path d="M 108 95.22 
L 777.6 95.22 
" clip-path="url(#p9f24d46908)" style="fill: none; stroke: #ffffff; stroke-linecap: round"/>
     </g>
     <g id="text_11">
      <!-- 0.8 -->
      <g style="fill: #262626" transform="translate(83.21 99.156797) scale(0.11 -0.11)">
       <use xlink:href="#ArialMT-30"/>
       <use xlink:href="#ArialMT-2e" x="55.615234"/>
       <use xlink:href="#ArialMT-38" x="83.398438"/>
      </g>
     </g>
    </g>
    <g id="ytick_5">
     <g id="line2d_11">
      <path d="M 108 67.5 
L 777.6 67.5 
" clip-path="url(#p9f24d46908)" style="fill: none; stroke: #ffffff; stroke-linecap: round"/>
     </g>
     <g id="text_12">
      <!-- 0.9 -->
      <g style="fill: #262626" transform="translate(83.21 71.436797) scale(0.11 -0.11)">
       <defs>
        <path id="ArialMT-39" d="M 350 1059 
L 891 1109 
Q 959 728 1153 556 
Q 1347 384 1650 384 
Q 1909 384 2104 503 
Q 2300 622 2425 820 
Q 2550 1019 2634 1356 
Q 2719 1694 2719 2044 
Q 2719 2081 2716 2156 
Q 2547 1888 2255 1720 
Q 1963 1553 1622 1553 
Q 1053 1553 659 1965 
Q 266 2378 266 3053 
Q 266 3750 677 4175 
Q 1088 4600 1706 4600 
Q 2153 4600 2523 4359 
Q 2894 4119 3086 3673 
Q 3278 3228 3278 2384 
Q 3278 1506 3087 986 
Q 2897 466 2520 194 
Q 2144 -78 1638 -78 
Q 1100 -78 759 220 
Q 419 519 350 1059 
z
M 2653 3081 
Q 2653 3566 2395 3850 
Q 2138 4134 1775 4134 
Q 1400 4134 1122 3828 
Q 844 3522 844 3034 
Q 844 2597 1108 2323 
Q 1372 2050 1759 2050 
Q 2150 2050 2401 2323 
Q 2653 2597 2653 3081 
z
" transform="scale(0.015625)"/>
       </defs>
       <use xlink:href="#ArialMT-30"/>
       <use xlink:href="#ArialMT-2e" x="55.615234"/>
       <use xlink:href="#ArialMT-39" x="83.398438"/>
      </g>
     </g>
    </g>
    <g id="ytick_6">
     <g id="line2d_12">
      <path d="M 108 39.78 
L 777.6 39.78 
" clip-path="url(#p9f24d46908)" style="fill: none; stroke: #ffffff; stroke-linecap: round"/>
     </g>
     <g id="text_13">
      <!-- 1.0 -->
      <g style="fill: #262626" transform="translate(83.21 43.716797) scale(0.11 -0.11)">
       <use xlink:href="#ArialMT-31"/>
       <use xlink:href="#ArialMT-2e" x="55.615234"/>
       <use xlink:href="#ArialMT-30" x="83.398438"/>
      </g>
     </g>
    </g>
    <g id="text_14">
     <!-- Fitness -->
     <g style="fill: #262626" transform="translate(76.825 128.417812) rotate(-90) scale(0.12 -0.12)">
      <defs>
       <path id="ArialMT-46" d="M 525 0 
L 525 4581 
L 3616 4581 
L 3616 4041 
L 1131 4041 
L 1131 2622 
L 3281 2622 
L 3281 2081 
L 1131 2081 
L 1131 0 
L 525 0 
z
" transform="scale(0.015625)"/>
       <path id="ArialMT-73" d="M 197 991 
L 753 1078 
Q 800 744 1014 566 
Q 1228 388 1613 388 
Q 2000 388 2187 545 
Q 2375 703 2375 916 
Q 2375 1106 2209 1216 
Q 2094 1291 1634 1406 
Q 1016 1563 777 1677 
Q 538 1791 414 1992 
Q 291 2194 291 2438 
Q 291 2659 392 2848 
Q 494 3038 669 3163 
Q 800 3259 1026 3326 
Q 1253 3394 1513 3394 
Q 1903 3394 2198 3281 
Q 2494 3169 2634 2976 
Q 2775 2784 2828 2463 
L 2278 2388 
Q 2241 2644 2061 2787 
Q 1881 2931 1553 2931 
Q 1166 2931 1000 2803 
Q 834 2675 834 2503 
Q 834 2394 903 2306 
Q 972 2216 1119 2156 
Q 1203 2125 1616 2013 
Q 2213 1853 2448 1751 
Q 2684 1650 2818 1456 
Q 2953 1263 2953 975 
Q 2953 694 2789 445 
Q 2625 197 2315 61 
Q 2006 -75 1616 -75 
Q 969 -75 630 194 
Q 291 463 197 991 
z
" transform="scale(0.015625)"/>
      </defs>
      <use xlink:href="#ArialMT-46"/>
      <use xlink:href="#ArialMT-69" x="61.083984"/>
      <use xlink:href="#ArialMT-74" x="83.300781"/>
      <use xlink:href="#ArialMT-6e" x="111.083984"/>
      <use xlink:href="#ArialMT-65" x="166.699219"/>
      <use xlink:href="#ArialMT-73" x="222.314453"/>
      <use xlink:href="#ArialMT-73" x="272.314453"/>
     </g>
    </g>
   </g>
   <g id="line2d_13">
    <path d="M 138.436364 185.31 
L 139.532292 109.08 
L 146.83848 109.08 
L 148.056179 91.755 
L 149.273877 109.08 
L 150.491575 91.755 
L 151.709273 109.08 
L 152.926971 91.755 
L 154.144669 109.08 
L 155.362367 91.755 
L 156.580065 109.08 
L 157.797763 91.755 
L 159.015461 109.08 
L 160.233159 91.755 
L 161.450857 109.08 
L 162.668556 91.755 
L 163.886254 109.08 
L 165.103952 91.755 
L 172.41014 91.755 
L 173.627838 74.43 
L 174.845536 91.755 
L 176.063234 74.43 
L 185.804819 74.43 
L 187.022517 57.105 
L 188.240215 74.43 
L 190.675611 74.43 
L 191.89331 57.105 
L 193.111008 74.43 
L 194.328706 74.43 
L 195.546404 64.035 
L 196.764102 74.43 
L 302.703835 74.43 
L 303.921533 57.105 
L 305.139231 74.43 
L 350.194061 74.43 
L 351.411759 39.78 
L 352.629457 74.43 
L 353.847155 39.78 
L 355.064853 74.43 
L 356.282551 39.78 
L 358.717947 74.43 
L 359.935645 57.105 
L 361.153343 74.43 
L 362.371041 57.105 
L 363.58874 74.43 
L 364.806438 57.105 
L 366.024136 74.43 
L 376.983419 74.43 
L 378.201117 57.105 
L 379.418815 74.43 
L 577.903603 74.43 
L 579.121301 57.105 
L 580.338999 74.43 
L 607.128357 74.43 
L 608.346055 39.78 
L 609.563753 74.43 
L 614.434545 74.43 
L 615.652243 39.78 
L 616.869941 74.43 
L 618.087639 39.78 
L 619.305337 74.43 
L 620.523036 74.43 
L 621.740734 39.78 
L 622.958432 74.43 
L 624.17613 39.78 
L 625.393828 74.43 
L 626.611526 39.78 
L 631.482318 39.78 
L 632.700016 74.43 
L 633.917714 39.78 
L 635.135413 74.43 
L 636.353111 39.78 
L 637.570809 74.43 
L 638.788507 39.78 
L 640.006205 74.43 
L 641.223903 39.78 
L 642.441601 74.43 
L 643.659299 74.43 
L 644.876997 57.105 
L 646.094695 74.43 
L 648.530091 74.43 
L 649.74779 46.71 
L 650.965488 74.43 
L 652.183186 57.105 
L 653.400884 74.43 
L 659.489374 74.43 
L 660.707072 39.78 
L 661.92477 74.43 
L 693.584921 74.43 
L 694.802619 57.105 
L 696.020317 74.43 
L 698.455713 74.43 
L 699.673411 57.105 
L 700.891109 74.43 
L 702.108807 39.78 
L 703.326505 74.43 
L 704.544203 57.105 
L 705.761901 74.43 
L 706.9796 39.78 
L 709.414996 39.78 
L 710.632694 74.43 
L 711.850392 39.78 
L 713.06809 74.43 
L 714.285788 39.78 
L 715.503486 74.43 
L 716.721184 39.78 
L 717.938882 74.43 
L 719.15658 39.78 
L 720.374278 74.43 
L 721.591977 39.78 
L 722.809675 74.43 
L 724.027373 39.78 
L 725.245071 74.43 
L 726.462769 39.78 
L 727.680467 74.43 
L 728.898165 39.78 
L 730.115863 74.43 
L 731.333561 39.78 
L 732.551259 74.43 
L 733.768957 39.78 
L 734.986656 74.43 
L 736.204354 39.78 
L 737.422052 74.43 
L 738.63975 39.78 
L 739.857448 74.43 
L 741.075146 39.78 
L 742.292844 74.43 
L 743.510542 39.78 
L 744.72824 74.43 
L 745.945938 39.78 
L 747.163636 74.43 
L 747.163636 74.43 
" clip-path="url(#p9f24d46908)" style="fill: none; stroke: #4c72b0; stroke-width: 1.5; stroke-linecap: round"/>
   </g>
   <g id="line2d_14">
    <path d="M 138.436364 185.31 
L 139.532292 112.67667 
L 140.74999 113.948325 
L 141.967688 113.88249 
L 143.185386 117.13959 
L 144.403084 115.543958 
L 145.620782 115.640978 
L 146.83848 114.4161 
L 148.056179 104.177025 
L 149.273877 116.850263 
L 150.491575 106.41195 
L 151.709273 116.858925 
L 152.926971 108.89289 
L 154.144669 118.05435 
L 155.362367 109.998225 
L 156.580065 117.976388 
L 157.797763 108.6642 
L 159.015461 118.218938 
L 160.233159 110.01555 
L 161.450857 119.561625 
L 162.668556 109.235925 
L 163.886254 118.175625 
L 165.103952 109.187415 
L 166.32165 107.9712 
L 167.539348 105.121238 
L 168.757046 112.292055 
L 169.974744 107.577923 
L 171.192442 107.72865 
L 172.41014 106.039463 
L 173.627838 92.681888 
L 174.845536 107.668013 
L 176.063234 102.633368 
L 177.280933 102.167325 
L 178.498631 99.11466 
L 179.716329 93.48057 
L 180.934027 98.371418 
L 182.151725 92.867265 
L 183.369423 96.514178 
L 184.587121 91.188473 
L 185.804819 95.239058 
L 187.022517 81.309758 
L 188.240215 94.352018 
L 189.457913 91.916123 
L 190.675611 94.650008 
L 191.89331 92.307668 
L 193.111008 97.5069 
L 194.328706 91.444883 
L 195.546404 94.364145 
L 196.764102 94.209953 
L 197.9818 96.431018 
L 199.199498 93.433793 
L 200.417196 94.68639 
L 201.634894 94.300043 
L 202.852592 95.223465 
L 204.07029 93.222428 
L 205.287989 93.28653 
L 206.505687 91.354793 
L 207.723385 94.09041 
L 208.941083 96.41889 
L 210.158781 95.006903 
L 211.376479 96.62679 
L 212.594177 93.943148 
L 213.811875 93.927555 
L 215.029573 93.57759 
L 216.247271 92.740792 
L 217.464969 92.231438 
L 218.682667 93.884243 
L 219.900366 95.1507 
L 221.118064 94.35375 
L 222.335762 93.31425 
L 223.55346 93.842663 
L 224.771158 96.34266 
L 225.988856 94.67946 
L 227.206554 99.131985 
L 228.424252 93.534278 
L 229.64195 100.038083 
L 230.859648 95.512793 
L 232.077346 98.12367 
L 233.295044 94.40919 
L 234.512743 94.689855 
L 235.730441 94.40919 
L 236.948139 93.220695 
L 238.165837 96.034275 
L 239.383535 95.526653 
L 240.601233 100.455615 
L 241.818931 96.929978 
L 243.036629 96.297615 
L 244.254327 93.0024 
L 245.472025 94.937603 
L 246.689723 95.001705 
L 247.907421 92.62818 
L 249.12512 94.618822 
L 250.342818 93.253613 
L 251.560516 97.990268 
L 252.778214 94.788608 
L 253.995912 95.327415 
L 255.21361 92.879393 
L 256.431308 95.945918 
L 257.649006 93.39048 
L 258.866704 97.525958 
L 260.084402 93.374888 
L 261.3021 98.762963 
L 262.519799 97.020068 
L 263.737497 98.090753 
L 264.955195 94.24287 
L 266.172893 98.759498 
L 267.390591 94.64481 
L 268.608289 98.32464 
L 269.825987 92.300738 
L 271.043685 98.78895 
L 272.261383 93.638228 
L 273.479081 100.469475 
L 274.696779 92.221043 
L 275.914477 95.176688 
L 277.132176 93.406073 
L 278.349874 97.636838 
L 279.567572 92.957355 
L 280.78527 97.907108 
L 282.002968 94.43691 
L 283.220666 100.71549 
L 284.438364 96.060263 
L 285.656062 100.627133 
L 286.87376 95.401913 
L 288.091458 99.5859 
L 289.309156 95.242523 
L 290.526854 98.702325 
L 291.744553 93.873848 
L 292.962251 97.68708 
L 294.179949 91.515915 
L 295.397647 99.407453 
L 296.615345 92.612588 
L 297.833043 95.731088 
L 299.050741 91.65105 
L 300.268439 95.928593 
L 301.486137 91.230053 
L 302.703835 93.79935 
L 303.921533 88.610513 
L 305.139231 96.817365 
L 306.35693 95.71896 
L 307.574628 95.758808 
L 308.792326 92.169068 
L 310.010024 93.738713 
L 312.44542 93.374888 
L 313.663118 93.631298 
L 314.880816 93.537743 
L 316.098514 94.06269 
L 317.316212 94.83192 
L 318.53391 92.0322 
L 319.751609 95.38632 
L 320.969307 91.65105 
L 322.187005 93.617438 
L 323.404703 90.571703 
L 324.622401 93.123675 
L 325.840099 90.060615 
L 327.057797 93.170453 
L 328.275495 91.619865 
L 329.493193 97.148273 
L 330.710891 91.585215 
L 331.928589 95.964975 
L 333.146287 92.24703 
L 334.363986 95.495468 
L 335.581684 90.504135 
L 336.799382 97.9227 
L 338.01708 93.898103 
L 339.234778 94.088678 
L 340.452476 94.705448 
L 341.670174 93.89637 
L 342.887872 91.987155 
L 344.10557 96.957698 
L 345.323268 91.108778 
L 346.540966 96.80697 
L 347.758664 92.376968 
L 348.976363 97.953885 
L 350.194061 90.753615 
L 351.411759 97.512098 
L 353.847155 96.666638 
L 355.064853 92.207183 
L 356.282551 96.19713 
L 357.500249 79.944547 
L 358.717947 95.26158 
L 359.935645 91.642388 
L 361.153343 93.269205 
L 362.371041 82.874205 
L 363.58874 94.248068 
L 364.806438 89.26713 
L 366.024136 96.139958 
L 367.241834 92.94003 
L 368.459532 96.697823 
L 369.67723 93.082095 
L 370.894928 95.55264 
L 372.112626 90.157635 
L 373.330324 94.993043 
L 374.548022 90.220005 
L 375.76572 97.1604 
L 376.983419 93.849593 
L 378.201117 93.932753 
L 379.418815 94.620555 
L 380.636513 97.18812 
L 381.854211 93.324645 
L 383.071909 99.67599 
L 384.289607 94.556453 
L 385.507305 100.79865 
L 386.725003 92.806628 
L 387.942701 99.805928 
L 389.160399 93.319448 
L 390.378097 99.15624 
L 391.595796 92.57274 
L 392.813494 99.291375 
L 394.031192 93.745643 
L 395.24889 95.478143 
L 396.466588 90.748418 
L 397.684286 94.863105 
L 398.901984 93.343703 
L 400.119682 95.694705 
L 401.33738 92.006213 
L 402.555078 95.348205 
L 403.772776 94.643078 
L 404.990474 94.358948 
L 406.208173 91.79658 
L 407.425871 94.177035 
L 408.643569 93.087293 
L 409.861267 96.3981 
L 411.078965 94.29831 
L 412.296663 92.756385 
L 413.514361 91.398105 
L 414.732059 92.95389 
L 415.949757 90.83331 
L 417.167455 93.872115 
L 418.385153 92.45493 
L 419.602851 95.673915 
L 420.82055 92.338853 
L 422.038248 92.120558 
L 423.255946 91.44315 
L 424.473644 94.49235 
L 425.691342 91.74114 
L 426.90904 95.370728 
L 428.126738 95.29623 
L 429.344436 93.82014 
L 430.562134 91.382513 
L 431.779832 94.994775 
L 432.99753 92.153475 
L 434.215229 97.186388 
L 435.432927 92.146545 
L 436.650625 99.014175 
L 437.868323 93.558533 
L 439.086021 97.144807 
L 440.303719 93.257078 
L 441.521417 96.394635 
L 442.739115 91.78965 
L 443.956813 93.02319 
L 445.174511 92.328458 
L 446.392209 98.28999 
L 447.609907 91.067198 
L 448.827606 93.797618 
L 450.045304 94.35375 
L 451.263002 91.379048 
L 452.4807 90.772672 
L 453.698398 95.542245 
L 454.916096 93.212033 
L 456.133794 92.796233 
L 457.351492 91.217925 
L 458.56919 93.198173 
L 459.786888 93.296925 
L 461.004586 94.83192 
L 462.222284 94.502745 
L 463.439983 94.55472 
L 464.657681 92.299005 
L 465.875379 98.461508 
L 467.093077 95.173223 
L 468.310775 97.155203 
L 470.746171 92.203718 
L 471.963869 92.555415 
L 473.181567 91.212728 
L 474.399265 93.704063 
L 475.616963 94.157978 
L 476.834661 93.641693 
L 478.05236 95.66352 
L 479.270058 92.700945 
L 480.487756 97.075508 
L 481.705454 92.259158 
L 482.923152 95.644463 
L 484.14085 91.496858 
L 485.358548 95.128178 
L 486.576246 88.558538 
L 487.793944 94.774748 
L 489.011642 89.39187 
L 490.22934 93.387015 
L 491.447038 91.418895 
L 492.664737 95.861025 
L 493.882435 91.217925 
L 495.100133 95.161095 
L 496.317831 90.391523 
L 497.535529 96.540165 
L 498.753227 93.12714 
L 499.970925 92.590065 
L 501.188623 90.547448 
L 502.406321 93.18258 
L 503.624019 90.77094 
L 504.841717 95.639265 
L 506.059416 94.11813 
L 507.277114 97.073775 
L 508.494812 96.55056 
L 509.71251 95.796923 
L 510.930208 91.507253 
L 512.147906 93.879045 
L 513.365604 92.435873 
L 514.583302 93.364493 
L 515.801 92.522498 
L 517.018698 94.267125 
L 518.236396 92.312865 
L 519.454094 92.818755 
L 520.671793 90.90261 
L 521.889491 95.78826 
L 523.107189 90.904343 
L 524.324887 91.758465 
L 525.542585 94.502745 
L 526.760283 95.784795 
L 527.977981 94.293113 
L 529.195679 95.230395 
L 530.413377 92.917508 
L 531.631075 94.717575 
L 532.848773 93.638228 
L 534.066471 94.92201 
L 535.28417 93.504825 
L 536.501868 94.300043 
L 537.719566 92.001015 
L 538.937264 92.520765 
L 540.154962 92.21238 
L 541.37266 94.632683 
L 542.590358 93.170453 
L 543.808056 91.344398 
L 545.025754 93.659018 
L 547.46115 90.869693 
L 548.678848 94.670797 
L 549.896547 91.924785 
L 551.114245 93.976065 
L 552.331943 96.257768 
L 553.549641 96.288953 
L 554.767339 96.02388 
L 555.985037 92.938298 
L 557.202735 91.465673 
L 558.420433 93.75084 
L 559.638131 90.502403 
L 560.855829 93.109815 
L 562.073527 91.891868 
L 563.291226 91.975028 
L 564.508924 91.018688 
L 565.726622 92.096303 
L 566.94432 92.98161 
L 568.162018 95.852363 
L 569.379716 93.186045 
L 570.597414 96.098378 
L 571.815112 91.66491 
L 573.03281 94.04883 
L 574.250508 90.18189 
L 575.468206 94.204755 
L 576.685904 88.67115 
L 577.903603 89.797275 
L 579.121301 89.736638 
L 580.338999 91.92825 
L 581.556697 90.142043 
L 582.774395 91.531508 
L 583.992093 90.434835 
L 585.209791 91.462208 
L 586.427489 90.481613 
L 587.645187 94.527 
L 588.862885 91.592145 
L 590.080583 91.945575 
L 591.298281 93.539475 
L 592.51598 91.857218 
L 594.951376 92.479185 
L 596.169074 93.128873 
L 597.386772 94.494083 
L 598.60447 94.904685 
L 599.822168 93.790688 
L 601.039866 93.30039 
L 602.257564 94.303508 
L 603.475262 94.364145 
L 604.69296 96.76539 
L 605.910658 93.88944 
L 607.128357 96.91092 
L 608.346055 95.923395 
L 609.563753 96.850283 
L 610.781451 96.664905 
L 611.999149 101.20059 
L 613.216847 98.090753 
L 614.434545 96.817365 
L 615.652243 94.336425 
L 616.869941 94.064423 
L 618.087639 92.033933 
L 619.305337 96.845085 
L 621.740734 93.25188 
L 622.958432 94.11813 
L 624.17613 73.835753 
L 625.393828 94.669065 
L 626.611526 63.863483 
L 627.829224 93.39048 
L 629.046922 65.748443 
L 630.26462 90.533588 
L 631.482318 64.37457 
L 632.700016 95.793458 
L 633.917714 65.22003 
L 635.135413 93.858255 
L 636.353111 63.18954 
L 637.570809 95.183617 
L 638.788507 67.137908 
L 640.006205 92.113628 
L 641.223903 93.179115 
L 642.441601 93.172185 
L 643.659299 93.516953 
L 644.876997 95.978835 
L 646.094695 95.242523 
L 647.312393 93.693668 
L 648.530091 95.609813 
L 649.74779 94.847513 
L 650.965488 93.830535 
L 653.400884 97.231433 
L 654.618582 93.12021 
L 655.83628 98.42166 
L 657.053978 92.73906 
L 658.271676 92.546753 
L 659.489374 95.45562 
L 660.707072 92.955623 
L 661.92477 91.99755 
L 663.142468 92.749455 
L 664.360167 92.583135 
L 665.577865 94.55472 
L 666.795563 92.8638 
L 668.013261 95.526653 
L 669.230959 93.15486 
L 670.448657 96.32187 
L 671.666355 92.55888 
L 672.884053 94.48542 
L 674.101751 93.953543 
L 675.319449 92.444535 
L 676.537147 92.50344 
L 677.754846 95.256383 
L 678.972544 91.489928 
L 680.190242 92.11536 
L 681.40794 92.30247 
L 682.625638 95.34474 
L 683.843336 92.12922 
L 685.061034 95.112585 
L 686.278732 89.91162 
L 687.49643 92.416815 
L 688.714128 91.155555 
L 689.931826 94.549522 
L 691.149524 93.359295 
L 692.367223 93.302123 
L 693.584921 92.761583 
L 694.802619 95.54571 
L 696.020317 93.345435 
L 697.238015 97.12575 
L 698.455713 95.595953 
L 699.673411 87.997208 
L 700.891109 99.152775 
L 702.108807 81.923063 
L 703.326505 96.517642 
L 704.544203 100.852358 
L 705.761901 97.45146 
L 706.9796 81.552308 
L 708.197298 95.325683 
L 709.414996 69.215175 
L 710.632694 95.180153 
L 711.850392 69.291405 
L 713.06809 97.827413 
L 714.285788 67.406445 
L 715.503486 96.015218 
L 716.721184 94.005518 
L 717.938882 93.969135 
L 719.15658 68.98995 
L 720.374278 94.04883 
L 721.591977 67.207208 
L 722.809675 94.620555 
L 724.027373 70.187108 
L 725.245071 95.031158 
L 726.462769 68.901593 
L 727.680467 96.5367 
L 728.898165 68.042273 
L 730.115863 99.490613 
L 731.333561 69.081773 
L 732.551259 95.8437 
L 733.768957 71.22834 
L 734.986656 96.822563 
L 736.204354 66.368678 
L 737.422052 94.414388 
L 738.63975 70.00173 
L 739.857448 94.994775 
L 741.075146 70.512818 
L 742.292844 95.687775 
L 743.510542 69.608453 
L 744.72824 94.128525 
L 745.945938 72.014895 
L 747.163636 95.73975 
L 747.163636 95.73975 
" clip-path="url(#p9f24d46908)" style="fill: none; stroke: #dd8452; stroke-width: 1.5; stroke-linecap: round"/>
   </g>
   <g id="patch_3">
    <path d="M 108 192.24 
L 108 25.92 
" style="fill: none; stroke: #ffffff; stroke-width: 1.25; stroke-linejoin: miter; stroke-linecap: square"/>
   </g>
   <g id="patch_4">
    <path d="M 777.6 192.24 
L 777.6 25.92 
" style="fill: none; stroke: #ffffff; stroke-width: 1.25; stroke-linejoin: miter; stroke-linecap: square"/>
   </g>
   <g id="patch_5">
    <path d="M 108 192.24 
L 777.6 192.24 
" style="fill: none; stroke: #ffffff; stroke-width: 1.25; stroke-linejoin: miter; stroke-linecap: square"/>
   </g>
   <g id="patch_6">
    <path d="M 108 25.92 
L 777.6 25.92 
" style="fill: none; stroke: #ffffff; stroke-width: 1.25; stroke-linejoin: miter; stroke-linecap: square"/>
   </g>
   <g id="legend_1">
    <g id="patch_7">
     <path d="M 655.415781 186.74 
L 769.9 186.74 
Q 772.1 186.74 772.1 184.54 
L 772.1 154.391406 
Q 772.1 152.191406 769.9 152.191406 
L 655.415781 152.191406 
Q 653.215781 152.191406 653.215781 154.391406 
L 653.215781 184.54 
Q 653.215781 186.74 655.415781 186.74 
z
" style="fill: #eaeaf2; opacity: 0.8; stroke: #cccccc; stroke-linejoin: miter"/>
    </g>
    <g id="line2d_15">
     <path d="M 657.615781 160.615 
L 668.615781 160.615 
L 679.615781 160.615 
" style="fill: none; stroke: #4c72b0; stroke-width: 1.5; stroke-linecap: round"/>
    </g>
    <g id="text_15">
     <!-- Max Fitness -->
     <g style="fill: #262626" transform="translate(688.415781 164.465) scale(0.11 -0.11)">
      <defs>
       <path id="ArialMT-4d" d="M 475 0 
L 475 4581 
L 1388 4581 
L 2472 1338 
Q 2622 884 2691 659 
Q 2769 909 2934 1394 
L 4031 4581 
L 4847 4581 
L 4847 0 
L 4263 0 
L 4263 3834 
L 2931 0 
L 2384 0 
L 1059 3900 
L 1059 0 
L 475 0 
z
" transform="scale(0.015625)"/>
       <path id="ArialMT-78" d="M 47 0 
L 1259 1725 
L 138 3319 
L 841 3319 
L 1350 2541 
Q 1494 2319 1581 2169 
Q 1719 2375 1834 2534 
L 2394 3319 
L 3066 3319 
L 1919 1756 
L 3153 0 
L 2463 0 
L 1781 1031 
L 1600 1309 
L 728 0 
L 47 0 
z
" transform="scale(0.015625)"/>
       <path id="ArialMT-20" transform="scale(0.015625)"/>
      </defs>
      <use xlink:href="#ArialMT-4d"/>
      <use xlink:href="#ArialMT-61" x="83.300781"/>
      <use xlink:href="#ArialMT-78" x="138.916016"/>
      <use xlink:href="#ArialMT-20" x="188.916016"/>
      <use xlink:href="#ArialMT-46" x="216.699219"/>
      <use xlink:href="#ArialMT-69" x="277.783203"/>
      <use xlink:href="#ArialMT-74" x="300"/>
      <use xlink:href="#ArialMT-6e" x="327.783203"/>
      <use xlink:href="#ArialMT-65" x="383.398438"/>
      <use xlink:href="#ArialMT-73" x="439.013672"/>
      <use xlink:href="#ArialMT-73" x="489.013672"/>
     </g>
    </g>
    <g id="line2d_16">
     <path d="M 657.615781 176.174844 
L 668.615781 176.174844 
L 679.615781 176.174844 
" style="fill: none; stroke: #dd8452; stroke-width: 1.5; stroke-linecap: round"/>
    </g>
    <g id="text_16">
     <!-- Average Fitness -->
     <g style="fill: #262626" transform="translate(688.415781 180.024844) scale(0.11 -0.11)">
      <defs>
       <path id="ArialMT-41" d="M -9 0 
L 1750 4581 
L 2403 4581 
L 4278 0 
L 3588 0 
L 3053 1388 
L 1138 1388 
L 634 0 
L -9 0 
z
M 1313 1881 
L 2866 1881 
L 2388 3150 
Q 2169 3728 2063 4100 
Q 1975 3659 1816 3225 
L 1313 1881 
z
" transform="scale(0.015625)"/>
       <path id="ArialMT-76" d="M 1344 0 
L 81 3319 
L 675 3319 
L 1388 1331 
Q 1503 1009 1600 663 
Q 1675 925 1809 1294 
L 2547 3319 
L 3125 3319 
L 1869 0 
L 1344 0 
z
" transform="scale(0.015625)"/>
       <path id="ArialMT-67" d="M 319 -275 
L 866 -356 
Q 900 -609 1056 -725 
Q 1266 -881 1628 -881 
Q 2019 -881 2231 -725 
Q 2444 -569 2519 -288 
Q 2563 -116 2559 434 
Q 2191 0 1641 0 
Q 956 0 581 494 
Q 206 988 206 1678 
Q 206 2153 378 2554 
Q 550 2956 876 3175 
Q 1203 3394 1644 3394 
Q 2231 3394 2613 2919 
L 2613 3319 
L 3131 3319 
L 3131 450 
Q 3131 -325 2973 -648 
Q 2816 -972 2473 -1159 
Q 2131 -1347 1631 -1347 
Q 1038 -1347 672 -1080 
Q 306 -813 319 -275 
z
M 784 1719 
Q 784 1066 1043 766 
Q 1303 466 1694 466 
Q 2081 466 2343 764 
Q 2606 1063 2606 1700 
Q 2606 2309 2336 2618 
Q 2066 2928 1684 2928 
Q 1309 2928 1046 2623 
Q 784 2319 784 1719 
z
" transform="scale(0.015625)"/>
      </defs>
      <use xlink:href="#ArialMT-41"/>
      <use xlink:href="#ArialMT-76" x="64.949219"/>
      <use xlink:href="#ArialMT-65" x="114.949219"/>
      <use xlink:href="#ArialMT-72" x="170.564453"/>
      <use xlink:href="#ArialMT-61" x="203.865234"/>
      <use xlink:href="#ArialMT-67" x="259.480469"/>
      <use xlink:href="#ArialMT-65" x="315.095703"/>
      <use xlink:href="#ArialMT-20" x="370.710938"/>
      <use xlink:href="#ArialMT-46" x="398.494141"/>
      <use xlink:href="#ArialMT-69" x="459.578125"/>
      <use xlink:href="#ArialMT-74" x="481.794922"/>
      <use xlink:href="#ArialMT-6e" x="509.578125"/>
      <use xlink:href="#ArialMT-65" x="565.193359"/>
      <use xlink:href="#ArialMT-73" x="620.808594"/>
      <use xlink:href="#ArialMT-73" x="670.808594"/>
     </g>
    </g>
   </g>
  </g>
 </g>
 <defs>
  <clipPath id="p9f24d46908">
   <rect x="108" y="25.92" width="669.6" height="166.32"/>
  </clipPath>
 </defs>
</svg>
