<?xml version="1.0" encoding="utf-8" standalone="no"?>
<!DOCTYPE svg PUBLIC "-//W3C//DTD SVG 1.1//EN"
  "http://www.w3.org/Graphics/SVG/1.1/DTD/svg11.dtd">
<svg xmlns:xlink="http://www.w3.org/1999/xlink" width="864pt" height="216pt" viewBox="0 0 864 216" xmlns="http://www.w3.org/2000/svg" version="1.1">
 <metadata>
  <rdf:RDF xmlns:dc="http://purl.org/dc/elements/1.1/" xmlns:cc="http://creativecommons.org/ns#" xmlns:rdf="http://www.w3.org/1999/02/22-rdf-syntax-ns#">
   <cc:Work>
    <dc:type rdf:resource="http://purl.org/dc/dcmitype/StillImage"/>
    <dc:date>2024-05-02T14:16:35.536907</dc:date>
    <dc:format>image/svg+xml</dc:format>
    <dc:creator>
     <cc:Agent>
      <dc:title>Matplotlib v3.8.0, https://matplotlib.org/</dc:title>
     </cc:Agent>
    </dc:creator>
   </cc:Work>
  </rdf:RDF>
 </metadata>
 <defs>
  <style type="text/css">*{stroke-linejoin: round; stroke-linecap: butt}</style>
 </defs>
 <g id="figure_1">
  <g id="patch_1">
   <path d="M 0 216 
L 864 216 
L 864 0 
L 0 0 
z
" style="fill: #ffffff"/>
  </g>
  <g id="axes_1">
   <g id="patch_2">
    <path d="M 108 192.24 
L 777.6 192.24 
L 777.6 25.92 
L 108 25.92 
z
" style="fill: #eaeaf2"/>
   </g>
   <g id="matplotlib.axis_1">
    <g id="xtick_1">
     <g id="line2d_1">
      <path d="M 138.375479 192.24 
L 138.375479 25.92 
" clip-path="url(#p4ff05a8cb2)" style="fill: none; stroke: #ffffff; stroke-linecap: round"/>
     </g>
     <g id="text_1">
      <!-- 0 -->
      <g style="fill: #262626" transform="translate(135.316963 209.613594) scale(0.11 -0.11)">
       <defs>
        <path id="ArialMT-30" d="M 266 2259 
Q 266 3072 433 3567 
Q 600 4063 929 4331 
Q 1259 4600 1759 4600 
Q 2128 4600 2406 4451 
Q 2684 4303 2865 4023 
Q 3047 3744 3150 3342 
Q 3253 2941 3253 2259 
Q 3253 1453 3087 958 
Q 2922 463 2592 192 
Q 2263 -78 1759 -78 
Q 1097 -78 719 397 
Q 266 969 266 2259 
z
M 844 2259 
Q 844 1131 1108 757 
Q 1372 384 1759 384 
Q 2147 384 2411 759 
Q 2675 1134 2675 2259 
Q 2675 3391 2411 3762 
Q 2147 4134 1753 4134 
Q 1366 4134 1134 3806 
Q 844 3388 844 2259 
z
" transform="scale(0.015625)"/>
       </defs>
       <use xlink:href="#ArialMT-30"/>
      </g>
     </g>
    </g>
    <g id="xtick_2">
     <g id="line2d_2">
      <path d="M 260.145287 192.24 
L 260.145287 25.92 
" clip-path="url(#p4ff05a8cb2)" style="fill: none; stroke: #ffffff; stroke-linecap: round"/>
     </g>
     <g id="text_2">
      <!-- 2000 -->
      <g style="fill: #262626" transform="translate(247.911225 209.613594) scale(0.11 -0.11)">
       <defs>
        <path id="ArialMT-32" d="M 3222 541 
L 3222 0 
L 194 0 
Q 188 203 259 391 
Q 375 700 629 1000 
Q 884 1300 1366 1694 
Q 2113 2306 2375 2664 
Q 2638 3022 2638 3341 
Q 2638 3675 2398 3904 
Q 2159 4134 1775 4134 
Q 1369 4134 1125 3890 
Q 881 3647 878 3216 
L 300 3275 
Q 359 3922 746 4261 
Q 1134 4600 1788 4600 
Q 2447 4600 2831 4234 
Q 3216 3869 3216 3328 
Q 3216 3053 3103 2787 
Q 2991 2522 2730 2228 
Q 2469 1934 1863 1422 
Q 1356 997 1212 845 
Q 1069 694 975 541 
L 3222 541 
z
" transform="scale(0.015625)"/>
       </defs>
       <use xlink:href="#ArialMT-32"/>
       <use xlink:href="#ArialMT-30" x="55.615234"/>
       <use xlink:href="#ArialMT-30" x="111.230469"/>
       <use xlink:href="#ArialMT-30" x="166.845703"/>
      </g>
     </g>
    </g>
    <g id="xtick_3">
     <g id="line2d_3">
      <path d="M 381.915096 192.24 
L 381.915096 25.92 
" clip-path="url(#p4ff05a8cb2)" style="fill: none; stroke: #ffffff; stroke-linecap: round"/>
     </g>
     <g id="text_3">
      <!-- 4000 -->
      <g style="fill: #262626" transform="translate(369.681033 209.613594) scale(0.11 -0.11)">
       <defs>
        <path id="ArialMT-34" d="M 2069 0 
L 2069 1097 
L 81 1097 
L 81 1613 
L 2172 4581 
L 2631 4581 
L 2631 1613 
L 3250 1613 
L 3250 1097 
L 2631 1097 
L 2631 0 
L 2069 0 
z
M 2069 1613 
L 2069 3678 
L 634 1613 
L 2069 1613 
z
" transform="scale(0.015625)"/>
       </defs>
       <use xlink:href="#ArialMT-34"/>
       <use xlink:href="#ArialMT-30" x="55.615234"/>
       <use xlink:href="#ArialMT-30" x="111.230469"/>
       <use xlink:href="#ArialMT-30" x="166.845703"/>
      </g>
     </g>
    </g>
    <g id="xtick_4">
     <g id="line2d_4">
      <path d="M 503.684904 192.24 
L 503.684904 25.92 
" clip-path="url(#p4ff05a8cb2)" style="fill: none; stroke: #ffffff; stroke-linecap: round"/>
     </g>
     <g id="text_4">
      <!-- 6000 -->
      <g style="fill: #262626" transform="translate(491.450842 209.613594) scale(0.11 -0.11)">
       <defs>
        <path id="ArialMT-36" d="M 3184 3459 
L 2625 3416 
Q 2550 3747 2413 3897 
Q 2184 4138 1850 4138 
Q 1581 4138 1378 3988 
Q 1113 3794 959 3422 
Q 806 3050 800 2363 
Q 1003 2672 1297 2822 
Q 1591 2972 1913 2972 
Q 2475 2972 2870 2558 
Q 3266 2144 3266 1488 
Q 3266 1056 3080 686 
Q 2894 316 2569 119 
Q 2244 -78 1831 -78 
Q 1128 -78 684 439 
Q 241 956 241 2144 
Q 241 3472 731 4075 
Q 1159 4600 1884 4600 
Q 2425 4600 2770 4297 
Q 3116 3994 3184 3459 
z
M 888 1484 
Q 888 1194 1011 928 
Q 1134 663 1356 523 
Q 1578 384 1822 384 
Q 2178 384 2434 671 
Q 2691 959 2691 1453 
Q 2691 1928 2437 2201 
Q 2184 2475 1800 2475 
Q 1419 2475 1153 2201 
Q 888 1928 888 1484 
z
" transform="scale(0.015625)"/>
       </defs>
       <use xlink:href="#ArialMT-36"/>
       <use xlink:href="#ArialMT-30" x="55.615234"/>
       <use xlink:href="#ArialMT-30" x="111.230469"/>
       <use xlink:href="#ArialMT-30" x="166.845703"/>
      </g>
     </g>
    </g>
    <g id="xtick_5">
     <g id="line2d_5">
      <path d="M 625.454713 192.24 
L 625.454713 25.92 
" clip-path="url(#p4ff05a8cb2)" style="fill: none; stroke: #ffffff; stroke-linecap: round"/>
     </g>
     <g id="text_5">
      <!-- 8000 -->
      <g style="fill: #262626" transform="translate(613.22065 209.613594) scale(0.11 -0.11)">
       <defs>
        <path id="ArialMT-38" d="M 1131 2484 
Q 781 2613 612 2850 
Q 444 3088 444 3419 
Q 444 3919 803 4259 
Q 1163 4600 1759 4600 
Q 2359 4600 2725 4251 
Q 3091 3903 3091 3403 
Q 3091 3084 2923 2848 
Q 2756 2613 2416 2484 
Q 2838 2347 3058 2040 
Q 3278 1734 3278 1309 
Q 3278 722 2862 322 
Q 2447 -78 1769 -78 
Q 1091 -78 675 323 
Q 259 725 259 1325 
Q 259 1772 486 2073 
Q 713 2375 1131 2484 
z
M 1019 3438 
Q 1019 3113 1228 2906 
Q 1438 2700 1772 2700 
Q 2097 2700 2305 2904 
Q 2513 3109 2513 3406 
Q 2513 3716 2298 3927 
Q 2084 4138 1766 4138 
Q 1444 4138 1231 3931 
Q 1019 3725 1019 3438 
z
M 838 1322 
Q 838 1081 952 856 
Q 1066 631 1291 507 
Q 1516 384 1775 384 
Q 2178 384 2440 643 
Q 2703 903 2703 1303 
Q 2703 1709 2433 1975 
Q 2163 2241 1756 2241 
Q 1359 2241 1098 1978 
Q 838 1716 838 1322 
z
" transform="scale(0.015625)"/>
       </defs>
       <use xlink:href="#ArialMT-38"/>
       <use xlink:href="#ArialMT-30" x="55.615234"/>
       <use xlink:href="#ArialMT-30" x="111.230469"/>
       <use xlink:href="#ArialMT-30" x="166.845703"/>
      </g>
     </g>
    </g>
    <g id="xtick_6">
     <g id="line2d_6">
      <path d="M 747.224521 192.24 
L 747.224521 25.92 
" clip-path="url(#p4ff05a8cb2)" style="fill: none; stroke: #ffffff; stroke-linecap: round"/>
     </g>
     <g id="text_6">
      <!-- 10000 -->
      <g style="fill: #262626" transform="translate(731.931943 209.613594) scale(0.11 -0.11)">
       <defs>
        <path id="ArialMT-31" d="M 2384 0 
L 1822 0 
L 1822 3584 
Q 1619 3391 1289 3197 
Q 959 3003 697 2906 
L 697 3450 
Q 1169 3672 1522 3987 
Q 1875 4303 2022 4600 
L 2384 4600 
L 2384 0 
z
" transform="scale(0.015625)"/>
       </defs>
       <use xlink:href="#ArialMT-31"/>
       <use xlink:href="#ArialMT-30" x="55.615234"/>
       <use xlink:href="#ArialMT-30" x="111.230469"/>
       <use xlink:href="#ArialMT-30" x="166.845703"/>
       <use xlink:href="#ArialMT-30" x="222.460938"/>
      </g>
     </g>
    </g>
    <g id="text_7">
     <!-- Generation -->
     <g style="fill: #262626" transform="translate(413.115938 224.389219) scale(0.12 -0.12)">
      <defs>
       <path id="ArialMT-47" d="M 2638 1797 
L 2638 2334 
L 4578 2338 
L 4578 638 
Q 4131 281 3656 101 
Q 3181 -78 2681 -78 
Q 2006 -78 1454 211 
Q 903 500 622 1047 
Q 341 1594 341 2269 
Q 341 2938 620 3517 
Q 900 4097 1425 4378 
Q 1950 4659 2634 4659 
Q 3131 4659 3532 4498 
Q 3934 4338 4162 4050 
Q 4391 3763 4509 3300 
L 3963 3150 
Q 3859 3500 3706 3700 
Q 3553 3900 3268 4020 
Q 2984 4141 2638 4141 
Q 2222 4141 1919 4014 
Q 1616 3888 1430 3681 
Q 1244 3475 1141 3228 
Q 966 2803 966 2306 
Q 966 1694 1177 1281 
Q 1388 869 1791 669 
Q 2194 469 2647 469 
Q 3041 469 3416 620 
Q 3791 772 3984 944 
L 3984 1797 
L 2638 1797 
z
" transform="scale(0.015625)"/>
       <path id="ArialMT-65" d="M 2694 1069 
L 3275 997 
Q 3138 488 2766 206 
Q 2394 -75 1816 -75 
Q 1088 -75 661 373 
Q 234 822 234 1631 
Q 234 2469 665 2931 
Q 1097 3394 1784 3394 
Q 2450 3394 2872 2941 
Q 3294 2488 3294 1666 
Q 3294 1616 3291 1516 
L 816 1516 
Q 847 969 1125 678 
Q 1403 388 1819 388 
Q 2128 388 2347 550 
Q 2566 713 2694 1069 
z
M 847 1978 
L 2700 1978 
Q 2663 2397 2488 2606 
Q 2219 2931 1791 2931 
Q 1403 2931 1139 2672 
Q 875 2413 847 1978 
z
" transform="scale(0.015625)"/>
       <path id="ArialMT-6e" d="M 422 0 
L 422 3319 
L 928 3319 
L 928 2847 
Q 1294 3394 1984 3394 
Q 2284 3394 2536 3286 
Q 2788 3178 2913 3003 
Q 3038 2828 3088 2588 
Q 3119 2431 3119 2041 
L 3119 0 
L 2556 0 
L 2556 2019 
Q 2556 2363 2490 2533 
Q 2425 2703 2258 2804 
Q 2091 2906 1866 2906 
Q 1506 2906 1245 2678 
Q 984 2450 984 1813 
L 984 0 
L 422 0 
z
" transform="scale(0.015625)"/>
       <path id="ArialMT-72" d="M 416 0 
L 416 3319 
L 922 3319 
L 922 2816 
Q 1116 3169 1280 3281 
Q 1444 3394 1641 3394 
Q 1925 3394 2219 3213 
L 2025 2691 
Q 1819 2813 1613 2813 
Q 1428 2813 1281 2702 
Q 1134 2591 1072 2394 
Q 978 2094 978 1738 
L 978 0 
L 416 0 
z
" transform="scale(0.015625)"/>
       <path id="ArialMT-61" d="M 2588 409 
Q 2275 144 1986 34 
Q 1697 -75 1366 -75 
Q 819 -75 525 192 
Q 231 459 231 875 
Q 231 1119 342 1320 
Q 453 1522 633 1644 
Q 813 1766 1038 1828 
Q 1203 1872 1538 1913 
Q 2219 1994 2541 2106 
Q 2544 2222 2544 2253 
Q 2544 2597 2384 2738 
Q 2169 2928 1744 2928 
Q 1347 2928 1158 2789 
Q 969 2650 878 2297 
L 328 2372 
Q 403 2725 575 2942 
Q 747 3159 1072 3276 
Q 1397 3394 1825 3394 
Q 2250 3394 2515 3294 
Q 2781 3194 2906 3042 
Q 3031 2891 3081 2659 
Q 3109 2516 3109 2141 
L 3109 1391 
Q 3109 606 3145 398 
Q 3181 191 3288 0 
L 2700 0 
Q 2613 175 2588 409 
z
M 2541 1666 
Q 2234 1541 1622 1453 
Q 1275 1403 1131 1340 
Q 988 1278 909 1158 
Q 831 1038 831 891 
Q 831 666 1001 516 
Q 1172 366 1500 366 
Q 1825 366 2078 508 
Q 2331 650 2450 897 
Q 2541 1088 2541 1459 
L 2541 1666 
z
" transform="scale(0.015625)"/>
       <path id="ArialMT-74" d="M 1650 503 
L 1731 6 
Q 1494 -44 1306 -44 
Q 1000 -44 831 53 
Q 663 150 594 308 
Q 525 466 525 972 
L 525 2881 
L 113 2881 
L 113 3319 
L 525 3319 
L 525 4141 
L 1084 4478 
L 1084 3319 
L 1650 3319 
L 1650 2881 
L 1084 2881 
L 1084 941 
Q 1084 700 1114 631 
Q 1144 563 1211 522 
Q 1278 481 1403 481 
Q 1497 481 1650 503 
z
" transform="scale(0.015625)"/>
       <path id="ArialMT-69" d="M 425 3934 
L 425 4581 
L 988 4581 
L 988 3934 
L 425 3934 
z
M 425 0 
L 425 3319 
L 988 3319 
L 988 0 
L 425 0 
z
" transform="scale(0.015625)"/>
       <path id="ArialMT-6f" d="M 213 1659 
Q 213 2581 725 3025 
Q 1153 3394 1769 3394 
Q 2453 3394 2887 2945 
Q 3322 2497 3322 1706 
Q 3322 1066 3130 698 
Q 2938 331 2570 128 
Q 2203 -75 1769 -75 
Q 1072 -75 642 372 
Q 213 819 213 1659 
z
M 791 1659 
Q 791 1022 1069 705 
Q 1347 388 1769 388 
Q 2188 388 2466 706 
Q 2744 1025 2744 1678 
Q 2744 2294 2464 2611 
Q 2184 2928 1769 2928 
Q 1347 2928 1069 2612 
Q 791 2297 791 1659 
z
" transform="scale(0.015625)"/>
      </defs>
      <use xlink:href="#ArialMT-47"/>
      <use xlink:href="#ArialMT-65" x="77.783203"/>
      <use xlink:href="#ArialMT-6e" x="133.398438"/>
      <use xlink:href="#ArialMT-65" x="189.013672"/>
      <use xlink:href="#ArialMT-72" x="244.628906"/>
      <use xlink:href="#ArialMT-61" x="277.929688"/>
      <use xlink:href="#ArialMT-74" x="333.544922"/>
      <use xlink:href="#ArialMT-69" x="361.328125"/>
      <use xlink:href="#ArialMT-6f" x="383.544922"/>
      <use xlink:href="#ArialMT-6e" x="439.160156"/>
     </g>
    </g>
   </g>
   <g id="matplotlib.axis_2">
    <g id="ytick_1">
     <g id="line2d_7">
      <path d="M 108 178.38 
L 777.6 178.38 
" clip-path="url(#p4ff05a8cb2)" style="fill: none; stroke: #ffffff; stroke-linecap: round"/>
     </g>
     <g id="text_8">
      <!-- 0.5 -->
      <g style="fill: #262626" transform="translate(83.21 182.316797) scale(0.11 -0.11)">
       <defs>
        <path id="ArialMT-2e" d="M 581 0 
L 581 641 
L 1222 641 
L 1222 0 
L 581 0 
z
" transform="scale(0.015625)"/>
        <path id="ArialMT-35" d="M 266 1200 
L 856 1250 
Q 922 819 1161 601 
Q 1400 384 1738 384 
Q 2144 384 2425 690 
Q 2706 997 2706 1503 
Q 2706 1984 2436 2262 
Q 2166 2541 1728 2541 
Q 1456 2541 1237 2417 
Q 1019 2294 894 2097 
L 366 2166 
L 809 4519 
L 3088 4519 
L 3088 3981 
L 1259 3981 
L 1013 2750 
Q 1425 3038 1878 3038 
Q 2478 3038 2890 2622 
Q 3303 2206 3303 1553 
Q 3303 931 2941 478 
Q 2500 -78 1738 -78 
Q 1113 -78 717 272 
Q 322 622 266 1200 
z
" transform="scale(0.015625)"/>
       </defs>
       <use xlink:href="#ArialMT-30"/>
       <use xlink:href="#ArialMT-2e" x="55.615234"/>
       <use xlink:href="#ArialMT-35" x="83.398438"/>
      </g>
     </g>
    </g>
    <g id="ytick_2">
     <g id="line2d_8">
      <path d="M 108 150.66 
L 777.6 150.66 
" clip-path="url(#p4ff05a8cb2)" style="fill: none; stroke: #ffffff; stroke-linecap: round"/>
     </g>
     <g id="text_9">
      <!-- 0.6 -->
      <g style="fill: #262626" transform="translate(83.21 154.596797) scale(0.11 -0.11)">
       <use xlink:href="#ArialMT-30"/>
       <use xlink:href="#ArialMT-2e" x="55.615234"/>
       <use xlink:href="#ArialMT-36" x="83.398438"/>
      </g>
     </g>
    </g>
    <g id="ytick_3">
     <g id="line2d_9">
      <path d="M 108 122.94 
L 777.6 122.94 
" clip-path="url(#p4ff05a8cb2)" style="fill: none; stroke: #ffffff; stroke-linecap: round"/>
     </g>
     <g id="text_10">
      <!-- 0.7 -->
      <g style="fill: #262626" transform="translate(83.21 126.876797) scale(0.11 -0.11)">
       <defs>
        <path id="ArialMT-37" d="M 303 3981 
L 303 4522 
L 3269 4522 
L 3269 4084 
Q 2831 3619 2401 2847 
Q 1972 2075 1738 1259 
Q 1569 684 1522 0 
L 944 0 
Q 953 541 1156 1306 
Q 1359 2072 1739 2783 
Q 2119 3494 2547 3981 
L 303 3981 
z
" transform="scale(0.015625)"/>
       </defs>
       <use xlink:href="#ArialMT-30"/>
       <use xlink:href="#ArialMT-2e" x="55.615234"/>
       <use xlink:href="#ArialMT-37" x="83.398438"/>
      </g>
     </g>
    </g>
    <g id="ytick_4">
     <g id="line2d_10">
      <path d="M 108 95.22 
L 777.6 95.22 
" clip-path="url(#p4ff05a8cb2)" style="fill: none; stroke: #ffffff; stroke-linecap: round"/>
     </g>
     <g id="text_11">
      <!-- 0.8 -->
      <g style="fill: #262626" transform="translate(83.21 99.156797) scale(0.11 -0.11)">
       <use xlink:href="#ArialMT-30"/>
       <use xlink:href="#ArialMT-2e" x="55.615234"/>
       <use xlink:href="#ArialMT-38" x="83.398438"/>
      </g>
     </g>
    </g>
    <g id="ytick_5">
     <g id="line2d_11">
      <path d="M 108 67.5 
L 777.6 67.5 
" clip-path="url(#p4ff05a8cb2)" style="fill: none; stroke: #ffffff; stroke-linecap: round"/>
     </g>
     <g id="text_12">
      <!-- 0.9 -->
      <g style="fill: #262626" transform="translate(83.21 71.436797) scale(0.11 -0.11)">
       <defs>
        <path id="ArialMT-39" d="M 350 1059 
L 891 1109 
Q 959 728 1153 556 
Q 1347 384 1650 384 
Q 1909 384 2104 503 
Q 2300 622 2425 820 
Q 2550 1019 2634 1356 
Q 2719 1694 2719 2044 
Q 2719 2081 2716 2156 
Q 2547 1888 2255 1720 
Q 1963 1553 1622 1553 
Q 1053 1553 659 1965 
Q 266 2378 266 3053 
Q 266 3750 677 4175 
Q 1088 4600 1706 4600 
Q 2153 4600 2523 4359 
Q 2894 4119 3086 3673 
Q 3278 3228 3278 2384 
Q 3278 1506 3087 986 
Q 2897 466 2520 194 
Q 2144 -78 1638 -78 
Q 1100 -78 759 220 
Q 419 519 350 1059 
z
M 2653 3081 
Q 2653 3566 2395 3850 
Q 2138 4134 1775 4134 
Q 1400 4134 1122 3828 
Q 844 3522 844 3034 
Q 844 2597 1108 2323 
Q 1372 2050 1759 2050 
Q 2150 2050 2401 2323 
Q 2653 2597 2653 3081 
z
" transform="scale(0.015625)"/>
       </defs>
       <use xlink:href="#ArialMT-30"/>
       <use xlink:href="#ArialMT-2e" x="55.615234"/>
       <use xlink:href="#ArialMT-39" x="83.398438"/>
      </g>
     </g>
    </g>
    <g id="ytick_6">
     <g id="line2d_12">
      <path d="M 108 39.78 
L 777.6 39.78 
" clip-path="url(#p4ff05a8cb2)" style="fill: none; stroke: #ffffff; stroke-linecap: round"/>
     </g>
     <g id="text_13">
      <!-- 1.0 -->
      <g style="fill: #262626" transform="translate(83.21 43.716797) scale(0.11 -0.11)">
       <use xlink:href="#ArialMT-31"/>
       <use xlink:href="#ArialMT-2e" x="55.615234"/>
       <use xlink:href="#ArialMT-30" x="83.398438"/>
      </g>
     </g>
    </g>
    <g id="text_14">
     <!-- Fitness -->
     <g style="fill: #262626" transform="translate(76.825 128.417812) rotate(-90) scale(0.12 -0.12)">
      <defs>
       <path id="ArialMT-46" d="M 525 0 
L 525 4581 
L 3616 4581 
L 3616 4041 
L 1131 4041 
L 1131 2622 
L 3281 2622 
L 3281 2081 
L 1131 2081 
L 1131 0 
L 525 0 
z
" transform="scale(0.015625)"/>
       <path id="ArialMT-73" d="M 197 991 
L 753 1078 
Q 800 744 1014 566 
Q 1228 388 1613 388 
Q 2000 388 2187 545 
Q 2375 703 2375 916 
Q 2375 1106 2209 1216 
Q 2094 1291 1634 1406 
Q 1016 1563 777 1677 
Q 538 1791 414 1992 
Q 291 2194 291 2438 
Q 291 2659 392 2848 
Q 494 3038 669 3163 
Q 800 3259 1026 3326 
Q 1253 3394 1513 3394 
Q 1903 3394 2198 3281 
Q 2494 3169 2634 2976 
Q 2775 2784 2828 2463 
L 2278 2388 
Q 2241 2644 2061 2787 
Q 1881 2931 1553 2931 
Q 1166 2931 1000 2803 
Q 834 2675 834 2503 
Q 834 2394 903 2306 
Q 972 2216 1119 2156 
Q 1203 2125 1616 2013 
Q 2213 1853 2448 1751 
Q 2684 1650 2818 1456 
Q 2953 1263 2953 975 
Q 2953 694 2789 445 
Q 2625 197 2315 61 
Q 2006 -75 1616 -75 
Q 969 -75 630 194 
Q 291 463 197 991 
z
" transform="scale(0.015625)"/>
      </defs>
      <use xlink:href="#ArialMT-46"/>
      <use xlink:href="#ArialMT-69" x="61.083984"/>
      <use xlink:href="#ArialMT-74" x="83.300781"/>
      <use xlink:href="#ArialMT-6e" x="111.083984"/>
      <use xlink:href="#ArialMT-65" x="166.699219"/>
      <use xlink:href="#ArialMT-73" x="222.314453"/>
      <use xlink:href="#ArialMT-73" x="272.314453"/>
     </g>
    </g>
   </g>
   <g id="line2d_13">
    <path d="M 138.436364 185.31 
L 139.532292 109.08 
L 156.580065 109.08 
L 157.797763 91.755 
L 159.015461 109.08 
L 160.233159 91.755 
L 171.192442 91.755 
L 172.41014 74.43 
L 173.627838 91.755 
L 176.063234 91.755 
L 177.280933 74.43 
L 178.498631 91.755 
L 179.716329 74.43 
L 197.9818 74.43 
L 199.199498 57.105 
L 200.417196 74.43 
L 201.634894 57.105 
L 202.852592 74.43 
L 217.464969 74.43 
L 218.682667 57.105 
L 219.900366 74.43 
L 244.254327 74.43 
L 245.472025 57.105 
L 246.689723 74.43 
L 272.261383 74.43 
L 273.479081 39.78 
L 274.696779 74.43 
L 275.914477 39.78 
L 277.132176 74.43 
L 278.349874 39.78 
L 279.567572 74.43 
L 280.78527 39.78 
L 282.002968 74.43 
L 283.220666 39.78 
L 284.438364 74.43 
L 285.656062 39.78 
L 286.87376 74.43 
L 288.091458 39.78 
L 289.309156 74.43 
L 290.526854 39.78 
L 291.744553 74.43 
L 292.962251 39.78 
L 294.179949 74.43 
L 295.397647 39.78 
L 296.615345 74.43 
L 297.833043 57.105 
L 299.050741 74.43 
L 313.663118 74.43 
L 314.880816 57.105 
L 316.098514 74.43 
L 317.316212 57.105 
L 318.53391 74.43 
L 319.751609 57.105 
L 320.969307 74.43 
L 322.187005 57.105 
L 323.404703 74.43 
L 324.622401 57.105 
L 329.493193 57.105 
L 330.710891 74.43 
L 331.928589 57.105 
L 333.146287 74.43 
L 334.363986 57.105 
L 335.581684 74.43 
L 336.799382 57.105 
L 338.01708 74.43 
L 340.452476 74.43 
L 341.670174 57.105 
L 342.887872 74.43 
L 361.153343 74.43 
L 362.371041 57.105 
L 363.58874 74.43 
L 383.071909 74.43 
L 384.289607 57.105 
L 385.507305 74.43 
L 386.725003 57.105 
L 387.942701 74.43 
L 389.160399 57.105 
L 390.378097 74.43 
L 406.208173 74.43 
L 407.425871 57.105 
L 408.643569 74.43 
L 418.385153 74.43 
L 419.602851 39.78 
L 420.82055 74.43 
L 422.038248 39.78 
L 423.255946 74.43 
L 424.473644 39.78 
L 425.691342 74.43 
L 426.90904 39.78 
L 428.126738 74.43 
L 429.344436 39.78 
L 430.562134 74.43 
L 431.779832 39.78 
L 432.99753 74.43 
L 434.215229 39.78 
L 435.432927 74.43 
L 436.650625 39.78 
L 437.868323 74.43 
L 439.086021 39.78 
L 440.303719 74.43 
L 441.521417 39.78 
L 442.739115 74.43 
L 443.956813 39.78 
L 445.174511 74.43 
L 446.392209 39.78 
L 447.609907 74.43 
L 448.827606 39.78 
L 450.045304 74.43 
L 451.263002 39.78 
L 452.4807 74.43 
L 453.698398 39.78 
L 454.916096 74.43 
L 456.133794 39.78 
L 457.351492 74.43 
L 458.56919 39.78 
L 459.786888 74.43 
L 461.004586 39.78 
L 462.222284 74.43 
L 463.439983 39.78 
L 464.657681 74.43 
L 465.875379 39.78 
L 467.093077 74.43 
L 468.310775 39.78 
L 469.528473 74.43 
L 470.746171 39.78 
L 471.963869 74.43 
L 473.181567 39.78 
L 474.399265 74.43 
L 475.616963 39.78 
L 476.834661 74.43 
L 478.05236 39.78 
L 479.270058 74.43 
L 480.487756 39.78 
L 481.705454 74.43 
L 482.923152 39.78 
L 484.14085 74.43 
L 485.358548 39.78 
L 486.576246 74.43 
L 487.793944 39.78 
L 489.011642 74.43 
L 490.22934 39.78 
L 491.447038 74.43 
L 492.664737 39.78 
L 493.882435 74.43 
L 495.100133 39.78 
L 496.317831 74.43 
L 497.535529 39.78 
L 498.753227 74.43 
L 499.970925 39.78 
L 501.188623 74.43 
L 502.406321 39.78 
L 503.624019 74.43 
L 504.841717 39.78 
L 506.059416 74.43 
L 507.277114 39.78 
L 508.494812 74.43 
L 509.71251 39.78 
L 510.930208 57.105 
L 512.147906 39.78 
L 513.365604 57.105 
L 514.583302 39.78 
L 515.801 57.105 
L 517.018698 39.78 
L 518.236396 57.105 
L 519.454094 39.78 
L 520.671793 57.105 
L 521.889491 39.78 
L 523.107189 57.105 
L 524.324887 39.78 
L 525.542585 57.105 
L 526.760283 39.78 
L 527.977981 57.105 
L 529.195679 39.78 
L 530.413377 57.105 
L 531.631075 39.78 
L 532.848773 57.105 
L 534.066471 39.78 
L 535.28417 57.105 
L 536.501868 39.78 
L 537.719566 57.105 
L 538.937264 39.78 
L 540.154962 57.105 
L 541.37266 39.78 
L 542.590358 57.105 
L 543.808056 39.78 
L 545.025754 57.105 
L 546.243452 39.78 
L 547.46115 57.105 
L 548.678848 39.78 
L 549.896547 57.105 
L 551.114245 39.78 
L 552.331943 57.105 
L 553.549641 39.78 
L 554.767339 57.105 
L 555.985037 39.78 
L 557.202735 57.105 
L 558.420433 39.78 
L 559.638131 57.105 
L 560.855829 39.78 
L 562.073527 57.105 
L 563.291226 39.78 
L 564.508924 57.105 
L 565.726622 39.78 
L 566.94432 57.105 
L 568.162018 39.78 
L 569.379716 57.105 
L 570.597414 39.78 
L 571.815112 57.105 
L 573.03281 39.78 
L 574.250508 57.105 
L 575.468206 39.78 
L 576.685904 57.105 
L 577.903603 39.78 
L 579.121301 57.105 
L 580.338999 39.78 
L 581.556697 57.105 
L 582.774395 39.78 
L 583.992093 57.105 
L 585.209791 39.78 
L 586.427489 57.105 
L 587.645187 39.78 
L 588.862885 57.105 
L 590.080583 39.78 
L 591.298281 57.105 
L 592.51598 39.78 
L 594.951376 74.43 
L 597.386772 39.78 
L 598.60447 57.105 
L 599.822168 39.78 
L 601.039866 57.105 
L 602.257564 39.78 
L 603.475262 57.105 
L 604.69296 39.78 
L 605.910658 57.105 
L 607.128357 39.78 
L 608.346055 57.105 
L 609.563753 39.78 
L 610.781451 57.105 
L 611.999149 39.78 
L 613.216847 57.105 
L 614.434545 39.78 
L 615.652243 57.105 
L 616.869941 39.78 
L 618.087639 57.105 
L 619.305337 39.78 
L 620.523036 57.105 
L 621.740734 39.78 
L 622.958432 57.105 
L 624.17613 39.78 
L 625.393828 57.105 
L 626.611526 39.78 
L 627.829224 57.105 
L 629.046922 39.78 
L 630.26462 57.105 
L 631.482318 39.78 
L 632.700016 57.105 
L 633.917714 39.78 
L 635.135413 57.105 
L 636.353111 39.78 
L 637.570809 57.105 
L 638.788507 39.78 
L 640.006205 57.105 
L 641.223903 39.78 
L 642.441601 57.105 
L 643.659299 39.78 
L 644.876997 57.105 
L 646.094695 39.78 
L 647.312393 57.105 
L 648.530091 39.78 
L 649.74779 57.105 
L 650.965488 39.78 
L 652.183186 57.105 
L 653.400884 39.78 
L 654.618582 57.105 
L 655.83628 39.78 
L 657.053978 57.105 
L 658.271676 39.78 
L 660.707072 74.43 
L 661.92477 39.78 
L 663.142468 39.78 
L 664.360167 57.105 
L 665.577865 39.78 
L 666.795563 57.105 
L 668.013261 39.78 
L 669.230959 57.105 
L 670.448657 39.78 
L 671.666355 57.105 
L 672.884053 39.78 
L 674.101751 57.105 
L 675.319449 39.78 
L 676.537147 57.105 
L 677.754846 39.78 
L 678.972544 57.105 
L 680.190242 39.78 
L 681.40794 57.105 
L 682.625638 39.78 
L 683.843336 57.105 
L 685.061034 39.78 
L 686.278732 57.105 
L 687.49643 39.78 
L 688.714128 57.105 
L 689.931826 39.78 
L 691.149524 57.105 
L 692.367223 39.78 
L 693.584921 57.105 
L 694.802619 39.78 
L 696.020317 57.105 
L 697.238015 39.78 
L 698.455713 57.105 
L 699.673411 39.78 
L 700.891109 57.105 
L 702.108807 39.78 
L 703.326505 57.105 
L 704.544203 39.78 
L 705.761901 57.105 
L 706.9796 39.78 
L 708.197298 57.105 
L 709.414996 39.78 
L 710.632694 57.105 
L 711.850392 39.78 
L 713.06809 57.105 
L 714.285788 39.78 
L 715.503486 57.105 
L 716.721184 39.78 
L 717.938882 57.105 
L 719.15658 39.78 
L 720.374278 57.105 
L 721.591977 39.78 
L 722.809675 57.105 
L 724.027373 39.78 
L 725.245071 57.105 
L 726.462769 39.78 
L 727.680467 57.105 
L 728.898165 39.78 
L 731.333561 39.78 
L 732.551259 57.105 
L 733.768957 39.78 
L 734.986656 57.105 
L 736.204354 39.78 
L 737.422052 57.105 
L 738.63975 39.78 
L 739.857448 46.71 
L 741.075146 39.78 
L 742.292844 57.105 
L 743.510542 39.78 
L 744.72824 57.105 
L 745.945938 39.78 
L 747.163636 57.105 
L 747.163636 57.105 
" clip-path="url(#p4ff05a8cb2)" style="fill: none; stroke: #4c72b0; stroke-width: 1.5; stroke-linecap: round"/>
   </g>
   <g id="line2d_14">
    <path d="M 138.436364 185.31 
L 139.532292 113.186025 
L 140.74999 114.61014 
L 141.967688 113.220675 
L 143.185386 114.24978 
L 144.403084 113.497875 
L 145.620782 114.060938 
L 146.83848 114.294825 
L 148.056179 115.230375 
L 149.273877 114.38145 
L 150.491575 116.01 
L 151.709273 117.898425 
L 152.926971 116.1486 
L 154.144669 113.324625 
L 155.362367 115.403625 
L 156.580065 114.537375 
L 157.797763 116.330513 
L 159.015461 116.4951 
L 160.233159 110.682563 
L 161.450857 117.0495 
L 162.668556 110.6739 
L 163.886254 113.142713 
L 165.103952 110.240775 
L 166.32165 111.13128 
L 167.539348 106.879725 
L 168.757046 113.284778 
L 169.974744 109.429965 
L 171.192442 114.232455 
L 172.41014 110.751863 
L 173.627838 111.202313 
L 174.845536 109.68291 
L 176.063234 113.267453 
L 177.280933 111.48471 
L 178.498631 113.208548 
L 179.716329 93.359295 
L 180.934027 101.030805 
L 182.151725 97.309395 
L 183.369423 96.843353 
L 184.587121 96.90399 
L 185.804819 109.014165 
L 187.022517 92.513835 
L 188.240215 92.853405 
L 189.457913 93.449385 
L 190.675611 95.209605 
L 191.89331 97.279943 
L 193.111008 96.067193 
L 194.328706 94.261928 
L 195.546404 95.02596 
L 196.764102 92.91231 
L 197.9818 95.105655 
L 199.199498 88.880783 
L 200.417196 94.171838 
L 201.634894 89.97399 
L 202.852592 98.000663 
L 204.07029 93.012795 
L 205.287989 95.431365 
L 206.505687 91.15902 
L 207.723385 95.9823 
L 208.941083 92.214113 
L 210.158781 96.505515 
L 211.376479 92.435873 
L 212.594177 95.680845 
L 213.811875 96.179805 
L 215.029573 94.861373 
L 216.247271 96.150353 
L 217.464969 98.007593 
L 218.682667 94.343355 
L 219.900366 97.806623 
L 221.118064 94.261928 
L 222.335762 94.83192 
L 223.55346 91.919588 
L 224.771158 95.370728 
L 225.988856 93.950078 
L 227.206554 96.50205 
L 228.424252 92.629913 
L 229.64195 96.448343 
L 230.859648 94.682925 
L 232.077346 96.221385 
L 233.295044 92.583135 
L 234.512743 92.733863 
L 235.730441 91.619865 
L 236.948139 94.71411 
L 238.165837 93.523883 
L 239.383535 94.135455 
L 240.601233 91.458742 
L 241.818931 94.085213 
L 243.036629 93.33504 
L 244.254327 95.110853 
L 245.472025 91.995818 
L 246.689723 94.42998 
L 247.907421 90.573435 
L 249.12512 93.546405 
L 250.342818 90.699908 
L 251.560516 92.418548 
L 252.778214 93.724853 
L 253.995912 95.653125 
L 255.21361 92.57967 
L 256.431308 92.333655 
L 257.649006 89.381475 
L 258.866704 94.946265 
L 260.084402 91.06893 
L 261.3021 93.395678 
L 262.519799 91.462208 
L 263.737497 93.823605 
L 264.955195 91.122638 
L 266.172893 93.277868 
L 267.390591 92.035665 
L 268.608289 96.58521 
L 269.825987 93.48057 
L 271.043685 94.523535 
L 272.261383 94.20129 
L 273.479081 95.237325 
L 274.696779 94.722772 
L 275.914477 87.032205 
L 277.132176 96.22485 
L 278.349874 71.042963 
L 279.567572 93.066503 
L 280.78527 72.158693 
L 282.002968 93.45285 
L 283.220666 70.32051 
L 284.438364 96.734205 
L 285.656062 73.326398 
L 286.87376 91.69263 
L 288.091458 70.663545 
L 289.309156 94.47849 
L 290.526854 72.929655 
L 291.744553 94.00725 
L 292.962251 71.80353 
L 294.179949 94.190895 
L 295.397647 71.233538 
L 296.615345 94.209953 
L 297.833043 95.37246 
L 299.050741 93.158325 
L 300.268439 92.889788 
L 301.486137 92.104965 
L 302.703835 97.460123 
L 303.921533 91.793115 
L 305.139231 95.258115 
L 306.35693 93.523883 
L 307.574628 95.412308 
L 308.792326 91.514183 
L 310.010024 95.2893 
L 311.227722 93.451118 
L 312.44542 96.3288 
L 313.663118 92.297273 
L 314.880816 96.533235 
L 316.098514 94.518338 
L 317.316212 89.667338 
L 318.53391 93.527348 
L 319.751609 90.242528 
L 320.969307 96.649313 
L 322.187005 90.4383 
L 323.404703 97.695743 
L 324.622401 90.66006 
L 325.840099 100.5561 
L 327.057797 95.639265 
L 328.275495 93.187778 
L 329.493193 95.686043 
L 330.710891 93.281333 
L 331.928589 96.43968 
L 333.146287 90.907808 
L 334.363986 95.154165 
L 335.581684 93.977798 
L 336.799382 85.703378 
L 338.01708 93.205103 
L 339.234778 96.221385 
L 340.452476 95.232128 
L 341.670174 97.501703 
L 342.887872 95.72589 
L 344.10557 96.76539 
L 345.323268 93.773363 
L 346.540966 97.780635 
L 347.758664 95.861025 
L 348.976363 94.726238 
L 350.194061 94.511408 
L 351.411759 96.10704 
L 352.629457 91.301085 
L 353.847155 97.524225 
L 355.064853 92.720003 
L 356.282551 94.932405 
L 357.500249 90.654863 
L 358.717947 95.46255 
L 359.935645 92.473988 
L 361.153343 94.885628 
L 362.371041 92.550218 
L 363.58874 99.071348 
L 364.806438 94.468095 
L 366.024136 97.810088 
L 367.241834 90.913005 
L 368.459532 92.678423 
L 369.67723 90.5769 
L 370.894928 94.54779 
L 372.112626 90.815985 
L 373.330324 93.844395 
L 374.548022 92.186393 
L 375.76572 92.255693 
L 376.983419 94.313903 
L 378.201117 91.656248 
L 379.418815 92.934833 
L 380.636513 94.986113 
L 381.854211 96.09318 
L 383.071909 96.905723 
L 384.289607 90.580365 
L 385.507305 94.4577 
L 386.725003 83.87559 
L 387.942701 95.937255 
L 389.160399 92.87073 
L 390.378097 95.230395 
L 392.813494 95.498933 
L 394.031192 92.23317 
L 395.24889 98.187773 
L 396.466588 95.020763 
L 397.684286 96.44661 
L 398.901984 93.48057 
L 400.119682 98.34543 
L 401.33738 94.371075 
L 402.555078 95.810783 
L 403.772776 93.068235 
L 404.990474 96.171143 
L 406.208173 95.512793 
L 407.425871 95.228663 
L 408.643569 93.437258 
L 409.861267 94.487153 
L 411.078965 92.356178 
L 412.296663 100.232123 
L 413.514361 92.32326 
L 414.732059 97.981605 
L 415.949757 92.099768 
L 417.167455 97.18812 
L 418.385153 94.86657 
L 419.602851 75.396735 
L 420.82055 95.817713 
L 422.038248 84.854453 
L 423.255946 96.628523 
L 424.473644 96.91092 
L 425.691342 95.812515 
L 426.90904 71.20755 
L 428.126738 95.696438 
L 429.344436 71.746358 
L 430.562134 98.71272 
L 431.779832 90.88875 
L 432.99753 96.864143 
L 434.215229 71.950793 
L 435.432927 97.293803 
L 436.650625 75.086618 
L 437.868323 96.583478 
L 439.086021 82.796243 
L 440.303719 96.4674 
L 441.521417 77.64552 
L 442.739115 95.925128 
L 443.956813 70.599443 
L 445.174511 96.900525 
L 446.392209 77.401238 
L 447.609907 96.320138 
L 448.827606 79.816343 
L 450.045304 95.604615 
L 451.263002 81.493403 
L 452.4807 94.788608 
L 453.698398 72.751208 
L 454.916096 94.459433 
L 456.133794 69.73839 
L 457.351492 95.443493 
L 458.56919 76.935195 
L 459.786888 94.681193 
L 461.004586 71.09667 
L 462.222284 94.537395 
L 463.439983 71.843378 
L 464.657681 95.280638 
L 465.875379 79.892573 
L 467.093077 96.23871 
L 468.310775 73.39743 
L 469.528473 94.371075 
L 470.746171 71.23527 
L 471.963869 95.181885 
L 473.181567 97.650698 
L 474.399265 98.660745 
L 475.616963 89.261933 
L 476.834661 97.103228 
L 478.05236 71.06895 
L 479.270058 95.2893 
L 480.487756 87.988545 
L 481.705454 98.09595 
L 482.923152 82.153485 
L 484.14085 93.79935 
L 485.358548 72.494798 
L 486.576246 95.325683 
L 487.793944 79.19091 
L 489.011642 95.762273 
L 490.22934 70.351695 
L 491.447038 95.500665 
L 492.664737 70.275465 
L 493.882435 96.247373 
L 495.100133 73.89639 
L 496.317831 97.962548 
L 497.535529 72.557168 
L 498.753227 95.090063 
L 499.970925 71.94213 
L 501.188623 96.24564 
L 502.406321 73.892925 
L 503.624019 95.103923 
L 504.841717 70.70859 
L 506.059416 95.699903 
L 507.277114 76.228335 
L 508.494812 93.038783 
L 509.71251 83.290005 
L 510.930208 86.505525 
L 512.147906 68.47713 
L 513.365604 83.712735 
L 514.583302 78.238035 
L 515.801 83.690213 
L 517.018698 69.109493 
L 518.236396 83.67462 
L 519.454094 68.811503 
L 520.671793 84.031515 
L 521.889491 78.362775 
L 523.107189 89.147588 
L 524.324887 78.464993 
L 525.542585 99.942795 
L 526.760283 74.348572 
L 527.977981 96.92478 
L 529.195679 71.744625 
L 530.413377 83.7855 
L 531.631075 67.789328 
L 532.848773 88.778565 
L 534.066471 71.552318 
L 535.28417 83.877323 
L 536.501868 66.810465 
L 537.719566 83.163533 
L 538.937264 86.768865 
L 540.154962 86.269905 
L 541.37266 86.567895 
L 542.590358 83.504835 
L 543.808056 82.432418 
L 545.025754 83.617447 
L 546.243452 69.826748 
L 547.46115 87.193328 
L 548.678848 78.348915 
L 549.896547 87.456668 
L 551.114245 65.893973 
L 552.331943 88.607048 
L 553.549641 85.015575 
L 554.767339 85.963253 
L 555.985037 64.840613 
L 557.202735 84.376283 
L 558.420433 83.206845 
L 559.638131 86.541908 
L 560.855829 71.14518 
L 562.073527 85.63581 
L 563.291226 71.495145 
L 564.508924 85.848908 
L 565.726622 70.644488 
L 566.94432 84.012458 
L 568.162018 80.013847 
L 569.379716 85.46256 
L 570.597414 69.582465 
L 571.815112 85.249463 
L 573.03281 79.868318 
L 574.250508 83.075175 
L 575.468206 73.579343 
L 576.685904 83.371433 
L 577.903603 85.620218 
L 579.121301 88.341975 
L 580.338999 78.425145 
L 581.556697 85.46256 
L 582.774395 75.777885 
L 583.992093 86.16942 
L 585.209791 75.313575 
L 586.427489 85.841978 
L 587.645187 72.59355 
L 588.862885 85.654868 
L 590.080583 71.271653 
L 591.298281 84.132 
L 592.51598 94.65867 
L 593.733678 83.981273 
L 594.951376 98.613968 
L 596.169074 83.927565 
L 597.386772 90.952853 
L 598.60447 84.142395 
L 599.822168 80.36901 
L 601.039866 87.217583 
L 602.257564 77.054738 
L 603.475262 87.993743 
L 604.69296 94.710645 
L 605.910658 86.80005 
L 607.128357 81.931725 
L 608.346055 86.55057 
L 609.563753 73.762988 
L 610.781451 84.213428 
L 611.999149 80.408858 
L 613.216847 85.937265 
L 614.434545 71.301105 
L 615.652243 84.135465 
L 616.869941 85.339553 
L 618.087639 87.948698 
L 619.305337 72.62127 
L 620.523036 85.505873 
L 621.740734 82.666305 
L 622.958432 85.145513 
L 624.17613 85.384598 
L 625.393828 82.027013 
L 627.829224 85.942463 
L 629.046922 67.151768 
L 630.26462 85.94766 
L 631.482318 74.171858 
L 632.700016 84.197835 
L 633.917714 73.248435 
L 635.135413 84.793815 
L 636.353111 67.079003 
L 637.570809 83.84094 
L 638.788507 68.238045 
L 640.006205 83.038793 
L 641.223903 73.317735 
L 642.441601 84.544335 
L 643.659299 73.059593 
L 644.876997 82.078988 
L 646.094695 71.43624 
L 647.312393 83.329853 
L 648.530091 72.82917 
L 649.74779 83.503103 
L 650.965488 88.991663 
L 652.183186 82.720013 
L 653.400884 80.869703 
L 654.618582 83.967413 
L 655.83628 83.37663 
L 657.053978 82.402965 
L 658.271676 79.61364 
L 659.489374 82.92618 
L 660.707072 94.662135 
L 661.92477 79.651755 
L 663.142468 66.02391 
L 664.360167 84.833663 
L 665.577865 65.84373 
L 666.795563 91.049873 
L 668.013261 64.767848 
L 669.230959 84.601508 
L 670.448657 66.21102 
L 671.666355 86.276835 
L 672.884053 68.104643 
L 674.101751 92.674958 
L 675.319449 69.348578 
L 676.537147 82.19853 
L 677.754846 76.062015 
L 678.972544 82.733872 
L 680.190242 66.50901 
L 681.40794 81.916133 
L 682.625638 64.161473 
L 683.843336 85.729365 
L 685.061034 83.276145 
L 686.278732 86.33574 
L 687.49643 84.52701 
L 688.714128 83.553345 
L 689.931826 90.897413 
L 691.149524 86.330543 
L 692.367223 64.507973 
L 693.584921 82.602203 
L 694.802619 65.382885 
L 696.020317 81.28377 
L 697.238015 69.14241 
L 698.455713 84.592845 
L 699.673411 64.09737 
L 700.891109 86.82084 
L 702.108807 85.339553 
L 703.326505 85.266788 
L 704.544203 68.660775 
L 705.761901 85.107398 
L 706.9796 70.841993 
L 708.197298 86.186745 
L 709.414996 72.326745 
L 710.632694 84.795548 
L 711.850392 67.087665 
L 713.06809 87.778913 
L 714.285788 76.150373 
L 715.503486 83.837475 
L 716.721184 87.22278 
L 717.938882 86.732483 
L 719.15658 68.993415 
L 720.374278 85.467758 
L 721.591977 72.943515 
L 722.809675 82.51038 
L 724.027373 72.820508 
L 725.245071 86.815643 
L 726.462769 84.313913 
L 727.680467 83.511765 
L 728.898165 80.748428 
L 730.115863 84.795548 
L 731.333561 78.998603 
L 732.551259 88.063043 
L 733.768957 74.61018 
L 734.986656 87.8742 
L 736.204354 73.48059 
L 737.422052 83.3697 
L 738.63975 88.251885 
L 739.857448 85.22001 
L 741.075146 67.345808 
L 742.292844 85.770945 
L 743.510542 70.206165 
L 744.72824 85.736295 
L 745.945938 85.103933 
L 747.163636 83.239763 
L 747.163636 83.239763 
" clip-path="url(#p4ff05a8cb2)" style="fill: none; stroke: #dd8452; stroke-width: 1.5; stroke-linecap: round"/>
   </g>
   <g id="patch_3">
    <path d="M 108 192.24 
L 108 25.92 
" style="fill: none; stroke: #ffffff; stroke-width: 1.25; stroke-linejoin: miter; stroke-linecap: square"/>
   </g>
   <g id="patch_4">
    <path d="M 777.6 192.24 
L 777.6 25.92 
" style="fill: none; stroke: #ffffff; stroke-width: 1.25; stroke-linejoin: miter; stroke-linecap: square"/>
   </g>
   <g id="patch_5">
    <path d="M 108 192.24 
L 777.6 192.24 
" style="fill: none; stroke: #ffffff; stroke-width: 1.25; stroke-linejoin: miter; stroke-linecap: square"/>
   </g>
   <g id="patch_6">
    <path d="M 108 25.92 
L 777.6 25.92 
" style="fill: none; stroke: #ffffff; stroke-width: 1.25; stroke-linejoin: miter; stroke-linecap: square"/>
   </g>
   <g id="legend_1">
    <g id="patch_7">
     <path d="M 655.415781 186.74 
L 769.9 186.74 
Q 772.1 186.74 772.1 184.54 
L 772.1 154.391406 
Q 772.1 152.191406 769.9 152.191406 
L 655.415781 152.191406 
Q 653.215781 152.191406 653.215781 154.391406 
L 653.215781 184.54 
Q 653.215781 186.74 655.415781 186.74 
z
" style="fill: #eaeaf2; opacity: 0.8; stroke: #cccccc; stroke-linejoin: miter"/>
    </g>
    <g id="line2d_15">
     <path d="M 657.615781 160.615 
L 668.615781 160.615 
L 679.615781 160.615 
" style="fill: none; stroke: #4c72b0; stroke-width: 1.5; stroke-linecap: round"/>
    </g>
    <g id="text_15">
     <!-- Max Fitness -->
     <g style="fill: #262626" transform="translate(688.415781 164.465) scale(0.11 -0.11)">
      <defs>
       <path id="ArialMT-4d" d="M 475 0 
L 475 4581 
L 1388 4581 
L 2472 1338 
Q 2622 884 2691 659 
Q 2769 909 2934 1394 
L 4031 4581 
L 4847 4581 
L 4847 0 
L 4263 0 
L 4263 3834 
L 2931 0 
L 2384 0 
L 1059 3900 
L 1059 0 
L 475 0 
z
" transform="scale(0.015625)"/>
       <path id="ArialMT-78" d="M 47 0 
L 1259 1725 
L 138 3319 
L 841 3319 
L 1350 2541 
Q 1494 2319 1581 2169 
Q 1719 2375 1834 2534 
L 2394 3319 
L 3066 3319 
L 1919 1756 
L 3153 0 
L 2463 0 
L 1781 1031 
L 1600 1309 
L 728 0 
L 47 0 
z
" transform="scale(0.015625)"/>
       <path id="ArialMT-20" transform="scale(0.015625)"/>
      </defs>
      <use xlink:href="#ArialMT-4d"/>
      <use xlink:href="#ArialMT-61" x="83.300781"/>
      <use xlink:href="#ArialMT-78" x="138.916016"/>
      <use xlink:href="#ArialMT-20" x="188.916016"/>
      <use xlink:href="#ArialMT-46" x="216.699219"/>
      <use xlink:href="#ArialMT-69" x="277.783203"/>
      <use xlink:href="#ArialMT-74" x="300"/>
      <use xlink:href="#ArialMT-6e" x="327.783203"/>
      <use xlink:href="#ArialMT-65" x="383.398438"/>
      <use xlink:href="#ArialMT-73" x="439.013672"/>
      <use xlink:href="#ArialMT-73" x="489.013672"/>
     </g>
    </g>
    <g id="line2d_16">
     <path d="M 657.615781 176.174844 
L 668.615781 176.174844 
L 679.615781 176.174844 
" style="fill: none; stroke: #dd8452; stroke-width: 1.5; stroke-linecap: round"/>
    </g>
    <g id="text_16">
     <!-- Average Fitness -->
     <g style="fill: #262626" transform="translate(688.415781 180.024844) scale(0.11 -0.11)">
      <defs>
       <path id="ArialMT-41" d="M -9 0 
L 1750 4581 
L 2403 4581 
L 4278 0 
L 3588 0 
L 3053 1388 
L 1138 1388 
L 634 0 
L -9 0 
z
M 1313 1881 
L 2866 1881 
L 2388 3150 
Q 2169 3728 2063 4100 
Q 1975 3659 1816 3225 
L 1313 1881 
z
" transform="scale(0.015625)"/>
       <path id="ArialMT-76" d="M 1344 0 
L 81 3319 
L 675 3319 
L 1388 1331 
Q 1503 1009 1600 663 
Q 1675 925 1809 1294 
L 2547 3319 
L 3125 3319 
L 1869 0 
L 1344 0 
z
" transform="scale(0.015625)"/>
       <path id="ArialMT-67" d="M 319 -275 
L 866 -356 
Q 900 -609 1056 -725 
Q 1266 -881 1628 -881 
Q 2019 -881 2231 -725 
Q 2444 -569 2519 -288 
Q 2563 -116 2559 434 
Q 2191 0 1641 0 
Q 956 0 581 494 
Q 206 988 206 1678 
Q 206 2153 378 2554 
Q 550 2956 876 3175 
Q 1203 3394 1644 3394 
Q 2231 3394 2613 2919 
L 2613 3319 
L 3131 3319 
L 3131 450 
Q 3131 -325 2973 -648 
Q 2816 -972 2473 -1159 
Q 2131 -1347 1631 -1347 
Q 1038 -1347 672 -1080 
Q 306 -813 319 -275 
z
M 784 1719 
Q 784 1066 1043 766 
Q 1303 466 1694 466 
Q 2081 466 2343 764 
Q 2606 1063 2606 1700 
Q 2606 2309 2336 2618 
Q 2066 2928 1684 2928 
Q 1309 2928 1046 2623 
Q 784 2319 784 1719 
z
" transform="scale(0.015625)"/>
      </defs>
      <use xlink:href="#ArialMT-41"/>
      <use xlink:href="#ArialMT-76" x="64.949219"/>
      <use xlink:href="#ArialMT-65" x="114.949219"/>
      <use xlink:href="#ArialMT-72" x="170.564453"/>
      <use xlink:href="#ArialMT-61" x="203.865234"/>
      <use xlink:href="#ArialMT-67" x="259.480469"/>
      <use xlink:href="#ArialMT-65" x="315.095703"/>
      <use xlink:href="#ArialMT-20" x="370.710938"/>
      <use xlink:href="#ArialMT-46" x="398.494141"/>
      <use xlink:href="#ArialMT-69" x="459.578125"/>
      <use xlink:href="#ArialMT-74" x="481.794922"/>
      <use xlink:href="#ArialMT-6e" x="509.578125"/>
      <use xlink:href="#ArialMT-65" x="565.193359"/>
      <use xlink:href="#ArialMT-73" x="620.808594"/>
      <use xlink:href="#ArialMT-73" x="670.808594"/>
     </g>
    </g>
   </g>
  </g>
 </g>
 <defs>
  <clipPath id="p4ff05a8cb2">
   <rect x="108" y="25.92" width="669.6" height="166.32"/>
  </clipPath>
 </defs>
</svg>
