<?xml version="1.0" encoding="utf-8" standalone="no"?>
<!DOCTYPE svg PUBLIC "-//W3C//DTD SVG 1.1//EN"
  "http://www.w3.org/Graphics/SVG/1.1/DTD/svg11.dtd">
<svg xmlns:xlink="http://www.w3.org/1999/xlink" width="864pt" height="216pt" viewBox="0 0 864 216" xmlns="http://www.w3.org/2000/svg" version="1.1">
 <metadata>
  <rdf:RDF xmlns:dc="http://purl.org/dc/elements/1.1/" xmlns:cc="http://creativecommons.org/ns#" xmlns:rdf="http://www.w3.org/1999/02/22-rdf-syntax-ns#">
   <cc:Work>
    <dc:type rdf:resource="http://purl.org/dc/dcmitype/StillImage"/>
    <dc:date>2024-05-02T14:17:12.457540</dc:date>
    <dc:format>image/svg+xml</dc:format>
    <dc:creator>
     <cc:Agent>
      <dc:title>Matplotlib v3.8.0, https://matplotlib.org/</dc:title>
     </cc:Agent>
    </dc:creator>
   </cc:Work>
  </rdf:RDF>
 </metadata>
 <defs>
  <style type="text/css">*{stroke-linejoin: round; stroke-linecap: butt}</style>
 </defs>
 <g id="figure_1">
  <g id="patch_1">
   <path d="M 0 216 
L 864 216 
L 864 0 
L 0 0 
z
" style="fill: #ffffff"/>
  </g>
  <g id="axes_1">
   <g id="patch_2">
    <path d="M 108 192.24 
L 777.6 192.24 
L 777.6 25.92 
L 108 25.92 
z
" style="fill: #eaeaf2"/>
   </g>
   <g id="matplotlib.axis_1">
    <g id="xtick_1">
     <g id="line2d_1">
      <path d="M 138.349128 192.24 
L 138.349128 25.92 
" clip-path="url(#p804d30c9a0)" style="fill: none; stroke: #ffffff; stroke-linecap: round"/>
     </g>
     <g id="text_1">
      <!-- 0 -->
      <g style="fill: #262626" transform="translate(135.290613 209.613594) scale(0.11 -0.11)">
       <defs>
        <path id="ArialMT-30" d="M 266 2259 
Q 266 3072 433 3567 
Q 600 4063 929 4331 
Q 1259 4600 1759 4600 
Q 2128 4600 2406 4451 
Q 2684 4303 2865 4023 
Q 3047 3744 3150 3342 
Q 3253 2941 3253 2259 
Q 3253 1453 3087 958 
Q 2922 463 2592 192 
Q 2263 -78 1759 -78 
Q 1097 -78 719 397 
Q 266 969 266 2259 
z
M 844 2259 
Q 844 1131 1108 757 
Q 1372 384 1759 384 
Q 2147 384 2411 759 
Q 2675 1134 2675 2259 
Q 2675 3391 2411 3762 
Q 2147 4134 1753 4134 
Q 1366 4134 1134 3806 
Q 844 3388 844 2259 
z
" transform="scale(0.015625)"/>
       </defs>
       <use xlink:href="#ArialMT-30"/>
      </g>
     </g>
    </g>
    <g id="xtick_2">
     <g id="line2d_2">
      <path d="M 225.584335 192.24 
L 225.584335 25.92 
" clip-path="url(#p804d30c9a0)" style="fill: none; stroke: #ffffff; stroke-linecap: round"/>
     </g>
     <g id="text_2">
      <!-- 1000 -->
      <g style="fill: #262626" transform="translate(213.350273 209.613594) scale(0.11 -0.11)">
       <defs>
        <path id="ArialMT-31" d="M 2384 0 
L 1822 0 
L 1822 3584 
Q 1619 3391 1289 3197 
Q 959 3003 697 2906 
L 697 3450 
Q 1169 3672 1522 3987 
Q 1875 4303 2022 4600 
L 2384 4600 
L 2384 0 
z
" transform="scale(0.015625)"/>
       </defs>
       <use xlink:href="#ArialMT-31"/>
       <use xlink:href="#ArialMT-30" x="55.615234"/>
       <use xlink:href="#ArialMT-30" x="111.230469"/>
       <use xlink:href="#ArialMT-30" x="166.845703"/>
      </g>
     </g>
    </g>
    <g id="xtick_3">
     <g id="line2d_3">
      <path d="M 312.819542 192.24 
L 312.819542 25.92 
" clip-path="url(#p804d30c9a0)" style="fill: none; stroke: #ffffff; stroke-linecap: round"/>
     </g>
     <g id="text_3">
      <!-- 2000 -->
      <g style="fill: #262626" transform="translate(300.585479 209.613594) scale(0.11 -0.11)">
       <defs>
        <path id="ArialMT-32" d="M 3222 541 
L 3222 0 
L 194 0 
Q 188 203 259 391 
Q 375 700 629 1000 
Q 884 1300 1366 1694 
Q 2113 2306 2375 2664 
Q 2638 3022 2638 3341 
Q 2638 3675 2398 3904 
Q 2159 4134 1775 4134 
Q 1369 4134 1125 3890 
Q 881 3647 878 3216 
L 300 3275 
Q 359 3922 746 4261 
Q 1134 4600 1788 4600 
Q 2447 4600 2831 4234 
Q 3216 3869 3216 3328 
Q 3216 3053 3103 2787 
Q 2991 2522 2730 2228 
Q 2469 1934 1863 1422 
Q 1356 997 1212 845 
Q 1069 694 975 541 
L 3222 541 
z
" transform="scale(0.015625)"/>
       </defs>
       <use xlink:href="#ArialMT-32"/>
       <use xlink:href="#ArialMT-30" x="55.615234"/>
       <use xlink:href="#ArialMT-30" x="111.230469"/>
       <use xlink:href="#ArialMT-30" x="166.845703"/>
      </g>
     </g>
    </g>
    <g id="xtick_4">
     <g id="line2d_4">
      <path d="M 400.054749 192.24 
L 400.054749 25.92 
" clip-path="url(#p804d30c9a0)" style="fill: none; stroke: #ffffff; stroke-linecap: round"/>
     </g>
     <g id="text_4">
      <!-- 3000 -->
      <g style="fill: #262626" transform="translate(387.820686 209.613594) scale(0.11 -0.11)">
       <defs>
        <path id="ArialMT-33" d="M 269 1209 
L 831 1284 
Q 928 806 1161 595 
Q 1394 384 1728 384 
Q 2125 384 2398 659 
Q 2672 934 2672 1341 
Q 2672 1728 2419 1979 
Q 2166 2231 1775 2231 
Q 1616 2231 1378 2169 
L 1441 2663 
Q 1497 2656 1531 2656 
Q 1891 2656 2178 2843 
Q 2466 3031 2466 3422 
Q 2466 3731 2256 3934 
Q 2047 4138 1716 4138 
Q 1388 4138 1169 3931 
Q 950 3725 888 3313 
L 325 3413 
Q 428 3978 793 4289 
Q 1159 4600 1703 4600 
Q 2078 4600 2393 4439 
Q 2709 4278 2876 4000 
Q 3044 3722 3044 3409 
Q 3044 3113 2884 2869 
Q 2725 2625 2413 2481 
Q 2819 2388 3044 2092 
Q 3269 1797 3269 1353 
Q 3269 753 2831 336 
Q 2394 -81 1725 -81 
Q 1122 -81 723 278 
Q 325 638 269 1209 
z
" transform="scale(0.015625)"/>
       </defs>
       <use xlink:href="#ArialMT-33"/>
       <use xlink:href="#ArialMT-30" x="55.615234"/>
       <use xlink:href="#ArialMT-30" x="111.230469"/>
       <use xlink:href="#ArialMT-30" x="166.845703"/>
      </g>
     </g>
    </g>
    <g id="xtick_5">
     <g id="line2d_5">
      <path d="M 487.289955 192.24 
L 487.289955 25.92 
" clip-path="url(#p804d30c9a0)" style="fill: none; stroke: #ffffff; stroke-linecap: round"/>
     </g>
     <g id="text_5">
      <!-- 4000 -->
      <g style="fill: #262626" transform="translate(475.055893 209.613594) scale(0.11 -0.11)">
       <defs>
        <path id="ArialMT-34" d="M 2069 0 
L 2069 1097 
L 81 1097 
L 81 1613 
L 2172 4581 
L 2631 4581 
L 2631 1613 
L 3250 1613 
L 3250 1097 
L 2631 1097 
L 2631 0 
L 2069 0 
z
M 2069 1613 
L 2069 3678 
L 634 1613 
L 2069 1613 
z
" transform="scale(0.015625)"/>
       </defs>
       <use xlink:href="#ArialMT-34"/>
       <use xlink:href="#ArialMT-30" x="55.615234"/>
       <use xlink:href="#ArialMT-30" x="111.230469"/>
       <use xlink:href="#ArialMT-30" x="166.845703"/>
      </g>
     </g>
    </g>
    <g id="xtick_6">
     <g id="line2d_6">
      <path d="M 574.525162 192.24 
L 574.525162 25.92 
" clip-path="url(#p804d30c9a0)" style="fill: none; stroke: #ffffff; stroke-linecap: round"/>
     </g>
     <g id="text_6">
      <!-- 5000 -->
      <g style="fill: #262626" transform="translate(562.2911 209.613594) scale(0.11 -0.11)">
       <defs>
        <path id="ArialMT-35" d="M 266 1200 
L 856 1250 
Q 922 819 1161 601 
Q 1400 384 1738 384 
Q 2144 384 2425 690 
Q 2706 997 2706 1503 
Q 2706 1984 2436 2262 
Q 2166 2541 1728 2541 
Q 1456 2541 1237 2417 
Q 1019 2294 894 2097 
L 366 2166 
L 809 4519 
L 3088 4519 
L 3088 3981 
L 1259 3981 
L 1013 2750 
Q 1425 3038 1878 3038 
Q 2478 3038 2890 2622 
Q 3303 2206 3303 1553 
Q 3303 931 2941 478 
Q 2500 -78 1738 -78 
Q 1113 -78 717 272 
Q 322 622 266 1200 
z
" transform="scale(0.015625)"/>
       </defs>
       <use xlink:href="#ArialMT-35"/>
       <use xlink:href="#ArialMT-30" x="55.615234"/>
       <use xlink:href="#ArialMT-30" x="111.230469"/>
       <use xlink:href="#ArialMT-30" x="166.845703"/>
      </g>
     </g>
    </g>
    <g id="xtick_7">
     <g id="line2d_7">
      <path d="M 661.760369 192.24 
L 661.760369 25.92 
" clip-path="url(#p804d30c9a0)" style="fill: none; stroke: #ffffff; stroke-linecap: round"/>
     </g>
     <g id="text_7">
      <!-- 6000 -->
      <g style="fill: #262626" transform="translate(649.526306 209.613594) scale(0.11 -0.11)">
       <defs>
        <path id="ArialMT-36" d="M 3184 3459 
L 2625 3416 
Q 2550 3747 2413 3897 
Q 2184 4138 1850 4138 
Q 1581 4138 1378 3988 
Q 1113 3794 959 3422 
Q 806 3050 800 2363 
Q 1003 2672 1297 2822 
Q 1591 2972 1913 2972 
Q 2475 2972 2870 2558 
Q 3266 2144 3266 1488 
Q 3266 1056 3080 686 
Q 2894 316 2569 119 
Q 2244 -78 1831 -78 
Q 1128 -78 684 439 
Q 241 956 241 2144 
Q 241 3472 731 4075 
Q 1159 4600 1884 4600 
Q 2425 4600 2770 4297 
Q 3116 3994 3184 3459 
z
M 888 1484 
Q 888 1194 1011 928 
Q 1134 663 1356 523 
Q 1578 384 1822 384 
Q 2178 384 2434 671 
Q 2691 959 2691 1453 
Q 2691 1928 2437 2201 
Q 2184 2475 1800 2475 
Q 1419 2475 1153 2201 
Q 888 1928 888 1484 
z
" transform="scale(0.015625)"/>
       </defs>
       <use xlink:href="#ArialMT-36"/>
       <use xlink:href="#ArialMT-30" x="55.615234"/>
       <use xlink:href="#ArialMT-30" x="111.230469"/>
       <use xlink:href="#ArialMT-30" x="166.845703"/>
      </g>
     </g>
    </g>
    <g id="xtick_8">
     <g id="line2d_8">
      <path d="M 748.995576 192.24 
L 748.995576 25.92 
" clip-path="url(#p804d30c9a0)" style="fill: none; stroke: #ffffff; stroke-linecap: round"/>
     </g>
     <g id="text_8">
      <!-- 7000 -->
      <g style="fill: #262626" transform="translate(736.761513 209.613594) scale(0.11 -0.11)">
       <defs>
        <path id="ArialMT-37" d="M 303 3981 
L 303 4522 
L 3269 4522 
L 3269 4084 
Q 2831 3619 2401 2847 
Q 1972 2075 1738 1259 
Q 1569 684 1522 0 
L 944 0 
Q 953 541 1156 1306 
Q 1359 2072 1739 2783 
Q 2119 3494 2547 3981 
L 303 3981 
z
" transform="scale(0.015625)"/>
       </defs>
       <use xlink:href="#ArialMT-37"/>
       <use xlink:href="#ArialMT-30" x="55.615234"/>
       <use xlink:href="#ArialMT-30" x="111.230469"/>
       <use xlink:href="#ArialMT-30" x="166.845703"/>
      </g>
     </g>
    </g>
    <g id="text_9">
     <!-- Generation -->
     <g style="fill: #262626" transform="translate(413.115938 224.389219) scale(0.12 -0.12)">
      <defs>
       <path id="ArialMT-47" d="M 2638 1797 
L 2638 2334 
L 4578 2338 
L 4578 638 
Q 4131 281 3656 101 
Q 3181 -78 2681 -78 
Q 2006 -78 1454 211 
Q 903 500 622 1047 
Q 341 1594 341 2269 
Q 341 2938 620 3517 
Q 900 4097 1425 4378 
Q 1950 4659 2634 4659 
Q 3131 4659 3532 4498 
Q 3934 4338 4162 4050 
Q 4391 3763 4509 3300 
L 3963 3150 
Q 3859 3500 3706 3700 
Q 3553 3900 3268 4020 
Q 2984 4141 2638 4141 
Q 2222 4141 1919 4014 
Q 1616 3888 1430 3681 
Q 1244 3475 1141 3228 
Q 966 2803 966 2306 
Q 966 1694 1177 1281 
Q 1388 869 1791 669 
Q 2194 469 2647 469 
Q 3041 469 3416 620 
Q 3791 772 3984 944 
L 3984 1797 
L 2638 1797 
z
" transform="scale(0.015625)"/>
       <path id="ArialMT-65" d="M 2694 1069 
L 3275 997 
Q 3138 488 2766 206 
Q 2394 -75 1816 -75 
Q 1088 -75 661 373 
Q 234 822 234 1631 
Q 234 2469 665 2931 
Q 1097 3394 1784 3394 
Q 2450 3394 2872 2941 
Q 3294 2488 3294 1666 
Q 3294 1616 3291 1516 
L 816 1516 
Q 847 969 1125 678 
Q 1403 388 1819 388 
Q 2128 388 2347 550 
Q 2566 713 2694 1069 
z
M 847 1978 
L 2700 1978 
Q 2663 2397 2488 2606 
Q 2219 2931 1791 2931 
Q 1403 2931 1139 2672 
Q 875 2413 847 1978 
z
" transform="scale(0.015625)"/>
       <path id="ArialMT-6e" d="M 422 0 
L 422 3319 
L 928 3319 
L 928 2847 
Q 1294 3394 1984 3394 
Q 2284 3394 2536 3286 
Q 2788 3178 2913 3003 
Q 3038 2828 3088 2588 
Q 3119 2431 3119 2041 
L 3119 0 
L 2556 0 
L 2556 2019 
Q 2556 2363 2490 2533 
Q 2425 2703 2258 2804 
Q 2091 2906 1866 2906 
Q 1506 2906 1245 2678 
Q 984 2450 984 1813 
L 984 0 
L 422 0 
z
" transform="scale(0.015625)"/>
       <path id="ArialMT-72" d="M 416 0 
L 416 3319 
L 922 3319 
L 922 2816 
Q 1116 3169 1280 3281 
Q 1444 3394 1641 3394 
Q 1925 3394 2219 3213 
L 2025 2691 
Q 1819 2813 1613 2813 
Q 1428 2813 1281 2702 
Q 1134 2591 1072 2394 
Q 978 2094 978 1738 
L 978 0 
L 416 0 
z
" transform="scale(0.015625)"/>
       <path id="ArialMT-61" d="M 2588 409 
Q 2275 144 1986 34 
Q 1697 -75 1366 -75 
Q 819 -75 525 192 
Q 231 459 231 875 
Q 231 1119 342 1320 
Q 453 1522 633 1644 
Q 813 1766 1038 1828 
Q 1203 1872 1538 1913 
Q 2219 1994 2541 2106 
Q 2544 2222 2544 2253 
Q 2544 2597 2384 2738 
Q 2169 2928 1744 2928 
Q 1347 2928 1158 2789 
Q 969 2650 878 2297 
L 328 2372 
Q 403 2725 575 2942 
Q 747 3159 1072 3276 
Q 1397 3394 1825 3394 
Q 2250 3394 2515 3294 
Q 2781 3194 2906 3042 
Q 3031 2891 3081 2659 
Q 3109 2516 3109 2141 
L 3109 1391 
Q 3109 606 3145 398 
Q 3181 191 3288 0 
L 2700 0 
Q 2613 175 2588 409 
z
M 2541 1666 
Q 2234 1541 1622 1453 
Q 1275 1403 1131 1340 
Q 988 1278 909 1158 
Q 831 1038 831 891 
Q 831 666 1001 516 
Q 1172 366 1500 366 
Q 1825 366 2078 508 
Q 2331 650 2450 897 
Q 2541 1088 2541 1459 
L 2541 1666 
z
" transform="scale(0.015625)"/>
       <path id="ArialMT-74" d="M 1650 503 
L 1731 6 
Q 1494 -44 1306 -44 
Q 1000 -44 831 53 
Q 663 150 594 308 
Q 525 466 525 972 
L 525 2881 
L 113 2881 
L 113 3319 
L 525 3319 
L 525 4141 
L 1084 4478 
L 1084 3319 
L 1650 3319 
L 1650 2881 
L 1084 2881 
L 1084 941 
Q 1084 700 1114 631 
Q 1144 563 1211 522 
Q 1278 481 1403 481 
Q 1497 481 1650 503 
z
" transform="scale(0.015625)"/>
       <path id="ArialMT-69" d="M 425 3934 
L 425 4581 
L 988 4581 
L 988 3934 
L 425 3934 
z
M 425 0 
L 425 3319 
L 988 3319 
L 988 0 
L 425 0 
z
" transform="scale(0.015625)"/>
       <path id="ArialMT-6f" d="M 213 1659 
Q 213 2581 725 3025 
Q 1153 3394 1769 3394 
Q 2453 3394 2887 2945 
Q 3322 2497 3322 1706 
Q 3322 1066 3130 698 
Q 2938 331 2570 128 
Q 2203 -75 1769 -75 
Q 1072 -75 642 372 
Q 213 819 213 1659 
z
M 791 1659 
Q 791 1022 1069 705 
Q 1347 388 1769 388 
Q 2188 388 2466 706 
Q 2744 1025 2744 1678 
Q 2744 2294 2464 2611 
Q 2184 2928 1769 2928 
Q 1347 2928 1069 2612 
Q 791 2297 791 1659 
z
" transform="scale(0.015625)"/>
      </defs>
      <use xlink:href="#ArialMT-47"/>
      <use xlink:href="#ArialMT-65" x="77.783203"/>
      <use xlink:href="#ArialMT-6e" x="133.398438"/>
      <use xlink:href="#ArialMT-65" x="189.013672"/>
      <use xlink:href="#ArialMT-72" x="244.628906"/>
      <use xlink:href="#ArialMT-61" x="277.929688"/>
      <use xlink:href="#ArialMT-74" x="333.544922"/>
      <use xlink:href="#ArialMT-69" x="361.328125"/>
      <use xlink:href="#ArialMT-6f" x="383.544922"/>
      <use xlink:href="#ArialMT-6e" x="439.160156"/>
     </g>
    </g>
   </g>
   <g id="matplotlib.axis_2">
    <g id="ytick_1">
     <g id="line2d_9">
      <path d="M 108 178.38 
L 777.6 178.38 
" clip-path="url(#p804d30c9a0)" style="fill: none; stroke: #ffffff; stroke-linecap: round"/>
     </g>
     <g id="text_10">
      <!-- 0.5 -->
      <g style="fill: #262626" transform="translate(83.21 182.316797) scale(0.11 -0.11)">
       <defs>
        <path id="ArialMT-2e" d="M 581 0 
L 581 641 
L 1222 641 
L 1222 0 
L 581 0 
z
" transform="scale(0.015625)"/>
       </defs>
       <use xlink:href="#ArialMT-30"/>
       <use xlink:href="#ArialMT-2e" x="55.615234"/>
       <use xlink:href="#ArialMT-35" x="83.398438"/>
      </g>
     </g>
    </g>
    <g id="ytick_2">
     <g id="line2d_10">
      <path d="M 108 150.66 
L 777.6 150.66 
" clip-path="url(#p804d30c9a0)" style="fill: none; stroke: #ffffff; stroke-linecap: round"/>
     </g>
     <g id="text_11">
      <!-- 0.6 -->
      <g style="fill: #262626" transform="translate(83.21 154.596797) scale(0.11 -0.11)">
       <use xlink:href="#ArialMT-30"/>
       <use xlink:href="#ArialMT-2e" x="55.615234"/>
       <use xlink:href="#ArialMT-36" x="83.398438"/>
      </g>
     </g>
    </g>
    <g id="ytick_3">
     <g id="line2d_11">
      <path d="M 108 122.94 
L 777.6 122.94 
" clip-path="url(#p804d30c9a0)" style="fill: none; stroke: #ffffff; stroke-linecap: round"/>
     </g>
     <g id="text_12">
      <!-- 0.7 -->
      <g style="fill: #262626" transform="translate(83.21 126.876797) scale(0.11 -0.11)">
       <use xlink:href="#ArialMT-30"/>
       <use xlink:href="#ArialMT-2e" x="55.615234"/>
       <use xlink:href="#ArialMT-37" x="83.398438"/>
      </g>
     </g>
    </g>
    <g id="ytick_4">
     <g id="line2d_12">
      <path d="M 108 95.22 
L 777.6 95.22 
" clip-path="url(#p804d30c9a0)" style="fill: none; stroke: #ffffff; stroke-linecap: round"/>
     </g>
     <g id="text_13">
      <!-- 0.8 -->
      <g style="fill: #262626" transform="translate(83.21 99.156797) scale(0.11 -0.11)">
       <defs>
        <path id="ArialMT-38" d="M 1131 2484 
Q 781 2613 612 2850 
Q 444 3088 444 3419 
Q 444 3919 803 4259 
Q 1163 4600 1759 4600 
Q 2359 4600 2725 4251 
Q 3091 3903 3091 3403 
Q 3091 3084 2923 2848 
Q 2756 2613 2416 2484 
Q 2838 2347 3058 2040 
Q 3278 1734 3278 1309 
Q 3278 722 2862 322 
Q 2447 -78 1769 -78 
Q 1091 -78 675 323 
Q 259 725 259 1325 
Q 259 1772 486 2073 
Q 713 2375 1131 2484 
z
M 1019 3438 
Q 1019 3113 1228 2906 
Q 1438 2700 1772 2700 
Q 2097 2700 2305 2904 
Q 2513 3109 2513 3406 
Q 2513 3716 2298 3927 
Q 2084 4138 1766 4138 
Q 1444 4138 1231 3931 
Q 1019 3725 1019 3438 
z
M 838 1322 
Q 838 1081 952 856 
Q 1066 631 1291 507 
Q 1516 384 1775 384 
Q 2178 384 2440 643 
Q 2703 903 2703 1303 
Q 2703 1709 2433 1975 
Q 2163 2241 1756 2241 
Q 1359 2241 1098 1978 
Q 838 1716 838 1322 
z
" transform="scale(0.015625)"/>
       </defs>
       <use xlink:href="#ArialMT-30"/>
       <use xlink:href="#ArialMT-2e" x="55.615234"/>
       <use xlink:href="#ArialMT-38" x="83.398438"/>
      </g>
     </g>
    </g>
    <g id="ytick_5">
     <g id="line2d_13">
      <path d="M 108 67.5 
L 777.6 67.5 
" clip-path="url(#p804d30c9a0)" style="fill: none; stroke: #ffffff; stroke-linecap: round"/>
     </g>
     <g id="text_14">
      <!-- 0.9 -->
      <g style="fill: #262626" transform="translate(83.21 71.436797) scale(0.11 -0.11)">
       <defs>
        <path id="ArialMT-39" d="M 350 1059 
L 891 1109 
Q 959 728 1153 556 
Q 1347 384 1650 384 
Q 1909 384 2104 503 
Q 2300 622 2425 820 
Q 2550 1019 2634 1356 
Q 2719 1694 2719 2044 
Q 2719 2081 2716 2156 
Q 2547 1888 2255 1720 
Q 1963 1553 1622 1553 
Q 1053 1553 659 1965 
Q 266 2378 266 3053 
Q 266 3750 677 4175 
Q 1088 4600 1706 4600 
Q 2153 4600 2523 4359 
Q 2894 4119 3086 3673 
Q 3278 3228 3278 2384 
Q 3278 1506 3087 986 
Q 2897 466 2520 194 
Q 2144 -78 1638 -78 
Q 1100 -78 759 220 
Q 419 519 350 1059 
z
M 2653 3081 
Q 2653 3566 2395 3850 
Q 2138 4134 1775 4134 
Q 1400 4134 1122 3828 
Q 844 3522 844 3034 
Q 844 2597 1108 2323 
Q 1372 2050 1759 2050 
Q 2150 2050 2401 2323 
Q 2653 2597 2653 3081 
z
" transform="scale(0.015625)"/>
       </defs>
       <use xlink:href="#ArialMT-30"/>
       <use xlink:href="#ArialMT-2e" x="55.615234"/>
       <use xlink:href="#ArialMT-39" x="83.398438"/>
      </g>
     </g>
    </g>
    <g id="ytick_6">
     <g id="line2d_14">
      <path d="M 108 39.78 
L 777.6 39.78 
" clip-path="url(#p804d30c9a0)" style="fill: none; stroke: #ffffff; stroke-linecap: round"/>
     </g>
     <g id="text_15">
      <!-- 1.0 -->
      <g style="fill: #262626" transform="translate(83.21 43.716797) scale(0.11 -0.11)">
       <use xlink:href="#ArialMT-31"/>
       <use xlink:href="#ArialMT-2e" x="55.615234"/>
       <use xlink:href="#ArialMT-30" x="83.398438"/>
      </g>
     </g>
    </g>
    <g id="text_16">
     <!-- Fitness -->
     <g style="fill: #262626" transform="translate(76.825 128.417812) rotate(-90) scale(0.12 -0.12)">
      <defs>
       <path id="ArialMT-46" d="M 525 0 
L 525 4581 
L 3616 4581 
L 3616 4041 
L 1131 4041 
L 1131 2622 
L 3281 2622 
L 3281 2081 
L 1131 2081 
L 1131 0 
L 525 0 
z
" transform="scale(0.015625)"/>
       <path id="ArialMT-73" d="M 197 991 
L 753 1078 
Q 800 744 1014 566 
Q 1228 388 1613 388 
Q 2000 388 2187 545 
Q 2375 703 2375 916 
Q 2375 1106 2209 1216 
Q 2094 1291 1634 1406 
Q 1016 1563 777 1677 
Q 538 1791 414 1992 
Q 291 2194 291 2438 
Q 291 2659 392 2848 
Q 494 3038 669 3163 
Q 800 3259 1026 3326 
Q 1253 3394 1513 3394 
Q 1903 3394 2198 3281 
Q 2494 3169 2634 2976 
Q 2775 2784 2828 2463 
L 2278 2388 
Q 2241 2644 2061 2787 
Q 1881 2931 1553 2931 
Q 1166 2931 1000 2803 
Q 834 2675 834 2503 
Q 834 2394 903 2306 
Q 972 2216 1119 2156 
Q 1203 2125 1616 2013 
Q 2213 1853 2448 1751 
Q 2684 1650 2818 1456 
Q 2953 1263 2953 975 
Q 2953 694 2789 445 
Q 2625 197 2315 61 
Q 2006 -75 1616 -75 
Q 969 -75 630 194 
Q 291 463 197 991 
z
" transform="scale(0.015625)"/>
      </defs>
      <use xlink:href="#ArialMT-46"/>
      <use xlink:href="#ArialMT-69" x="61.083984"/>
      <use xlink:href="#ArialMT-74" x="83.300781"/>
      <use xlink:href="#ArialMT-6e" x="111.083984"/>
      <use xlink:href="#ArialMT-65" x="166.699219"/>
      <use xlink:href="#ArialMT-73" x="222.314453"/>
      <use xlink:href="#ArialMT-73" x="272.314453"/>
     </g>
    </g>
   </g>
   <g id="line2d_15">
    <path d="M 138.436364 185.31 
L 140.006597 109.08 
L 157.453639 109.08 
L 159.198343 91.755 
L 160.943047 109.08 
L 162.687751 91.755 
L 164.432455 109.08 
L 166.177159 91.755 
L 167.921864 109.08 
L 169.666568 74.43 
L 171.411272 109.08 
L 173.155976 74.43 
L 244.688845 74.43 
L 246.43355 57.105 
L 248.178254 74.43 
L 304.008786 74.43 
L 305.75349 57.105 
L 307.498194 74.43 
L 314.477011 74.43 
L 316.221715 57.105 
L 317.966419 74.43 
L 370.307543 74.43 
L 372.052247 91.755 
L 373.796951 74.43 
L 462.776862 74.43 
L 464.521566 39.78 
L 466.266271 74.43 
L 468.010975 39.78 
L 469.755679 74.43 
L 471.500383 39.78 
L 473.245087 74.43 
L 474.989791 39.78 
L 476.734495 74.43 
L 478.4792 39.78 
L 480.223904 74.43 
L 481.968608 39.78 
L 483.713312 74.43 
L 485.458016 39.78 
L 487.20272 74.43 
L 488.947424 39.78 
L 490.692129 74.43 
L 492.436833 39.78 
L 494.181537 74.43 
L 495.926241 39.78 
L 497.670945 74.43 
L 499.415649 39.78 
L 501.160353 74.43 
L 502.905057 39.78 
L 504.649762 74.43 
L 506.394466 39.78 
L 508.13917 74.43 
L 509.883874 39.78 
L 511.628578 74.43 
L 513.373282 39.78 
L 515.117986 74.43 
L 516.862691 39.78 
L 518.607395 74.43 
L 520.352099 39.78 
L 522.096803 74.43 
L 523.841507 39.78 
L 525.586211 74.43 
L 527.330915 39.78 
L 529.075619 74.43 
L 530.820324 39.78 
L 532.565028 74.43 
L 534.309732 39.78 
L 536.054436 74.43 
L 537.79914 39.78 
L 539.543844 74.43 
L 541.288548 39.78 
L 543.033253 74.43 
L 544.777957 39.78 
L 546.522661 74.43 
L 548.267365 39.78 
L 550.012069 74.43 
L 551.756773 39.78 
L 553.501477 74.43 
L 555.246182 39.78 
L 556.990886 74.43 
L 558.73559 39.78 
L 560.480294 74.43 
L 562.224998 39.78 
L 563.969702 74.43 
L 565.714406 39.78 
L 567.45911 74.43 
L 569.203815 39.78 
L 570.948519 74.43 
L 572.693223 39.78 
L 574.437927 74.43 
L 576.182631 39.78 
L 577.927335 74.43 
L 579.672039 39.78 
L 581.416744 74.43 
L 583.161448 39.78 
L 584.906152 74.43 
L 586.650856 39.78 
L 588.39556 74.43 
L 590.140264 39.78 
L 591.884968 74.43 
L 593.629672 39.78 
L 595.374377 74.43 
L 597.119081 39.78 
L 598.863785 74.43 
L 600.608489 39.78 
L 602.353193 74.43 
L 604.097897 39.78 
L 605.842601 74.43 
L 607.587306 39.78 
L 609.33201 74.43 
L 611.076714 39.78 
L 612.821418 74.43 
L 614.566122 39.78 
L 616.310826 74.43 
L 618.05553 39.78 
L 619.800235 74.43 
L 621.544939 39.78 
L 623.289643 74.43 
L 625.034347 39.78 
L 626.779051 74.43 
L 628.523755 39.78 
L 635.502572 39.78 
L 637.247276 74.43 
L 638.99198 39.78 
L 640.736684 74.43 
L 642.481388 39.78 
L 644.226092 74.43 
L 645.970797 39.78 
L 647.715501 74.43 
L 649.460205 39.78 
L 651.204909 74.43 
L 652.949613 39.78 
L 654.694317 74.43 
L 656.439021 39.78 
L 658.183725 74.43 
L 659.92843 39.78 
L 661.673134 74.43 
L 663.417838 39.78 
L 665.162542 74.43 
L 666.907246 39.78 
L 668.65195 74.43 
L 670.396654 39.78 
L 672.141359 74.43 
L 673.886063 39.78 
L 675.630767 74.43 
L 677.375471 39.78 
L 679.120175 74.43 
L 680.864879 39.78 
L 682.609583 74.43 
L 684.354288 39.78 
L 686.098992 74.43 
L 687.843696 39.78 
L 689.5884 74.43 
L 691.333104 39.78 
L 693.077808 74.43 
L 694.822512 39.78 
L 696.567216 74.43 
L 698.311921 39.78 
L 700.056625 74.43 
L 701.801329 39.78 
L 703.546033 57.105 
L 705.290737 39.78 
L 707.035441 57.105 
L 708.780145 57.105 
L 710.52485 74.43 
L 717.503666 74.43 
L 719.24837 57.105 
L 720.993074 74.43 
L 729.716595 74.43 
L 731.461299 39.78 
L 738.440116 39.78 
L 740.18482 74.43 
L 741.929524 39.78 
L 747.163636 39.78 
L 747.163636 39.78 
" clip-path="url(#p804d30c9a0)" style="fill: none; stroke: #4c72b0; stroke-width: 1.5; stroke-linecap: round"/>
   </g>
   <g id="line2d_16">
    <path d="M 138.436364 185.31 
L 140.006597 112.513815 
L 141.751301 113.165235 
L 143.496006 114.7626 
L 145.24071 114.83883 
L 148.730118 117.16038 
L 150.474822 116.39808 
L 152.219526 115.07445 
L 153.96423 115.793438 
L 155.708935 114.93585 
L 157.453639 114.9012 
L 159.198343 104.116388 
L 160.943047 120.75705 
L 162.687751 104.774738 
L 164.432455 119.145825 
L 166.177159 105.900863 
L 167.921864 119.64825 
L 169.666568 108.274388 
L 171.411272 119.873475 
L 173.155976 104.0211 
L 174.90068 101.278553 
L 176.645384 93.506558 
L 178.390088 89.896028 
L 180.134792 94.345088 
L 181.879497 92.872463 
L 183.624201 90.724163 
L 185.368905 94.327763 
L 187.113609 94.587638 
L 188.858313 93.218963 
L 190.603017 94.102538 
L 192.347721 91.134765 
L 194.092426 91.573088 
L 195.83713 93.707528 
L 197.581834 94.154513 
L 199.326538 92.811825 
L 201.071242 92.737328 
L 202.815946 96.12783 
L 204.56065 91.975028 
L 206.305354 94.648275 
L 208.050059 93.816675 
L 209.794763 91.659713 
L 211.539467 93.331575 
L 215.028875 91.079325 
L 216.773579 95.817713 
L 218.518283 90.996165 
L 220.262988 93.158325 
L 222.007692 91.971563 
L 223.752396 93.331575 
L 225.4971 92.789303 
L 227.241804 94.102538 
L 228.986508 92.222775 
L 230.731212 93.721388 
L 232.475917 91.72035 
L 234.220621 94.293113 
L 235.965325 95.977103 
L 237.710029 96.35652 
L 239.454733 96.185003 
L 241.199437 97.912305 
L 242.944141 97.054718 
L 244.688845 99.644805 
L 246.43355 95.73282 
L 248.178254 100.970168 
L 249.922958 95.145503 
L 251.667662 99.171833 
L 253.412366 94.494083 
L 255.15707 98.728313 
L 256.901774 96.61293 
L 258.646479 100.221728 
L 260.391183 93.698865 
L 262.135887 98.17218 
L 263.880591 92.47572 
L 265.625295 97.273013 
L 267.369999 93.378353 
L 269.114703 97.79103 
L 270.859407 94.753958 
L 272.604112 98.328105 
L 274.348816 94.114665 
L 276.09352 101.05506 
L 277.838224 94.544325 
L 279.582928 101.212718 
L 281.327632 93.31425 
L 283.072336 99.378 
L 284.817041 96.318405 
L 286.561745 102.203708 
L 288.306449 92.099768 
L 290.051153 99.256725 
L 291.795857 92.027003 
L 293.540561 97.953885 
L 295.285265 91.848555 
L 297.02997 99.705443 
L 298.774674 91.354793 
L 300.519378 96.997545 
L 302.264082 90.367268 
L 304.008786 96.864143 
L 305.75349 94.161443 
L 307.498194 97.967745 
L 309.242898 92.803163 
L 310.987603 97.972943 
L 312.732307 91.087988 
L 314.477011 99.840578 
L 316.221715 94.33989 
L 317.966419 99.235935 
L 319.711123 95.769203 
L 321.455827 97.938293 
L 323.200532 94.82499 
L 324.945236 97.697475 
L 326.68994 94.452503 
L 328.434644 99.712373 
L 330.179348 93.936218 
L 331.924052 100.24425 
L 333.668756 93.399143 
L 335.41346 100.36899 
L 337.158165 89.826728 
L 338.902869 98.35236 
L 340.647573 93.03705 
L 342.392277 99.830183 
L 344.136981 94.258463 
L 345.881685 101.489918 
L 347.626389 94.677728 
L 349.371094 98.53947 
L 351.115798 96.33573 
L 352.860502 103.839188 
L 354.605206 94.708913 
L 356.34991 99.021105 
L 358.094614 94.32603 
L 359.839318 92.742525 
L 361.584023 94.544325 
L 363.328727 94.812863 
L 365.073431 92.23317 
L 366.818135 92.62125 
L 368.562839 93.863453 
L 370.307543 91.44315 
L 372.052247 103.1895 
L 373.796951 105.329138 
L 375.541656 92.647238 
L 377.28636 116.456985 
L 379.031064 92.948693 
L 380.775768 92.681888 
L 382.520472 94.76262 
L 384.265176 93.066503 
L 386.00988 93.834 
L 387.754585 93.834 
L 389.499289 91.954238 
L 391.243993 92.34405 
L 392.988697 91.8243 
L 394.733401 93.52215 
L 396.478105 91.2699 
L 398.222809 90.571703 
L 399.967513 92.867265 
L 401.712218 93.205103 
L 403.456922 96.406763 
L 405.201626 95.904338 
L 406.94633 93.594915 
L 408.691034 92.39949 
L 410.435738 95.973638 
L 412.180442 97.454925 
L 413.925147 94.86657 
L 415.669851 93.9033 
L 417.414555 96.606 
L 419.159259 94.509675 
L 420.903963 95.7051 
L 422.648667 96.103575 
L 424.393371 96.995813 
L 426.138076 93.724853 
L 427.88278 96.262965 
L 429.627484 93.400875 
L 433.116892 93.142733 
L 434.861596 96.153818 
L 436.6063 94.393597 
L 438.351004 94.08348 
L 440.095709 97.037393 
L 441.840413 94.059225 
L 443.585117 93.485768 
L 445.329821 96.195398 
L 447.074525 96.659708 
L 448.819229 97.747718 
L 450.563933 98.10288 
L 452.308638 96.297615 
L 454.053342 96.096645 
L 455.798046 95.313555 
L 457.54275 96.302813 
L 459.287454 94.364145 
L 461.032158 96.27336 
L 462.776862 93.719655 
L 464.521566 97.766775 
L 466.266271 96.463935 
L 468.010975 86.174618 
L 469.755679 94.646543 
L 471.500383 92.992005 
L 473.245087 96.311475 
L 474.989791 76.614683 
L 476.734495 93.014528 
L 478.4792 70.71552 
L 480.223904 96.94557 
L 483.713312 97.896713 
L 485.458016 102.042585 
L 487.20272 96.59907 
L 488.947424 68.231115 
L 490.692129 96.992348 
L 492.436833 68.24844 
L 494.181537 97.399485 
L 495.926241 67.529453 
L 497.670945 94.876965 
L 499.415649 70.25814 
L 501.160353 95.422703 
L 502.905057 69.485445 
L 504.649762 95.207873 
L 506.394466 72.130973 
L 508.13917 96.687428 
L 509.883874 68.842688 
L 511.628578 96.580013 
L 513.373282 67.009703 
L 515.117986 93.20337 
L 516.862691 69.598058 
L 518.607395 96.600803 
L 520.352099 70.065833 
L 522.096803 94.036703 
L 523.841507 69.998265 
L 525.586211 95.85063 
L 527.330915 69.213443 
L 529.075619 95.74668 
L 530.820324 68.70582 
L 532.565028 95.280638 
L 534.309732 69.651765 
L 536.054436 95.159363 
L 537.79914 72.411638 
L 539.543844 96.990615 
L 541.288548 69.729728 
L 543.033253 93.78549 
L 544.777957 70.246013 
L 546.522661 95.720693 
L 548.267365 73.063058 
L 550.012069 94.885628 
L 551.756773 69.942825 
L 553.501477 93.78549 
L 555.246182 74.961878 
L 556.990886 95.2893 
L 558.73559 71.217945 
L 560.480294 95.057145 
L 562.224998 79.466378 
L 563.969702 93.019725 
L 565.714406 69.019403 
L 567.45911 94.909883 
L 569.203815 74.974005 
L 570.948519 93.288263 
L 572.693223 68.508315 
L 574.437927 95.73282 
L 576.182631 68.790713 
L 577.927335 94.911615 
L 579.672039 71.84511 
L 581.416744 94.904685 
L 583.161448 70.400205 
L 584.906152 95.776133 
L 586.650856 73.054395 
L 588.39556 93.821873 
L 590.140264 69.286208 
L 591.884968 92.687085 
L 593.629672 68.50485 
L 595.374377 95.925128 
L 597.119081 67.926195 
L 598.863785 93.503093 
L 600.608489 80.822925 
L 602.353193 92.797965 
L 604.097897 71.521133 
L 605.842601 92.853405 
L 607.587306 70.254675 
L 609.33201 95.214803 
L 611.076714 70.516283 
L 612.821418 97.307663 
L 614.566122 74.99133 
L 616.310826 95.686043 
L 618.05553 68.272695 
L 619.800235 96.178073 
L 621.544939 71.496878 
L 623.289643 97.98507 
L 625.034347 69.928965 
L 626.779051 95.043285 
L 628.523755 67.189883 
L 630.268459 86.08626 
L 632.013163 70.178445 
L 633.757868 92.05299 
L 635.502572 76.295903 
L 637.247276 94.275788 
L 638.99198 89.00379 
L 640.736684 97.744253 
L 642.481388 68.22765 
L 644.226092 96.943838 
L 645.970797 71.113995 
L 647.715501 95.370728 
L 649.460205 71.101868 
L 651.204909 97.20891 
L 652.949613 81.049882 
L 654.694317 96.78618 
L 656.439021 72.51039 
L 658.183725 96.434483 
L 659.92843 74.663888 
L 661.673134 96.500318 
L 663.417838 71.30457 
L 665.162542 96.366915 
L 666.907246 72.645525 
L 668.65195 96.008288 
L 670.396654 71.64414 
L 672.141359 96.178073 
L 673.886063 71.45703 
L 675.630767 95.932058 
L 677.375471 69.2325 
L 679.120175 93.790688 
L 680.864879 72.099788 
L 682.609583 95.658322 
L 684.354288 73.471928 
L 686.098992 97.373498 
L 687.843696 70.85412 
L 689.5884 95.19921 
L 691.333104 70.699928 
L 693.077808 97.281675 
L 694.822512 66.48822 
L 696.567216 94.324298 
L 698.311921 67.032225 
L 700.056625 95.980568 
L 701.801329 63.672908 
L 703.546033 81.087998 
L 705.290737 89.59284 
L 707.035441 88.634768 
L 708.780145 96.26643 
L 710.52485 98.620898 
L 712.269554 93.742178 
L 714.014258 93.532545 
L 715.758962 96.06546 
L 717.503666 93.104618 
L 719.24837 92.583135 
L 720.993074 94.850978 
L 722.737778 99.741825 
L 724.482483 94.308705 
L 726.227187 98.18604 
L 727.971891 94.954928 
L 729.716595 99.601493 
L 731.461299 67.744283 
L 733.206003 100.034618 
L 734.950707 68.300415 
L 736.695412 98.672873 
L 738.440116 69.535688 
L 740.18482 98.619165 
L 741.929524 67.07727 
L 743.674228 92.238368 
L 745.418932 71.302838 
L 747.163636 90.613283 
L 747.163636 90.613283 
" clip-path="url(#p804d30c9a0)" style="fill: none; stroke: #dd8452; stroke-width: 1.5; stroke-linecap: round"/>
   </g>
   <g id="patch_3">
    <path d="M 108 192.24 
L 108 25.92 
" style="fill: none; stroke: #ffffff; stroke-width: 1.25; stroke-linejoin: miter; stroke-linecap: square"/>
   </g>
   <g id="patch_4">
    <path d="M 777.6 192.24 
L 777.6 25.92 
" style="fill: none; stroke: #ffffff; stroke-width: 1.25; stroke-linejoin: miter; stroke-linecap: square"/>
   </g>
   <g id="patch_5">
    <path d="M 108 192.24 
L 777.6 192.24 
" style="fill: none; stroke: #ffffff; stroke-width: 1.25; stroke-linejoin: miter; stroke-linecap: square"/>
   </g>
   <g id="patch_6">
    <path d="M 108 25.92 
L 777.6 25.92 
" style="fill: none; stroke: #ffffff; stroke-width: 1.25; stroke-linejoin: miter; stroke-linecap: square"/>
   </g>
   <g id="legend_1">
    <g id="patch_7">
     <path d="M 115.7 65.968594 
L 230.184219 65.968594 
Q 232.384219 65.968594 232.384219 63.768594 
L 232.384219 33.62 
Q 232.384219 31.42 230.184219 31.42 
L 115.7 31.42 
Q 113.5 31.42 113.5 33.62 
L 113.5 63.768594 
Q 113.5 65.968594 115.7 65.968594 
z
" style="fill: #eaeaf2; opacity: 0.8; stroke: #cccccc; stroke-linejoin: miter"/>
    </g>
    <g id="line2d_17">
     <path d="M 117.9 39.843594 
L 128.9 39.843594 
L 139.9 39.843594 
" style="fill: none; stroke: #4c72b0; stroke-width: 1.5; stroke-linecap: round"/>
    </g>
    <g id="text_17">
     <!-- Max Fitness -->
     <g style="fill: #262626" transform="translate(148.7 43.693594) scale(0.11 -0.11)">
      <defs>
       <path id="ArialMT-4d" d="M 475 0 
L 475 4581 
L 1388 4581 
L 2472 1338 
Q 2622 884 2691 659 
Q 2769 909 2934 1394 
L 4031 4581 
L 4847 4581 
L 4847 0 
L 4263 0 
L 4263 3834 
L 2931 0 
L 2384 0 
L 1059 3900 
L 1059 0 
L 475 0 
z
" transform="scale(0.015625)"/>
       <path id="ArialMT-78" d="M 47 0 
L 1259 1725 
L 138 3319 
L 841 3319 
L 1350 2541 
Q 1494 2319 1581 2169 
Q 1719 2375 1834 2534 
L 2394 3319 
L 3066 3319 
L 1919 1756 
L 3153 0 
L 2463 0 
L 1781 1031 
L 1600 1309 
L 728 0 
L 47 0 
z
" transform="scale(0.015625)"/>
       <path id="ArialMT-20" transform="scale(0.015625)"/>
      </defs>
      <use xlink:href="#ArialMT-4d"/>
      <use xlink:href="#ArialMT-61" x="83.300781"/>
      <use xlink:href="#ArialMT-78" x="138.916016"/>
      <use xlink:href="#ArialMT-20" x="188.916016"/>
      <use xlink:href="#ArialMT-46" x="216.699219"/>
      <use xlink:href="#ArialMT-69" x="277.783203"/>
      <use xlink:href="#ArialMT-74" x="300"/>
      <use xlink:href="#ArialMT-6e" x="327.783203"/>
      <use xlink:href="#ArialMT-65" x="383.398438"/>
      <use xlink:href="#ArialMT-73" x="439.013672"/>
      <use xlink:href="#ArialMT-73" x="489.013672"/>
     </g>
    </g>
    <g id="line2d_18">
     <path d="M 117.9 55.403437 
L 128.9 55.403437 
L 139.9 55.403437 
" style="fill: none; stroke: #dd8452; stroke-width: 1.5; stroke-linecap: round"/>
    </g>
    <g id="text_18">
     <!-- Average Fitness -->
     <g style="fill: #262626" transform="translate(148.7 59.253437) scale(0.11 -0.11)">
      <defs>
       <path id="ArialMT-41" d="M -9 0 
L 1750 4581 
L 2403 4581 
L 4278 0 
L 3588 0 
L 3053 1388 
L 1138 1388 
L 634 0 
L -9 0 
z
M 1313 1881 
L 2866 1881 
L 2388 3150 
Q 2169 3728 2063 4100 
Q 1975 3659 1816 3225 
L 1313 1881 
z
" transform="scale(0.015625)"/>
       <path id="ArialMT-76" d="M 1344 0 
L 81 3319 
L 675 3319 
L 1388 1331 
Q 1503 1009 1600 663 
Q 1675 925 1809 1294 
L 2547 3319 
L 3125 3319 
L 1869 0 
L 1344 0 
z
" transform="scale(0.015625)"/>
       <path id="ArialMT-67" d="M 319 -275 
L 866 -356 
Q 900 -609 1056 -725 
Q 1266 -881 1628 -881 
Q 2019 -881 2231 -725 
Q 2444 -569 2519 -288 
Q 2563 -116 2559 434 
Q 2191 0 1641 0 
Q 956 0 581 494 
Q 206 988 206 1678 
Q 206 2153 378 2554 
Q 550 2956 876 3175 
Q 1203 3394 1644 3394 
Q 2231 3394 2613 2919 
L 2613 3319 
L 3131 3319 
L 3131 450 
Q 3131 -325 2973 -648 
Q 2816 -972 2473 -1159 
Q 2131 -1347 1631 -1347 
Q 1038 -1347 672 -1080 
Q 306 -813 319 -275 
z
M 784 1719 
Q 784 1066 1043 766 
Q 1303 466 1694 466 
Q 2081 466 2343 764 
Q 2606 1063 2606 1700 
Q 2606 2309 2336 2618 
Q 2066 2928 1684 2928 
Q 1309 2928 1046 2623 
Q 784 2319 784 1719 
z
" transform="scale(0.015625)"/>
      </defs>
      <use xlink:href="#ArialMT-41"/>
      <use xlink:href="#ArialMT-76" x="64.949219"/>
      <use xlink:href="#ArialMT-65" x="114.949219"/>
      <use xlink:href="#ArialMT-72" x="170.564453"/>
      <use xlink:href="#ArialMT-61" x="203.865234"/>
      <use xlink:href="#ArialMT-67" x="259.480469"/>
      <use xlink:href="#ArialMT-65" x="315.095703"/>
      <use xlink:href="#ArialMT-20" x="370.710938"/>
      <use xlink:href="#ArialMT-46" x="398.494141"/>
      <use xlink:href="#ArialMT-69" x="459.578125"/>
      <use xlink:href="#ArialMT-74" x="481.794922"/>
      <use xlink:href="#ArialMT-6e" x="509.578125"/>
      <use xlink:href="#ArialMT-65" x="565.193359"/>
      <use xlink:href="#ArialMT-73" x="620.808594"/>
      <use xlink:href="#ArialMT-73" x="670.808594"/>
     </g>
    </g>
   </g>
  </g>
 </g>
 <defs>
  <clipPath id="p804d30c9a0">
   <rect x="108" y="25.92" width="669.6" height="166.32"/>
  </clipPath>
 </defs>
</svg>
