<?xml version="1.0" encoding="UTF-8" standalone="no"?>
<!DOCTYPE svg PUBLIC "-//W3C//DTD SVG 1.1//EN"
 "http://www.w3.org/Graphics/SVG/1.1/DTD/svg11.dtd">
<!-- Generated by graphviz version 2.50.0 (0)
 -->
<!-- Title: MVGComplexG3 Pages: 1 -->
<svg width="314pt" height="694pt"
 viewBox="0.00 0.00 314.43 694.00" xmlns="http://www.w3.org/2000/svg" xmlns:xlink="http://www.w3.org/1999/xlink">
<g id="graph0" class="graph" transform="scale(1 1) rotate(0) translate(4 690)">
<title>MVGComplexG3</title>
<polygon fill="white" stroke="transparent" points="-4,4 -4,-690 310.43,-690 310.43,4 -4,4"/>
<!-- 0 -->
<g id="node1" class="node">
<title>0</title>
<ellipse fill="none" stroke="black" cx="61.5" cy="-606.5" rx="14.5" ry="14.5"/>
<text text-anchor="middle" x="61.5" y="-602.8" font-family="Times New Roman,serif" font-size="14.00">x</text>
</g>
<!-- 28 -->
<g id="node9" class="node">
<title>28</title>
<ellipse fill="none" stroke="black" cx="108.5" cy="-538" rx="14.5" ry="14.5"/>
<text text-anchor="middle" x="108.5" y="-534.3" font-family="Times New Roman,serif" font-size="14.00">28</text>
</g>
<!-- 0&#45;&gt;28 -->
<g id="edge29" class="edge">
<title>0&#45;&gt;28</title>
<path fill="none" stroke="black" d="M69.47,-594.22C76.32,-584.53 86.35,-570.35 94.52,-558.78"/>
<polygon fill="black" stroke="black" points="97.42,-560.75 100.33,-550.56 91.7,-556.71 97.42,-560.75"/>
</g>
<!-- 25 -->
<g id="node18" class="node">
<title>25</title>
<ellipse fill="none" stroke="black" cx="14.5" cy="-538" rx="14.5" ry="14.5"/>
<text text-anchor="middle" x="14.5" y="-534.3" font-family="Times New Roman,serif" font-size="14.00">25</text>
</g>
<!-- 0&#45;&gt;25 -->
<g id="edge24" class="edge">
<title>0&#45;&gt;25</title>
<path fill="none" stroke="black" d="M53.53,-594.22C46.68,-584.53 36.65,-570.35 28.48,-558.78"/>
<polygon fill="black" stroke="black" points="31.3,-556.71 22.67,-550.56 25.58,-560.75 31.3,-556.71"/>
</g>
<!-- 1 -->
<g id="node2" class="node">
<title>1</title>
<ellipse fill="none" stroke="black" cx="130.5" cy="-671.5" rx="14.5" ry="14.5"/>
<text text-anchor="middle" x="130.5" y="-667.8" font-family="Times New Roman,serif" font-size="14.00">y</text>
</g>
<!-- 16 -->
<g id="node6" class="node">
<title>16</title>
<ellipse fill="none" stroke="black" cx="151.5" cy="-404.5" rx="14.5" ry="14.5"/>
<text text-anchor="middle" x="151.5" y="-400.8" font-family="Times New Roman,serif" font-size="14.00">16</text>
</g>
<!-- 1&#45;&gt;16 -->
<g id="edge16" class="edge">
<title>1&#45;&gt;16</title>
<path fill="none" stroke="black" d="M131.57,-656.99C134.94,-614.47 145.36,-482.94 149.64,-428.97"/>
<polygon fill="black" stroke="black" points="153.13,-429.22 150.43,-418.98 146.15,-428.67 153.13,-429.22"/>
</g>
<!-- 24 -->
<g id="node20" class="node">
<title>24</title>
<ellipse fill="none" stroke="black" cx="108.5" cy="-606.5" rx="14.5" ry="14.5"/>
<text text-anchor="middle" x="108.5" y="-602.8" font-family="Times New Roman,serif" font-size="14.00">24</text>
</g>
<!-- 1&#45;&gt;24 -->
<g id="edge22" class="edge">
<title>1&#45;&gt;24</title>
<path fill="none" stroke="black" d="M125.94,-657.45C123.2,-649.59 119.63,-639.37 116.44,-630.22"/>
<polygon fill="black" stroke="black" points="119.65,-628.82 113.05,-620.54 113.05,-631.13 119.65,-628.82"/>
</g>
<!-- 2 -->
<g id="node3" class="node">
<title>2</title>
<ellipse fill="none" stroke="black" cx="237.5" cy="-671.5" rx="14.5" ry="14.5"/>
<text text-anchor="middle" x="237.5" y="-667.8" font-family="Times New Roman,serif" font-size="14.00">z</text>
</g>
<!-- 14 -->
<g id="node8" class="node">
<title>14</title>
<ellipse fill="none" stroke="black" cx="198.5" cy="-404.5" rx="14.5" ry="14.5"/>
<text text-anchor="middle" x="198.5" y="-400.8" font-family="Times New Roman,serif" font-size="14.00">14</text>
</g>
<!-- 2&#45;&gt;14 -->
<g id="edge12" class="edge">
<title>2&#45;&gt;14</title>
<path fill="none" stroke="black" d="M237.52,-656.68C237.28,-622.17 234.94,-529.64 217.5,-455 215.3,-445.59 211.71,-435.58 208.24,-427.04"/>
<polygon fill="black" stroke="black" points="211.45,-425.64 204.32,-417.81 205.01,-428.39 211.45,-425.64"/>
</g>
<!-- 19 -->
<g id="node15" class="node">
<title>19</title>
<ellipse fill="none" stroke="black" cx="280.5" cy="-469.5" rx="14.5" ry="14.5"/>
<text text-anchor="middle" x="280.5" y="-465.8" font-family="Times New Roman,serif" font-size="14.00">19</text>
</g>
<!-- 2&#45;&gt;19 -->
<g id="edge17" class="edge">
<title>2&#45;&gt;19</title>
<path fill="none" stroke="black" d="M246.39,-659.68C261.66,-640.34 292.29,-597.89 303.5,-556 307.64,-540.54 306.95,-535.62 303.5,-520 301.3,-510.05 296.89,-499.73 292.52,-491.1"/>
<polygon fill="black" stroke="black" points="295.54,-489.33 287.71,-482.18 289.38,-492.65 295.54,-489.33"/>
</g>
<!-- 2&#45;&gt;24 -->
<g id="edge21" class="edge">
<title>2&#45;&gt;24</title>
<path fill="none" stroke="black" d="M224.66,-664.23C202.64,-653.47 157.43,-631.4 130.36,-618.18"/>
<polygon fill="black" stroke="black" points="131.81,-614.99 121.29,-613.75 128.74,-621.28 131.81,-614.99"/>
</g>
<!-- 3 -->
<g id="node4" class="node">
<title>3</title>
<ellipse fill="none" stroke="black" cx="14.5" cy="-606.5" rx="14.5" ry="14.5"/>
<text text-anchor="middle" x="14.5" y="-602.8" font-family="Times New Roman,serif" font-size="14.00">w</text>
</g>
<!-- 26 -->
<g id="node11" class="node">
<title>26</title>
<ellipse fill="none" stroke="black" cx="61.5" cy="-538" rx="14.5" ry="14.5"/>
<text text-anchor="middle" x="61.5" y="-534.3" font-family="Times New Roman,serif" font-size="14.00">26</text>
</g>
<!-- 3&#45;&gt;26 -->
<g id="edge26" class="edge">
<title>3&#45;&gt;26</title>
<path fill="none" stroke="black" d="M22.47,-594.22C29.32,-584.53 39.35,-570.35 47.52,-558.78"/>
<polygon fill="black" stroke="black" points="50.42,-560.75 53.33,-550.56 44.7,-556.71 50.42,-560.75"/>
</g>
<!-- 3&#45;&gt;25 -->
<g id="edge23" class="edge">
<title>3&#45;&gt;25</title>
<path fill="none" stroke="black" d="M14.5,-591.72C14.5,-583.43 14.5,-572.64 14.5,-562.99"/>
<polygon fill="black" stroke="black" points="18,-562.76 14.5,-552.76 11,-562.76 18,-562.76"/>
</g>
<!-- 32 -->
<g id="node5" class="node">
<title>32</title>
<ellipse fill="none" stroke="black" cx="109.5" cy="-14.5" rx="14.5" ry="14.5"/>
<text text-anchor="middle" x="109.5" y="-10.8" font-family="Times New Roman,serif" font-size="14.00">out</text>
</g>
<!-- 5 -->
<g id="node7" class="node">
<title>5</title>
<ellipse fill="none" stroke="black" cx="129.5" cy="-339.5" rx="14.5" ry="14.5"/>
<text text-anchor="middle" x="129.5" y="-335.8" font-family="Times New Roman,serif" font-size="14.00">5</text>
</g>
<!-- 16&#45;&gt;5 -->
<g id="edge1" class="edge">
<title>16&#45;&gt;5</title>
<path fill="none" stroke="black" d="M146.94,-390.45C144.2,-382.59 140.63,-372.37 137.44,-363.22"/>
<polygon fill="black" stroke="black" points="140.65,-361.82 134.05,-353.54 134.05,-364.13 140.65,-361.82"/>
</g>
<!-- 15 -->
<g id="node19" class="node">
<title>15</title>
<ellipse fill="none" stroke="black" cx="89.5" cy="-274.5" rx="14.5" ry="14.5"/>
<text text-anchor="middle" x="89.5" y="-270.8" font-family="Times New Roman,serif" font-size="14.00">15</text>
</g>
<!-- 5&#45;&gt;15 -->
<g id="edge14" class="edge">
<title>5&#45;&gt;15</title>
<path fill="none" stroke="black" d="M122.16,-326.94C116.65,-318.26 108.96,-306.15 102.42,-295.85"/>
<polygon fill="black" stroke="black" points="105.38,-293.98 97.06,-287.41 99.47,-297.73 105.38,-293.98"/>
</g>
<!-- 14&#45;&gt;5 -->
<g id="edge2" class="edge">
<title>14&#45;&gt;5</title>
<path fill="none" stroke="black" d="M188.02,-393.93C177.28,-384.13 160.38,-368.69 147.49,-356.93"/>
<polygon fill="black" stroke="black" points="149.82,-354.32 140.08,-350.16 145.1,-359.49 149.82,-354.32"/>
</g>
<!-- 8 -->
<g id="node10" class="node">
<title>8</title>
<ellipse fill="none" stroke="black" cx="108.5" cy="-469.5" rx="14.5" ry="14.5"/>
<text text-anchor="middle" x="108.5" y="-465.8" font-family="Times New Roman,serif" font-size="14.00">8</text>
</g>
<!-- 28&#45;&gt;8 -->
<g id="edge3" class="edge">
<title>28&#45;&gt;8</title>
<path fill="none" stroke="black" d="M108.5,-523.22C108.5,-514.93 108.5,-504.14 108.5,-494.49"/>
<polygon fill="black" stroke="black" points="112,-494.26 108.5,-484.26 105,-494.26 112,-494.26"/>
</g>
<!-- 12 -->
<g id="node16" class="node">
<title>12</title>
<ellipse fill="none" stroke="black" cx="194.5" cy="-469.5" rx="14.5" ry="14.5"/>
<text text-anchor="middle" x="194.5" y="-465.8" font-family="Times New Roman,serif" font-size="14.00">12</text>
</g>
<!-- 28&#45;&gt;12 -->
<g id="edge9" class="edge">
<title>28&#45;&gt;12</title>
<path fill="none" stroke="black" d="M119.74,-528.31C133.86,-517.39 158.28,-498.51 175.36,-485.3"/>
<polygon fill="black" stroke="black" points="177.76,-487.87 183.53,-478.99 173.47,-482.33 177.76,-487.87"/>
</g>
<!-- 11 -->
<g id="node12" class="node">
<title>11</title>
<ellipse fill="none" stroke="black" cx="176.5" cy="-339.5" rx="14.5" ry="14.5"/>
<text text-anchor="middle" x="176.5" y="-335.8" font-family="Times New Roman,serif" font-size="14.00">11</text>
</g>
<!-- 8&#45;&gt;11 -->
<g id="edge8" class="edge">
<title>8&#45;&gt;11</title>
<path fill="none" stroke="black" d="M109.56,-454.92C111.32,-438.6 115.89,-410.82 127.5,-390 134.94,-376.67 146.96,-364.45 157.23,-355.48"/>
<polygon fill="black" stroke="black" points="159.53,-358.12 164.97,-349.03 155.05,-352.74 159.53,-358.12"/>
</g>
<!-- 27 -->
<g id="node21" class="node">
<title>27</title>
<ellipse fill="none" stroke="black" cx="86.5" cy="-209.5" rx="14.5" ry="14.5"/>
<text text-anchor="middle" x="86.5" y="-205.8" font-family="Times New Roman,serif" font-size="14.00">27</text>
</g>
<!-- 8&#45;&gt;27 -->
<g id="edge28" class="edge">
<title>8&#45;&gt;27</title>
<path fill="none" stroke="black" d="M104.17,-455.18C94.81,-425.67 72.98,-352.33 65.5,-289 63.99,-276.2 62.93,-272.63 65.5,-260 67.45,-250.4 71.33,-240.35 75.23,-231.84"/>
<polygon fill="black" stroke="black" points="78.47,-233.19 79.7,-222.67 72.18,-230.12 78.47,-233.19"/>
</g>
<!-- 26&#45;&gt;8 -->
<g id="edge4" class="edge">
<title>26&#45;&gt;8</title>
<path fill="none" stroke="black" d="M69.47,-525.72C76.32,-516.03 86.35,-501.85 94.52,-490.28"/>
<polygon fill="black" stroke="black" points="97.42,-492.25 100.33,-482.06 91.7,-488.21 97.42,-492.25"/>
</g>
<!-- 9 -->
<g id="node13" class="node">
<title>9</title>
<ellipse fill="none" stroke="black" cx="133.5" cy="-144.5" rx="14.5" ry="14.5"/>
<text text-anchor="middle" x="133.5" y="-140.8" font-family="Times New Roman,serif" font-size="14.00">9</text>
</g>
<!-- 11&#45;&gt;9 -->
<g id="edge5" class="edge">
<title>11&#45;&gt;9</title>
<path fill="none" stroke="black" d="M175.94,-324.76C174.58,-298.88 170.16,-241.32 156.5,-195 153.66,-185.36 149.22,-175.21 145,-166.63"/>
<polygon fill="black" stroke="black" points="148.11,-165.01 140.42,-157.71 141.88,-168.21 148.11,-165.01"/>
</g>
<!-- 22 -->
<g id="node14" class="node">
<title>22</title>
<ellipse fill="none" stroke="black" cx="133.5" cy="-209.5" rx="14.5" ry="14.5"/>
<text text-anchor="middle" x="133.5" y="-205.8" font-family="Times New Roman,serif" font-size="14.00">22</text>
</g>
<!-- 11&#45;&gt;22 -->
<g id="edge20" class="edge">
<title>11&#45;&gt;22</title>
<path fill="none" stroke="black" d="M172.06,-325.28C164.75,-303.52 150.09,-259.88 141.1,-233.12"/>
<polygon fill="black" stroke="black" points="144.35,-231.82 137.85,-223.45 137.72,-234.05 144.35,-231.82"/>
</g>
<!-- 31 -->
<g id="node22" class="node">
<title>31</title>
<ellipse fill="none" stroke="black" cx="109.5" cy="-79.5" rx="14.5" ry="14.5"/>
<text text-anchor="middle" x="109.5" y="-75.8" font-family="Times New Roman,serif" font-size="14.00">31</text>
</g>
<!-- 9&#45;&gt;31 -->
<g id="edge32" class="edge">
<title>9&#45;&gt;31</title>
<path fill="none" stroke="black" d="M128.64,-130.75C125.59,-122.72 121.55,-112.14 117.98,-102.76"/>
<polygon fill="black" stroke="black" points="121.18,-101.33 114.35,-93.23 114.64,-103.82 121.18,-101.33"/>
</g>
<!-- 22&#45;&gt;9 -->
<g id="edge6" class="edge">
<title>22&#45;&gt;9</title>
<path fill="none" stroke="black" d="M133.5,-194.83C133.5,-187.4 133.5,-178 133.5,-169.4"/>
<polygon fill="black" stroke="black" points="137,-169.14 133.5,-159.14 130,-169.14 137,-169.14"/>
</g>
<!-- 19&#45;&gt;11 -->
<g id="edge7" class="edge">
<title>19&#45;&gt;11</title>
<path fill="none" stroke="black" d="M272.61,-457.33C261.58,-441.88 240.74,-413.25 221.5,-390 212.45,-379.06 201.79,-367.29 193.11,-357.97"/>
<polygon fill="black" stroke="black" points="195.49,-355.39 186.09,-350.49 190.39,-360.18 195.49,-355.39"/>
</g>
<!-- 12&#45;&gt;16 -->
<g id="edge15" class="edge">
<title>12&#45;&gt;16</title>
<path fill="none" stroke="black" d="M186.61,-456.94C180.61,-448.15 172.21,-435.84 165.13,-425.46"/>
<polygon fill="black" stroke="black" points="167.87,-423.27 159.34,-416.98 162.08,-427.21 167.87,-423.27"/>
</g>
<!-- 12&#45;&gt;14 -->
<g id="edge11" class="edge">
<title>12&#45;&gt;14</title>
<path fill="none" stroke="black" d="M195.37,-454.83C195.84,-447.4 196.44,-438 196.98,-429.4"/>
<polygon fill="black" stroke="black" points="200.49,-429.35 197.63,-419.14 193.51,-428.9 200.49,-429.35"/>
</g>
<!-- 4 -->
<g id="node17" class="node">
<title>4</title>
</g>
<!-- 4&#45;&gt;19 -->
<g id="edge18" class="edge">
<title>4&#45;&gt;19</title>
<path fill="none" stroke="black" d="M280.5,-519.87C280.5,-512.08 280.5,-502.73 280.5,-494.27"/>
<polygon fill="black" stroke="black" points="284,-494.22 280.5,-484.22 277,-494.22 284,-494.22"/>
</g>
<!-- 4&#45;&gt;12 -->
<g id="edge10" class="edge">
<title>4&#45;&gt;12</title>
<path fill="none" stroke="black" d="M265.91,-525.72C251.52,-514.59 229.43,-497.51 213.64,-485.3"/>
<polygon fill="black" stroke="black" points="215.65,-482.43 205.6,-479.08 211.37,-487.97 215.65,-482.43"/>
</g>
<!-- 25&#45;&gt;15 -->
<g id="edge13" class="edge">
<title>25&#45;&gt;15</title>
<path fill="none" stroke="black" d="M18.32,-523.67C30.36,-481.71 67.58,-351.92 82.86,-298.66"/>
<polygon fill="black" stroke="black" points="86.29,-299.38 85.69,-288.8 79.56,-297.45 86.29,-299.38"/>
</g>
<!-- 15&#45;&gt;22 -->
<g id="edge19" class="edge">
<title>15&#45;&gt;22</title>
<path fill="none" stroke="black" d="M97.37,-262.24C103.55,-253.39 112.31,-240.85 119.65,-230.33"/>
<polygon fill="black" stroke="black" points="122.55,-232.29 125.4,-222.09 116.81,-228.29 122.55,-232.29"/>
</g>
<!-- 15&#45;&gt;27 -->
<g id="edge27" class="edge">
<title>15&#45;&gt;27</title>
<path fill="none" stroke="black" d="M88.85,-259.83C88.5,-252.4 88.05,-243 87.64,-234.4"/>
<polygon fill="black" stroke="black" points="91.12,-233.97 87.15,-224.14 84.13,-234.3 91.12,-233.97"/>
</g>
<!-- 24&#45;&gt;28 -->
<g id="edge30" class="edge">
<title>24&#45;&gt;28</title>
<path fill="none" stroke="black" d="M108.5,-591.72C108.5,-583.43 108.5,-572.64 108.5,-562.99"/>
<polygon fill="black" stroke="black" points="112,-562.76 108.5,-552.76 105,-562.76 112,-562.76"/>
</g>
<!-- 24&#45;&gt;26 -->
<g id="edge25" class="edge">
<title>24&#45;&gt;26</title>
<path fill="none" stroke="black" d="M100.53,-594.22C93.68,-584.53 83.65,-570.35 75.48,-558.78"/>
<polygon fill="black" stroke="black" points="78.3,-556.71 69.67,-550.56 72.58,-560.75 78.3,-556.71"/>
</g>
<!-- 27&#45;&gt;31 -->
<g id="edge31" class="edge">
<title>27&#45;&gt;31</title>
<path fill="none" stroke="black" d="M88.96,-194.8C92.85,-173.15 100.47,-130.74 105.26,-104.11"/>
<polygon fill="black" stroke="black" points="108.73,-104.56 107.06,-94.1 101.84,-103.32 108.73,-104.56"/>
</g>
<!-- 31&#45;&gt;32 -->
<g id="edge33" class="edge">
<title>31&#45;&gt;32</title>
<path fill="none" stroke="black" d="M109.5,-64.83C109.5,-57.4 109.5,-48 109.5,-39.4"/>
<polygon fill="black" stroke="black" points="113,-39.14 109.5,-29.14 106,-39.14 113,-39.14"/>
</g>
</g>
</svg>
