<?xml version="1.0" encoding="UTF-8" standalone="no"?>
<!DOCTYPE svg PUBLIC "-//W3C//DTD SVG 1.1//EN"
 "http://www.w3.org/Graphics/SVG/1.1/DTD/svg11.dtd">
<!-- Generated by graphviz version 2.50.0 (0)
 -->
<!-- Title: MVGComplexG4 Pages: 1 -->
<svg width="460pt" height="1091pt"
 viewBox="0.00 0.00 460.00 1091.00" xmlns="http://www.w3.org/2000/svg" xmlns:xlink="http://www.w3.org/1999/xlink">
<g id="graph0" class="graph" transform="scale(1 1) rotate(0) translate(4 1087)">
<title>MVGComplexG4</title>
<polygon fill="white" stroke="transparent" points="-4,4 -4,-1087 456,-1087 456,4 -4,4"/>
<!-- 0 -->
<g id="node1" class="node">
<title>0</title>
<ellipse fill="none" stroke="black" cx="200" cy="-1068.5" rx="14.5" ry="14.5"/>
<text text-anchor="middle" x="200" y="-1064.8" font-family="Times New Roman,serif" font-size="14.00">x</text>
</g>
<!-- 11 -->
<g id="node16" class="node">
<title>11</title>
<ellipse fill="none" stroke="black" cx="243" cy="-859.5" rx="14.5" ry="14.5"/>
<text text-anchor="middle" x="243" y="-855.8" font-family="Times New Roman,serif" font-size="14.00">11</text>
</g>
<!-- 0&#45;&gt;11 -->
<g id="edge14" class="edge">
<title>0&#45;&gt;11</title>
<path fill="none" stroke="black" d="M204.02,-1054.56C207.02,-1044.62 211.08,-1030.53 214,-1018 224.95,-970.97 234.39,-915.27 239.33,-884.3"/>
<polygon fill="black" stroke="black" points="242.84,-884.49 240.94,-874.07 235.93,-883.41 242.84,-884.49"/>
</g>
<!-- 8 -->
<g id="node17" class="node">
<title>8</title>
<ellipse fill="none" stroke="black" cx="155" cy="-794.5" rx="14.5" ry="14.5"/>
<text text-anchor="middle" x="155" y="-790.8" font-family="Times New Roman,serif" font-size="14.00">8</text>
</g>
<!-- 0&#45;&gt;8 -->
<g id="edge9" class="edge">
<title>0&#45;&gt;8</title>
<path fill="none" stroke="black" d="M197.77,-1054.01C190.59,-1010.6 168.01,-874.11 158.88,-818.96"/>
<polygon fill="black" stroke="black" points="162.33,-818.36 157.25,-809.07 155.42,-819.51 162.33,-818.36"/>
</g>
<!-- 25 -->
<g id="node24" class="node">
<title>25</title>
<ellipse fill="none" stroke="black" cx="124" cy="-1000" rx="14.5" ry="14.5"/>
<text text-anchor="middle" x="124" y="-996.3" font-family="Times New Roman,serif" font-size="14.00">25</text>
</g>
<!-- 0&#45;&gt;25 -->
<g id="edge40" class="edge">
<title>0&#45;&gt;25</title>
<path fill="none" stroke="black" d="M189.43,-1058.25C177.18,-1047.53 156.78,-1029.69 142.02,-1016.76"/>
<polygon fill="black" stroke="black" points="144.31,-1014.12 134.48,-1010.17 139.7,-1019.39 144.31,-1014.12"/>
</g>
<!-- 1 -->
<g id="node2" class="node">
<title>1</title>
<ellipse fill="none" stroke="black" cx="319" cy="-1000" rx="14.5" ry="14.5"/>
<text text-anchor="middle" x="319" y="-996.3" font-family="Times New Roman,serif" font-size="14.00">y</text>
</g>
<!-- 24 -->
<g id="node20" class="node">
<title>24</title>
<ellipse fill="none" stroke="black" cx="362" cy="-928" rx="14.5" ry="14.5"/>
<text text-anchor="middle" x="362" y="-924.3" font-family="Times New Roman,serif" font-size="14.00">24</text>
</g>
<!-- 1&#45;&gt;24 -->
<g id="edge38" class="edge">
<title>1&#45;&gt;24</title>
<path fill="none" stroke="black" d="M326.29,-987.13C332.63,-976.81 341.96,-961.63 349.48,-949.37"/>
<polygon fill="black" stroke="black" points="352.56,-951.05 354.81,-940.7 346.6,-947.39 352.56,-951.05"/>
</g>
<!-- 12 -->
<g id="node21" class="node">
<title>12</title>
<ellipse fill="none" stroke="black" cx="264" cy="-729.5" rx="14.5" ry="14.5"/>
<text text-anchor="middle" x="264" y="-725.8" font-family="Times New Roman,serif" font-size="14.00">12</text>
</g>
<!-- 1&#45;&gt;12 -->
<g id="edge16" class="edge">
<title>1&#45;&gt;12</title>
<path fill="none" stroke="black" d="M316.27,-985.69C307.51,-942.92 280.01,-808.66 268.81,-754"/>
<polygon fill="black" stroke="black" points="272.18,-752.99 266.74,-743.9 265.32,-754.39 272.18,-752.99"/>
</g>
<!-- 2 -->
<g id="node3" class="node">
<title>2</title>
<ellipse fill="none" stroke="black" cx="409" cy="-1000" rx="14.5" ry="14.5"/>
<text text-anchor="middle" x="409" y="-996.3" font-family="Times New Roman,serif" font-size="14.00">z</text>
</g>
<!-- 2&#45;&gt;24 -->
<g id="edge37" class="edge">
<title>2&#45;&gt;24</title>
<path fill="none" stroke="black" d="M401.24,-987.44C394.19,-976.94 383.64,-961.23 375.26,-948.75"/>
<polygon fill="black" stroke="black" points="378.1,-946.7 369.62,-940.34 372.29,-950.6 378.1,-946.7"/>
</g>
<!-- 14 -->
<g id="node22" class="node">
<title>14</title>
<ellipse fill="none" stroke="black" cx="307" cy="-664.5" rx="14.5" ry="14.5"/>
<text text-anchor="middle" x="307" y="-660.8" font-family="Times New Roman,serif" font-size="14.00">14</text>
</g>
<!-- 2&#45;&gt;14 -->
<g id="edge20" class="edge">
<title>2&#45;&gt;14</title>
<path fill="none" stroke="black" d="M415.53,-986.79C427.56,-963.14 452,-909.09 452,-860.5 452,-860.5 452,-860.5 452,-793.5 452,-729.27 371.04,-689.56 330.11,-673.59"/>
<polygon fill="black" stroke="black" points="331.23,-670.27 320.64,-670.04 328.78,-676.83 331.23,-670.27"/>
</g>
<!-- 3 -->
<g id="node4" class="node">
<title>3</title>
<ellipse fill="none" stroke="black" cx="103" cy="-1068.5" rx="14.5" ry="14.5"/>
<text text-anchor="middle" x="103" y="-1064.8" font-family="Times New Roman,serif" font-size="14.00">w</text>
</g>
<!-- 19 -->
<g id="node14" class="node">
<title>19</title>
<ellipse fill="none" stroke="black" cx="81" cy="-859.5" rx="14.5" ry="14.5"/>
<text text-anchor="middle" x="81" y="-855.8" font-family="Times New Roman,serif" font-size="14.00">19</text>
</g>
<!-- 3&#45;&gt;19 -->
<g id="edge28" class="edge">
<title>3&#45;&gt;19</title>
<path fill="none" stroke="black" d="M101.56,-1053.92C97.88,-1019.34 88.14,-927.65 83.51,-884.1"/>
<polygon fill="black" stroke="black" points="86.99,-883.71 82.45,-874.13 80.03,-884.45 86.99,-883.71"/>
</g>
<!-- 3&#45;&gt;25 -->
<g id="edge39" class="edge">
<title>3&#45;&gt;25</title>
<path fill="none" stroke="black" d="M107.15,-1054.36C109.91,-1045.62 113.61,-1033.9 116.84,-1023.68"/>
<polygon fill="black" stroke="black" points="120.19,-1024.7 119.86,-1014.11 113.51,-1022.59 120.19,-1024.7"/>
</g>
<!-- 32 -->
<g id="node5" class="node">
<title>32</title>
<ellipse fill="none" stroke="black" cx="161" cy="-14.5" rx="14.5" ry="14.5"/>
<text text-anchor="middle" x="161" y="-10.8" font-family="Times New Roman,serif" font-size="14.00">out</text>
</g>
<!-- 13 -->
<g id="node6" class="node">
<title>13</title>
<ellipse fill="none" stroke="black" cx="104" cy="-404.5" rx="14.5" ry="14.5"/>
<text text-anchor="middle" x="104" y="-400.8" font-family="Times New Roman,serif" font-size="14.00">13</text>
</g>
<!-- 4 -->
<g id="node7" class="node">
<title>4</title>
<ellipse fill="none" stroke="black" cx="102" cy="-339.5" rx="14.5" ry="14.5"/>
<text text-anchor="middle" x="102" y="-335.8" font-family="Times New Roman,serif" font-size="14.00">4</text>
</g>
<!-- 13&#45;&gt;4 -->
<g id="edge1" class="edge">
<title>13&#45;&gt;4</title>
<path fill="none" stroke="black" d="M103.57,-389.83C103.33,-382.4 103.03,-373 102.76,-364.4"/>
<polygon fill="black" stroke="black" points="106.25,-364.03 102.43,-354.14 99.25,-364.25 106.25,-364.03"/>
</g>
<!-- 20 -->
<g id="node11" class="node">
<title>20</title>
<ellipse fill="none" stroke="black" cx="140" cy="-274.5" rx="14.5" ry="14.5"/>
<text text-anchor="middle" x="140" y="-270.8" font-family="Times New Roman,serif" font-size="14.00">20</text>
</g>
<!-- 4&#45;&gt;20 -->
<g id="edge30" class="edge">
<title>4&#45;&gt;20</title>
<path fill="none" stroke="black" d="M109.15,-326.65C114.35,-318.03 121.52,-306.13 127.65,-295.98"/>
<polygon fill="black" stroke="black" points="130.72,-297.67 132.88,-287.3 124.72,-294.05 130.72,-297.67"/>
</g>
<!-- 28 -->
<g id="node8" class="node">
<title>28</title>
<ellipse fill="none" stroke="black" cx="38" cy="-928" rx="14.5" ry="14.5"/>
<text text-anchor="middle" x="38" y="-924.3" font-family="Times New Roman,serif" font-size="14.00">28</text>
</g>
<!-- 28&#45;&gt;4 -->
<g id="edge2" class="edge">
<title>28&#45;&gt;4</title>
<path fill="none" stroke="black" d="M38,-913.18C38,-889.22 38,-838.42 38,-795.5 38,-795.5 38,-795.5 38,-468.5 38,-425.57 67.15,-382.28 86.11,-358.68"/>
<polygon fill="black" stroke="black" points="88.86,-360.84 92.56,-350.91 83.48,-356.37 88.86,-360.84"/>
</g>
<!-- 5 -->
<g id="node10" class="node">
<title>5</title>
<ellipse fill="none" stroke="black" cx="104" cy="-469.5" rx="14.5" ry="14.5"/>
<text text-anchor="middle" x="104" y="-465.8" font-family="Times New Roman,serif" font-size="14.00">5</text>
</g>
<!-- 28&#45;&gt;5 -->
<g id="edge4" class="edge">
<title>28&#45;&gt;5</title>
<path fill="none" stroke="black" d="M31.89,-914.65C21.15,-891.75 0,-840.89 0,-795.5 0,-795.5 0,-795.5 0,-598.5 0,-546.34 52.66,-503.6 83.03,-483.29"/>
<polygon fill="black" stroke="black" points="85.16,-486.08 91.66,-477.72 81.36,-480.2 85.16,-486.08"/>
</g>
<!-- 28&#45;&gt;19 -->
<g id="edge27" class="edge">
<title>28&#45;&gt;19</title>
<path fill="none" stroke="black" d="M45.49,-915.42C51.64,-905.9 60.5,-892.2 67.84,-880.86"/>
<polygon fill="black" stroke="black" points="70.82,-882.7 73.31,-872.4 64.94,-878.9 70.82,-882.7"/>
</g>
<!-- 16 -->
<g id="node9" class="node">
<title>16</title>
<ellipse fill="none" stroke="black" cx="107" cy="-534.5" rx="14.5" ry="14.5"/>
<text text-anchor="middle" x="107" y="-530.8" font-family="Times New Roman,serif" font-size="14.00">16</text>
</g>
<!-- 16&#45;&gt;5 -->
<g id="edge3" class="edge">
<title>16&#45;&gt;5</title>
<path fill="none" stroke="black" d="M106.35,-519.83C106,-512.4 105.55,-503 105.14,-494.4"/>
<polygon fill="black" stroke="black" points="108.62,-493.97 104.65,-484.14 101.63,-494.3 108.62,-493.97"/>
</g>
<!-- 5&#45;&gt;13 -->
<g id="edge18" class="edge">
<title>5&#45;&gt;13</title>
<path fill="none" stroke="black" d="M104,-454.83C104,-447.4 104,-438 104,-429.4"/>
<polygon fill="black" stroke="black" points="107.5,-429.14 104,-419.14 100.5,-429.14 107.5,-429.14"/>
</g>
<!-- 6 -->
<g id="node12" class="node">
<title>6</title>
<ellipse fill="none" stroke="black" cx="161" cy="-79.5" rx="14.5" ry="14.5"/>
<text text-anchor="middle" x="161" y="-75.8" font-family="Times New Roman,serif" font-size="14.00">6</text>
</g>
<!-- 20&#45;&gt;6 -->
<g id="edge5" class="edge">
<title>20&#45;&gt;6</title>
<path fill="none" stroke="black" d="M141.48,-259.93C145.01,-227.47 153.98,-145.02 158.42,-104.17"/>
<polygon fill="black" stroke="black" points="161.92,-104.38 159.52,-94.06 154.96,-103.62 161.92,-104.38"/>
</g>
<!-- 10 -->
<g id="node18" class="node">
<title>10</title>
<ellipse fill="none" stroke="black" cx="183" cy="-209.5" rx="14.5" ry="14.5"/>
<text text-anchor="middle" x="183" y="-205.8" font-family="Times New Roman,serif" font-size="14.00">10</text>
</g>
<!-- 20&#45;&gt;10 -->
<g id="edge11" class="edge">
<title>20&#45;&gt;10</title>
<path fill="none" stroke="black" d="M147.89,-261.94C153.89,-253.15 162.29,-240.84 169.37,-230.46"/>
<polygon fill="black" stroke="black" points="172.42,-232.21 175.16,-221.98 166.63,-228.27 172.42,-232.21"/>
</g>
<!-- 6&#45;&gt;32 -->
<g id="edge47" class="edge">
<title>6&#45;&gt;32</title>
<path fill="none" stroke="black" d="M161,-64.83C161,-57.4 161,-48 161,-39.4"/>
<polygon fill="black" stroke="black" points="164.5,-39.14 161,-29.14 157.5,-39.14 164.5,-39.14"/>
</g>
<!-- 18 -->
<g id="node13" class="node">
<title>18</title>
<ellipse fill="none" stroke="black" cx="183" cy="-144.5" rx="14.5" ry="14.5"/>
<text text-anchor="middle" x="183" y="-140.8" font-family="Times New Roman,serif" font-size="14.00">18</text>
</g>
<!-- 18&#45;&gt;6 -->
<g id="edge6" class="edge">
<title>18&#45;&gt;6</title>
<path fill="none" stroke="black" d="M178.44,-130.45C175.7,-122.59 172.13,-112.37 168.94,-103.22"/>
<polygon fill="black" stroke="black" points="172.15,-101.82 165.55,-93.54 165.55,-104.13 172.15,-101.82"/>
</g>
<!-- 7 -->
<g id="node15" class="node">
<title>7</title>
<ellipse fill="none" stroke="black" cx="223" cy="-794.5" rx="14.5" ry="14.5"/>
<text text-anchor="middle" x="223" y="-790.8" font-family="Times New Roman,serif" font-size="14.00">7</text>
</g>
<!-- 19&#45;&gt;7 -->
<g id="edge7" class="edge">
<title>19&#45;&gt;7</title>
<path fill="none" stroke="black" d="M94.1,-852.69C118.41,-841.9 170.72,-818.7 200.69,-805.4"/>
<polygon fill="black" stroke="black" points="202.21,-808.55 209.93,-801.3 199.37,-802.16 202.21,-808.55"/>
</g>
<!-- 19&#45;&gt;8 -->
<g id="edge10" class="edge">
<title>19&#45;&gt;8</title>
<path fill="none" stroke="black" d="M91.6,-849.47C103.36,-839.46 122.54,-823.13 136.73,-811.05"/>
<polygon fill="black" stroke="black" points="139.07,-813.66 144.42,-804.51 134.53,-808.33 139.07,-813.66"/>
</g>
<!-- 7&#45;&gt;13 -->
<g id="edge17" class="edge">
<title>7&#45;&gt;13</title>
<path fill="none" stroke="black" d="M217.22,-781.09C207.28,-758.58 188,-709.27 188,-665.5 188,-665.5 188,-665.5 188,-533.5 188,-486.22 147.44,-442.84 122.69,-420.77"/>
<polygon fill="black" stroke="black" points="124.84,-418.01 114.98,-414.13 120.27,-423.31 124.84,-418.01"/>
</g>
<!-- 7&#45;&gt;12 -->
<g id="edge15" class="edge">
<title>7&#45;&gt;12</title>
<path fill="none" stroke="black" d="M230.52,-781.94C236.24,-773.15 244.26,-760.84 251.01,-750.46"/>
<polygon fill="black" stroke="black" points="254.01,-752.27 256.53,-741.98 248.14,-748.45 254.01,-752.27"/>
</g>
<!-- 11&#45;&gt;7 -->
<g id="edge8" class="edge">
<title>11&#45;&gt;7</title>
<path fill="none" stroke="black" d="M238.86,-845.45C236.36,-837.59 233.12,-827.37 230.21,-818.22"/>
<polygon fill="black" stroke="black" points="233.5,-817.01 227.14,-808.54 226.83,-819.13 233.5,-817.01"/>
</g>
<!-- 22 -->
<g id="node19" class="node">
<title>22</title>
<ellipse fill="none" stroke="black" cx="152" cy="-404.5" rx="14.5" ry="14.5"/>
<text text-anchor="middle" x="152" y="-400.8" font-family="Times New Roman,serif" font-size="14.00">22</text>
</g>
<!-- 8&#45;&gt;22 -->
<g id="edge33" class="edge">
<title>8&#45;&gt;22</title>
<path fill="none" stroke="black" d="M154.11,-779.68C152.67,-756.22 150,-707.09 150,-665.5 150,-665.5 150,-665.5 150,-533.5 150,-497.3 150.81,-455.34 151.4,-429.61"/>
<polygon fill="black" stroke="black" points="154.9,-429.41 151.64,-419.33 147.91,-429.24 154.9,-429.41"/>
</g>
<!-- 10&#45;&gt;18 -->
<g id="edge25" class="edge">
<title>10&#45;&gt;18</title>
<path fill="none" stroke="black" d="M183,-194.83C183,-187.4 183,-178 183,-169.4"/>
<polygon fill="black" stroke="black" points="186.5,-169.14 183,-159.14 179.5,-169.14 186.5,-169.14"/>
</g>
<!-- 22&#45;&gt;20 -->
<g id="edge29" class="edge">
<title>22&#45;&gt;20</title>
<path fill="none" stroke="black" d="M150.72,-389.8C148.69,-368.15 144.71,-325.74 142.21,-299.11"/>
<polygon fill="black" stroke="black" points="145.69,-298.73 141.27,-289.1 138.72,-299.38 145.69,-298.73"/>
</g>
<!-- 22&#45;&gt;10 -->
<g id="edge12" class="edge">
<title>22&#45;&gt;10</title>
<path fill="none" stroke="black" d="M154.18,-390.05C155.79,-380.1 158.04,-366.2 160,-354 166.8,-311.78 174.68,-262.56 179.22,-234.12"/>
<polygon fill="black" stroke="black" points="182.73,-234.38 180.85,-223.95 175.81,-233.28 182.73,-234.38"/>
</g>
<!-- 24&#45;&gt;11 -->
<g id="edge13" class="edge">
<title>24&#45;&gt;11</title>
<path fill="none" stroke="black" d="M349.71,-920.13C329.58,-908.88 289.33,-886.39 264.42,-872.47"/>
<polygon fill="black" stroke="black" points="265.84,-869.25 255.4,-867.43 262.42,-875.36 265.84,-869.25"/>
</g>
<!-- 21 -->
<g id="node25" class="node">
<title>21</title>
<ellipse fill="none" stroke="black" cx="330" cy="-534.5" rx="14.5" ry="14.5"/>
<text text-anchor="middle" x="330" y="-530.8" font-family="Times New Roman,serif" font-size="14.00">21</text>
</g>
<!-- 24&#45;&gt;21 -->
<g id="edge31" class="edge">
<title>24&#45;&gt;21</title>
<path fill="none" stroke="black" d="M364.98,-913.74C371.81,-882.17 388,-800.01 388,-730.5 388,-730.5 388,-730.5 388,-663.5 388,-621.75 362.08,-578.62 344.9,-554.61"/>
<polygon fill="black" stroke="black" points="347.57,-552.34 338.81,-546.39 341.95,-556.51 347.57,-552.34"/>
</g>
<!-- 26 -->
<g id="node28" class="node">
<title>26</title>
<ellipse fill="none" stroke="black" cx="409" cy="-859.5" rx="14.5" ry="14.5"/>
<text text-anchor="middle" x="409" y="-855.8" font-family="Times New Roman,serif" font-size="14.00">26</text>
</g>
<!-- 24&#45;&gt;26 -->
<g id="edge42" class="edge">
<title>24&#45;&gt;26</title>
<path fill="none" stroke="black" d="M369.97,-915.72C376.82,-906.03 386.85,-891.85 395.02,-880.28"/>
<polygon fill="black" stroke="black" points="397.92,-882.25 400.83,-872.06 392.2,-878.21 397.92,-882.25"/>
</g>
<!-- 12&#45;&gt;18 -->
<g id="edge26" class="edge">
<title>12&#45;&gt;18</title>
<path fill="none" stroke="black" d="M257.73,-716.15C246.93,-693.72 226,-644.54 226,-600.5 226,-600.5 226,-600.5 226,-273.5 226,-233.97 207.35,-190.98 194.61,-166.24"/>
<polygon fill="black" stroke="black" points="197.7,-164.59 189.91,-157.41 191.52,-167.88 197.7,-164.59"/>
</g>
<!-- 12&#45;&gt;14 -->
<g id="edge19" class="edge">
<title>12&#45;&gt;14</title>
<path fill="none" stroke="black" d="M271.89,-716.94C277.89,-708.15 286.29,-695.84 293.37,-685.46"/>
<polygon fill="black" stroke="black" points="296.42,-687.21 299.16,-676.98 290.63,-683.27 296.42,-687.21"/>
</g>
<!-- 17 -->
<g id="node23" class="node">
<title>17</title>
<ellipse fill="none" stroke="black" cx="269" cy="-599.5" rx="14.5" ry="14.5"/>
<text text-anchor="middle" x="269" y="-595.8" font-family="Times New Roman,serif" font-size="14.00">17</text>
</g>
<!-- 12&#45;&gt;17 -->
<g id="edge23" class="edge">
<title>12&#45;&gt;17</title>
<path fill="none" stroke="black" d="M264.54,-714.8C265.38,-693.15 267.04,-650.74 268.08,-624.11"/>
<polygon fill="black" stroke="black" points="271.58,-624.23 268.47,-614.1 264.58,-623.96 271.58,-624.23"/>
</g>
<!-- 14&#45;&gt;17 -->
<g id="edge24" class="edge">
<title>14&#45;&gt;17</title>
<path fill="none" stroke="black" d="M299.85,-651.65C294.65,-643.03 287.48,-631.13 281.35,-620.98"/>
<polygon fill="black" stroke="black" points="284.28,-619.05 276.12,-612.3 278.28,-622.67 284.28,-619.05"/>
</g>
<!-- 31 -->
<g id="node26" class="node">
<title>31</title>
<ellipse fill="none" stroke="black" cx="330" cy="-599.5" rx="14.5" ry="14.5"/>
<text text-anchor="middle" x="330" y="-595.8" font-family="Times New Roman,serif" font-size="14.00">31</text>
</g>
<!-- 14&#45;&gt;31 -->
<g id="edge46" class="edge">
<title>14&#45;&gt;31</title>
<path fill="none" stroke="black" d="M311.65,-650.75C314.55,-642.83 318.35,-632.42 321.74,-623.13"/>
<polygon fill="black" stroke="black" points="325.05,-624.26 325.19,-613.66 318.48,-621.86 325.05,-624.26"/>
</g>
<!-- 17&#45;&gt;16 -->
<g id="edge21" class="edge">
<title>17&#45;&gt;16</title>
<path fill="none" stroke="black" d="M255.74,-593.34C228.21,-582.64 164.55,-557.88 130.12,-544.49"/>
<polygon fill="black" stroke="black" points="131.03,-541.09 120.44,-540.73 128.49,-547.61 131.03,-541.09"/>
</g>
<!-- 25&#45;&gt;28 -->
<g id="edge43" class="edge">
<title>25&#45;&gt;28</title>
<path fill="none" stroke="black" d="M113.11,-990.13C99.02,-978.67 74.25,-958.51 57.03,-944.49"/>
<polygon fill="black" stroke="black" points="58.77,-941.39 48.8,-937.79 54.35,-946.82 58.77,-941.39"/>
</g>
<!-- 25&#45;&gt;16 -->
<g id="edge22" class="edge">
<title>25&#45;&gt;16</title>
<path fill="none" stroke="black" d="M122.96,-985.32C120.04,-945.83 112,-828.26 112,-730.5 112,-730.5 112,-730.5 112,-663.5 112,-627.27 109.98,-585.32 108.5,-559.6"/>
<polygon fill="black" stroke="black" points="111.98,-559.1 107.89,-549.32 104.99,-559.51 111.98,-559.1"/>
</g>
<!-- 23 -->
<g id="node27" class="node">
<title>23</title>
<ellipse fill="none" stroke="black" cx="345" cy="-794.5" rx="14.5" ry="14.5"/>
<text text-anchor="middle" x="345" y="-790.8" font-family="Times New Roman,serif" font-size="14.00">23</text>
</g>
<!-- 25&#45;&gt;23 -->
<g id="edge35" class="edge">
<title>25&#45;&gt;23</title>
<path fill="none" stroke="black" d="M128.83,-985.91C140.24,-956.65 171.61,-885.36 220,-845 249.91,-820.05 293.93,-806.6 320.96,-800.25"/>
<polygon fill="black" stroke="black" points="321.75,-803.66 330.76,-798.09 320.24,-796.83 321.75,-803.66"/>
</g>
<!-- 21&#45;&gt;22 -->
<g id="edge34" class="edge">
<title>21&#45;&gt;22</title>
<path fill="none" stroke="black" d="M318.59,-525.3C289.03,-504.04 209.6,-446.92 172.11,-419.96"/>
<polygon fill="black" stroke="black" points="173.7,-416.8 163.54,-413.8 169.62,-422.48 173.7,-416.8"/>
</g>
<!-- 31&#45;&gt;21 -->
<g id="edge32" class="edge">
<title>31&#45;&gt;21</title>
<path fill="none" stroke="black" d="M330,-584.83C330,-577.4 330,-568 330,-559.4"/>
<polygon fill="black" stroke="black" points="333.5,-559.14 330,-549.14 326.5,-559.14 333.5,-559.14"/>
</g>
<!-- 23&#45;&gt;31 -->
<g id="edge45" class="edge">
<title>23&#45;&gt;31</title>
<path fill="none" stroke="black" d="M343.95,-779.93C341.42,-747.47 335.01,-665.02 331.84,-624.17"/>
<polygon fill="black" stroke="black" points="335.32,-623.76 331.05,-614.06 328.34,-624.3 335.32,-623.76"/>
</g>
<!-- 26&#45;&gt;23 -->
<g id="edge36" class="edge">
<title>26&#45;&gt;23</title>
<path fill="none" stroke="black" d="M399,-848.66C389.19,-839 374.05,-824.09 362.29,-812.52"/>
<polygon fill="black" stroke="black" points="364.72,-810 355.14,-805.48 359.81,-814.99 364.72,-810"/>
</g>
<!-- 30 -->
<g id="node29" class="node">
<title>30</title>
</g>
<!-- 30&#45;&gt;26 -->
<g id="edge41" class="edge">
<title>30&#45;&gt;26</title>
<path fill="none" stroke="black" d="M409,-909.87C409,-902.08 409,-892.73 409,-884.27"/>
<polygon fill="black" stroke="black" points="412.5,-884.22 409,-874.22 405.5,-884.22 412.5,-884.22"/>
</g>
<!-- 29 -->
<g id="node30" class="node">
<title>29</title>
</g>
<!-- 29&#45;&gt;28 -->
<g id="edge44" class="edge">
<title>29&#45;&gt;28</title>
<path fill="none" stroke="black" d="M38,-981.7C38,-972.99 38,-962.3 38,-952.83"/>
<polygon fill="black" stroke="black" points="41.5,-952.82 38,-942.82 34.5,-952.82 41.5,-952.82"/>
</g>
</g>
</svg>
