<?xml version="1.0" encoding="UTF-8" standalone="no"?>
<!DOCTYPE svg PUBLIC "-//W3C//DTD SVG 1.1//EN"
 "http://www.w3.org/Graphics/SVG/1.1/DTD/svg11.dtd">
<!-- Generated by graphviz version 2.50.0 (0)
 -->
<!-- Title: MVGComplexG7_3 Pages: 1 -->
<svg width="244pt" height="492pt"
 viewBox="0.00 0.00 244.00 492.00" xmlns="http://www.w3.org/2000/svg" xmlns:xlink="http://www.w3.org/1999/xlink">
<g id="graph0" class="graph" transform="scale(1 1) rotate(0) translate(4 488)">
<title>MVGComplexG7_3</title>
<polygon fill="white" stroke="transparent" points="-4,4 -4,-488 240,-488 240,4 -4,4"/>
<!-- 0 -->
<g id="node1" class="node">
<title>0</title>
<ellipse fill="none" stroke="black" cx="90.5" cy="-469.5" rx="14.5" ry="14.5"/>
<text text-anchor="middle" x="90.5" y="-465.8" font-family="Times New Roman,serif" font-size="14.00">x</text>
</g>
<!-- 8 -->
<g id="node8" class="node">
<title>8</title>
<ellipse fill="none" stroke="black" cx="57.5" cy="-404.5" rx="14.5" ry="14.5"/>
<text text-anchor="middle" x="57.5" y="-400.8" font-family="Times New Roman,serif" font-size="14.00">8</text>
</g>
<!-- 0&#45;&gt;8 -->
<g id="edge4" class="edge">
<title>0&#45;&gt;8</title>
<path fill="none" stroke="black" d="M84.14,-456.35C79.71,-447.9 73.69,-436.41 68.49,-426.49"/>
<polygon fill="black" stroke="black" points="71.58,-424.84 63.84,-417.61 65.38,-428.09 71.58,-424.84"/>
</g>
<!-- 27 -->
<g id="node11" class="node">
<title>27</title>
<ellipse fill="none" stroke="black" cx="100.5" cy="-339.5" rx="14.5" ry="14.5"/>
<text text-anchor="middle" x="100.5" y="-335.8" font-family="Times New Roman,serif" font-size="14.00">27</text>
</g>
<!-- 0&#45;&gt;27 -->
<g id="edge19" class="edge">
<title>0&#45;&gt;27</title>
<path fill="none" stroke="black" d="M91.57,-454.8C93.26,-433.15 96.57,-390.74 98.66,-364.11"/>
<polygon fill="black" stroke="black" points="102.15,-364.34 99.44,-354.1 95.17,-363.8 102.15,-364.34"/>
</g>
<!-- 1 -->
<g id="node2" class="node">
<title>1</title>
<ellipse fill="none" stroke="black" cx="33.5" cy="-469.5" rx="14.5" ry="14.5"/>
<text text-anchor="middle" x="33.5" y="-465.8" font-family="Times New Roman,serif" font-size="14.00">y</text>
</g>
<!-- 1&#45;&gt;8 -->
<g id="edge3" class="edge">
<title>1&#45;&gt;8</title>
<path fill="none" stroke="black" d="M38.36,-455.75C41.41,-447.72 45.45,-437.14 49.02,-427.76"/>
<polygon fill="black" stroke="black" points="52.36,-428.82 52.65,-418.23 45.82,-426.33 52.36,-428.82"/>
</g>
<!-- 17 -->
<g id="node10" class="node">
<title>17</title>
<ellipse fill="none" stroke="black" cx="14.5" cy="-339.5" rx="14.5" ry="14.5"/>
<text text-anchor="middle" x="14.5" y="-335.8" font-family="Times New Roman,serif" font-size="14.00">17</text>
</g>
<!-- 1&#45;&gt;17 -->
<g id="edge14" class="edge">
<title>1&#45;&gt;17</title>
<path fill="none" stroke="black" d="M31.47,-454.8C28.25,-433.15 21.96,-390.74 18.01,-364.11"/>
<polygon fill="black" stroke="black" points="21.45,-363.48 16.52,-354.1 14.53,-364.51 21.45,-363.48"/>
</g>
<!-- 2 -->
<g id="node3" class="node">
<title>2</title>
<ellipse fill="none" stroke="black" cx="221.5" cy="-404.5" rx="14.5" ry="14.5"/>
<text text-anchor="middle" x="221.5" y="-400.8" font-family="Times New Roman,serif" font-size="14.00">z</text>
</g>
<!-- 9 -->
<g id="node9" class="node">
<title>9</title>
<ellipse fill="none" stroke="black" cx="188.5" cy="-339.5" rx="14.5" ry="14.5"/>
<text text-anchor="middle" x="188.5" y="-335.8" font-family="Times New Roman,serif" font-size="14.00">9</text>
</g>
<!-- 2&#45;&gt;9 -->
<g id="edge6" class="edge">
<title>2&#45;&gt;9</title>
<path fill="none" stroke="black" d="M215.14,-391.35C210.71,-382.9 204.69,-371.41 199.49,-361.49"/>
<polygon fill="black" stroke="black" points="202.58,-359.84 194.84,-352.61 196.38,-363.09 202.58,-359.84"/>
</g>
<!-- 25 -->
<g id="node14" class="node">
<title>25</title>
<ellipse fill="none" stroke="black" cx="194.5" cy="-274.5" rx="14.5" ry="14.5"/>
<text text-anchor="middle" x="194.5" y="-270.8" font-family="Times New Roman,serif" font-size="14.00">25</text>
</g>
<!-- 2&#45;&gt;25 -->
<g id="edge17" class="edge">
<title>2&#45;&gt;25</title>
<path fill="none" stroke="black" d="M220.91,-390C220.01,-374.23 217.79,-347.43 212.5,-325 210.35,-315.89 207.04,-306.15 203.85,-297.74"/>
<polygon fill="black" stroke="black" points="207.03,-296.28 200.09,-288.27 200.53,-298.86 207.03,-296.28"/>
</g>
<!-- 3 -->
<g id="node4" class="node">
<title>3</title>
<ellipse fill="none" stroke="black" cx="155.5" cy="-404.5" rx="14.5" ry="14.5"/>
<text text-anchor="middle" x="155.5" y="-400.8" font-family="Times New Roman,serif" font-size="14.00">w</text>
</g>
<!-- 3&#45;&gt;9 -->
<g id="edge5" class="edge">
<title>3&#45;&gt;9</title>
<path fill="none" stroke="black" d="M161.86,-391.35C166.29,-382.9 172.31,-371.41 177.51,-361.49"/>
<polygon fill="black" stroke="black" points="180.62,-363.09 182.16,-352.61 174.42,-359.84 180.62,-363.09"/>
</g>
<!-- 29 -->
<g id="node12" class="node">
<title>29</title>
<ellipse fill="none" stroke="black" cx="147.5" cy="-274.5" rx="14.5" ry="14.5"/>
<text text-anchor="middle" x="147.5" y="-270.8" font-family="Times New Roman,serif" font-size="14.00">29</text>
</g>
<!-- 3&#45;&gt;29 -->
<g id="edge22" class="edge">
<title>3&#45;&gt;29</title>
<path fill="none" stroke="black" d="M154.64,-389.8C153.29,-368.15 150.64,-325.74 148.98,-299.11"/>
<polygon fill="black" stroke="black" points="152.47,-298.86 148.35,-289.1 145.48,-299.3 152.47,-298.86"/>
</g>
<!-- 32 -->
<g id="node5" class="node">
<title>32</title>
<ellipse fill="none" stroke="black" cx="121.5" cy="-14.5" rx="14.5" ry="14.5"/>
<text text-anchor="middle" x="121.5" y="-10.8" font-family="Times New Roman,serif" font-size="14.00">out</text>
</g>
<!-- 11 -->
<g id="node6" class="node">
<title>11</title>
<ellipse fill="none" stroke="black" cx="100.5" cy="-274.5" rx="14.5" ry="14.5"/>
<text text-anchor="middle" x="100.5" y="-270.8" font-family="Times New Roman,serif" font-size="14.00">11</text>
</g>
<!-- 5 -->
<g id="node7" class="node">
<title>5</title>
<ellipse fill="none" stroke="black" cx="100.5" cy="-209.5" rx="14.5" ry="14.5"/>
<text text-anchor="middle" x="100.5" y="-205.8" font-family="Times New Roman,serif" font-size="14.00">5</text>
</g>
<!-- 11&#45;&gt;5 -->
<g id="edge1" class="edge">
<title>11&#45;&gt;5</title>
<path fill="none" stroke="black" d="M100.5,-259.83C100.5,-252.4 100.5,-243 100.5,-234.4"/>
<polygon fill="black" stroke="black" points="104,-234.14 100.5,-224.14 97,-234.14 104,-234.14"/>
</g>
<!-- 18 -->
<g id="node15" class="node">
<title>18</title>
<ellipse fill="none" stroke="black" cx="143.5" cy="-144.5" rx="14.5" ry="14.5"/>
<text text-anchor="middle" x="143.5" y="-140.8" font-family="Times New Roman,serif" font-size="14.00">18</text>
</g>
<!-- 5&#45;&gt;18 -->
<g id="edge16" class="edge">
<title>5&#45;&gt;18</title>
<path fill="none" stroke="black" d="M108.39,-196.94C114.39,-188.15 122.79,-175.84 129.87,-165.46"/>
<polygon fill="black" stroke="black" points="132.92,-167.21 135.66,-156.98 127.13,-163.27 132.92,-167.21"/>
</g>
<!-- 16 -->
<g id="node16" class="node">
<title>16</title>
<ellipse fill="none" stroke="black" cx="121.5" cy="-79.5" rx="14.5" ry="14.5"/>
<text text-anchor="middle" x="121.5" y="-75.8" font-family="Times New Roman,serif" font-size="14.00">16</text>
</g>
<!-- 5&#45;&gt;16 -->
<g id="edge12" class="edge">
<title>5&#45;&gt;16</title>
<path fill="none" stroke="black" d="M102.75,-194.8C106.3,-173.15 113.26,-130.74 117.63,-104.11"/>
<polygon fill="black" stroke="black" points="121.1,-104.53 119.27,-94.1 114.2,-103.4 121.1,-104.53"/>
</g>
<!-- 8&#45;&gt;5 -->
<g id="edge2" class="edge">
<title>8&#45;&gt;5</title>
<path fill="none" stroke="black" d="M57.87,-389.74C58.88,-363.83 62.63,-306.21 76.5,-260 79.45,-250.16 84.16,-239.86 88.62,-231.21"/>
<polygon fill="black" stroke="black" points="91.78,-232.73 93.46,-222.27 85.62,-229.4 91.78,-232.73"/>
</g>
<!-- 8&#45;&gt;17 -->
<g id="edge13" class="edge">
<title>8&#45;&gt;17</title>
<path fill="none" stroke="black" d="M49.61,-391.94C43.61,-383.15 35.21,-370.84 28.13,-360.46"/>
<polygon fill="black" stroke="black" points="30.87,-358.27 22.34,-351.98 25.08,-362.21 30.87,-358.27"/>
</g>
<!-- 8&#45;&gt;27 -->
<g id="edge20" class="edge">
<title>8&#45;&gt;27</title>
<path fill="none" stroke="black" d="M65.39,-391.94C71.39,-383.15 79.79,-370.84 86.87,-360.46"/>
<polygon fill="black" stroke="black" points="89.92,-362.21 92.66,-351.98 84.13,-358.27 89.92,-362.21"/>
</g>
<!-- 9&#45;&gt;29 -->
<g id="edge21" class="edge">
<title>9&#45;&gt;29</title>
<path fill="none" stroke="black" d="M180.98,-326.94C175.26,-318.15 167.24,-305.84 160.49,-295.46"/>
<polygon fill="black" stroke="black" points="163.36,-293.45 154.97,-286.98 157.49,-297.27 163.36,-293.45"/>
</g>
<!-- 9&#45;&gt;25 -->
<g id="edge18" class="edge">
<title>9&#45;&gt;25</title>
<path fill="none" stroke="black" d="M189.8,-324.83C190.52,-317.32 191.43,-307.79 192.25,-299.11"/>
<polygon fill="black" stroke="black" points="195.74,-299.43 193.2,-289.14 188.77,-298.77 195.74,-299.43"/>
</g>
<!-- 17&#45;&gt;11 -->
<g id="edge7" class="edge">
<title>17&#45;&gt;11</title>
<path fill="none" stroke="black" d="M25.74,-330.26C39.78,-319.98 64.01,-302.23 81.08,-289.73"/>
<polygon fill="black" stroke="black" points="83.26,-292.47 89.25,-283.74 79.12,-286.82 83.26,-292.47"/>
</g>
<!-- 27&#45;&gt;11 -->
<g id="edge8" class="edge">
<title>27&#45;&gt;11</title>
<path fill="none" stroke="black" d="M100.5,-324.83C100.5,-317.4 100.5,-308 100.5,-299.4"/>
<polygon fill="black" stroke="black" points="104,-299.14 100.5,-289.14 97,-299.14 104,-299.14"/>
</g>
<!-- 12 -->
<g id="node13" class="node">
<title>12</title>
<ellipse fill="none" stroke="black" cx="147.5" cy="-209.5" rx="14.5" ry="14.5"/>
<text text-anchor="middle" x="147.5" y="-205.8" font-family="Times New Roman,serif" font-size="14.00">12</text>
</g>
<!-- 29&#45;&gt;12 -->
<g id="edge9" class="edge">
<title>29&#45;&gt;12</title>
<path fill="none" stroke="black" d="M147.5,-259.83C147.5,-252.4 147.5,-243 147.5,-234.4"/>
<polygon fill="black" stroke="black" points="151,-234.14 147.5,-224.14 144,-234.14 151,-234.14"/>
</g>
<!-- 12&#45;&gt;18 -->
<g id="edge15" class="edge">
<title>12&#45;&gt;18</title>
<path fill="none" stroke="black" d="M146.63,-194.83C146.16,-187.4 145.56,-178 145.02,-169.4"/>
<polygon fill="black" stroke="black" points="148.49,-168.9 144.37,-159.14 141.51,-169.35 148.49,-168.9"/>
</g>
<!-- 25&#45;&gt;12 -->
<g id="edge10" class="edge">
<title>25&#45;&gt;12</title>
<path fill="none" stroke="black" d="M186.31,-262.53C179.59,-253.51 169.9,-240.53 161.89,-229.79"/>
<polygon fill="black" stroke="black" points="164.69,-227.69 155.91,-221.77 159.08,-231.88 164.69,-227.69"/>
</g>
<!-- 18&#45;&gt;16 -->
<g id="edge11" class="edge">
<title>18&#45;&gt;16</title>
<path fill="none" stroke="black" d="M138.94,-130.45C136.2,-122.59 132.63,-112.37 129.44,-103.22"/>
<polygon fill="black" stroke="black" points="132.65,-101.82 126.05,-93.54 126.05,-104.13 132.65,-101.82"/>
</g>
<!-- 16&#45;&gt;32 -->
<g id="edge23" class="edge">
<title>16&#45;&gt;32</title>
<path fill="none" stroke="black" d="M121.5,-64.83C121.5,-57.4 121.5,-48 121.5,-39.4"/>
<polygon fill="black" stroke="black" points="125,-39.14 121.5,-29.14 118,-39.14 125,-39.14"/>
</g>
</g>
</svg>
