<?xml version="1.0" encoding="UTF-8" standalone="no"?>
<!DOCTYPE svg PUBLIC "-//W3C//DTD SVG 1.1//EN"
 "http://www.w3.org/Graphics/SVG/1.1/DTD/svg11.dtd">
<!-- Generated by graphviz version 2.50.0 (0)
 -->
<!-- Title: MVGComplexG8_8 Pages: 1 -->
<svg width="222pt" height="629pt"
 viewBox="0.00 0.00 221.62 629.00" xmlns="http://www.w3.org/2000/svg" xmlns:xlink="http://www.w3.org/1999/xlink">
<g id="graph0" class="graph" transform="scale(1 1) rotate(0) translate(4 625)">
<title>MVGComplexG8_8</title>
<polygon fill="white" stroke="transparent" points="-4,4 -4,-625 217.62,-625 217.62,4 -4,4"/>
<!-- 0 -->
<g id="node1" class="node">
<title>0</title>
<ellipse fill="none" stroke="black" cx="26.12" cy="-408" rx="14.5" ry="14.5"/>
<text text-anchor="middle" x="26.12" y="-404.3" font-family="Times New Roman,serif" font-size="14.00">x</text>
</g>
<!-- 24 -->
<g id="node10" class="node">
<title>24</title>
<ellipse fill="none" stroke="black" cx="26.12" cy="-274.5" rx="14.5" ry="14.5"/>
<text text-anchor="middle" x="26.12" y="-270.8" font-family="Times New Roman,serif" font-size="14.00">24</text>
</g>
<!-- 0&#45;&gt;24 -->
<g id="edge18" class="edge">
<title>0&#45;&gt;24</title>
<path fill="none" stroke="black" d="M19.06,-395.3C13.22,-384.88 5.36,-369.01 2.12,-354 -0.6,-341.4 -0.76,-337.56 2.12,-325 4.42,-314.99 9.02,-304.66 13.59,-296.04"/>
<polygon fill="black" stroke="black" points="16.74,-297.57 18.6,-287.14 10.64,-294.13 16.74,-297.57"/>
</g>
<!-- 11 -->
<g id="node13" class="node">
<title>11</title>
<ellipse fill="none" stroke="black" cx="73.12" cy="-339.5" rx="14.5" ry="14.5"/>
<text text-anchor="middle" x="73.12" y="-335.8" font-family="Times New Roman,serif" font-size="14.00">11</text>
</g>
<!-- 0&#45;&gt;11 -->
<g id="edge10" class="edge">
<title>0&#45;&gt;11</title>
<path fill="none" stroke="black" d="M34.1,-395.72C40.94,-386.03 50.97,-371.85 59.14,-360.28"/>
<polygon fill="black" stroke="black" points="62.04,-362.25 64.95,-352.06 56.32,-358.21 62.04,-362.25"/>
</g>
<!-- 20 -->
<g id="node14" class="node">
<title>20</title>
<ellipse fill="none" stroke="black" cx="26.12" cy="-339.5" rx="14.5" ry="14.5"/>
<text text-anchor="middle" x="26.12" y="-335.8" font-family="Times New Roman,serif" font-size="14.00">20</text>
</g>
<!-- 0&#45;&gt;20 -->
<g id="edge13" class="edge">
<title>0&#45;&gt;20</title>
<path fill="none" stroke="black" d="M26.12,-393.22C26.12,-384.93 26.12,-374.14 26.12,-364.49"/>
<polygon fill="black" stroke="black" points="29.62,-364.26 26.12,-354.26 22.62,-364.26 29.62,-364.26"/>
</g>
<!-- 1 -->
<g id="node2" class="node">
<title>1</title>
<ellipse fill="none" stroke="black" cx="90.12" cy="-408" rx="14.5" ry="14.5"/>
<text text-anchor="middle" x="90.12" y="-404.3" font-family="Times New Roman,serif" font-size="14.00">y</text>
</g>
<!-- 30 -->
<g id="node12" class="node">
<title>30</title>
<ellipse fill="none" stroke="black" cx="92.12" cy="-274.5" rx="14.5" ry="14.5"/>
<text text-anchor="middle" x="92.12" y="-270.8" font-family="Times New Roman,serif" font-size="14.00">30</text>
</g>
<!-- 1&#45;&gt;30 -->
<g id="edge23" class="edge">
<title>1&#45;&gt;30</title>
<path fill="none" stroke="black" d="M92.07,-393.53C93.52,-382.84 95.36,-367.5 96.12,-354 96.85,-341.13 96.64,-337.88 96.12,-325 95.79,-316.71 95.14,-307.65 94.46,-299.58"/>
<polygon fill="black" stroke="black" points="97.92,-299 93.54,-289.35 90.95,-299.62 97.92,-299"/>
</g>
<!-- 1&#45;&gt;20 -->
<g id="edge14" class="edge">
<title>1&#45;&gt;20</title>
<path fill="none" stroke="black" d="M80.4,-396.9C70.53,-386.65 55.06,-370.56 43.15,-358.19"/>
<polygon fill="black" stroke="black" points="45.39,-355.47 35.93,-350.69 40.35,-360.33 45.39,-355.47"/>
</g>
<!-- 2 -->
<g id="node3" class="node">
<title>2</title>
<ellipse fill="none" stroke="black" cx="129.12" cy="-606.5" rx="14.5" ry="14.5"/>
<text text-anchor="middle" x="129.12" y="-602.8" font-family="Times New Roman,serif" font-size="14.00">z</text>
</g>
<!-- 14 -->
<g id="node6" class="node">
<title>14</title>
<ellipse fill="none" stroke="black" cx="153.12" cy="-541.5" rx="14.5" ry="14.5"/>
<text text-anchor="middle" x="153.12" y="-537.8" font-family="Times New Roman,serif" font-size="14.00">14</text>
</g>
<!-- 2&#45;&gt;14 -->
<g id="edge12" class="edge">
<title>2&#45;&gt;14</title>
<path fill="none" stroke="black" d="M133.98,-592.75C137.04,-584.72 141.07,-574.14 144.64,-564.76"/>
<polygon fill="black" stroke="black" points="147.98,-565.82 148.27,-555.23 141.44,-563.33 147.98,-565.82"/>
</g>
<!-- 4 -->
<g id="node7" class="node">
<title>4</title>
<ellipse fill="none" stroke="black" cx="129.12" cy="-476.5" rx="14.5" ry="14.5"/>
<text text-anchor="middle" x="129.12" y="-472.8" font-family="Times New Roman,serif" font-size="14.00">4</text>
</g>
<!-- 2&#45;&gt;4 -->
<g id="edge2" class="edge">
<title>2&#45;&gt;4</title>
<path fill="none" stroke="black" d="M129.12,-591.8C129.12,-570.15 129.12,-527.74 129.12,-501.11"/>
<polygon fill="black" stroke="black" points="132.62,-501.1 129.12,-491.1 125.62,-501.1 132.62,-501.1"/>
</g>
<!-- 3 -->
<g id="node4" class="node">
<title>3</title>
<ellipse fill="none" stroke="black" cx="186.12" cy="-606.5" rx="14.5" ry="14.5"/>
<text text-anchor="middle" x="186.12" y="-602.8" font-family="Times New Roman,serif" font-size="14.00">w</text>
</g>
<!-- 3&#45;&gt;14 -->
<g id="edge11" class="edge">
<title>3&#45;&gt;14</title>
<path fill="none" stroke="black" d="M179.76,-593.35C175.33,-584.9 169.31,-573.41 164.12,-563.49"/>
<polygon fill="black" stroke="black" points="167.21,-561.84 159.47,-554.61 161.01,-565.09 167.21,-561.84"/>
</g>
<!-- 10 -->
<g id="node8" class="node">
<title>10</title>
<ellipse fill="none" stroke="black" cx="176.12" cy="-476.5" rx="14.5" ry="14.5"/>
<text text-anchor="middle" x="176.12" y="-472.8" font-family="Times New Roman,serif" font-size="14.00">10</text>
</g>
<!-- 3&#45;&gt;10 -->
<g id="edge7" class="edge">
<title>3&#45;&gt;10</title>
<path fill="none" stroke="black" d="M185.05,-591.8C183.36,-570.15 180.05,-527.74 177.97,-501.11"/>
<polygon fill="black" stroke="black" points="181.45,-500.8 177.18,-491.1 174.47,-501.34 181.45,-500.8"/>
</g>
<!-- 32 -->
<g id="node5" class="node">
<title>32</title>
<ellipse fill="none" stroke="black" cx="175.12" cy="-14.5" rx="14.5" ry="14.5"/>
<text text-anchor="middle" x="175.12" y="-10.8" font-family="Times New Roman,serif" font-size="14.00">out</text>
</g>
<!-- 14&#45;&gt;4 -->
<g id="edge1" class="edge">
<title>14&#45;&gt;4</title>
<path fill="none" stroke="black" d="M148.27,-527.75C145.21,-519.72 141.18,-509.14 137.6,-499.76"/>
<polygon fill="black" stroke="black" points="140.8,-498.33 133.97,-490.23 134.26,-500.82 140.8,-498.33"/>
</g>
<!-- 14&#45;&gt;10 -->
<g id="edge8" class="edge">
<title>14&#45;&gt;10</title>
<path fill="none" stroke="black" d="M157.78,-527.75C160.67,-519.83 164.47,-509.42 167.86,-500.13"/>
<polygon fill="black" stroke="black" points="171.17,-501.26 171.32,-490.66 164.6,-498.86 171.17,-501.26"/>
</g>
<!-- 6 -->
<g id="node9" class="node">
<title>6</title>
<ellipse fill="none" stroke="black" cx="152.12" cy="-408" rx="14.5" ry="14.5"/>
<text text-anchor="middle" x="152.12" y="-404.3" font-family="Times New Roman,serif" font-size="14.00">6</text>
</g>
<!-- 4&#45;&gt;6 -->
<g id="edge4" class="edge">
<title>4&#45;&gt;6</title>
<path fill="none" stroke="black" d="M133.56,-462.68C136.57,-453.96 140.65,-442.18 144.21,-431.88"/>
<polygon fill="black" stroke="black" points="147.58,-432.83 147.54,-422.24 140.97,-430.54 147.58,-432.83"/>
</g>
<!-- 10&#45;&gt;6 -->
<g id="edge3" class="edge">
<title>10&#45;&gt;6</title>
<path fill="none" stroke="black" d="M171.49,-462.68C168.31,-453.85 163.99,-441.88 160.24,-431.48"/>
<polygon fill="black" stroke="black" points="163.42,-430 156.74,-421.78 156.84,-432.38 163.42,-430"/>
</g>
<!-- 6&#45;&gt;11 -->
<g id="edge9" class="edge">
<title>6&#45;&gt;11</title>
<path fill="none" stroke="black" d="M141.47,-398.03C128.75,-387.32 107.25,-369.23 91.75,-356.18"/>
<polygon fill="black" stroke="black" points="93.76,-353.3 83.86,-349.54 89.26,-358.66 93.76,-353.3"/>
</g>
<!-- 23 -->
<g id="node15" class="node">
<title>23</title>
<ellipse fill="none" stroke="black" cx="154.12" cy="-144.5" rx="14.5" ry="14.5"/>
<text text-anchor="middle" x="154.12" y="-140.8" font-family="Times New Roman,serif" font-size="14.00">23</text>
</g>
<!-- 6&#45;&gt;23 -->
<g id="edge16" class="edge">
<title>6&#45;&gt;23</title>
<path fill="none" stroke="black" d="M152.23,-393.31C152.55,-351.12 153.53,-222.74 153.94,-169.27"/>
<polygon fill="black" stroke="black" points="157.44,-169.08 154.02,-159.06 150.44,-169.03 157.44,-169.08"/>
</g>
<!-- 28 -->
<g id="node16" class="node">
<title>28</title>
<ellipse fill="none" stroke="black" cx="197.12" cy="-339.5" rx="14.5" ry="14.5"/>
<text text-anchor="middle" x="197.12" y="-335.8" font-family="Times New Roman,serif" font-size="14.00">28</text>
</g>
<!-- 6&#45;&gt;28 -->
<g id="edge22" class="edge">
<title>6&#45;&gt;28</title>
<path fill="none" stroke="black" d="M159.96,-395.42C166.48,-385.79 175.9,-371.86 183.63,-360.44"/>
<polygon fill="black" stroke="black" points="186.67,-362.19 189.37,-351.95 180.87,-358.27 186.67,-362.19"/>
</g>
<!-- 8 -->
<g id="node11" class="node">
<title>8</title>
<ellipse fill="none" stroke="black" cx="92.12" cy="-209.5" rx="14.5" ry="14.5"/>
<text text-anchor="middle" x="92.12" y="-205.8" font-family="Times New Roman,serif" font-size="14.00">8</text>
</g>
<!-- 24&#45;&gt;8 -->
<g id="edge5" class="edge">
<title>24&#45;&gt;8</title>
<path fill="none" stroke="black" d="M36.15,-263.93C46.32,-254.22 62.28,-238.98 74.56,-227.26"/>
<polygon fill="black" stroke="black" points="77.19,-229.59 82,-220.16 72.35,-224.53 77.19,-229.59"/>
</g>
<!-- 8&#45;&gt;23 -->
<g id="edge15" class="edge">
<title>8&#45;&gt;23</title>
<path fill="none" stroke="black" d="M101.81,-198.66C111.22,-189.1 125.7,-174.38 137.05,-162.85"/>
<polygon fill="black" stroke="black" points="139.78,-165.06 144.3,-155.48 134.79,-160.15 139.78,-165.06"/>
</g>
<!-- 30&#45;&gt;8 -->
<g id="edge6" class="edge">
<title>30&#45;&gt;8</title>
<path fill="none" stroke="black" d="M92.12,-259.83C92.12,-252.4 92.12,-243 92.12,-234.4"/>
<polygon fill="black" stroke="black" points="95.62,-234.14 92.12,-224.14 88.62,-234.14 95.62,-234.14"/>
</g>
<!-- 11&#45;&gt;30 -->
<g id="edge24" class="edge">
<title>11&#45;&gt;30</title>
<path fill="none" stroke="black" d="M77.06,-325.45C79.43,-317.59 82.51,-307.37 85.27,-298.22"/>
<polygon fill="black" stroke="black" points="88.65,-299.12 88.19,-288.54 81.95,-297.1 88.65,-299.12"/>
</g>
<!-- 20&#45;&gt;24 -->
<g id="edge17" class="edge">
<title>20&#45;&gt;24</title>
<path fill="none" stroke="black" d="M26.12,-324.83C26.12,-317.4 26.12,-308 26.12,-299.4"/>
<polygon fill="black" stroke="black" points="29.62,-299.14 26.12,-289.14 22.62,-299.14 29.62,-299.14"/>
</g>
<!-- 26 -->
<g id="node17" class="node">
<title>26</title>
<ellipse fill="none" stroke="black" cx="175.12" cy="-79.5" rx="14.5" ry="14.5"/>
<text text-anchor="middle" x="175.12" y="-75.8" font-family="Times New Roman,serif" font-size="14.00">26</text>
</g>
<!-- 23&#45;&gt;26 -->
<g id="edge20" class="edge">
<title>23&#45;&gt;26</title>
<path fill="none" stroke="black" d="M158.47,-130.45C161.09,-122.59 164.5,-112.37 167.55,-103.22"/>
<polygon fill="black" stroke="black" points="170.93,-104.13 170.78,-93.54 164.29,-101.92 170.93,-104.13"/>
</g>
<!-- 28&#45;&gt;26 -->
<g id="edge19" class="edge">
<title>28&#45;&gt;26</title>
<path fill="none" stroke="black" d="M195.97,-324.99C192.43,-283.47 181.67,-157.3 177.15,-104.32"/>
<polygon fill="black" stroke="black" points="180.63,-103.85 176.29,-94.19 173.65,-104.45 180.63,-103.85"/>
</g>
<!-- 26&#45;&gt;32 -->
<g id="edge25" class="edge">
<title>26&#45;&gt;32</title>
<path fill="none" stroke="black" d="M175.12,-64.83C175.12,-57.4 175.12,-48 175.12,-39.4"/>
<polygon fill="black" stroke="black" points="178.62,-39.14 175.12,-29.14 171.62,-39.14 178.62,-39.14"/>
</g>
<!-- 15 -->
<g id="node18" class="node">
<title>15</title>
</g>
<!-- 15&#45;&gt;28 -->
<g id="edge21" class="edge">
<title>15&#45;&gt;28</title>
<path fill="none" stroke="black" d="M198.61,-389.87C198.37,-382.08 198.09,-372.73 197.84,-364.27"/>
<polygon fill="black" stroke="black" points="201.33,-364.11 197.53,-354.22 194.34,-364.32 201.33,-364.11"/>
</g>
</g>
</svg>
