<?xml version="1.0" encoding="UTF-8" standalone="no"?>
<!DOCTYPE svg PUBLIC "-//W3C//DTD SVG 1.1//EN"
 "http://www.w3.org/Graphics/SVG/1.1/DTD/svg11.dtd">
<!-- Generated by graphviz version 2.50.0 (0)
 -->
<!-- Title: MVGComplexG8_3 Pages: 1 -->
<svg width="219pt" height="434pt"
 viewBox="0.00 0.00 219.00 434.00" xmlns="http://www.w3.org/2000/svg" xmlns:xlink="http://www.w3.org/1999/xlink">
<g id="graph0" class="graph" transform="scale(1 1) rotate(0) translate(4 430)">
<title>MVGComplexG8_3</title>
<polygon fill="white" stroke="transparent" points="-4,4 -4,-430 215,-430 215,4 -4,4"/>
<!-- 0 -->
<g id="node1" class="node">
<title>0</title>
<ellipse fill="none" stroke="black" cx="130.5" cy="-411.5" rx="14.5" ry="14.5"/>
<text text-anchor="middle" x="130.5" y="-407.8" font-family="Times New Roman,serif" font-size="14.00">x</text>
</g>
<!-- 8 -->
<g id="node9" class="node">
<title>8</title>
<ellipse fill="none" stroke="black" cx="167.5" cy="-346.5" rx="14.5" ry="14.5"/>
<text text-anchor="middle" x="167.5" y="-342.8" font-family="Times New Roman,serif" font-size="14.00">8</text>
</g>
<!-- 0&#45;&gt;8 -->
<g id="edge4" class="edge">
<title>0&#45;&gt;8</title>
<path fill="none" stroke="black" d="M137.46,-398.65C142.52,-390.03 149.51,-378.13 155.47,-367.98"/>
<polygon fill="black" stroke="black" points="158.53,-369.69 160.57,-359.3 152.49,-366.15 158.53,-369.69"/>
</g>
<!-- 27 -->
<g id="node12" class="node">
<title>27</title>
<ellipse fill="none" stroke="black" cx="126.5" cy="-281.5" rx="14.5" ry="14.5"/>
<text text-anchor="middle" x="126.5" y="-277.8" font-family="Times New Roman,serif" font-size="14.00">27</text>
</g>
<!-- 0&#45;&gt;27 -->
<g id="edge19" class="edge">
<title>0&#45;&gt;27</title>
<path fill="none" stroke="black" d="M130.07,-396.8C129.4,-375.15 128.07,-332.74 127.24,-306.11"/>
<polygon fill="black" stroke="black" points="130.74,-305.99 126.92,-296.1 123.74,-306.2 130.74,-305.99"/>
</g>
<!-- 1 -->
<g id="node2" class="node">
<title>1</title>
<ellipse fill="none" stroke="black" cx="196.5" cy="-411.5" rx="14.5" ry="14.5"/>
<text text-anchor="middle" x="196.5" y="-407.8" font-family="Times New Roman,serif" font-size="14.00">y</text>
</g>
<!-- 1&#45;&gt;8 -->
<g id="edge3" class="edge">
<title>1&#45;&gt;8</title>
<path fill="none" stroke="black" d="M190.77,-398.05C187,-389.86 181.95,-378.9 177.53,-369.29"/>
<polygon fill="black" stroke="black" points="180.58,-367.54 173.22,-359.92 174.22,-370.47 180.58,-367.54"/>
</g>
<!-- 17 -->
<g id="node11" class="node">
<title>17</title>
<ellipse fill="none" stroke="black" cx="173.5" cy="-281.5" rx="14.5" ry="14.5"/>
<text text-anchor="middle" x="173.5" y="-277.8" font-family="Times New Roman,serif" font-size="14.00">17</text>
</g>
<!-- 1&#45;&gt;17 -->
<g id="edge14" class="edge">
<title>1&#45;&gt;17</title>
<path fill="none" stroke="black" d="M196.5,-396.74C196.26,-380.95 195.11,-354.35 190.5,-332 188.62,-322.89 185.52,-313.15 182.49,-304.74"/>
<polygon fill="black" stroke="black" points="185.72,-303.38 178.9,-295.28 179.17,-305.87 185.72,-303.38"/>
</g>
<!-- 2 -->
<g id="node3" class="node">
<title>2</title>
<ellipse fill="none" stroke="black" cx="76.5" cy="-411.5" rx="14.5" ry="14.5"/>
<text text-anchor="middle" x="76.5" y="-407.8" font-family="Times New Roman,serif" font-size="14.00">z</text>
</g>
<!-- 9 -->
<g id="node10" class="node">
<title>9</title>
<ellipse fill="none" stroke="black" cx="39.5" cy="-346.5" rx="14.5" ry="14.5"/>
<text text-anchor="middle" x="39.5" y="-342.8" font-family="Times New Roman,serif" font-size="14.00">9</text>
</g>
<!-- 2&#45;&gt;9 -->
<g id="edge6" class="edge">
<title>2&#45;&gt;9</title>
<path fill="none" stroke="black" d="M69.54,-398.65C64.48,-390.03 57.49,-378.13 51.53,-367.98"/>
<polygon fill="black" stroke="black" points="54.51,-366.15 46.43,-359.3 48.47,-369.69 54.51,-366.15"/>
</g>
<!-- 25 -->
<g id="node14" class="node">
<title>25</title>
<ellipse fill="none" stroke="black" cx="79.5" cy="-281.5" rx="14.5" ry="14.5"/>
<text text-anchor="middle" x="79.5" y="-277.8" font-family="Times New Roman,serif" font-size="14.00">25</text>
</g>
<!-- 2&#45;&gt;25 -->
<g id="edge17" class="edge">
<title>2&#45;&gt;25</title>
<path fill="none" stroke="black" d="M76.82,-396.8C77.33,-375.15 78.32,-332.74 78.95,-306.11"/>
<polygon fill="black" stroke="black" points="82.45,-306.18 79.18,-296.1 75.45,-306.01 82.45,-306.18"/>
</g>
<!-- 3 -->
<g id="node4" class="node">
<title>3</title>
<ellipse fill="none" stroke="black" cx="14.5" cy="-411.5" rx="14.5" ry="14.5"/>
<text text-anchor="middle" x="14.5" y="-407.8" font-family="Times New Roman,serif" font-size="14.00">w</text>
</g>
<!-- 3&#45;&gt;9 -->
<g id="edge5" class="edge">
<title>3&#45;&gt;9</title>
<path fill="none" stroke="black" d="M19.56,-397.75C22.74,-389.72 26.94,-379.14 30.67,-369.76"/>
<polygon fill="black" stroke="black" points="34.01,-370.82 34.45,-360.23 27.51,-368.23 34.01,-370.82"/>
</g>
<!-- 29 -->
<g id="node13" class="node">
<title>29</title>
<ellipse fill="none" stroke="black" cx="32.5" cy="-281.5" rx="14.5" ry="14.5"/>
<text text-anchor="middle" x="32.5" y="-277.8" font-family="Times New Roman,serif" font-size="14.00">29</text>
</g>
<!-- 3&#45;&gt;29 -->
<g id="edge22" class="edge">
<title>3&#45;&gt;29</title>
<path fill="none" stroke="black" d="M13.37,-396.77C12.37,-381 11.61,-354.43 15.5,-332 17.09,-322.83 20.13,-313.08 23.2,-304.68"/>
<polygon fill="black" stroke="black" points="26.51,-305.82 26.87,-295.23 19.99,-303.29 26.51,-305.82"/>
</g>
<!-- 32 -->
<g id="node5" class="node">
<title>32</title>
<ellipse fill="none" stroke="black" cx="149.5" cy="-14.5" rx="14.5" ry="14.5"/>
<text text-anchor="middle" x="149.5" y="-10.8" font-family="Times New Roman,serif" font-size="14.00">out</text>
</g>
<!-- 11 -->
<g id="node6" class="node">
<title>11</title>
<ellipse fill="none" stroke="black" cx="126.5" cy="-213" rx="14.5" ry="14.5"/>
<text text-anchor="middle" x="126.5" y="-209.3" font-family="Times New Roman,serif" font-size="14.00">11</text>
</g>
<!-- 5 -->
<g id="node7" class="node">
<title>5</title>
<ellipse fill="none" stroke="black" cx="126.5" cy="-144.5" rx="14.5" ry="14.5"/>
<text text-anchor="middle" x="126.5" y="-140.8" font-family="Times New Roman,serif" font-size="14.00">5</text>
</g>
<!-- 11&#45;&gt;5 -->
<g id="edge1" class="edge">
<title>11&#45;&gt;5</title>
<path fill="none" stroke="black" d="M126.5,-198.22C126.5,-189.93 126.5,-179.14 126.5,-169.49"/>
<polygon fill="black" stroke="black" points="130,-169.26 126.5,-159.26 123,-169.26 130,-169.26"/>
</g>
<!-- 16 -->
<g id="node16" class="node">
<title>16</title>
<ellipse fill="none" stroke="black" cx="149.5" cy="-79.5" rx="14.5" ry="14.5"/>
<text text-anchor="middle" x="149.5" y="-75.8" font-family="Times New Roman,serif" font-size="14.00">16</text>
</g>
<!-- 5&#45;&gt;16 -->
<g id="edge12" class="edge">
<title>5&#45;&gt;16</title>
<path fill="none" stroke="black" d="M131.15,-130.75C134.05,-122.83 137.85,-112.42 141.24,-103.13"/>
<polygon fill="black" stroke="black" points="144.55,-104.26 144.69,-93.66 137.98,-101.86 144.55,-104.26"/>
</g>
<!-- 12 -->
<g id="node8" class="node">
<title>12</title>
<ellipse fill="none" stroke="black" cx="79.5" cy="-213" rx="14.5" ry="14.5"/>
<text text-anchor="middle" x="79.5" y="-209.3" font-family="Times New Roman,serif" font-size="14.00">12</text>
</g>
<!-- 12&#45;&gt;5 -->
<g id="edge2" class="edge">
<title>12&#45;&gt;5</title>
<path fill="none" stroke="black" d="M87.47,-200.72C94.32,-191.03 104.35,-176.85 112.52,-165.28"/>
<polygon fill="black" stroke="black" points="115.42,-167.25 118.33,-157.06 109.7,-163.21 115.42,-167.25"/>
</g>
<!-- 8&#45;&gt;17 -->
<g id="edge13" class="edge">
<title>8&#45;&gt;17</title>
<path fill="none" stroke="black" d="M168.8,-331.83C169.52,-324.32 170.43,-314.79 171.25,-306.11"/>
<polygon fill="black" stroke="black" points="174.74,-306.43 172.2,-296.14 167.77,-305.77 174.74,-306.43"/>
</g>
<!-- 8&#45;&gt;27 -->
<g id="edge20" class="edge">
<title>8&#45;&gt;27</title>
<path fill="none" stroke="black" d="M159.98,-333.94C154.26,-325.15 146.24,-312.84 139.49,-302.46"/>
<polygon fill="black" stroke="black" points="142.36,-300.45 133.97,-293.98 136.49,-304.27 142.36,-300.45"/>
</g>
<!-- 9&#45;&gt;29 -->
<g id="edge21" class="edge">
<title>9&#45;&gt;29</title>
<path fill="none" stroke="black" d="M37.98,-331.83C37.15,-324.32 36.09,-314.79 35.12,-306.11"/>
<polygon fill="black" stroke="black" points="38.6,-305.7 34.02,-296.14 31.64,-306.47 38.6,-305.7"/>
</g>
<!-- 9&#45;&gt;25 -->
<g id="edge18" class="edge">
<title>9&#45;&gt;25</title>
<path fill="none" stroke="black" d="M46.84,-333.94C52.35,-325.26 60.04,-313.15 66.58,-302.85"/>
<polygon fill="black" stroke="black" points="69.53,-304.73 71.94,-294.41 63.62,-300.98 69.53,-304.73"/>
</g>
<!-- 17&#45;&gt;11 -->
<g id="edge7" class="edge">
<title>17&#45;&gt;11</title>
<path fill="none" stroke="black" d="M165.53,-269.22C158.68,-259.53 148.65,-245.35 140.48,-233.78"/>
<polygon fill="black" stroke="black" points="143.3,-231.71 134.67,-225.56 137.58,-235.75 143.3,-231.71"/>
</g>
<!-- 27&#45;&gt;11 -->
<g id="edge8" class="edge">
<title>27&#45;&gt;11</title>
<path fill="none" stroke="black" d="M126.5,-266.72C126.5,-258.43 126.5,-247.64 126.5,-237.99"/>
<polygon fill="black" stroke="black" points="130,-237.76 126.5,-227.76 123,-237.76 130,-237.76"/>
</g>
<!-- 29&#45;&gt;12 -->
<g id="edge9" class="edge">
<title>29&#45;&gt;12</title>
<path fill="none" stroke="black" d="M40.47,-269.22C47.32,-259.53 57.35,-245.35 65.52,-233.78"/>
<polygon fill="black" stroke="black" points="68.42,-235.75 71.33,-225.56 62.7,-231.71 68.42,-235.75"/>
</g>
<!-- 25&#45;&gt;12 -->
<g id="edge10" class="edge">
<title>25&#45;&gt;12</title>
<path fill="none" stroke="black" d="M79.5,-266.72C79.5,-258.43 79.5,-247.64 79.5,-237.99"/>
<polygon fill="black" stroke="black" points="83,-237.76 79.5,-227.76 76,-237.76 83,-237.76"/>
</g>
<!-- 18 -->
<g id="node15" class="node">
<title>18</title>
<ellipse fill="none" stroke="black" cx="173.5" cy="-144.5" rx="14.5" ry="14.5"/>
<text text-anchor="middle" x="173.5" y="-140.8" font-family="Times New Roman,serif" font-size="14.00">18</text>
</g>
<!-- 18&#45;&gt;16 -->
<g id="edge11" class="edge">
<title>18&#45;&gt;16</title>
<path fill="none" stroke="black" d="M168.64,-130.75C165.59,-122.72 161.55,-112.14 157.98,-102.76"/>
<polygon fill="black" stroke="black" points="161.18,-101.33 154.35,-93.23 154.64,-103.82 161.18,-101.33"/>
</g>
<!-- 16&#45;&gt;32 -->
<g id="edge23" class="edge">
<title>16&#45;&gt;32</title>
<path fill="none" stroke="black" d="M149.5,-64.83C149.5,-57.4 149.5,-48 149.5,-39.4"/>
<polygon fill="black" stroke="black" points="153,-39.14 149.5,-29.14 146,-39.14 153,-39.14"/>
</g>
<!-- 4 -->
<g id="node17" class="node">
<title>4</title>
</g>
<!-- 4&#45;&gt;18 -->
<g id="edge15" class="edge">
<title>4&#45;&gt;18</title>
<path fill="none" stroke="black" d="M167.51,-194.87C166.69,-186.87 166.53,-177.21 167.04,-168.57"/>
<polygon fill="black" stroke="black" points="170.55,-168.66 168.04,-158.37 163.58,-167.98 170.55,-168.66"/>
</g>
<!-- 4&#45;&gt;18 -->
<g id="edge16" class="edge">
<title>4&#45;&gt;18</title>
<path fill="none" stroke="black" d="M179.49,-194.87C180.31,-186.87 180.47,-177.21 179.96,-168.57"/>
<polygon fill="black" stroke="black" points="183.42,-167.98 178.96,-158.37 176.45,-168.66 183.42,-167.98"/>
</g>
</g>
</svg>
