<?xml version="1.0" encoding="UTF-8" standalone="no"?>
<!DOCTYPE svg PUBLIC "-//W3C//DTD SVG 1.1//EN"
 "http://www.w3.org/Graphics/SVG/1.1/DTD/svg11.dtd">
<!-- Generated by graphviz version 2.50.0 (0)
 -->
<!-- Title: MVGComplexG7_12 Pages: 1 -->
<svg width="284pt" height="564pt"
 viewBox="0.00 0.00 284.00 564.00" xmlns="http://www.w3.org/2000/svg" xmlns:xlink="http://www.w3.org/1999/xlink">
<g id="graph0" class="graph" transform="scale(1 1) rotate(0) translate(4 560)">
<title>MVGComplexG7_12</title>
<polygon fill="white" stroke="transparent" points="-4,4 -4,-560 280,-560 280,4 -4,4"/>
<!-- 0 -->
<g id="node1" class="node">
<title>0</title>
<ellipse fill="none" stroke="black" cx="83.5" cy="-541.5" rx="14.5" ry="14.5"/>
<text text-anchor="middle" x="83.5" y="-537.8" font-family="Times New Roman,serif" font-size="14.00">x</text>
</g>
<!-- 5 -->
<g id="node6" class="node">
<title>5</title>
<ellipse fill="none" stroke="black" cx="83.5" cy="-476.5" rx="14.5" ry="14.5"/>
<text text-anchor="middle" x="83.5" y="-472.8" font-family="Times New Roman,serif" font-size="14.00">5</text>
</g>
<!-- 0&#45;&gt;5 -->
<g id="edge1" class="edge">
<title>0&#45;&gt;5</title>
<path fill="none" stroke="black" d="M78,-528.05C76.79,-520.03 76.46,-509.36 77.01,-499.89"/>
<polygon fill="black" stroke="black" points="80.49,-500.22 78,-489.92 73.53,-499.52 80.49,-500.22"/>
</g>
<!-- 0&#45;&gt;5 -->
<g id="edge2" class="edge">
<title>0&#45;&gt;5</title>
<path fill="none" stroke="black" d="M89,-528.05C90.21,-520.03 90.54,-509.36 89.99,-499.89"/>
<polygon fill="black" stroke="black" points="93.47,-499.52 89,-489.92 86.51,-500.22 93.47,-499.52"/>
</g>
<!-- 13 -->
<g id="node10" class="node">
<title>13</title>
<ellipse fill="none" stroke="black" cx="36.5" cy="-476.5" rx="14.5" ry="14.5"/>
<text text-anchor="middle" x="36.5" y="-472.8" font-family="Times New Roman,serif" font-size="14.00">13</text>
</g>
<!-- 0&#45;&gt;13 -->
<g id="edge10" class="edge">
<title>0&#45;&gt;13</title>
<path fill="none" stroke="black" d="M75.31,-529.53C68.59,-520.51 58.9,-507.53 50.89,-496.79"/>
<polygon fill="black" stroke="black" points="53.69,-494.69 44.91,-488.77 48.08,-498.88 53.69,-494.69"/>
</g>
<!-- 1 -->
<g id="node2" class="node">
<title>1</title>
<ellipse fill="none" stroke="black" cx="15.5" cy="-541.5" rx="14.5" ry="14.5"/>
<text text-anchor="middle" x="15.5" y="-537.8" font-family="Times New Roman,serif" font-size="14.00">y</text>
</g>
<!-- 10 -->
<g id="node8" class="node">
<title>10</title>
<ellipse fill="none" stroke="black" cx="14.5" cy="-411.5" rx="14.5" ry="14.5"/>
<text text-anchor="middle" x="14.5" y="-407.8" font-family="Times New Roman,serif" font-size="14.00">10</text>
</g>
<!-- 1&#45;&gt;10 -->
<g id="edge7" class="edge">
<title>1&#45;&gt;10</title>
<path fill="none" stroke="black" d="M14.43,-526.64C13.73,-516.72 12.86,-503.05 12.5,-491 11.95,-472.69 12.52,-451.97 13.2,-436.42"/>
<polygon fill="black" stroke="black" points="16.71,-436.27 13.69,-426.12 9.72,-435.94 16.71,-436.27"/>
</g>
<!-- 1&#45;&gt;13 -->
<g id="edge9" class="edge">
<title>1&#45;&gt;13</title>
<path fill="none" stroke="black" d="M19.85,-527.45C22.47,-519.59 25.88,-509.37 28.93,-500.22"/>
<polygon fill="black" stroke="black" points="32.31,-501.13 32.15,-490.54 25.67,-498.92 32.31,-501.13"/>
</g>
<!-- 2 -->
<g id="node3" class="node">
<title>2</title>
<ellipse fill="none" stroke="black" cx="193.5" cy="-411.5" rx="14.5" ry="14.5"/>
<text text-anchor="middle" x="193.5" y="-407.8" font-family="Times New Roman,serif" font-size="14.00">z</text>
</g>
<!-- 7 -->
<g id="node7" class="node">
<title>7</title>
<ellipse fill="none" stroke="black" cx="240.5" cy="-346.5" rx="14.5" ry="14.5"/>
<text text-anchor="middle" x="240.5" y="-342.8" font-family="Times New Roman,serif" font-size="14.00">7</text>
</g>
<!-- 2&#45;&gt;7 -->
<g id="edge3" class="edge">
<title>2&#45;&gt;7</title>
<path fill="none" stroke="black" d="M201.69,-399.53C208.41,-390.51 218.1,-377.53 226.11,-366.79"/>
<polygon fill="black" stroke="black" points="228.92,-368.88 232.09,-358.77 223.31,-364.69 228.92,-368.88"/>
</g>
<!-- 28 -->
<g id="node13" class="node">
<title>28</title>
<ellipse fill="none" stroke="black" cx="167.5" cy="-278" rx="14.5" ry="14.5"/>
<text text-anchor="middle" x="167.5" y="-274.3" font-family="Times New Roman,serif" font-size="14.00">28</text>
</g>
<!-- 2&#45;&gt;28 -->
<g id="edge23" class="edge">
<title>2&#45;&gt;28</title>
<path fill="none" stroke="black" d="M186.42,-398.78C180.95,-389.05 173.78,-374.64 170.5,-361 165.9,-341.87 165.39,-319.51 165.9,-302.98"/>
<polygon fill="black" stroke="black" points="169.41,-302.72 166.37,-292.57 162.42,-302.4 169.41,-302.72"/>
</g>
<!-- 25 -->
<g id="node14" class="node">
<title>25</title>
<ellipse fill="none" stroke="black" cx="193.5" cy="-346.5" rx="14.5" ry="14.5"/>
<text text-anchor="middle" x="193.5" y="-342.8" font-family="Times New Roman,serif" font-size="14.00">25</text>
</g>
<!-- 2&#45;&gt;25 -->
<g id="edge19" class="edge">
<title>2&#45;&gt;25</title>
<path fill="none" stroke="black" d="M188,-398.05C186.79,-390.03 186.46,-379.36 187.01,-369.89"/>
<polygon fill="black" stroke="black" points="190.49,-370.22 188,-359.92 183.53,-369.52 190.49,-370.22"/>
</g>
<!-- 2&#45;&gt;25 -->
<g id="edge20" class="edge">
<title>2&#45;&gt;25</title>
<path fill="none" stroke="black" d="M199,-398.05C200.21,-390.03 200.54,-379.36 199.99,-369.89"/>
<polygon fill="black" stroke="black" points="203.47,-369.52 199,-359.92 196.51,-370.22 203.47,-369.52"/>
</g>
<!-- 3 -->
<g id="node4" class="node">
<title>3</title>
<ellipse fill="none" stroke="black" cx="261.5" cy="-411.5" rx="14.5" ry="14.5"/>
<text text-anchor="middle" x="261.5" y="-407.8" font-family="Times New Roman,serif" font-size="14.00">w</text>
</g>
<!-- 3&#45;&gt;7 -->
<g id="edge4" class="edge">
<title>3&#45;&gt;7</title>
<path fill="none" stroke="black" d="M257.15,-397.45C254.53,-389.59 251.12,-379.37 248.07,-370.22"/>
<polygon fill="black" stroke="black" points="251.33,-368.92 244.85,-360.54 244.69,-371.13 251.33,-368.92"/>
</g>
<!-- 20 -->
<g id="node11" class="node">
<title>20</title>
<ellipse fill="none" stroke="black" cx="214.5" cy="-278" rx="14.5" ry="14.5"/>
<text text-anchor="middle" x="214.5" y="-274.3" font-family="Times New Roman,serif" font-size="14.00">20</text>
</g>
<!-- 3&#45;&gt;20 -->
<g id="edge13" class="edge">
<title>3&#45;&gt;20</title>
<path fill="none" stroke="black" d="M265.12,-397.45C268.88,-381.42 273.11,-353.67 264.5,-332 258.4,-316.64 245.49,-303.15 234.33,-293.62"/>
<polygon fill="black" stroke="black" points="236.25,-290.68 226.26,-287.15 231.87,-296.14 236.25,-290.68"/>
</g>
<!-- 32 -->
<g id="node5" class="node">
<title>32</title>
<ellipse fill="none" stroke="black" cx="95.5" cy="-14.5" rx="14.5" ry="14.5"/>
<text text-anchor="middle" x="95.5" y="-10.8" font-family="Times New Roman,serif" font-size="14.00">out</text>
</g>
<!-- 9 -->
<g id="node9" class="node">
<title>9</title>
<ellipse fill="none" stroke="black" cx="52.5" cy="-346.5" rx="14.5" ry="14.5"/>
<text text-anchor="middle" x="52.5" y="-342.8" font-family="Times New Roman,serif" font-size="14.00">9</text>
</g>
<!-- 5&#45;&gt;9 -->
<g id="edge6" class="edge">
<title>5&#45;&gt;9</title>
<path fill="none" stroke="black" d="M80.3,-462.28C75.08,-440.73 64.66,-397.71 58.17,-370.9"/>
<polygon fill="black" stroke="black" points="61.49,-369.73 55.73,-360.84 54.68,-371.38 61.49,-369.73"/>
</g>
<!-- 7&#45;&gt;28 -->
<g id="edge24" class="edge">
<title>7&#45;&gt;28</title>
<path fill="none" stroke="black" d="M230.04,-335.97C218.44,-325.4 199.52,-308.17 185.52,-295.42"/>
<polygon fill="black" stroke="black" points="187.69,-292.66 177.94,-288.51 182.98,-297.83 187.69,-292.66"/>
</g>
<!-- 10&#45;&gt;9 -->
<g id="edge5" class="edge">
<title>10&#45;&gt;9</title>
<path fill="none" stroke="black" d="M21.65,-398.65C26.85,-390.03 34.02,-378.13 40.15,-367.98"/>
<polygon fill="black" stroke="black" points="43.22,-369.67 45.38,-359.3 37.22,-366.05 43.22,-369.67"/>
</g>
<!-- 22 -->
<g id="node15" class="node">
<title>22</title>
<ellipse fill="none" stroke="black" cx="73.5" cy="-278" rx="14.5" ry="14.5"/>
<text text-anchor="middle" x="73.5" y="-274.3" font-family="Times New Roman,serif" font-size="14.00">22</text>
</g>
<!-- 9&#45;&gt;22 -->
<g id="edge16" class="edge">
<title>9&#45;&gt;22</title>
<path fill="none" stroke="black" d="M56.65,-332.36C59.41,-323.62 63.11,-311.9 66.34,-301.68"/>
<polygon fill="black" stroke="black" points="69.69,-302.7 69.36,-292.11 63.01,-300.59 69.69,-302.7"/>
</g>
<!-- 13&#45;&gt;10 -->
<g id="edge8" class="edge">
<title>13&#45;&gt;10</title>
<path fill="none" stroke="black" d="M31.94,-462.45C29.2,-454.59 25.63,-444.37 22.44,-435.22"/>
<polygon fill="black" stroke="black" points="25.65,-433.82 19.05,-425.54 19.05,-436.13 25.65,-433.82"/>
</g>
<!-- 13&#45;&gt;22 -->
<g id="edge15" class="edge">
<title>13&#45;&gt;22</title>
<path fill="none" stroke="black" d="M42.37,-463.16C51.8,-442.56 69.95,-399.61 76.5,-361 78.66,-348.29 76.86,-344.88 76.5,-332 76.23,-322.33 75.67,-311.69 75.12,-302.49"/>
<polygon fill="black" stroke="black" points="78.61,-302.25 74.48,-292.5 71.62,-302.7 78.61,-302.25"/>
</g>
<!-- 17 -->
<g id="node12" class="node">
<title>17</title>
<ellipse fill="none" stroke="black" cx="167.5" cy="-209.5" rx="14.5" ry="14.5"/>
<text text-anchor="middle" x="167.5" y="-205.8" font-family="Times New Roman,serif" font-size="14.00">17</text>
</g>
<!-- 20&#45;&gt;17 -->
<g id="edge11" class="edge">
<title>20&#45;&gt;17</title>
<path fill="none" stroke="black" d="M206.53,-265.72C199.68,-256.03 189.65,-241.85 181.48,-230.28"/>
<polygon fill="black" stroke="black" points="184.3,-228.21 175.67,-222.06 178.58,-232.25 184.3,-228.21"/>
</g>
<!-- 23 -->
<g id="node17" class="node">
<title>23</title>
<ellipse fill="none" stroke="black" cx="119.5" cy="-144.5" rx="14.5" ry="14.5"/>
<text text-anchor="middle" x="119.5" y="-140.8" font-family="Times New Roman,serif" font-size="14.00">23</text>
</g>
<!-- 17&#45;&gt;23 -->
<g id="edge18" class="edge">
<title>17&#45;&gt;23</title>
<path fill="none" stroke="black" d="M159.14,-197.53C152.27,-188.51 142.38,-175.53 134.2,-164.79"/>
<polygon fill="black" stroke="black" points="136.93,-162.61 128.09,-156.77 131.36,-166.85 136.93,-162.61"/>
</g>
<!-- 28&#45;&gt;17 -->
<g id="edge12" class="edge">
<title>28&#45;&gt;17</title>
<path fill="none" stroke="black" d="M167.5,-263.22C167.5,-254.93 167.5,-244.14 167.5,-234.49"/>
<polygon fill="black" stroke="black" points="171,-234.26 167.5,-224.26 164,-234.26 171,-234.26"/>
</g>
<!-- 25&#45;&gt;20 -->
<g id="edge14" class="edge">
<title>25&#45;&gt;20</title>
<path fill="none" stroke="black" d="M197.65,-332.36C200.41,-323.62 204.11,-311.9 207.34,-301.68"/>
<polygon fill="black" stroke="black" points="210.69,-302.7 210.36,-292.11 204.01,-300.59 210.69,-302.7"/>
</g>
<!-- 26 -->
<g id="node16" class="node">
<title>26</title>
<ellipse fill="none" stroke="black" cx="119.5" cy="-209.5" rx="14.5" ry="14.5"/>
<text text-anchor="middle" x="119.5" y="-205.8" font-family="Times New Roman,serif" font-size="14.00">26</text>
</g>
<!-- 22&#45;&gt;26 -->
<g id="edge21" class="edge">
<title>22&#45;&gt;26</title>
<path fill="none" stroke="black" d="M81.3,-265.72C87.94,-256.13 97.62,-242.12 105.58,-230.62"/>
<polygon fill="black" stroke="black" points="108.69,-232.27 111.5,-222.06 102.94,-228.29 108.69,-232.27"/>
</g>
<!-- 31 -->
<g id="node19" class="node">
<title>31</title>
<ellipse fill="none" stroke="black" cx="95.5" cy="-79.5" rx="14.5" ry="14.5"/>
<text text-anchor="middle" x="95.5" y="-75.8" font-family="Times New Roman,serif" font-size="14.00">31</text>
</g>
<!-- 22&#45;&gt;31 -->
<g id="edge25" class="edge">
<title>22&#45;&gt;31</title>
<path fill="none" stroke="black" d="M75.01,-263.49C78.7,-230.54 88.2,-145.69 92.85,-104.13"/>
<polygon fill="black" stroke="black" points="96.34,-104.43 93.98,-94.1 89.39,-103.65 96.34,-104.43"/>
</g>
<!-- 26&#45;&gt;23 -->
<g id="edge17" class="edge">
<title>26&#45;&gt;23</title>
<path fill="none" stroke="black" d="M119.5,-194.83C119.5,-187.4 119.5,-178 119.5,-169.4"/>
<polygon fill="black" stroke="black" points="123,-169.14 119.5,-159.14 116,-169.14 123,-169.14"/>
</g>
<!-- 23&#45;&gt;31 -->
<g id="edge26" class="edge">
<title>23&#45;&gt;31</title>
<path fill="none" stroke="black" d="M114.64,-130.75C111.59,-122.72 107.55,-112.14 103.98,-102.76"/>
<polygon fill="black" stroke="black" points="107.18,-101.33 100.35,-93.23 100.64,-103.82 107.18,-101.33"/>
</g>
<!-- 15 -->
<g id="node18" class="node">
<title>15</title>
</g>
<!-- 15&#45;&gt;26 -->
<g id="edge22" class="edge">
<title>15&#45;&gt;26</title>
<path fill="none" stroke="black" d="M120.24,-259.87C120.13,-252.08 119.98,-242.73 119.86,-234.27"/>
<polygon fill="black" stroke="black" points="123.36,-234.16 119.71,-224.22 116.36,-234.27 123.36,-234.16"/>
</g>
<!-- 31&#45;&gt;32 -->
<g id="edge27" class="edge">
<title>31&#45;&gt;32</title>
<path fill="none" stroke="black" d="M95.5,-64.83C95.5,-57.4 95.5,-48 95.5,-39.4"/>
<polygon fill="black" stroke="black" points="99,-39.14 95.5,-29.14 92,-39.14 99,-39.14"/>
</g>
</g>
</svg>
