<?xml version="1.0" encoding="UTF-8" standalone="no"?>
<!DOCTYPE svg PUBLIC "-//W3C//DTD SVG 1.1//EN"
 "http://www.w3.org/Graphics/SVG/1.1/DTD/svg11.dtd">
<!-- Generated by graphviz version 2.50.0 (0)
 -->
<!-- Title: MVGSimpleG1_3 Pages: 1 -->
<svg width="219pt" height="427pt"
 viewBox="0.00 0.00 219.00 427.00" xmlns="http://www.w3.org/2000/svg" xmlns:xlink="http://www.w3.org/1999/xlink">
<g id="graph0" class="graph" transform="scale(1 1) rotate(0) translate(4 423)">
<title>MVGSimpleG1_3</title>
<polygon fill="white" stroke="transparent" points="-4,4 -4,-423 215,-423 215,4 -4,4"/>
<!-- 0 -->
<g id="node1" class="node">
<title>0</title>
<ellipse fill="none" stroke="black" cx="76.5" cy="-404.5" rx="14.5" ry="14.5"/>
<text text-anchor="middle" x="76.5" y="-400.8" font-family="Times New Roman,serif" font-size="14.00">x</text>
</g>
<!-- 13 -->
<g id="node8" class="node">
<title>13</title>
<ellipse fill="none" stroke="black" cx="79.5" cy="-274.5" rx="14.5" ry="14.5"/>
<text text-anchor="middle" x="79.5" y="-270.8" font-family="Times New Roman,serif" font-size="14.00">13</text>
</g>
<!-- 0&#45;&gt;13 -->
<g id="edge16" class="edge">
<title>0&#45;&gt;13</title>
<path fill="none" stroke="black" d="M76.82,-389.8C77.33,-368.15 78.32,-325.74 78.95,-299.11"/>
<polygon fill="black" stroke="black" points="82.45,-299.18 79.18,-289.1 75.45,-299.01 82.45,-299.18"/>
</g>
<!-- 10 -->
<g id="node11" class="node">
<title>10</title>
<ellipse fill="none" stroke="black" cx="39.5" cy="-339.5" rx="14.5" ry="14.5"/>
<text text-anchor="middle" x="39.5" y="-335.8" font-family="Times New Roman,serif" font-size="14.00">10</text>
</g>
<!-- 0&#45;&gt;10 -->
<g id="edge12" class="edge">
<title>0&#45;&gt;10</title>
<path fill="none" stroke="black" d="M69.54,-391.65C64.48,-383.03 57.49,-371.13 51.53,-360.98"/>
<polygon fill="black" stroke="black" points="54.51,-359.15 46.43,-352.3 48.47,-362.69 54.51,-359.15"/>
</g>
<!-- 1 -->
<g id="node2" class="node">
<title>1</title>
<ellipse fill="none" stroke="black" cx="14.5" cy="-404.5" rx="14.5" ry="14.5"/>
<text text-anchor="middle" x="14.5" y="-400.8" font-family="Times New Roman,serif" font-size="14.00">y</text>
</g>
<!-- 7 -->
<g id="node10" class="node">
<title>7</title>
<ellipse fill="none" stroke="black" cx="32.5" cy="-274.5" rx="14.5" ry="14.5"/>
<text text-anchor="middle" x="32.5" y="-270.8" font-family="Times New Roman,serif" font-size="14.00">7</text>
</g>
<!-- 1&#45;&gt;7 -->
<g id="edge6" class="edge">
<title>1&#45;&gt;7</title>
<path fill="none" stroke="black" d="M13.37,-389.77C12.37,-374 11.61,-347.43 15.5,-325 17.09,-315.83 20.13,-306.08 23.2,-297.68"/>
<polygon fill="black" stroke="black" points="26.51,-298.82 26.87,-288.23 19.99,-296.29 26.51,-298.82"/>
</g>
<!-- 1&#45;&gt;10 -->
<g id="edge11" class="edge">
<title>1&#45;&gt;10</title>
<path fill="none" stroke="black" d="M19.56,-390.75C22.74,-382.72 26.94,-372.14 30.67,-362.76"/>
<polygon fill="black" stroke="black" points="34.01,-363.82 34.45,-353.23 27.51,-361.23 34.01,-363.82"/>
</g>
<!-- 2 -->
<g id="node3" class="node">
<title>2</title>
<ellipse fill="none" stroke="black" cx="196.5" cy="-404.5" rx="14.5" ry="14.5"/>
<text text-anchor="middle" x="196.5" y="-400.8" font-family="Times New Roman,serif" font-size="14.00">z</text>
</g>
<!-- 9 -->
<g id="node6" class="node">
<title>9</title>
<ellipse fill="none" stroke="black" cx="167.5" cy="-339.5" rx="14.5" ry="14.5"/>
<text text-anchor="middle" x="167.5" y="-335.8" font-family="Times New Roman,serif" font-size="14.00">9</text>
</g>
<!-- 2&#45;&gt;9 -->
<g id="edge9" class="edge">
<title>2&#45;&gt;9</title>
<path fill="none" stroke="black" d="M190.77,-391.05C187,-382.86 181.95,-371.9 177.53,-362.29"/>
<polygon fill="black" stroke="black" points="180.58,-360.54 173.22,-352.92 174.22,-363.47 180.58,-360.54"/>
</g>
<!-- 15 -->
<g id="node15" class="node">
<title>15</title>
<ellipse fill="none" stroke="black" cx="173.5" cy="-274.5" rx="14.5" ry="14.5"/>
<text text-anchor="middle" x="173.5" y="-270.8" font-family="Times New Roman,serif" font-size="14.00">15</text>
</g>
<!-- 2&#45;&gt;15 -->
<g id="edge20" class="edge">
<title>2&#45;&gt;15</title>
<path fill="none" stroke="black" d="M196.8,-389.73C196.87,-373.93 196.17,-347.32 191.5,-325 189.58,-315.84 186.32,-306.09 183.1,-297.68"/>
<polygon fill="black" stroke="black" points="186.27,-296.19 179.27,-288.23 179.78,-298.82 186.27,-296.19"/>
</g>
<!-- 3 -->
<g id="node4" class="node">
<title>3</title>
<ellipse fill="none" stroke="black" cx="130.5" cy="-404.5" rx="14.5" ry="14.5"/>
<text text-anchor="middle" x="130.5" y="-400.8" font-family="Times New Roman,serif" font-size="14.00">w</text>
</g>
<!-- 3&#45;&gt;9 -->
<g id="edge10" class="edge">
<title>3&#45;&gt;9</title>
<path fill="none" stroke="black" d="M137.46,-391.65C142.52,-383.03 149.51,-371.13 155.47,-360.98"/>
<polygon fill="black" stroke="black" points="158.53,-362.69 160.57,-352.3 152.49,-359.15 158.53,-362.69"/>
</g>
<!-- 5 -->
<g id="node7" class="node">
<title>5</title>
<ellipse fill="none" stroke="black" cx="126.5" cy="-274.5" rx="14.5" ry="14.5"/>
<text text-anchor="middle" x="126.5" y="-270.8" font-family="Times New Roman,serif" font-size="14.00">5</text>
</g>
<!-- 3&#45;&gt;5 -->
<g id="edge2" class="edge">
<title>3&#45;&gt;5</title>
<path fill="none" stroke="black" d="M130.07,-389.8C129.4,-368.15 128.07,-325.74 127.24,-299.11"/>
<polygon fill="black" stroke="black" points="130.74,-298.99 126.92,-289.1 123.74,-299.2 130.74,-298.99"/>
</g>
<!-- 16 -->
<g id="node5" class="node">
<title>16</title>
<ellipse fill="none" stroke="black" cx="102.5" cy="-14.5" rx="14.5" ry="14.5"/>
<text text-anchor="middle" x="102.5" y="-10.8" font-family="Times New Roman,serif" font-size="14.00">out</text>
</g>
<!-- 9&#45;&gt;5 -->
<g id="edge1" class="edge">
<title>9&#45;&gt;5</title>
<path fill="none" stroke="black" d="M159.98,-326.94C154.26,-318.15 146.24,-305.84 139.49,-295.46"/>
<polygon fill="black" stroke="black" points="142.36,-293.45 133.97,-286.98 136.49,-297.27 142.36,-293.45"/>
</g>
<!-- 9&#45;&gt;15 -->
<g id="edge19" class="edge">
<title>9&#45;&gt;15</title>
<path fill="none" stroke="black" d="M168.8,-324.83C169.52,-317.32 170.43,-307.79 171.25,-299.11"/>
<polygon fill="black" stroke="black" points="174.74,-299.43 172.2,-289.14 167.77,-298.77 174.74,-299.43"/>
</g>
<!-- 11 -->
<g id="node14" class="node">
<title>11</title>
<ellipse fill="none" stroke="black" cx="126.5" cy="-209.5" rx="14.5" ry="14.5"/>
<text text-anchor="middle" x="126.5" y="-205.8" font-family="Times New Roman,serif" font-size="14.00">11</text>
</g>
<!-- 5&#45;&gt;11 -->
<g id="edge13" class="edge">
<title>5&#45;&gt;11</title>
<path fill="none" stroke="black" d="M126.5,-259.83C126.5,-252.4 126.5,-243 126.5,-234.4"/>
<polygon fill="black" stroke="black" points="130,-234.14 126.5,-224.14 123,-234.14 130,-234.14"/>
</g>
<!-- 6 -->
<g id="node9" class="node">
<title>6</title>
<ellipse fill="none" stroke="black" cx="79.5" cy="-209.5" rx="14.5" ry="14.5"/>
<text text-anchor="middle" x="79.5" y="-205.8" font-family="Times New Roman,serif" font-size="14.00">6</text>
</g>
<!-- 13&#45;&gt;6 -->
<g id="edge3" class="edge">
<title>13&#45;&gt;6</title>
<path fill="none" stroke="black" d="M79.5,-259.83C79.5,-252.4 79.5,-243 79.5,-234.4"/>
<polygon fill="black" stroke="black" points="83,-234.14 79.5,-224.14 76,-234.14 83,-234.14"/>
</g>
<!-- 14 -->
<g id="node12" class="node">
<title>14</title>
<ellipse fill="none" stroke="black" cx="102.5" cy="-144.5" rx="14.5" ry="14.5"/>
<text text-anchor="middle" x="102.5" y="-140.8" font-family="Times New Roman,serif" font-size="14.00">14</text>
</g>
<!-- 6&#45;&gt;14 -->
<g id="edge18" class="edge">
<title>6&#45;&gt;14</title>
<path fill="none" stroke="black" d="M84.15,-195.75C87.05,-187.83 90.85,-177.42 94.24,-168.13"/>
<polygon fill="black" stroke="black" points="97.55,-169.26 97.69,-158.66 90.98,-166.86 97.55,-169.26"/>
</g>
<!-- 7&#45;&gt;6 -->
<g id="edge4" class="edge">
<title>7&#45;&gt;6</title>
<path fill="none" stroke="black" d="M40.69,-262.53C47.41,-253.51 57.1,-240.53 65.11,-229.79"/>
<polygon fill="black" stroke="black" points="67.92,-231.88 71.09,-221.77 62.31,-227.69 67.92,-231.88"/>
</g>
<!-- 10&#45;&gt;13 -->
<g id="edge15" class="edge">
<title>10&#45;&gt;13</title>
<path fill="none" stroke="black" d="M46.84,-326.94C52.35,-318.26 60.04,-306.15 66.58,-295.85"/>
<polygon fill="black" stroke="black" points="69.53,-297.73 71.94,-287.41 63.62,-293.98 69.53,-297.73"/>
</g>
<!-- 10&#45;&gt;7 -->
<g id="edge5" class="edge">
<title>10&#45;&gt;7</title>
<path fill="none" stroke="black" d="M37.98,-324.83C37.15,-317.32 36.09,-307.79 35.12,-299.11"/>
<polygon fill="black" stroke="black" points="38.6,-298.7 34.02,-289.14 31.64,-299.47 38.6,-298.7"/>
</g>
<!-- 8 -->
<g id="node13" class="node">
<title>8</title>
<ellipse fill="none" stroke="black" cx="102.5" cy="-79.5" rx="14.5" ry="14.5"/>
<text text-anchor="middle" x="102.5" y="-75.8" font-family="Times New Roman,serif" font-size="14.00">8</text>
</g>
<!-- 14&#45;&gt;8 -->
<g id="edge7" class="edge">
<title>14&#45;&gt;8</title>
<path fill="none" stroke="black" d="M97,-131.05C95.79,-123.03 95.46,-112.36 96.01,-102.89"/>
<polygon fill="black" stroke="black" points="99.49,-103.22 97,-92.92 92.53,-102.52 99.49,-103.22"/>
</g>
<!-- 14&#45;&gt;8 -->
<g id="edge8" class="edge">
<title>14&#45;&gt;8</title>
<path fill="none" stroke="black" d="M108,-131.05C109.21,-123.03 109.54,-112.36 108.99,-102.89"/>
<polygon fill="black" stroke="black" points="112.47,-102.52 108,-92.92 105.51,-103.22 112.47,-102.52"/>
</g>
<!-- 8&#45;&gt;16 -->
<g id="edge21" class="edge">
<title>8&#45;&gt;16</title>
<path fill="none" stroke="black" d="M102.5,-64.83C102.5,-57.4 102.5,-48 102.5,-39.4"/>
<polygon fill="black" stroke="black" points="106,-39.14 102.5,-29.14 99,-39.14 106,-39.14"/>
</g>
<!-- 11&#45;&gt;14 -->
<g id="edge17" class="edge">
<title>11&#45;&gt;14</title>
<path fill="none" stroke="black" d="M121.64,-195.75C118.59,-187.72 114.55,-177.14 110.98,-167.76"/>
<polygon fill="black" stroke="black" points="114.18,-166.33 107.35,-158.23 107.64,-168.82 114.18,-166.33"/>
</g>
<!-- 15&#45;&gt;11 -->
<g id="edge14" class="edge">
<title>15&#45;&gt;11</title>
<path fill="none" stroke="black" d="M165.31,-262.53C158.59,-253.51 148.9,-240.53 140.89,-229.79"/>
<polygon fill="black" stroke="black" points="143.69,-227.69 134.91,-221.77 138.08,-231.88 143.69,-227.69"/>
</g>
</g>
</svg>
