<?xml version="1.0" encoding="UTF-8" standalone="no"?>
<!DOCTYPE svg PUBLIC "-//W3C//DTD SVG 1.1//EN"
 "http://www.w3.org/Graphics/SVG/1.1/DTD/svg11.dtd">
<!-- Generated by graphviz version 2.50.0 (0)
 -->
<!-- Title: MVGSimpleG1_10 Pages: 1 -->
<svg width="154pt" height="557pt"
 viewBox="0.00 0.00 154.00 557.00" xmlns="http://www.w3.org/2000/svg" xmlns:xlink="http://www.w3.org/1999/xlink">
<g id="graph0" class="graph" transform="scale(1 1) rotate(0) translate(4 553)">
<title>MVGSimpleG1_10</title>
<polygon fill="white" stroke="transparent" points="-4,4 -4,-553 150,-553 150,4 -4,4"/>
<!-- 0 -->
<g id="node1" class="node">
<title>0</title>
<ellipse fill="none" stroke="black" cx="71.5" cy="-534.5" rx="14.5" ry="14.5"/>
<text text-anchor="middle" x="71.5" y="-530.8" font-family="Times New Roman,serif" font-size="14.00">x</text>
</g>
<!-- 4 -->
<g id="node6" class="node">
<title>4</title>
<ellipse fill="none" stroke="black" cx="38.5" cy="-469.5" rx="14.5" ry="14.5"/>
<text text-anchor="middle" x="38.5" y="-465.8" font-family="Times New Roman,serif" font-size="14.00">4</text>
</g>
<!-- 0&#45;&gt;4 -->
<g id="edge1" class="edge">
<title>0&#45;&gt;4</title>
<path fill="none" stroke="black" d="M65.14,-521.35C60.71,-512.9 54.69,-501.41 49.49,-491.49"/>
<polygon fill="black" stroke="black" points="52.58,-489.84 44.84,-482.61 46.38,-493.09 52.58,-489.84"/>
</g>
<!-- 13 -->
<g id="node14" class="node">
<title>13</title>
<ellipse fill="none" stroke="black" cx="61.5" cy="-404.5" rx="14.5" ry="14.5"/>
<text text-anchor="middle" x="61.5" y="-400.8" font-family="Times New Roman,serif" font-size="14.00">13</text>
</g>
<!-- 0&#45;&gt;13 -->
<g id="edge16" class="edge">
<title>0&#45;&gt;13</title>
<path fill="none" stroke="black" d="M70.43,-519.8C68.74,-498.15 65.43,-455.74 63.34,-429.11"/>
<polygon fill="black" stroke="black" points="66.83,-428.8 62.56,-419.1 59.85,-429.34 66.83,-428.8"/>
</g>
<!-- 1 -->
<g id="node2" class="node">
<title>1</title>
<ellipse fill="none" stroke="black" cx="14.5" cy="-534.5" rx="14.5" ry="14.5"/>
<text text-anchor="middle" x="14.5" y="-530.8" font-family="Times New Roman,serif" font-size="14.00">y</text>
</g>
<!-- 1&#45;&gt;4 -->
<g id="edge2" class="edge">
<title>1&#45;&gt;4</title>
<path fill="none" stroke="black" d="M19.36,-520.75C22.41,-512.72 26.45,-502.14 30.02,-492.76"/>
<polygon fill="black" stroke="black" points="33.36,-493.82 33.65,-483.23 26.82,-491.33 33.36,-493.82"/>
</g>
<!-- 6 -->
<g id="node7" class="node">
<title>6</title>
<ellipse fill="none" stroke="black" cx="14.5" cy="-404.5" rx="14.5" ry="14.5"/>
<text text-anchor="middle" x="14.5" y="-400.8" font-family="Times New Roman,serif" font-size="14.00">6</text>
</g>
<!-- 1&#45;&gt;6 -->
<g id="edge3" class="edge">
<title>1&#45;&gt;6</title>
<path fill="none" stroke="black" d="M14.5,-519.8C14.5,-498.15 14.5,-455.74 14.5,-429.11"/>
<polygon fill="black" stroke="black" points="18,-429.1 14.5,-419.1 11,-429.1 18,-429.1"/>
</g>
<!-- 2 -->
<g id="node3" class="node">
<title>2</title>
<ellipse fill="none" stroke="black" cx="131.5" cy="-339.5" rx="14.5" ry="14.5"/>
<text text-anchor="middle" x="131.5" y="-335.8" font-family="Times New Roman,serif" font-size="14.00">z</text>
</g>
<!-- 7 -->
<g id="node8" class="node">
<title>7</title>
<ellipse fill="none" stroke="black" cx="84.5" cy="-274.5" rx="14.5" ry="14.5"/>
<text text-anchor="middle" x="84.5" y="-270.8" font-family="Times New Roman,serif" font-size="14.00">7</text>
</g>
<!-- 2&#45;&gt;7 -->
<g id="edge5" class="edge">
<title>2&#45;&gt;7</title>
<path fill="none" stroke="black" d="M123.31,-327.53C116.59,-318.51 106.9,-305.53 98.89,-294.79"/>
<polygon fill="black" stroke="black" points="101.69,-292.69 92.91,-286.77 96.08,-296.88 101.69,-292.69"/>
</g>
<!-- 11 -->
<g id="node15" class="node">
<title>11</title>
<ellipse fill="none" stroke="black" cx="131.5" cy="-274.5" rx="14.5" ry="14.5"/>
<text text-anchor="middle" x="131.5" y="-270.8" font-family="Times New Roman,serif" font-size="14.00">11</text>
</g>
<!-- 2&#45;&gt;11 -->
<g id="edge13" class="edge">
<title>2&#45;&gt;11</title>
<path fill="none" stroke="black" d="M131.5,-324.83C131.5,-317.4 131.5,-308 131.5,-299.4"/>
<polygon fill="black" stroke="black" points="135,-299.14 131.5,-289.14 128,-299.14 135,-299.14"/>
</g>
<!-- 3 -->
<g id="node4" class="node">
<title>3</title>
<ellipse fill="none" stroke="black" cx="84.5" cy="-339.5" rx="14.5" ry="14.5"/>
<text text-anchor="middle" x="84.5" y="-335.8" font-family="Times New Roman,serif" font-size="14.00">w</text>
</g>
<!-- 14 -->
<g id="node12" class="node">
<title>14</title>
<ellipse fill="none" stroke="black" cx="37.5" cy="-274.5" rx="14.5" ry="14.5"/>
<text text-anchor="middle" x="37.5" y="-270.8" font-family="Times New Roman,serif" font-size="14.00">14</text>
</g>
<!-- 3&#45;&gt;14 -->
<g id="edge18" class="edge">
<title>3&#45;&gt;14</title>
<path fill="none" stroke="black" d="M76.31,-327.53C69.59,-318.51 59.9,-305.53 51.89,-294.79"/>
<polygon fill="black" stroke="black" points="54.69,-292.69 45.91,-286.77 49.08,-296.88 54.69,-292.69"/>
</g>
<!-- 3&#45;&gt;11 -->
<g id="edge14" class="edge">
<title>3&#45;&gt;11</title>
<path fill="none" stroke="black" d="M92.69,-327.53C99.41,-318.51 109.1,-305.53 117.11,-294.79"/>
<polygon fill="black" stroke="black" points="119.92,-296.88 123.09,-286.77 114.31,-292.69 119.92,-296.88"/>
</g>
<!-- 16 -->
<g id="node5" class="node">
<title>16</title>
<ellipse fill="none" stroke="black" cx="105.5" cy="-14.5" rx="14.5" ry="14.5"/>
<text text-anchor="middle" x="105.5" y="-10.8" font-family="Times New Roman,serif" font-size="14.00">out</text>
</g>
<!-- 4&#45;&gt;6 -->
<g id="edge4" class="edge">
<title>4&#45;&gt;6</title>
<path fill="none" stroke="black" d="M33.64,-455.75C30.59,-447.72 26.55,-437.14 22.98,-427.76"/>
<polygon fill="black" stroke="black" points="26.18,-426.33 19.35,-418.23 19.64,-428.82 26.18,-426.33"/>
</g>
<!-- 4&#45;&gt;13 -->
<g id="edge15" class="edge">
<title>4&#45;&gt;13</title>
<path fill="none" stroke="black" d="M43.15,-455.75C46.05,-447.83 49.85,-437.42 53.24,-428.13"/>
<polygon fill="black" stroke="black" points="56.55,-429.26 56.69,-418.66 49.98,-426.86 56.55,-429.26"/>
</g>
<!-- 10 -->
<g id="node9" class="node">
<title>10</title>
<ellipse fill="none" stroke="black" cx="37.5" cy="-339.5" rx="14.5" ry="14.5"/>
<text text-anchor="middle" x="37.5" y="-335.8" font-family="Times New Roman,serif" font-size="14.00">10</text>
</g>
<!-- 6&#45;&gt;10 -->
<g id="edge12" class="edge">
<title>6&#45;&gt;10</title>
<path fill="none" stroke="black" d="M19.15,-390.75C22.05,-382.83 25.85,-372.42 29.24,-363.13"/>
<polygon fill="black" stroke="black" points="32.55,-364.26 32.69,-353.66 25.98,-361.86 32.55,-364.26"/>
</g>
<!-- 9 -->
<g id="node13" class="node">
<title>9</title>
<ellipse fill="none" stroke="black" cx="84.5" cy="-209.5" rx="14.5" ry="14.5"/>
<text text-anchor="middle" x="84.5" y="-205.8" font-family="Times New Roman,serif" font-size="14.00">9</text>
</g>
<!-- 7&#45;&gt;9 -->
<g id="edge10" class="edge">
<title>7&#45;&gt;9</title>
<path fill="none" stroke="black" d="M84.5,-259.83C84.5,-252.4 84.5,-243 84.5,-234.4"/>
<polygon fill="black" stroke="black" points="88,-234.14 84.5,-224.14 81,-234.14 88,-234.14"/>
</g>
<!-- 10&#45;&gt;7 -->
<g id="edge6" class="edge">
<title>10&#45;&gt;7</title>
<path fill="none" stroke="black" d="M45.69,-327.53C52.41,-318.51 62.1,-305.53 70.11,-294.79"/>
<polygon fill="black" stroke="black" points="72.92,-296.88 76.09,-286.77 67.31,-292.69 72.92,-296.88"/>
</g>
<!-- 10&#45;&gt;14 -->
<g id="edge17" class="edge">
<title>10&#45;&gt;14</title>
<path fill="none" stroke="black" d="M37.5,-324.83C37.5,-317.4 37.5,-308 37.5,-299.4"/>
<polygon fill="black" stroke="black" points="41,-299.14 37.5,-289.14 34,-299.14 41,-299.14"/>
</g>
<!-- 15 -->
<g id="node10" class="node">
<title>15</title>
<ellipse fill="none" stroke="black" cx="105.5" cy="-144.5" rx="14.5" ry="14.5"/>
<text text-anchor="middle" x="105.5" y="-140.8" font-family="Times New Roman,serif" font-size="14.00">15</text>
</g>
<!-- 8 -->
<g id="node11" class="node">
<title>8</title>
<ellipse fill="none" stroke="black" cx="105.5" cy="-79.5" rx="14.5" ry="14.5"/>
<text text-anchor="middle" x="105.5" y="-75.8" font-family="Times New Roman,serif" font-size="14.00">8</text>
</g>
<!-- 15&#45;&gt;8 -->
<g id="edge7" class="edge">
<title>15&#45;&gt;8</title>
<path fill="none" stroke="black" d="M100,-131.05C98.79,-123.03 98.46,-112.36 99.01,-102.89"/>
<polygon fill="black" stroke="black" points="102.49,-103.22 100,-92.92 95.53,-102.52 102.49,-103.22"/>
</g>
<!-- 15&#45;&gt;8 -->
<g id="edge8" class="edge">
<title>15&#45;&gt;8</title>
<path fill="none" stroke="black" d="M111,-131.05C112.21,-123.03 112.54,-112.36 111.99,-102.89"/>
<polygon fill="black" stroke="black" points="115.47,-102.52 111,-92.92 108.51,-103.22 115.47,-102.52"/>
</g>
<!-- 8&#45;&gt;16 -->
<g id="edge21" class="edge">
<title>8&#45;&gt;16</title>
<path fill="none" stroke="black" d="M105.5,-64.83C105.5,-57.4 105.5,-48 105.5,-39.4"/>
<polygon fill="black" stroke="black" points="109,-39.14 105.5,-29.14 102,-39.14 109,-39.14"/>
</g>
<!-- 14&#45;&gt;9 -->
<g id="edge9" class="edge">
<title>14&#45;&gt;9</title>
<path fill="none" stroke="black" d="M45.69,-262.53C52.41,-253.51 62.1,-240.53 70.11,-229.79"/>
<polygon fill="black" stroke="black" points="72.92,-231.88 76.09,-221.77 67.31,-227.69 72.92,-231.88"/>
</g>
<!-- 9&#45;&gt;15 -->
<g id="edge20" class="edge">
<title>9&#45;&gt;15</title>
<path fill="none" stroke="black" d="M88.85,-195.45C91.47,-187.59 94.88,-177.37 97.93,-168.22"/>
<polygon fill="black" stroke="black" points="101.31,-169.13 101.15,-158.54 94.67,-166.92 101.31,-169.13"/>
</g>
<!-- 13&#45;&gt;10 -->
<g id="edge11" class="edge">
<title>13&#45;&gt;10</title>
<path fill="none" stroke="black" d="M56.64,-390.75C53.59,-382.72 49.55,-372.14 45.98,-362.76"/>
<polygon fill="black" stroke="black" points="49.18,-361.33 42.35,-353.23 42.64,-363.82 49.18,-361.33"/>
</g>
<!-- 11&#45;&gt;15 -->
<g id="edge19" class="edge">
<title>11&#45;&gt;15</title>
<path fill="none" stroke="black" d="M128.72,-259.8C124.32,-238.15 115.71,-195.74 110.3,-169.11"/>
<polygon fill="black" stroke="black" points="113.68,-168.2 108.26,-159.1 106.82,-169.6 113.68,-168.2"/>
</g>
</g>
</svg>
