<?xml version="1.0" encoding="UTF-8" standalone="no"?>
<!DOCTYPE svg PUBLIC "-//W3C//DTD SVG 1.1//EN"
 "http://www.w3.org/Graphics/SVG/1.1/DTD/svg11.dtd">
<!-- Generated by graphviz version 2.50.0 (0)
 -->
<!-- Title: MVGSimpleG2_3 Pages: 1 -->
<svg width="256pt" height="427pt"
 viewBox="0.00 0.00 256.00 427.00" xmlns="http://www.w3.org/2000/svg" xmlns:xlink="http://www.w3.org/1999/xlink">
<g id="graph0" class="graph" transform="scale(1 1) rotate(0) translate(4 423)">
<title>MVGSimpleG2_3</title>
<polygon fill="white" stroke="transparent" points="-4,4 -4,-423 252,-423 252,4 -4,4"/>
<!-- 0 -->
<g id="node1" class="node">
<title>0</title>
<ellipse fill="none" stroke="black" cx="24.5" cy="-404.5" rx="14.5" ry="14.5"/>
<text text-anchor="middle" x="24.5" y="-400.8" font-family="Times New Roman,serif" font-size="14.00">x</text>
</g>
<!-- 13 -->
<g id="node8" class="node">
<title>13</title>
<ellipse fill="none" stroke="black" cx="14.5" cy="-274.5" rx="14.5" ry="14.5"/>
<text text-anchor="middle" x="14.5" y="-270.8" font-family="Times New Roman,serif" font-size="14.00">13</text>
</g>
<!-- 0&#45;&gt;13 -->
<g id="edge18" class="edge">
<title>0&#45;&gt;13</title>
<path fill="none" stroke="black" d="M23.43,-389.8C21.74,-368.15 18.43,-325.74 16.34,-299.11"/>
<polygon fill="black" stroke="black" points="19.83,-298.8 15.56,-289.1 12.85,-299.34 19.83,-298.8"/>
</g>
<!-- 10 -->
<g id="node11" class="node">
<title>10</title>
<ellipse fill="none" stroke="black" cx="57.5" cy="-339.5" rx="14.5" ry="14.5"/>
<text text-anchor="middle" x="57.5" y="-335.8" font-family="Times New Roman,serif" font-size="14.00">10</text>
</g>
<!-- 0&#45;&gt;10 -->
<g id="edge12" class="edge">
<title>0&#45;&gt;10</title>
<path fill="none" stroke="black" d="M30.86,-391.35C35.29,-382.9 41.31,-371.41 46.51,-361.49"/>
<polygon fill="black" stroke="black" points="49.62,-363.09 51.16,-352.61 43.42,-359.84 49.62,-363.09"/>
</g>
<!-- 1 -->
<g id="node2" class="node">
<title>1</title>
<ellipse fill="none" stroke="black" cx="90.5" cy="-404.5" rx="14.5" ry="14.5"/>
<text text-anchor="middle" x="90.5" y="-400.8" font-family="Times New Roman,serif" font-size="14.00">y</text>
</g>
<!-- 7 -->
<g id="node10" class="node">
<title>7</title>
<ellipse fill="none" stroke="black" cx="100.5" cy="-274.5" rx="14.5" ry="14.5"/>
<text text-anchor="middle" x="100.5" y="-270.8" font-family="Times New Roman,serif" font-size="14.00">7</text>
</g>
<!-- 1&#45;&gt;7 -->
<g id="edge6" class="edge">
<title>1&#45;&gt;7</title>
<path fill="none" stroke="black" d="M91.57,-389.8C93.26,-368.15 96.57,-325.74 98.66,-299.11"/>
<polygon fill="black" stroke="black" points="102.15,-299.34 99.44,-289.1 95.17,-298.8 102.15,-299.34"/>
</g>
<!-- 1&#45;&gt;10 -->
<g id="edge11" class="edge">
<title>1&#45;&gt;10</title>
<path fill="none" stroke="black" d="M84.14,-391.35C79.71,-382.9 73.69,-371.41 68.49,-361.49"/>
<polygon fill="black" stroke="black" points="71.58,-359.84 63.84,-352.61 65.38,-363.09 71.58,-359.84"/>
</g>
<!-- 2 -->
<g id="node3" class="node">
<title>2</title>
<ellipse fill="none" stroke="black" cx="157.5" cy="-404.5" rx="14.5" ry="14.5"/>
<text text-anchor="middle" x="157.5" y="-400.8" font-family="Times New Roman,serif" font-size="14.00">z</text>
</g>
<!-- 9 -->
<g id="node6" class="node">
<title>9</title>
<ellipse fill="none" stroke="black" cx="190.5" cy="-339.5" rx="14.5" ry="14.5"/>
<text text-anchor="middle" x="190.5" y="-335.8" font-family="Times New Roman,serif" font-size="14.00">9</text>
</g>
<!-- 2&#45;&gt;9 -->
<g id="edge9" class="edge">
<title>2&#45;&gt;9</title>
<path fill="none" stroke="black" d="M163.86,-391.35C168.29,-382.9 174.31,-371.41 179.51,-361.49"/>
<polygon fill="black" stroke="black" points="182.62,-363.09 184.16,-352.61 176.42,-359.84 182.62,-363.09"/>
</g>
<!-- 15 -->
<g id="node16" class="node">
<title>15</title>
<ellipse fill="none" stroke="black" cx="147.5" cy="-274.5" rx="14.5" ry="14.5"/>
<text text-anchor="middle" x="147.5" y="-270.8" font-family="Times New Roman,serif" font-size="14.00">15</text>
</g>
<!-- 2&#45;&gt;15 -->
<g id="edge22" class="edge">
<title>2&#45;&gt;15</title>
<path fill="none" stroke="black" d="M156.43,-389.8C154.74,-368.15 151.43,-325.74 149.34,-299.11"/>
<polygon fill="black" stroke="black" points="152.83,-298.8 148.56,-289.1 145.85,-299.34 152.83,-298.8"/>
</g>
<!-- 3 -->
<g id="node4" class="node">
<title>3</title>
<ellipse fill="none" stroke="black" cx="223.5" cy="-404.5" rx="14.5" ry="14.5"/>
<text text-anchor="middle" x="223.5" y="-400.8" font-family="Times New Roman,serif" font-size="14.00">w</text>
</g>
<!-- 3&#45;&gt;9 -->
<g id="edge10" class="edge">
<title>3&#45;&gt;9</title>
<path fill="none" stroke="black" d="M217.14,-391.35C212.71,-382.9 206.69,-371.41 201.49,-361.49"/>
<polygon fill="black" stroke="black" points="204.58,-359.84 196.84,-352.61 198.38,-363.09 204.58,-359.84"/>
</g>
<!-- 5 -->
<g id="node7" class="node">
<title>5</title>
<ellipse fill="none" stroke="black" cx="233.5" cy="-274.5" rx="14.5" ry="14.5"/>
<text text-anchor="middle" x="233.5" y="-270.8" font-family="Times New Roman,serif" font-size="14.00">5</text>
</g>
<!-- 3&#45;&gt;5 -->
<g id="edge2" class="edge">
<title>3&#45;&gt;5</title>
<path fill="none" stroke="black" d="M224.57,-389.8C226.26,-368.15 229.57,-325.74 231.66,-299.11"/>
<polygon fill="black" stroke="black" points="235.15,-299.34 232.44,-289.1 228.17,-298.8 235.15,-299.34"/>
</g>
<!-- 16 -->
<g id="node5" class="node">
<title>16</title>
<ellipse fill="none" stroke="black" cx="123.5" cy="-14.5" rx="14.5" ry="14.5"/>
<text text-anchor="middle" x="123.5" y="-10.8" font-family="Times New Roman,serif" font-size="14.00">out</text>
</g>
<!-- 9&#45;&gt;5 -->
<g id="edge1" class="edge">
<title>9&#45;&gt;5</title>
<path fill="none" stroke="black" d="M198.39,-326.94C204.39,-318.15 212.79,-305.84 219.87,-295.46"/>
<polygon fill="black" stroke="black" points="222.92,-297.21 225.66,-286.98 217.13,-293.27 222.92,-297.21"/>
</g>
<!-- 12 -->
<g id="node14" class="node">
<title>12</title>
<ellipse fill="none" stroke="black" cx="147.5" cy="-144.5" rx="14.5" ry="14.5"/>
<text text-anchor="middle" x="147.5" y="-140.8" font-family="Times New Roman,serif" font-size="14.00">12</text>
</g>
<!-- 9&#45;&gt;12 -->
<g id="edge16" class="edge">
<title>9&#45;&gt;12</title>
<path fill="none" stroke="black" d="M190.13,-324.74C189.12,-298.83 185.37,-241.21 171.5,-195 168.55,-185.16 163.84,-174.86 159.38,-166.21"/>
<polygon fill="black" stroke="black" points="162.38,-164.4 154.54,-157.27 156.22,-167.73 162.38,-164.4"/>
</g>
<!-- 9&#45;&gt;15 -->
<g id="edge21" class="edge">
<title>9&#45;&gt;15</title>
<path fill="none" stroke="black" d="M182.61,-326.94C176.61,-318.15 168.21,-305.84 161.13,-295.46"/>
<polygon fill="black" stroke="black" points="163.87,-293.27 155.34,-286.98 158.08,-297.21 163.87,-293.27"/>
</g>
<!-- 11 -->
<g id="node15" class="node">
<title>11</title>
<ellipse fill="none" stroke="black" cx="147.5" cy="-209.5" rx="14.5" ry="14.5"/>
<text text-anchor="middle" x="147.5" y="-205.8" font-family="Times New Roman,serif" font-size="14.00">11</text>
</g>
<!-- 5&#45;&gt;11 -->
<g id="edge13" class="edge">
<title>5&#45;&gt;11</title>
<path fill="none" stroke="black" d="M222.26,-265.26C208.22,-254.98 183.99,-237.23 166.92,-224.73"/>
<polygon fill="black" stroke="black" points="168.88,-221.82 158.75,-218.74 164.74,-227.47 168.88,-221.82"/>
</g>
<!-- 6 -->
<g id="node9" class="node">
<title>6</title>
<ellipse fill="none" stroke="black" cx="100.5" cy="-209.5" rx="14.5" ry="14.5"/>
<text text-anchor="middle" x="100.5" y="-205.8" font-family="Times New Roman,serif" font-size="14.00">6</text>
</g>
<!-- 13&#45;&gt;6 -->
<g id="edge3" class="edge">
<title>13&#45;&gt;6</title>
<path fill="none" stroke="black" d="M25.74,-265.26C39.78,-254.98 64.01,-237.23 81.08,-224.73"/>
<polygon fill="black" stroke="black" points="83.26,-227.47 89.25,-218.74 79.12,-221.82 83.26,-227.47"/>
</g>
<!-- 14 -->
<g id="node12" class="node">
<title>14</title>
<ellipse fill="none" stroke="black" cx="100.5" cy="-144.5" rx="14.5" ry="14.5"/>
<text text-anchor="middle" x="100.5" y="-140.8" font-family="Times New Roman,serif" font-size="14.00">14</text>
</g>
<!-- 6&#45;&gt;14 -->
<g id="edge20" class="edge">
<title>6&#45;&gt;14</title>
<path fill="none" stroke="black" d="M100.5,-194.83C100.5,-187.4 100.5,-178 100.5,-169.4"/>
<polygon fill="black" stroke="black" points="104,-169.14 100.5,-159.14 97,-169.14 104,-169.14"/>
</g>
<!-- 7&#45;&gt;6 -->
<g id="edge4" class="edge">
<title>7&#45;&gt;6</title>
<path fill="none" stroke="black" d="M100.5,-259.83C100.5,-252.4 100.5,-243 100.5,-234.4"/>
<polygon fill="black" stroke="black" points="104,-234.14 100.5,-224.14 97,-234.14 104,-234.14"/>
</g>
<!-- 10&#45;&gt;13 -->
<g id="edge17" class="edge">
<title>10&#45;&gt;13</title>
<path fill="none" stroke="black" d="M49.61,-326.94C43.61,-318.15 35.21,-305.84 28.13,-295.46"/>
<polygon fill="black" stroke="black" points="30.87,-293.27 22.34,-286.98 25.08,-297.21 30.87,-293.27"/>
</g>
<!-- 10&#45;&gt;7 -->
<g id="edge5" class="edge">
<title>10&#45;&gt;7</title>
<path fill="none" stroke="black" d="M65.39,-326.94C71.39,-318.15 79.79,-305.84 86.87,-295.46"/>
<polygon fill="black" stroke="black" points="89.92,-297.21 92.66,-286.98 84.13,-293.27 89.92,-297.21"/>
</g>
<!-- 10&#45;&gt;14 -->
<g id="edge19" class="edge">
<title>10&#45;&gt;14</title>
<path fill="none" stroke="black" d="M58.06,-324.76C59.42,-298.88 63.84,-241.32 77.5,-195 80.34,-185.36 84.78,-175.21 89,-166.63"/>
<polygon fill="black" stroke="black" points="92.12,-168.21 93.58,-157.71 85.89,-165.01 92.12,-168.21"/>
</g>
<!-- 8 -->
<g id="node13" class="node">
<title>8</title>
<ellipse fill="none" stroke="black" cx="123.5" cy="-79.5" rx="14.5" ry="14.5"/>
<text text-anchor="middle" x="123.5" y="-75.8" font-family="Times New Roman,serif" font-size="14.00">8</text>
</g>
<!-- 14&#45;&gt;8 -->
<g id="edge7" class="edge">
<title>14&#45;&gt;8</title>
<path fill="none" stroke="black" d="M105.15,-130.75C108.05,-122.83 111.85,-112.42 115.24,-103.13"/>
<polygon fill="black" stroke="black" points="118.55,-104.26 118.69,-93.66 111.98,-101.86 118.55,-104.26"/>
</g>
<!-- 8&#45;&gt;16 -->
<g id="edge23" class="edge">
<title>8&#45;&gt;16</title>
<path fill="none" stroke="black" d="M123.5,-64.83C123.5,-57.4 123.5,-48 123.5,-39.4"/>
<polygon fill="black" stroke="black" points="127,-39.14 123.5,-29.14 120,-39.14 127,-39.14"/>
</g>
<!-- 12&#45;&gt;8 -->
<g id="edge8" class="edge">
<title>12&#45;&gt;8</title>
<path fill="none" stroke="black" d="M142.64,-130.75C139.59,-122.72 135.55,-112.14 131.98,-102.76"/>
<polygon fill="black" stroke="black" points="135.18,-101.33 128.35,-93.23 128.64,-103.82 135.18,-101.33"/>
</g>
<!-- 11&#45;&gt;12 -->
<g id="edge15" class="edge">
<title>11&#45;&gt;12</title>
<path fill="none" stroke="black" d="M147.5,-194.83C147.5,-187.4 147.5,-178 147.5,-169.4"/>
<polygon fill="black" stroke="black" points="151,-169.14 147.5,-159.14 144,-169.14 151,-169.14"/>
</g>
<!-- 15&#45;&gt;11 -->
<g id="edge14" class="edge">
<title>15&#45;&gt;11</title>
<path fill="none" stroke="black" d="M147.5,-259.83C147.5,-252.4 147.5,-243 147.5,-234.4"/>
<polygon fill="black" stroke="black" points="151,-234.14 147.5,-224.14 144,-234.14 151,-234.14"/>
</g>
</g>
</svg>
