<?xml version="1.0" encoding="UTF-8" standalone="no"?>
<!DOCTYPE svg PUBLIC "-//W3C//DTD SVG 1.1//EN"
 "http://www.w3.org/Graphics/SVG/1.1/DTD/svg11.dtd">
<!-- Generated by graphviz version 2.50.0 (0)
 -->
<!-- Title: MVGSimpleG2_6 Pages: 1 -->
<svg width="210pt" height="687pt"
 viewBox="0.00 0.00 210.00 687.00" xmlns="http://www.w3.org/2000/svg" xmlns:xlink="http://www.w3.org/1999/xlink">
<g id="graph0" class="graph" transform="scale(1 1) rotate(0) translate(4 683)">
<title>MVGSimpleG2_6</title>
<polygon fill="white" stroke="transparent" points="-4,4 -4,-683 206,-683 206,4 -4,4"/>
<!-- 0 -->
<g id="node1" class="node">
<title>0</title>
<ellipse fill="none" stroke="black" cx="90.5" cy="-664.5" rx="14.5" ry="14.5"/>
<text text-anchor="middle" x="90.5" y="-660.8" font-family="Times New Roman,serif" font-size="14.00">x</text>
</g>
<!-- 15 -->
<g id="node6" class="node">
<title>15</title>
<ellipse fill="none" stroke="black" cx="100.5" cy="-534.5" rx="14.5" ry="14.5"/>
<text text-anchor="middle" x="100.5" y="-530.8" font-family="Times New Roman,serif" font-size="14.00">15</text>
</g>
<!-- 0&#45;&gt;15 -->
<g id="edge22" class="edge">
<title>0&#45;&gt;15</title>
<path fill="none" stroke="black" d="M91.57,-649.8C93.26,-628.15 96.57,-585.74 98.66,-559.11"/>
<polygon fill="black" stroke="black" points="102.15,-559.34 99.44,-549.1 95.17,-558.8 102.15,-559.34"/>
</g>
<!-- 13 -->
<g id="node10" class="node">
<title>13</title>
<ellipse fill="none" stroke="black" cx="57.5" cy="-599.5" rx="14.5" ry="14.5"/>
<text text-anchor="middle" x="57.5" y="-595.8" font-family="Times New Roman,serif" font-size="14.00">13</text>
</g>
<!-- 0&#45;&gt;13 -->
<g id="edge17" class="edge">
<title>0&#45;&gt;13</title>
<path fill="none" stroke="black" d="M84.14,-651.35C79.71,-642.9 73.69,-631.41 68.49,-621.49"/>
<polygon fill="black" stroke="black" points="71.58,-619.84 63.84,-612.61 65.38,-623.09 71.58,-619.84"/>
</g>
<!-- 1 -->
<g id="node2" class="node">
<title>1</title>
<ellipse fill="none" stroke="black" cx="33.5" cy="-664.5" rx="14.5" ry="14.5"/>
<text text-anchor="middle" x="33.5" y="-660.8" font-family="Times New Roman,serif" font-size="14.00">y</text>
</g>
<!-- 7 -->
<g id="node8" class="node">
<title>7</title>
<ellipse fill="none" stroke="black" cx="14.5" cy="-534.5" rx="14.5" ry="14.5"/>
<text text-anchor="middle" x="14.5" y="-530.8" font-family="Times New Roman,serif" font-size="14.00">7</text>
</g>
<!-- 1&#45;&gt;7 -->
<g id="edge5" class="edge">
<title>1&#45;&gt;7</title>
<path fill="none" stroke="black" d="M31.47,-649.8C28.25,-628.15 21.96,-585.74 18.01,-559.11"/>
<polygon fill="black" stroke="black" points="21.45,-558.48 16.52,-549.1 14.53,-559.51 21.45,-558.48"/>
</g>
<!-- 1&#45;&gt;13 -->
<g id="edge18" class="edge">
<title>1&#45;&gt;13</title>
<path fill="none" stroke="black" d="M38.36,-650.75C41.41,-642.72 45.45,-632.14 49.02,-622.76"/>
<polygon fill="black" stroke="black" points="52.36,-623.82 52.65,-613.23 45.82,-621.33 52.36,-623.82"/>
</g>
<!-- 2 -->
<g id="node3" class="node">
<title>2</title>
<ellipse fill="none" stroke="black" cx="147.5" cy="-339.5" rx="14.5" ry="14.5"/>
<text text-anchor="middle" x="147.5" y="-335.8" font-family="Times New Roman,serif" font-size="14.00">z</text>
</g>
<!-- 5 -->
<g id="node9" class="node">
<title>5</title>
<ellipse fill="none" stroke="black" cx="187.5" cy="-274.5" rx="14.5" ry="14.5"/>
<text text-anchor="middle" x="187.5" y="-270.8" font-family="Times New Roman,serif" font-size="14.00">5</text>
</g>
<!-- 2&#45;&gt;5 -->
<g id="edge3" class="edge">
<title>2&#45;&gt;5</title>
<path fill="none" stroke="black" d="M154.84,-326.94C160.35,-318.26 168.04,-306.15 174.58,-295.85"/>
<polygon fill="black" stroke="black" points="177.53,-297.73 179.94,-287.41 171.62,-293.98 177.53,-297.73"/>
</g>
<!-- 9 -->
<g id="node13" class="node">
<title>9</title>
<ellipse fill="none" stroke="black" cx="140.5" cy="-274.5" rx="14.5" ry="14.5"/>
<text text-anchor="middle" x="140.5" y="-270.8" font-family="Times New Roman,serif" font-size="14.00">9</text>
</g>
<!-- 2&#45;&gt;9 -->
<g id="edge10" class="edge">
<title>2&#45;&gt;9</title>
<path fill="none" stroke="black" d="M145.98,-324.83C145.15,-317.32 144.09,-307.79 143.12,-299.11"/>
<polygon fill="black" stroke="black" points="146.6,-298.7 142.02,-289.14 139.64,-299.47 146.6,-298.7"/>
</g>
<!-- 3 -->
<g id="node4" class="node">
<title>3</title>
<ellipse fill="none" stroke="black" cx="157.5" cy="-404.5" rx="14.5" ry="14.5"/>
<text text-anchor="middle" x="157.5" y="-400.8" font-family="Times New Roman,serif" font-size="14.00">w</text>
</g>
<!-- 3&#45;&gt;5 -->
<g id="edge4" class="edge">
<title>3&#45;&gt;5</title>
<path fill="none" stroke="black" d="M161.45,-390.54C164.41,-380.6 168.46,-366.5 171.5,-354 175.98,-335.55 180.23,-314.46 183.23,-298.79"/>
<polygon fill="black" stroke="black" points="186.68,-299.38 185.08,-288.9 179.8,-298.08 186.68,-299.38"/>
</g>
<!-- 14 -->
<g id="node12" class="node">
<title>14</title>
<ellipse fill="none" stroke="black" cx="100.5" cy="-339.5" rx="14.5" ry="14.5"/>
<text text-anchor="middle" x="100.5" y="-335.8" font-family="Times New Roman,serif" font-size="14.00">14</text>
</g>
<!-- 3&#45;&gt;14 -->
<g id="edge20" class="edge">
<title>3&#45;&gt;14</title>
<path fill="none" stroke="black" d="M148.09,-393.1C139.54,-383.65 126.75,-369.51 116.58,-358.27"/>
<polygon fill="black" stroke="black" points="119.04,-355.78 109.74,-350.71 113.85,-360.47 119.04,-355.78"/>
</g>
<!-- 16 -->
<g id="node5" class="node">
<title>16</title>
<ellipse fill="none" stroke="black" cx="78.5" cy="-14.5" rx="14.5" ry="14.5"/>
<text text-anchor="middle" x="78.5" y="-10.8" font-family="Times New Roman,serif" font-size="14.00">out</text>
</g>
<!-- 4 -->
<g id="node7" class="node">
<title>4</title>
<ellipse fill="none" stroke="black" cx="100.5" cy="-469.5" rx="14.5" ry="14.5"/>
<text text-anchor="middle" x="100.5" y="-465.8" font-family="Times New Roman,serif" font-size="14.00">4</text>
</g>
<!-- 15&#45;&gt;4 -->
<g id="edge1" class="edge">
<title>15&#45;&gt;4</title>
<path fill="none" stroke="black" d="M100.5,-519.83C100.5,-512.4 100.5,-503 100.5,-494.4"/>
<polygon fill="black" stroke="black" points="104,-494.14 100.5,-484.14 97,-494.14 104,-494.14"/>
</g>
<!-- 8 -->
<g id="node11" class="node">
<title>8</title>
<ellipse fill="none" stroke="black" cx="78.5" cy="-404.5" rx="14.5" ry="14.5"/>
<text text-anchor="middle" x="78.5" y="-400.8" font-family="Times New Roman,serif" font-size="14.00">8</text>
</g>
<!-- 4&#45;&gt;8 -->
<g id="edge8" class="edge">
<title>4&#45;&gt;8</title>
<path fill="none" stroke="black" d="M95.94,-455.45C93.2,-447.59 89.63,-437.37 86.44,-428.22"/>
<polygon fill="black" stroke="black" points="89.65,-426.82 83.05,-418.54 83.05,-429.13 89.65,-426.82"/>
</g>
<!-- 7&#45;&gt;4 -->
<g id="edge2" class="edge">
<title>7&#45;&gt;4</title>
<path fill="none" stroke="black" d="M25.74,-525.26C39.78,-514.98 64.01,-497.23 81.08,-484.73"/>
<polygon fill="black" stroke="black" points="83.26,-487.47 89.25,-478.74 79.12,-481.82 83.26,-487.47"/>
</g>
<!-- 11 -->
<g id="node15" class="node">
<title>11</title>
<ellipse fill="none" stroke="black" cx="119.5" cy="-144.5" rx="14.5" ry="14.5"/>
<text text-anchor="middle" x="119.5" y="-140.8" font-family="Times New Roman,serif" font-size="14.00">11</text>
</g>
<!-- 5&#45;&gt;11 -->
<g id="edge14" class="edge">
<title>5&#45;&gt;11</title>
<path fill="none" stroke="black" d="M180.98,-261.23C169.37,-239.38 145.01,-193.52 130.68,-166.55"/>
<polygon fill="black" stroke="black" points="133.68,-164.74 125.9,-157.55 127.5,-168.02 133.68,-164.74"/>
</g>
<!-- 13&#45;&gt;15 -->
<g id="edge21" class="edge">
<title>13&#45;&gt;15</title>
<path fill="none" stroke="black" d="M65.39,-586.94C71.39,-578.15 79.79,-565.84 86.87,-555.46"/>
<polygon fill="black" stroke="black" points="89.92,-557.21 92.66,-546.98 84.13,-553.27 89.92,-557.21"/>
</g>
<!-- 13&#45;&gt;7 -->
<g id="edge6" class="edge">
<title>13&#45;&gt;7</title>
<path fill="none" stroke="black" d="M49.61,-586.94C43.61,-578.15 35.21,-565.84 28.13,-555.46"/>
<polygon fill="black" stroke="black" points="30.87,-553.27 22.34,-546.98 25.08,-557.21 30.87,-553.27"/>
</g>
<!-- 13&#45;&gt;8 -->
<g id="edge7" class="edge">
<title>13&#45;&gt;8</title>
<path fill="none" stroke="black" d="M58.98,-584.93C62.51,-552.47 71.48,-470.02 75.92,-429.17"/>
<polygon fill="black" stroke="black" points="79.42,-429.38 77.02,-419.06 72.46,-428.62 79.42,-429.38"/>
</g>
<!-- 8&#45;&gt;14 -->
<g id="edge19" class="edge">
<title>8&#45;&gt;14</title>
<path fill="none" stroke="black" d="M83.06,-390.45C85.8,-382.59 89.37,-372.37 92.56,-363.22"/>
<polygon fill="black" stroke="black" points="95.95,-364.13 95.95,-353.54 89.35,-361.82 95.95,-364.13"/>
</g>
<!-- 10 -->
<g id="node14" class="node">
<title>10</title>
<ellipse fill="none" stroke="black" cx="78.5" cy="-79.5" rx="14.5" ry="14.5"/>
<text text-anchor="middle" x="78.5" y="-75.8" font-family="Times New Roman,serif" font-size="14.00">10</text>
</g>
<!-- 8&#45;&gt;10 -->
<g id="edge11" class="edge">
<title>8&#45;&gt;10</title>
<path fill="none" stroke="black" d="M74.84,-390.17C68.83,-367.02 57.5,-317.84 57.5,-275.5 57.5,-275.5 57.5,-275.5 57.5,-208.5 57.5,-171.46 66.17,-129.17 72.37,-103.67"/>
<polygon fill="black" stroke="black" points="75.8,-104.39 74.84,-93.83 69.01,-102.68 75.8,-104.39"/>
</g>
<!-- 14&#45;&gt;9 -->
<g id="edge9" class="edge">
<title>14&#45;&gt;9</title>
<path fill="none" stroke="black" d="M107.84,-326.94C113.35,-318.26 121.04,-306.15 127.58,-295.85"/>
<polygon fill="black" stroke="black" points="130.53,-297.73 132.94,-287.41 124.62,-293.98 130.53,-297.73"/>
</g>
<!-- 12 -->
<g id="node16" class="node">
<title>12</title>
<ellipse fill="none" stroke="black" cx="119.5" cy="-209.5" rx="14.5" ry="14.5"/>
<text text-anchor="middle" x="119.5" y="-205.8" font-family="Times New Roman,serif" font-size="14.00">12</text>
</g>
<!-- 14&#45;&gt;12 -->
<g id="edge15" class="edge">
<title>14&#45;&gt;12</title>
<path fill="none" stroke="black" d="M102.53,-324.8C105.75,-303.15 112.04,-260.74 115.99,-234.11"/>
<polygon fill="black" stroke="black" points="119.47,-234.51 117.48,-224.1 112.55,-233.48 119.47,-234.51"/>
</g>
<!-- 9&#45;&gt;12 -->
<g id="edge16" class="edge">
<title>9&#45;&gt;12</title>
<path fill="none" stroke="black" d="M136.15,-260.45C133.53,-252.59 130.12,-242.37 127.07,-233.22"/>
<polygon fill="black" stroke="black" points="130.33,-231.92 123.85,-223.54 123.69,-234.13 130.33,-231.92"/>
</g>
<!-- 10&#45;&gt;16 -->
<g id="edge23" class="edge">
<title>10&#45;&gt;16</title>
<path fill="none" stroke="black" d="M78.5,-64.83C78.5,-57.4 78.5,-48 78.5,-39.4"/>
<polygon fill="black" stroke="black" points="82,-39.14 78.5,-29.14 75,-39.14 82,-39.14"/>
</g>
<!-- 11&#45;&gt;10 -->
<g id="edge12" class="edge">
<title>11&#45;&gt;10</title>
<path fill="none" stroke="black" d="M111.98,-131.94C106.26,-123.15 98.24,-110.84 91.49,-100.46"/>
<polygon fill="black" stroke="black" points="94.36,-98.45 85.97,-91.98 88.49,-102.27 94.36,-98.45"/>
</g>
<!-- 12&#45;&gt;11 -->
<g id="edge13" class="edge">
<title>12&#45;&gt;11</title>
<path fill="none" stroke="black" d="M119.5,-194.83C119.5,-187.4 119.5,-178 119.5,-169.4"/>
<polygon fill="black" stroke="black" points="123,-169.14 119.5,-159.14 116,-169.14 123,-169.14"/>
</g>
</g>
</svg>
